<svg width="20" height="20" viewBox="0 0 20 20" fill="none" xmlns="http://www.w3.org/2000/svg">
<path d="M1 0C0.447715 0 0 0.447715 0 1C0 1.55228 0.447715 2 1 2V0ZM3.27148 2.26477L4.24929 2.05524V2.05524L3.27148 2.26477ZM5.72945 13.7353L4.75164 13.9448L5.72945 13.7353ZM5.99349 14.5802L5.17904 15.1604L5.99349 14.5802ZM6.41211 14.918L6.8088 14H6.8088L6.41211 14.918ZM2.5878 1.08205L2.98449 0.164097L2.5878 1.08205ZM3.00586 1.4198L3.82032 0.839575V0.839575L3.00586 1.4198ZM4 3C3.44772 3 3 3.44772 3 4C3 4.55228 3.44772 5 4 5V3ZM18.411 6.04346L19.3718 6.32062L18.411 6.04346ZM17.0264 10.8435L16.0655 10.5663H16.0655L17.0264 10.8435ZM5.73047 11C5.17818 11 4.73047 11.4477 4.73047 12C4.73047 12.5523 5.17818 13 5.73047 13V11ZM16.7256 11.6193L17.5108 12.2386L16.7256 11.6193ZM16.3171 11.926L16.6945 12.8521L16.3171 11.926ZM18.1979 4.15036L17.6706 5L18.1979 4.15036ZM18.6329 4.72876L19.5954 4.45755L18.6329 4.72876ZM15 18C14.4477 18 14 17.5523 14 17H12C12 18.6569 13.3431 20 15 20V18ZM14 17C14 16.4477 14.4477 16 15 16V14C13.3431 14 12 15.3431 12 17H14ZM15 16C15.5523 16 16 16.4477 16 17H18C18 15.3431 16.6569 14 15 14V16ZM16 17C16 17.5523 15.5523 18 15 18V20C16.6569 20 18 18.6569 18 17H16ZM6 18C5.44772 18 5 17.5523 5 17H3C3 18.6569 4.34315 20 6 20V18ZM5 17C5 16.4477 5.44772 16 6 16V14C4.34315 14 3 15.3431 3 17H5ZM6 16C6.55228 16 7 16.4477 7 17H9C9 15.3431 7.65685 14 6 14V16ZM7 17C7 17.5523 6.55228 18 6 18V20C7.65685 20 9 18.6569 9 17H7ZM1 2H1.70653V0H1V2ZM2.29368 2.4743L4.75164 13.9448L6.70725 13.5257L4.24929 2.05524L2.29368 2.4743ZM7.29395 16H15V14H7.29395V16ZM4.75164 13.9448C4.79669 14.155 4.8411 14.3663 4.89252 14.5431C4.94754 14.7321 5.02838 14.9489 5.17904 15.1604L6.80795 14C6.8386 14.043 6.83574 14.0628 6.81289 13.9843C6.78646 13.8935 6.75885 13.7666 6.70725 13.5257L4.75164 13.9448ZM7.29395 14C7.0487 14 6.9186 13.9994 6.82477 13.9925C6.7435 13.9865 6.76135 13.9795 6.8088 14L6.01542 15.8359C6.25273 15.9385 6.48087 15.9725 6.67774 15.987C6.86205 16.0006 7.07794 16 7.29395 16V14ZM5.17904 15.1604C5.39185 15.4592 5.6823 15.692 6.01542 15.8359L6.8088 14L6.80795 14L5.17904 15.1604ZM1.70653 2C1.95179 2 2.08169 2.00063 2.17531 2.00754C2.25621 2.01351 2.23836 2.02042 2.1911 2L2.98449 0.164097C2.74738 0.0616289 2.51952 0.0275102 2.32256 0.01297C2.13833 -0.000630498 1.92253 0 1.70653 0V2ZM4.24929 2.05524C4.20387 1.8433 4.15911 1.63215 4.10686 1.45436C4.05109 1.26461 3.96979 1.04939 3.82032 0.839575L2.1914 2.00002C2.16193 1.95866 2.16512 1.94042 2.18801 2.01829C2.21441 2.10812 2.24245 2.23523 2.29368 2.4743L4.24929 2.05524ZM2.1911 2L2.1914 2.00002L3.82032 0.839575C3.60825 0.541904 3.3188 0.308569 2.98449 0.164097L2.1911 2ZM4 5H16.8732V3H4V5ZM17.4502 5.7663L16.0655 10.5663L17.9872 11.1206L19.3718 6.32062L17.4502 5.7663ZM15.4883 11H5.73047V13H15.4883V11ZM16.0655 10.5663C16.0019 10.787 15.9679 10.9028 15.9378 10.9849C15.912 11.0551 15.9108 11.0377 15.9404 11L17.5108 12.2386C17.783 11.8935 17.8923 11.4495 17.9872 11.1206L16.0655 10.5663ZM15.4883 13C15.8307 13 16.2874 13.018 16.6945 12.8521L15.9397 11C15.984 10.9819 16.0004 10.988 15.9258 10.9932C15.8387 10.9994 15.718 11 15.4883 11V13ZM15.9404 11L15.9397 11L16.6945 12.8521C17.0129 12.7223 17.2953 12.5118 17.5108 12.2386L15.9404 11ZM16.8732 5C17.2527 5 17.4707 5.00094 17.6266 5.01484C17.7759 5.02816 17.7442 5.04572 17.6706 5L18.7253 3.30072C18.4094 3.10464 18.0763 3.04702 17.8043 3.02275C17.5387 2.99906 17.2155 3 16.8732 3V5ZM19.3718 6.32062C19.4668 5.99117 19.5571 5.68087 19.6078 5.41872C19.6597 5.15021 19.696 4.81467 19.5954 4.45755L17.6704 4.99997C17.6471 4.91727 17.6725 4.89234 17.6441 5.0392C17.6145 5.19241 17.5552 5.40225 17.4502 5.7663L19.3718 6.32062ZM17.6706 5L17.6704 4.99997L19.5954 4.45755C19.4601 3.9772 19.1501 3.56436 18.7253 3.30072L17.6706 5Z" fill="white"/>
</svg>
