<svg width="60" height="56" viewBox="0 0 60 56" fill="none" xmlns="http://www.w3.org/2000/svg">
<path d="M56.7189 34.671V25.0572L57.7913 24.6108C58.8051 24.1884 58.9564 23.5509 58.9564 23.2085C58.9564 22.8661 58.8051 22.2281 57.7913 21.8062L42.2656 15.3415C41.8499 15.1781 41.4133 15.0736 40.9691 15.0312V10.754C40.9691 10.729 40.9678 10.704 40.9651 10.679C40.9637 10.6643 40.9611 10.65 40.9584 10.6352C40.957 10.6259 40.9557 10.616 40.9539 10.6067C40.9503 10.5893 40.9459 10.5723 40.9414 10.5549C40.9396 10.5486 40.9383 10.5424 40.9365 10.5361C40.9311 10.5187 40.9249 10.5022 40.9186 10.4861C40.9164 10.4803 40.9142 10.4736 40.9119 10.4678C40.9057 10.4522 40.8981 10.4375 40.8905 10.4223C40.8869 10.4156 40.8843 10.4084 40.8807 10.4013C40.8736 10.3879 40.8655 10.375 40.8575 10.362C40.8526 10.354 40.8481 10.3459 40.8432 10.3384C40.8356 10.3268 40.8271 10.3156 40.8182 10.3044C40.8119 10.2959 40.8057 10.2875 40.7994 10.2794C40.791 10.2692 40.7816 10.2593 40.7727 10.2495C40.766 10.2424 40.7602 10.2348 40.753 10.2276L31.253 0.566502L31.2503 0.56427C31.2405 0.554002 31.2298 0.545073 31.2191 0.535251C31.2115 0.528555 31.2044 0.520965 31.1963 0.514715C31.1785 0.499983 31.1597 0.485697 31.1401 0.472751L31.1383 0.470965L31.1387 0.471858C31.0361 0.402215 30.9178 0.358912 30.7941 0.346852C30.7691 0.344174 30.7441 0.342834 30.7191 0.342834H8.84366C7.79366 0.344174 6.78069 0.733908 6.00035 1.43658C5.22044 2.13926 4.72755 3.10618 4.61692 4.15041C3.60486 4.29639 2.67944 4.80175 2.00938 5.57407C1.33929 6.34683 0.970087 7.3343 0.96875 8.35715V51.42C0.970089 52.5468 1.4183 53.6268 2.21469 54.4236C3.01157 55.2204 4.09195 55.6687 5.21869 55.67H33.2187C34.2276 55.6686 35.2035 55.3088 35.9718 54.6548C36.7401 54.0003 37.2513 53.0946 37.4138 52.099C38.4062 51.9329 39.308 51.4209 39.9585 50.6535C40.6094 49.8861 40.9674 48.9129 40.9687 47.9067V41.658C41.4076 41.3803 41.9513 40.8906 42.7741 40.1362C44.7464 38.3277 47.7268 35.5951 50.5764 35.5951H51.4688V35.5947C51.8831 35.5947 52.2188 35.259 52.2188 34.8447V26.9318L55.2188 25.6826V34.5964C54.1764 34.792 53.297 35.4884 52.8675 36.458C52.4385 37.4281 52.5144 38.5473 53.0706 39.4505C53.6269 40.3532 54.592 40.9246 55.6514 40.9777C56.7108 41.0304 57.7282 40.5585 58.372 39.7152C59.0153 38.8723 59.2028 37.7665 58.8724 36.7585C58.5421 35.7505 57.7367 34.9702 56.7188 34.6714L56.7189 34.671ZM57.2145 23.191C57.2288 23.1968 57.2422 23.2026 57.2551 23.2084C57.2426 23.2142 57.2288 23.22 57.2145 23.2258L41.6888 29.6901C40.9343 30.0044 39.6098 30.0044 38.8553 29.6901L23.3296 23.2258C23.3153 23.22 23.3019 23.2142 23.2889 23.2084C23.3014 23.2026 23.3153 23.1968 23.3296 23.191L38.8553 16.7263C39.6097 16.412 40.9339 16.412 41.6888 16.7263L57.2145 23.191ZM31.4693 2.92587L38.43 10.0048L33.2193 10.0044C32.755 10.0039 32.3103 9.81957 31.9822 9.49145C31.6541 9.16332 31.4697 8.71868 31.4693 8.25442L31.4693 2.92587ZM33.2193 54.1704H5.21927C4.49026 54.1696 3.79116 53.8798 3.2755 53.3642C2.75984 52.8486 2.47014 52.1494 2.46925 51.4204V8.35756C2.47014 7.73702 2.68042 7.13528 3.06613 6.6491C3.45185 6.16339 3.99023 5.82187 4.59424 5.6799V47.9062C4.59558 49.033 5.04335 50.1133 5.84019 50.9102C6.63707 51.7066 7.71744 52.1549 8.84419 52.1561H35.8682C35.7066 52.7347 35.3606 53.2445 34.882 53.6079C34.4039 53.9713 33.82 54.1686 33.2195 54.1695L33.2193 54.1704ZM36.7193 50.6571H8.84385C8.11483 50.6562 7.41573 50.3664 6.90007 49.8508C6.38445 49.3352 6.09471 48.6361 6.09382 47.9071V4.5939C6.09472 3.86489 6.38445 3.16579 6.90007 2.65013C7.4157 2.13448 8.11482 1.84477 8.84385 1.84388H29.9684V8.25508C29.9693 9.11669 30.3122 9.94308 30.9211 10.5525C31.5305 11.1614 32.3567 11.5042 33.2185 11.5051H39.4685V15.0435C39.06 15.0904 38.66 15.1909 38.2784 15.3426L22.7526 21.8073C21.7388 22.2292 21.5875 22.8671 21.5875 23.2096C21.5875 23.552 21.7388 24.1895 22.7526 24.6119L27.9687 26.7838V34.8458V34.8454C27.9687 35.2597 28.3045 35.5954 28.7187 35.5954H29.5656C32.5059 35.5954 35.5014 38.3289 37.483 40.1373C38.4 40.9739 38.987 41.4976 39.4683 41.7547L39.4687 47.9074C39.4678 48.6364 39.1776 49.3355 38.662 49.8512C38.1468 50.3668 37.4477 50.6565 36.7187 50.6574L36.7193 50.6571ZM50.7193 34.0948H50.5769C47.1434 34.0948 43.9045 37.0648 41.7607 39.0306C41.1746 39.5681 40.4589 40.2238 40.1345 40.4132C39.8072 40.227 39.0858 39.5685 38.4947 39.0293C36.3415 37.0646 33.0879 34.0954 29.5661 34.0954H29.4692V27.4078L38.2791 31.0757C39.5671 31.5409 40.9772 31.5409 42.2657 31.0757L50.7193 27.556L50.7193 34.0948ZM55.8121 39.4988C55.2099 39.4961 54.6526 39.18 54.3411 38.6644C54.0295 38.1492 54.0085 37.5086 54.2857 36.9742C54.5634 36.4399 55.0987 36.0881 55.6996 36.0461C55.8429 36.1024 56 36.1122 56.1496 36.0742C56.7134 36.1894 57.1826 36.5778 57.4018 37.1099C57.621 37.6421 57.5612 38.2483 57.2424 38.7273C56.9237 39.2063 56.3875 39.4956 55.812 39.4992L55.8121 39.4988Z" fill="#53C5E2"/>
<path d="M17.0313 16.5602H28.7193C29.1335 16.5602 29.4693 16.224 29.4693 15.8102C29.4693 15.3959 29.1335 15.0602 28.7193 15.0602H17.0313C16.6174 15.0602 16.2812 15.3959 16.2812 15.8102C16.2812 16.224 16.6174 16.5602 17.0313 16.5602Z" fill="#53C5E2"/>
<path d="M11.3154 16.5602H14.0087C14.423 16.5602 14.7587 16.224 14.7587 15.8102C14.7587 15.3959 14.423 15.0602 14.0087 15.0602H11.3154C10.9011 15.0602 10.5654 15.3959 10.5654 15.8102C10.5654 16.224 10.9011 16.5602 11.3154 16.5602Z" fill="#53C5E2"/>
<path d="M11.3154 24.623H18.7185C19.1328 24.623 19.4685 24.2873 19.4685 23.873C19.4685 23.4587 19.1328 23.123 18.7185 23.123H11.3154C10.9011 23.123 10.5654 23.4587 10.5654 23.873C10.5654 24.2873 10.9011 24.623 11.3154 24.623Z" fill="#53C5E2"/>
<path d="M25.7193 31.9362C25.7193 31.5223 25.3836 31.1862 24.9693 31.1862H16.7461C16.3323 31.1862 15.9961 31.5223 15.9961 31.9362C15.9961 32.3504 16.3323 32.6862 16.7461 32.6862H24.9693C25.3836 32.6862 25.7193 32.3504 25.7193 31.9362Z" fill="#53C5E2"/>
<path d="M11.3154 32.687H13.7417C14.156 32.687 14.4917 32.3513 14.4917 31.937C14.4917 31.5232 14.156 31.187 13.7417 31.187H11.3154C10.9011 31.187 10.5654 31.5232 10.5654 31.937C10.5654 32.3513 10.9011 32.687 11.3154 32.687Z" fill="#53C5E2"/>
<path d="M28.7193 39.2504H25.9961C25.5823 39.2504 25.2461 39.5866 25.2461 40.0004C25.2461 40.4147 25.5823 40.7504 25.9961 40.7504H28.7193C29.1336 40.7504 29.4693 40.4147 29.4693 40.0004C29.4693 39.5866 29.1336 39.2504 28.7193 39.2504Z" fill="#53C5E2"/>
<path d="M22.8078 39.2504H11.3164C10.9021 39.2504 10.5664 39.5866 10.5664 40.0004C10.5664 40.4147 10.9021 40.7504 11.3164 40.7504H22.8078C23.2217 40.7504 23.5578 40.4147 23.5578 40.0004C23.5578 39.5866 23.2217 39.2504 22.8078 39.2504Z" fill="#53C5E2"/>
</svg>
