<svg width="18" height="19" viewBox="0 0 18 19" fill="none" xmlns="http://www.w3.org/2000/svg">
<path d="M2.09277 7.04389L1.43427 6.29131L2.09277 7.04389ZM6.89278 2.84389L6.23427 2.09131L6.23427 2.09131L6.89278 2.84389ZM11.1074 2.84389L10.4489 3.59646V3.59646L11.1074 2.84389ZM15.9074 7.04389L15.2489 7.79646L15.9074 7.04389ZM8.43262 1.73976L8.7162 2.69871L8.43262 1.73976ZM9.56738 1.73976L9.2838 2.69871L9.56738 1.73976ZM1.06497 8.40199L2.03249 8.65481L1.06497 8.40199ZM1.34521 7.78427L0.517839 7.22262L0.517839 7.22262L1.34521 7.78427ZM1.15224 16.7654L0.228361 17.1481H0.228361L1.15224 16.7654ZM6.84766 16.7654L5.92378 16.3827L6.84766 16.7654ZM5.76537 17.8478L6.14805 18.7717L5.76537 17.8478ZM11.1522 16.7654L10.2284 17.1481V17.1481L11.1522 16.7654ZM16.8477 16.7654L15.9238 16.3827L16.8477 16.7654ZM15.7654 17.8478L16.1481 18.7717L15.7654 17.8478ZM16.9351 8.40199L15.9675 8.65481L16.9351 8.40199ZM16.6548 7.78426L17.4821 7.22262V7.22262L16.6548 7.78426ZM16 9.45216V15.0001H18V9.45216H16ZM12 15V14H10V15H12ZM6 14V15H8V14H6ZM2 15.0001V9.45216H0V15.0001H2ZM2.75128 7.79646L7.55128 3.59646L6.23427 2.09131L1.43427 6.29131L2.75128 7.79646ZM10.4489 3.59646L15.2489 7.79646L16.5659 6.29131L11.7659 2.09131L10.4489 3.59646ZM7.55128 3.59646C7.93616 3.25969 8.18282 3.04474 8.38406 2.89423C8.57527 2.75123 8.66501 2.71385 8.7162 2.69871L8.14903 0.780814C7.7801 0.889917 7.47323 1.07796 7.1862 1.29263C6.9092 1.4998 6.596 1.7748 6.23427 2.09131L7.55128 3.59646ZM11.7659 2.09131C11.4041 1.77475 11.0909 1.49976 10.8138 1.29257C10.5267 1.0779 10.2198 0.8899 9.85097 0.780814L9.2838 2.69871C9.33505 2.71386 9.42487 2.75128 9.61612 2.89429C9.81737 3.04478 10.0641 3.25974 10.4489 3.59646L11.7659 2.09131ZM8.7162 2.69871C8.9013 2.64397 9.0987 2.64397 9.2838 2.69871L9.85097 0.780814C9.29568 0.616601 8.70432 0.616601 8.14903 0.780814L8.7162 2.69871ZM2 9.45216C2 8.86546 2.00759 8.75008 2.03249 8.65481L0.0974571 8.14918C-0.00759125 8.55119 0 8.97018 0 9.45216H2ZM1.43427 6.29131C1.07166 6.60859 0.751233 6.8788 0.517839 7.22262L2.17259 8.34591C2.22787 8.26448 2.30962 8.18292 2.75128 7.79646L1.43427 6.29131ZM2.03249 8.65481C2.06132 8.54448 2.10873 8.43999 2.17259 8.34591L0.517839 7.22262C0.325879 7.5054 0.18378 7.81882 0.0974571 8.14918L2.03249 8.65481ZM4.00023 17C3.52061 17 3.21097 16.9995 2.97399 16.9833C2.74599 16.9678 2.65916 16.9412 2.61755 16.9239L1.85218 18.7717C2.17811 18.9067 2.50802 18.9562 2.83785 18.9787C3.15869 19.0006 3.54797 19 4.00023 19V17ZM0 15.0001C0 15.4524 -0.000541687 15.8416 0.02135 16.1624C0.0438555 16.4923 0.0933628 16.8221 0.228361 17.1481L2.07612 16.3827C2.05888 16.3411 2.03226 16.2543 2.01671 16.0263C2.00054 15.7893 2 15.4797 2 15.0001H0ZM2.61755 16.9239C2.37233 16.8223 2.17754 16.6275 2.07612 16.3827L0.228361 17.1481C0.532922 17.8833 1.11729 18.4673 1.85218 18.7717L2.61755 16.9239ZM6 15C6 15.4796 5.99943 15.7892 5.98324 16.0262C5.96767 16.2541 5.94104 16.341 5.92378 16.3827L7.77154 17.1481C7.90651 16.8222 7.95606 16.4923 7.97859 16.1625C8.00052 15.8416 8 15.4523 8 15H6ZM4.00023 19C4.45249 19 4.84171 19.0006 5.16251 18.9787C5.49233 18.9562 5.82216 18.9067 6.14805 18.7717L5.38268 16.9239C5.34104 16.9412 5.25424 16.9678 5.02634 16.9833C4.78943 16.9995 4.47986 17 4.00023 17V19ZM5.92378 16.3827C5.82224 16.6278 5.6276 16.8225 5.38268 16.9239L6.14805 18.7717C6.88325 18.4671 7.4671 17.883 7.77154 17.1481L5.92378 16.3827ZM9 11C7.34315 11 6 12.3432 6 14H8C8 13.4477 8.44772 13 9 13V11ZM12 14C12 12.3432 10.6569 11 9 11V13C9.55228 13 10 13.4477 10 14H12ZM14.0002 17C13.5206 17 13.211 16.9995 12.974 16.9833C12.746 16.9678 12.6592 16.9412 12.6175 16.9239L11.8522 18.7717C12.1781 18.9067 12.508 18.9562 12.8378 18.9787C13.1587 19.0006 13.548 19 14.0002 19V17ZM10 15C10 15.4523 9.99946 15.8415 10.0213 16.1624C10.0439 16.4922 10.0934 16.8221 10.2284 17.1481L12.0761 16.3827C12.0589 16.3411 12.0323 16.2543 12.0167 16.0263C12.0005 15.7893 12 15.4796 12 15H10ZM12.6175 16.9239C12.3723 16.8223 12.1775 16.6275 12.0761 16.3827L10.2284 17.1481C10.5329 17.8833 11.1173 18.4673 11.8522 18.7717L12.6175 16.9239ZM16 15.0001C16 15.4797 15.9994 15.7893 15.9832 16.0262C15.9677 16.2541 15.941 16.341 15.9238 16.3827L17.7715 17.1481C17.9065 16.8222 17.9561 16.4924 17.9786 16.1625C18.0005 15.8417 18 15.4524 18 15.0001H16ZM14.0002 19C14.4525 19 14.8417 19.0006 15.1625 18.9787C15.4923 18.9562 15.8222 18.9067 16.1481 18.7717L15.3827 16.9239C15.341 16.9412 15.2542 16.9678 15.0263 16.9833C14.7894 16.9995 14.4799 17 14.0002 17V19ZM15.9238 16.3827C15.8222 16.6278 15.6276 16.8225 15.3827 16.9239L16.1481 18.7717C16.8832 18.4671 17.4671 17.883 17.7715 17.1481L15.9238 16.3827ZM18 9.45216C18 8.97028 18.0076 8.55121 17.9026 8.14918L15.9675 8.65481C15.9924 8.75005 16 8.86537 16 9.45216H18ZM15.2489 7.79646C15.6902 8.18259 15.772 8.26438 15.8274 8.34591L17.4821 7.22262C17.2488 6.8789 16.9289 6.60891 16.5659 6.29131L15.2489 7.79646ZM17.9026 8.14918C17.8162 7.81869 17.674 7.50528 17.4821 7.22262L15.8274 8.34591C15.8913 8.4401 15.9387 8.54461 15.9675 8.65481L17.9026 8.14918Z" fill="white"/>
</svg>
