<svg width="38" height="26" viewBox="0 0 38 26" fill="none" xmlns="http://www.w3.org/2000/svg">
<path d="M5.33539 22.053H3.08146C2.34596 22.053 1.67468 21.7505 1.18889 21.2645C0.702841 20.7812 0.400391 20.1099 0.400391 19.3725V3.43107C0.400391 2.695 0.701734 2.02457 1.18696 1.53907C1.67496 1.05163 2.34546 0.75 3.08146 0.75H24.0265C24.7427 0.75 25.3934 1.04185 25.8638 1.51257C26.3342 1.98299 26.6264 2.63364 26.6264 3.34993V5.67329H31.4882C32.0641 5.67329 32.6046 5.81726 33.0761 6.08567C33.5482 6.35437 33.9477 6.74722 34.2421 7.2436L36.9346 11.7857C37.1589 12.1638 37.325 12.5489 37.4354 12.9537C37.5465 13.3611 37.6003 13.7757 37.6003 14.2127V19.3722C37.6003 20.1102 37.299 20.781 36.8138 21.2662C36.3285 21.7515 35.6578 22.0528 34.9198 22.0528H34.7808C34.6575 22.8862 34.2669 23.6326 33.6985 24.201C33.0041 24.8954 32.0431 25.3254 30.9828 25.3254C29.9225 25.3254 28.9622 24.8954 28.2677 24.201C27.6993 23.6326 27.3087 22.8862 27.1848 22.0528H26.2041C26.174 22.0528 26.1441 22.0506 26.1154 22.0461C26.0866 22.0503 26.0568 22.0528 26.0266 22.0528H12.9316C12.8078 22.8862 12.4171 23.6326 11.8488 24.201C11.1543 24.8954 10.1939 25.3254 9.13365 25.3254C8.07336 25.3254 7.11243 24.8954 6.41793 24.201C5.84958 23.6326 5.45893 22.8862 5.33565 22.0528L5.33539 22.053ZM21.8911 12.643C22.2223 12.643 22.491 12.9117 22.491 13.2429C22.491 13.5741 22.2223 13.8428 21.8911 13.8428H7.30468C6.97348 13.8428 6.70479 13.5741 6.70479 13.2429C6.70479 12.9117 6.97348 12.643 7.30468 12.643H21.8911ZM21.8911 9.15836C22.2223 9.15836 22.491 9.42705 22.491 9.75824C22.491 10.0894 22.2223 10.3581 21.8911 10.3581H12.114C11.7828 10.3581 11.5141 10.0894 11.5141 9.75824C11.5141 9.42705 11.7828 9.15836 12.114 9.15836H21.8911ZM21.8911 5.67371C22.2223 5.67371 22.491 5.94241 22.491 6.2736C22.491 6.60479 22.2223 6.87349 21.8911 6.87349H16.6872C16.356 6.87349 16.0873 6.60479 16.0873 6.2736C16.0873 5.94241 16.356 5.67371 16.6872 5.67371H21.8911ZM34.7711 20.8537H34.9198C35.3266 20.8537 35.6975 20.6866 35.9653 20.4187C36.2332 20.1509 36.4003 19.7801 36.4003 19.3732V14.2137C36.4003 14.0861 36.3947 13.9623 36.3838 13.8428H29.7758C29.4447 13.8428 29.176 13.5742 29.176 13.243V6.87439H26.6266V20.8537H27.195C27.3286 20.0467 27.7148 19.3244 28.2678 18.7711C28.9623 18.0766 29.9227 17.6461 30.983 17.6461C32.0432 17.6461 33.0042 18.0766 33.6987 18.7711C34.252 19.3244 34.6373 20.0467 34.7712 20.8537L34.7711 20.8537ZM12.9218 20.8537H25.4268V3.35086C25.4268 2.96581 25.2689 2.61536 25.0158 2.362C24.7625 2.10865 24.412 1.95101 24.027 1.95101H3.08197C2.67433 1.95101 2.30297 2.1173 2.03511 2.38516C1.76726 2.65301 1.60096 3.02439 1.60096 3.43201V19.3734C1.60096 19.7797 1.76809 20.1502 2.03651 20.4184C2.30353 20.6882 2.67435 20.8539 3.08201 20.8539H5.34594C5.47959 20.047 5.86519 19.3246 6.41851 18.7714C7.11299 18.0769 8.07394 17.6464 9.13423 17.6464C10.1945 17.6464 11.1549 18.0769 11.8494 18.7714C12.4027 19.3246 12.7885 20.047 12.9222 20.8539L12.9218 20.8537ZM11.0005 19.6196C10.5229 19.142 9.86296 18.8462 9.13389 18.8462C8.40482 18.8462 7.74439 19.142 7.26668 19.6196C6.78956 20.0968 6.49382 20.7572 6.49382 21.4863C6.49382 22.2154 6.78958 22.8764 7.26668 23.3535C7.7438 23.8306 8.40482 24.1264 9.13389 24.1264C9.86296 24.1264 10.5234 23.8306 11.0005 23.3535C11.4782 22.8758 11.774 22.2154 11.774 21.4863C11.774 20.7572 11.4782 20.0974 11.0005 19.6196ZM32.8505 19.6196C32.3729 19.142 31.7124 18.8462 30.9833 18.8462C30.2542 18.8462 29.5944 19.142 29.1167 19.6196C28.639 20.0973 28.3432 20.7572 28.3432 21.4863C28.3432 22.2154 28.639 22.8758 29.1167 23.3535C29.5938 23.8306 30.2542 24.1264 30.9833 24.1264C31.7124 24.1264 32.3734 23.8306 32.8505 23.3535C33.3277 22.8764 33.6234 22.2154 33.6234 21.4863C33.6234 20.7572 33.3276 20.0968 32.8505 19.6196ZM36.0395 12.6425C35.9984 12.5602 35.953 12.4784 35.9044 12.3959L33.2119 7.85371C33.0247 7.53814 32.7758 7.29149 32.4862 7.12656C32.1974 6.96222 31.8579 6.87377 31.489 6.87377H30.3763V12.6422H36.0395L36.0395 12.6425Z" fill="#53C5E2"/>
</svg>
