<svg width="30" height="30" viewBox="0 0 30 30" fill="none" xmlns="http://www.w3.org/2000/svg">
<path d="M29.9343 8.68129L25.2468 0.243793C25.166 0.0960536 25.0122 0.00293036 24.8438 0H5.15625C4.98717 0.000209261 4.83126 0.0916554 4.74839 0.238977L0.0608948 8.67648C0.0211347 8.74658 0.000208929 8.82568 0 8.90625V29.5313C0 29.6556 0.0493864 29.7748 0.137277 29.8627C0.225167 29.9506 0.344448 30 0.46875 30H29.5313C29.6556 30 29.7748 29.9506 29.8627 29.8627C29.9506 29.7748 30 29.6556 30 29.5313V8.90625C29.9975 8.82694 29.9749 8.74951 29.9343 8.68129V8.68129ZM28.7344 8.4375H20.0531L18.3985 0.9375H24.5672L28.7344 8.4375ZM12.4031 12.6048C13.3178 12.1214 14.1869 11.5566 15.0001 10.9173C15.8133 11.5566 16.6824 12.1214 17.5971 12.6048C18.7248 13.1959 19.9172 13.655 21.1502 13.9734C21.3707 15.3725 21.3548 16.7984 21.1033 18.1921C20.2221 22.9593 16.7205 25.8984 15.0096 27.0984C13.2892 25.9124 9.78758 22.9734 8.91581 18.1921C8.66427 16.7984 8.64837 15.3725 8.86893 13.9734C10.0955 13.6538 11.2813 13.1945 12.4032 12.6048H12.4031ZM18.0281 11.7704V11.7702C17.0582 11.2605 16.1439 10.6509 15.3002 9.95154C15.1263 9.80673 14.8739 9.80673 14.7 9.95154C13.8563 10.6509 12.942 11.2605 11.9721 11.7702C11.583 11.9766 11.1846 12.1547 10.7813 12.3281V9.375H19.2188V12.3281C18.8158 12.1546 18.4173 11.9766 18.0281 11.7702L18.0281 11.7704ZM10.8983 8.4375L12.5624 0.9375H17.4374L19.1014 8.4375H10.8983ZM5.43297 0.9375H11.6017L9.93768 8.4375H1.26554L5.43297 0.9375ZM29.0628 29.0625H0.937789V9.375H9.84404V12.6843C9.34767 12.8661 8.84231 13.0226 8.33 13.153C8.14983 13.1963 8.01213 13.3414 7.97844 13.5234C7.68317 15.1287 7.68317 16.7743 7.97844 18.3796C8.96742 23.756 13.0409 26.9435 14.7424 28.0637V28.0639C14.8989 28.1668 15.1015 28.1668 15.258 28.0639C16.9595 26.9294 21.033 23.7419 22.0316 18.3653C22.3268 16.76 22.3268 15.1144 22.0316 13.5092C21.9979 13.3271 21.86 13.1821 21.68 13.1388C21.1677 13.0084 20.6624 12.8519 20.166 12.67V9.37473H29.0626L29.0628 29.0625Z" fill="#53C5E2"/>
</svg>
