<svg width="602" height="828" viewBox="0 0 602 828" fill="none" xmlns="http://www.w3.org/2000/svg">
<path d="M-95.1606 827.108C-119.467 827.108 -144.047 826.321 -168.901 824.748C-308.561 815.868 -398.221 771.748 -443.011 689.828C-481.811 618.828 -481.191 530.538 -480.641 452.618C-480.281 400.618 -479.931 351.488 -491.721 315.818C-530.961 197.058 -574.191 170.618 -600.021 154.818C-615.021 145.668 -624.861 139.628 -623.941 120.978C-623.041 102.708 -556.231 79.3777 -413.691 47.5577C-352.041 33.7977 -304.161 45.6777 -265.691 55.2277C-246.421 60.0077 -229.751 64.1477 -215.121 64.0977C-174.861 63.9777 -163.861 59.5777 -139.771 49.9277C-119.671 41.9277 -89.3106 29.7377 -24.2606 13.3777C32.9094 -0.992325 122.179 -4.03232 208.739 5.45768C257.989 10.8577 304.739 19.9477 347.739 32.4577C395.839 46.4577 438.06 64.5277 473.24 86.1277C538.41 126.128 578.499 177.468 592.409 238.718C606.119 299.058 604.41 360.788 587.25 422.198C570.25 483.198 538.919 540.768 494.159 593.308C429.019 669.798 337.839 731.478 230.479 771.688C173.219 793.158 111.339 808.588 46.3394 817.588C-0.554367 823.99 -47.8318 827.171 -95.1606 827.108V827.108ZM-357.661 43.8277C-376.319 43.8432 -394.918 45.9191 -413.121 50.0177C-477.951 64.4877 -526.211 77.0177 -560.661 88.2277C-610.371 104.438 -621.151 115.108 -621.451 121.108C-622.301 138.278 -613.921 143.398 -598.721 152.698C-572.601 168.698 -528.881 195.408 -489.351 315.028C-477.431 351.098 -477.781 400.418 -478.151 452.638C-478.701 530.258 -479.321 618.228 -440.821 688.638C-396.481 769.738 -307.481 813.448 -168.741 822.268C-94.5206 826.998 -22.2606 824.588 46.0294 815.118C110.759 806.118 172.519 790.758 229.579 769.388C336.579 729.328 427.359 667.898 492.229 591.738C536.749 539.468 567.899 482.218 584.819 421.568C601.819 360.568 603.559 299.238 589.949 239.308C576.189 178.738 536.479 127.928 471.949 88.3077C436.949 66.8277 394.949 48.8577 347.049 34.8977C304.229 22.4177 257.609 13.3577 208.509 7.96768C122.199 -1.50232 33.2594 1.50768 -23.6606 15.8177C-88.5506 32.1277 -118.821 44.2477 -138.851 52.2677C-163.251 62.0277 -174.391 66.4877 -215.131 66.6077H-215.341C-230.251 66.6077 -246.961 62.4677 -266.341 57.6677C-292.071 51.2677 -322.111 43.8177 -357.661 43.8277Z" fill="#E9E9E9"/>
<path d="M-82.7905 781.688C-102.45 781.688 -122.304 781.128 -142.35 780.008C-268.49 773.158 -350.54 734.908 -393.19 663.108C-430.19 600.698 -432.29 522.018 -434.11 452.598C-435.37 404.238 -436.57 358.598 -449.44 325.248C-489 218.548 -530.48 192.588 -555.26 177.108C-570.26 167.738 -580.13 161.548 -579.48 143.438C-579.29 133.208 -560.92 120.888 -524.89 106.838C-492.47 94.1877 -447.03 80.6577 -393.46 67.7077C-337.53 53.9577 -293.87 63.3077 -258.8 70.8177C-241.8 74.4477 -227.2 77.5877 -213.97 77.5977C-172.02 77.6977 -161.63 74.3777 -130.79 64.5977C-110.06 58.0077 -81.6904 48.9877 -29.3904 36.2777C24.1796 23.2777 107.47 20.5177 187.97 29.1577C234.02 34.0977 277.65 42.4277 317.65 53.9277C362.53 66.8277 401.84 83.4677 434.49 103.398C493.39 139.398 529.94 185.398 543.14 240.298C556.28 295.518 555.3 352.098 540.22 408.468C525.22 464.468 497.13 517.408 456.67 565.758C398.21 635.628 316.08 692.198 219.16 729.358C167.48 749.108 111.48 763.518 52.7296 772.108C7.84557 778.558 -37.4455 781.759 -82.7905 781.688V781.688ZM-335.97 62.9877C-355.16 63.0085 -374.277 65.359 -392.9 69.9877C-506.21 97.3777 -576.8 125.548 -577.14 143.498C-577.74 160.278 -568.81 165.868 -554.01 175.128C-529.01 190.788 -487.08 217.018 -447.25 324.408C-434.25 358.088 -433.04 403.958 -431.77 452.528C-429.96 521.658 -427.91 600.018 -391.17 661.898C-348.96 733.018 -267.53 770.898 -142.17 777.698C-74.8405 781.488 -9.36049 778.838 52.4395 769.808C110.98 761.228 166.8 746.868 218.34 727.108C314.89 690.108 396.69 633.758 454.89 564.198C495.13 516.108 523.09 463.488 537.98 407.808C552.98 351.808 553.98 295.618 540.88 240.808C527.88 186.568 491.639 140.998 433.279 105.368C390.159 79.0377 312.55 44.8477 187.74 31.4577C107.49 22.8477 24.5096 25.5577 -28.8204 38.5277C-81.0304 51.2177 -109.37 60.2177 -130.06 66.7977C-160.31 76.4177 -171.66 80.0077 -213.95 79.9277C-227.43 79.9277 -242.18 76.7577 -259.27 73.0977C-281.19 68.3877 -306.46 62.9777 -335.97 62.9877Z" fill="#E9E9E9"/>
<path d="M-69.7603 736.338C-84.9403 736.338 -100.274 735.974 -115.76 735.248C-228.52 730.408 -302.95 697.968 -343.35 636.108C-378.55 582.168 -383.2 513.108 -387.3 452.108C-390.3 407.578 -393.12 365.508 -407.15 334.628C-446.89 240.078 -486.59 214.678 -510.31 199.498C-525.41 189.848 -535.38 183.498 -535.02 165.848C-535.29 141.798 -451.34 108.528 -373.23 87.8477C-322.75 73.9777 -283.15 80.8476 -251.33 86.3676C-236.9 88.8676 -224.44 91.0276 -212.82 91.0876C-165.17 91.4576 -156.44 89.2477 -107.94 77.0177C-89.6804 72.4177 -66.9404 66.6876 -34.5304 59.1376C-1.39037 51.3976 44.4697 47.5776 94.4697 48.3976C150.81 49.3276 207.55 56.0576 258.57 67.8576C318.94 81.8576 369.3 102.248 408.26 128.548C453.64 159.188 482.44 197.288 493.87 241.798C506.45 291.908 506.23 343.348 493.21 394.688C480.27 445.688 455.36 494.008 419.21 538.178C367.44 601.348 294.34 652.798 207.86 686.908C124.64 719.728 31.4297 736.298 -69.7603 736.338ZM-313.31 81.8276C-333.367 81.8242 -353.332 84.5389 -372.66 89.8976C-465.66 114.568 -533.05 146.498 -532.83 165.828C-533.17 182.248 -524.12 188.038 -509.13 197.628C-485.19 212.938 -445.13 238.568 -405.13 333.718C-390.94 364.938 -388.13 407.188 -385.13 451.928C-381.05 512.618 -376.42 581.398 -341.53 634.858C-301.53 696.108 -227.66 728.248 -115.66 733.108C3.10963 738.758 111.7 722.538 207.1 684.918C293.25 650.918 366.03 599.718 417.58 536.768C453.58 492.848 478.3 444.868 491.16 394.128C504.09 343.128 504.31 292.068 491.82 242.318C480.54 198.318 452.04 160.678 407.11 130.318C368.38 104.168 318.26 83.8576 258.11 69.9476C207.25 58.1776 150.66 51.4676 94.4797 50.5476C44.5897 49.7276 -1.05037 53.5476 -34.0304 61.2176C-66.4304 68.7676 -89.1404 74.4977 -107.39 79.0977C-156.12 91.3777 -164.9 93.5877 -212.83 93.2377C-224.63 93.1677 -237.17 90.9976 -251.7 88.4776C-269.59 85.3476 -289.95 81.8176 -313.31 81.8276Z" fill="#E9E9E9"/>
<path d="M-57.5704 691.108C-68.0437 691.108 -78.607 690.914 -89.2604 690.528C-188.66 687.668 -255.47 660.938 -293.5 608.798C-326.76 563.168 -333.58 506.188 -340.17 451.108C-345.01 410.618 -349.58 372.378 -364.87 344.018C-404.56 261.568 -441 237.798 -465.11 222.108C-481.02 211.728 -490.62 205.458 -490.56 188.268C-491.46 166.268 -431.03 130.998 -353 107.918C-307.46 93.6676 -271.59 98.1376 -242.76 101.738C-231.76 103.108 -221.31 104.408 -211.68 104.508L-206.81 104.578C-150.7 105.398 -146.12 105.458 -39.6904 81.9376C-9.78043 75.2976 33.0796 71.8476 77.8896 72.4476C129.44 73.1476 181.28 78.9376 227.8 89.1876C283.09 101.378 329.28 119.338 365.1 142.568C406.89 169.668 433.65 203.568 444.64 243.248C456.64 288.248 457.23 334.558 446.27 380.888C435.37 426.968 413.68 470.618 381.8 510.608C336.67 567.208 272.62 613.538 196.55 644.608C120.91 675.418 35.5496 691.028 -57.5704 691.108ZM-288.99 100.108C-310.504 100.061 -331.896 103.336 -352.41 109.818C-428.31 132.268 -489.41 167.408 -488.52 188.168C-488.58 204.298 -479.33 210.338 -464 220.338C-441.17 235.228 -403 260.148 -363.05 343.038C-347.6 371.698 -343.05 410.128 -338.14 450.818C-331.58 505.658 -324.8 562.378 -291.85 607.538C-254.22 659.128 -187.93 685.538 -89.2004 688.428C16.0196 692.278 111.9 676.868 195.8 642.638C271.54 611.728 335.32 565.638 380.23 509.268C411.92 469.518 433.48 426.148 444.3 380.358C455.18 334.358 454.64 288.358 442.7 243.728C431.84 204.528 405.37 171.048 364.01 144.218C328.4 121.118 282.43 103.218 227.38 91.1276C180.99 80.8976 129.29 75.1276 77.8796 74.4276C33.2196 73.8276 -9.4704 77.2676 -39.2204 83.8676C-145.89 107.448 -150.5 107.378 -206.81 106.558L-211.66 106.508C-221.41 106.408 -231.88 105.108 -242.97 103.718C-256.66 102.018 -271.89 100.108 -288.99 100.108Z" fill="#E9E9E9"/>
<path d="M-45.4403 645.918C-51.1703 645.918 -56.9203 645.858 -62.7203 645.728C-255.99 643.728 -275.47 540.458 -292.72 449.398C-299.54 413.238 -305.99 379.088 -322.62 353.398C-361.96 283.168 -396.62 260.198 -419.56 244.988C-435.98 234.108 -445.89 227.538 -446.15 210.668C-446.9 199.998 -435.65 185.058 -415.28 169.738C-393.66 153.468 -364.38 138.658 -332.83 128.018C-291.09 112.768 -259.55 114.938 -231.72 116.848C-224.33 117.358 -217.36 117.848 -210.58 117.958C-200.38 118.178 -191.49 118.558 -183.65 118.898C-147.43 120.468 -125.58 121.418 -44.8703 104.758C6.59967 94.0677 104.24 91.3177 196.98 110.538C247.18 120.948 289.2 136.448 321.88 156.608C360.08 180.168 384.8 209.818 395.36 244.718C406.868 284.545 408.236 326.617 399.34 367.108C390.49 408.248 372.01 447.278 344.42 483.108C305.94 533.108 250.89 574.268 185.24 602.238C117.21 631.208 39.6697 645.888 -45.4403 645.918ZM-262 117.368C-285.944 117.225 -309.716 121.426 -332.16 129.768C-399.93 152.628 -445.6 190.688 -444.22 210.558C-443.97 226.478 -434.37 232.838 -418.47 243.388C-395.38 258.688 -360.47 281.818 -320.95 352.388C-304.15 378.388 -297.67 412.688 -290.81 449.038C-282.1 495.158 -273.1 542.848 -242.21 579.878C-207.08 621.998 -148.36 642.878 -62.6903 643.878C28.9697 645.948 112.14 631.358 184.52 600.528C249.87 572.688 304.66 531.698 342.94 481.988C370.36 446.388 388.72 407.608 397.51 366.748C406.354 326.562 405.01 284.802 393.6 245.268C380.05 200.478 334.87 141.048 196.6 112.398C104.12 93.2377 6.79968 95.9677 -44.4803 106.618C-125.37 123.288 -147.32 122.338 -183.66 120.758C-191.49 120.418 -200.36 120.038 -210.54 119.758C-217.37 119.648 -224.37 119.168 -231.78 118.658C-241.34 118.048 -251.32 117.358 -262 117.368Z" fill="#E9E9E9"/>
<path d="M-42.3904 601.018C-112.39 601.018 -162.02 585.298 -193.9 552.948C-222.9 523.528 -234.02 484.518 -244.77 446.788C-253.77 415.348 -262.19 385.658 -280.27 362.788C-318.77 304.788 -351.56 282.878 -373.27 268.358C-390.59 256.768 -401.04 249.778 -401.65 233.068C-403.87 210.558 -366.25 169.418 -312.58 148.128C-271.16 129.818 -241.42 130.588 -212.66 131.318L-209.39 131.408C-195.53 131.828 -183.92 132.948 -172.69 134.038C-142.59 136.938 -114.16 139.678 -49.9704 127.588C-3.20037 118.708 84.3997 116.268 166.24 131.898C235.24 145.078 322.41 175.608 346.15 246.198C368.15 315.808 353.92 392.198 307.15 455.788C275.27 499.108 229.22 535.108 173.97 559.968C113.57 587.158 43.7996 600.968 -33.4204 600.968H-36.1704C-38.257 601.001 -40.3304 601.018 -42.3904 601.018ZM-230 132.738C-253.51 132.738 -279 135.158 -311.9 149.738C-369.27 172.498 -401.82 213.548 -399.9 232.958C-399.31 248.828 -389.14 255.638 -372.29 266.958C-350.47 281.558 -317.5 303.618 -278.85 361.818C-260.61 384.928 -252.1 414.818 -243.09 446.388C-232.4 483.908 -221.34 522.708 -192.65 551.808C-160.19 584.748 -109.02 600.268 -36.1704 599.318H-33.4304C43.5696 599.318 113.09 585.548 173.27 558.468C228.27 533.728 274.06 497.888 305.75 454.808C328.91 423.338 344.06 389.138 350.75 353.168C357.534 317.738 355.379 281.175 344.48 246.788C321.01 177.008 234.41 146.788 165.89 133.658C84.3396 117.988 -3.02037 120.418 -49.6604 129.268C-114.11 141.408 -142.66 138.648 -172.88 135.738C-184.08 134.658 -195.66 133.538 -209.46 133.108L-212.72 133.028C-218.39 132.888 -224.13 132.738 -230 132.738Z" fill="#E9E9E9"/>
<path d="M-28.2803 556.668C-79.5003 556.668 -117.59 545.998 -144.35 524.178C-171.11 502.358 -183.99 472.178 -196.56 442.868C-207.3 417.868 -218.41 391.948 -237.96 372.128C-274.79 326.578 -305.51 306.068 -325.83 292.498C-344.74 279.868 -356.15 272.248 -357.18 255.448C-359.88 234.158 -335.97 189.548 -292.36 168.208C-261.63 150.868 -236.47 143.868 -208.24 144.828C-193.24 145.448 -180.24 147.508 -166.55 149.678C-137.55 154.288 -107.55 159.048 -55.1104 150.398C-12.8004 143.318 64.8896 141.188 135.45 153.238C196.61 163.668 274.26 188.518 296.91 247.648C318.01 307.268 308.18 373.218 269.91 428.648C244.62 465.288 207.53 496.148 162.65 517.878C113.01 541.878 55.0296 554.828 -9.67035 556.258C-16.037 556.524 -22.2403 556.661 -28.2803 556.668ZM-213.28 146.328C-239.2 146.328 -262.93 153.438 -291.59 169.618C-334.59 190.668 -358.22 234.418 -355.59 255.298C-354.59 271.368 -344.07 278.398 -324.94 291.178C-304.54 304.798 -273.7 325.398 -236.77 371.078C-217.06 391.078 -205.89 417.078 -195.09 442.238C-182.59 471.358 -169.67 501.468 -143.33 522.948C-113.75 547.108 -70.0303 557.438 -9.66034 554.628C54.8297 553.198 112.58 540.338 162.02 516.398C206.65 494.788 243.53 464.118 268.66 427.698C306.66 372.698 316.36 307.308 295.44 248.198C273.06 189.788 195.95 165.198 135.2 154.798C64.8196 142.798 -12.6404 144.908 -54.8004 151.958C-107.46 160.658 -137.6 155.878 -166.8 151.248C-180.49 149.078 -193.41 147.028 -208.31 146.408C-209.98 146.358 -211.66 146.328 -213.31 146.328H-213.28Z" fill="#E9E9E9"/>
<path d="M-14.9105 513.108C-97.4305 513.108 -122.341 476.028 -148.551 436.978C-161.481 417.718 -174.841 397.808 -195.651 381.518C-229.231 348.668 -256.221 331.078 -275.921 318.238C-298.651 303.428 -311.171 295.238 -312.721 277.868C-314.521 266.238 -311.771 248.948 -305.541 232.798C-298.001 213.278 -286.161 197.498 -272.171 188.358C-249.851 170.678 -230.841 157.218 -207.091 158.298C-192.091 159.118 -177.591 162.358 -162.211 165.788C-134.461 171.968 -103.001 178.988 -60.2105 173.248C-30.6105 169.188 37.4495 164.918 104.699 174.618C139.699 179.618 169.189 187.778 192.409 198.738C219.829 211.688 238.409 228.648 247.679 249.138C268.069 298.828 262.679 354.448 233.039 401.758C214.249 431.758 186.039 457.338 151.499 475.878C113.279 496.398 68.0195 508.368 16.9595 511.478C5.44947 512.558 -5.13052 513.108 -14.9105 513.108ZM-209.781 159.648C-231.781 159.648 -250.031 172.648 -271.331 189.508C-303.331 210.398 -314.331 258.008 -311.331 277.678C-309.831 294.428 -297.521 302.448 -275.171 317.018C-255.411 329.888 -228.361 347.528 -194.741 380.418C-173.811 396.798 -160.381 416.808 -147.391 436.158C-132.581 458.218 -118.591 479.058 -94.7005 493.348C-67.7705 509.448 -32.3505 514.748 16.7995 510.018C67.6695 506.928 112.739 495.018 150.799 474.598C185.139 456.168 213.149 430.708 231.799 400.978C261.239 354.108 266.539 298.918 246.339 249.688C237.239 229.538 218.869 212.818 191.759 200.018C168.679 189.118 139.299 181.018 104.459 176.018C37.3695 166.338 -30.5406 170.608 -60.0506 174.648C-103.051 180.428 -134.661 173.378 -162.531 167.168C-177.841 163.748 -192.311 160.528 -207.171 159.708C-208.041 159.668 -208.911 159.648 -209.781 159.648Z" fill="#E9E9E9"/>
<path d="M-2.90067 471.268C-52.7407 471.268 -75.7807 451.508 -103.401 427.798C-117.821 415.428 -132.731 402.628 -153.341 390.848C-180.031 371.378 -201.821 358.198 -219.341 347.598C-249.341 329.418 -265.931 319.408 -268.261 300.258C-272.141 278.888 -271.391 228.388 -252.041 208.548C-250.901 206.998 -249.761 205.428 -248.631 203.858C-236.781 187.508 -224.521 170.598 -205.941 171.728C-191.481 172.728 -175.391 177.378 -158.351 182.278C-130.771 190.208 -99.5207 199.188 -65.3507 196.058C-28.3507 192.558 158.049 178.718 198.429 250.578C218.429 290.448 217.749 335.928 196.639 375.398C184.039 398.948 165.129 418.738 140.439 434.238C113.529 451.128 80.9193 462.048 43.5293 466.688C25.7193 469.838 10.4493 471.268 -2.90067 471.268ZM-207.661 172.958C-224.661 172.958 -236.271 189.048 -247.551 204.618C-248.691 206.198 -249.837 207.774 -250.991 209.348L-251.051 209.408C-270.101 228.898 -270.801 278.868 -266.951 300.058C-264.691 318.628 -248.331 328.528 -218.631 346.498C-201.101 357.108 -179.281 370.308 -152.631 389.768C-131.981 401.578 -117.021 414.408 -102.561 426.828C-67.7907 456.668 -40.3307 480.228 43.3193 465.418C80.5593 460.798 112.989 449.938 139.749 433.148C164.249 417.768 183.009 398.148 195.499 374.788C216.409 335.698 217.059 290.648 197.279 251.188C181.189 222.548 139.629 204.388 73.7593 197.238C15.7593 190.938 -42.7607 195.238 -65.2407 197.338C-99.6307 200.488 -131.011 191.468 -158.691 183.518C-175.691 178.638 -191.691 174.028 -206.021 173.008C-206.591 172.978 -207.151 172.958 -207.661 172.958Z" fill="#E9E9E9"/>
<path d="M4.52963 434.478C-24.9404 434.478 -48.5904 424.988 -81.2904 411.858C-90.5904 408.128 -100.19 404.268 -111.03 400.178C-118.8 396.378 -126.03 392.838 -132.94 389.518C-192.6 360.588 -219.84 347.388 -223.8 322.658C-227.62 304.318 -239.27 248.458 -231.86 228.828C-227.92 207.828 -221.25 183.828 -204.8 185.178C-191.08 186.448 -173.07 192.768 -153.99 199.468C-127.09 208.918 -96.6003 219.618 -70.5103 218.898C-65.5103 218.738 -59.6004 218.458 -52.7204 218.138C-24.5404 216.818 18.0496 214.818 57.2796 218.368C104.28 222.618 135.16 233.948 149.07 252.038C169.07 281.738 173.77 318.358 161.59 350.038C148.08 385.128 115.59 410.668 70.0296 421.948C43.5696 430.758 22.9196 434.468 4.52963 434.478ZM-206.1 186.258C-220.82 186.258 -227 209.038 -230.76 229.088V229.188C-238.09 248.468 -226.48 304.188 -222.66 322.448C-218.79 346.628 -191.72 359.748 -132.43 388.498C-125.57 391.831 -118.28 395.378 -110.56 399.138C-99.7604 403.218 -90.1504 407.078 -80.8504 410.808C-28.0004 432.028 1.14965 443.718 69.7997 420.808C115 409.598 147.24 384.308 160.61 349.568C172.61 318.258 168.03 282.038 148.23 252.668C134.55 234.868 103.93 223.668 57.2296 219.468C18.0296 215.928 -24.5204 217.918 -52.6704 219.238C-59.5504 219.558 -65.5004 219.838 -70.4704 219.998C-96.7904 220.728 -127.37 209.998 -154.37 200.508C-173.37 193.838 -191.32 187.508 -204.9 186.278C-205.3 186.278 -205.66 186.258 -206.1 186.258Z" fill="#E9E9E9"/>
<path d="M-12.5906 415.578C-29.7306 415.578 -48.3406 413.578 -68.7406 409.478C-140.801 390.888 -173.871 371.618 -179.341 345.058C-182.201 332.868 -190.601 309.488 -198.011 288.868C-203.871 272.548 -209.421 257.108 -211.561 249.108C-214.151 242.318 -215.761 232.818 -215.831 223.748C-215.921 213.818 -214.211 206.078 -211.021 201.958C-210.215 200.78 -209.102 199.846 -207.803 199.257C-206.503 198.668 -205.067 198.447 -203.651 198.618C-190.601 200.178 -169.651 208.878 -147.481 218.078C-121.141 229.018 -93.8906 240.328 -75.6206 241.718C-65.6806 242.428 -49.9606 241.558 -31.7506 240.558C13.4394 238.058 75.3494 234.628 99.8094 253.448C121.739 272.878 133.809 300.618 131.469 325.878C129.469 347.088 117.469 364.798 96.7294 377.088C73.1294 395.088 50.9194 405.988 26.8694 411.408C13.9111 414.255 0.676558 415.653 -12.5906 415.578ZM-204.591 199.578C-205.701 199.594 -206.792 199.875 -207.773 200.397C-208.754 200.918 -209.596 201.666 -210.231 202.578C-216.741 210.978 -215.881 235.038 -210.611 248.828C-208.471 256.828 -202.931 272.228 -197.071 288.538C-189.661 309.188 -181.251 332.588 -178.371 344.838C-172.981 370.998 -140.131 390.048 -68.5106 408.528C-31.5106 415.918 -0.360588 416.528 26.6794 410.468C50.5794 405.088 72.6794 394.228 96.1994 376.298C116.679 364.148 128.519 346.698 130.509 325.798C132.879 300.858 120.879 273.428 99.1994 254.228C75.0494 235.648 13.3394 239.108 -31.6606 241.558C-49.9006 242.558 -65.6606 243.438 -75.6606 242.718C-94.0906 241.318 -121.401 229.978 -147.821 219.008C-169.931 209.828 -190.821 201.158 -203.731 199.608C-204.019 199.575 -204.31 199.558 -204.601 199.558L-204.591 199.578Z" fill="#E9E9E9"/>
<path d="M-20.0204 418.888C-22.1704 418.888 -24.3104 418.888 -26.4604 418.768C-61.4604 417.548 -88.6704 411.448 -107.39 400.628C-122.09 392.138 -131.34 380.978 -134.87 367.448C-140.66 345.308 -174.32 286.608 -191.15 269.318C-197.42 262.868 -202.83 252.198 -206.01 240.038C-208.88 229.038 -209.25 219.038 -206.95 214.638C-205.95 212.638 -204.39 211.788 -202.5 212.088C-189.25 214.188 -160.5 228.088 -132.77 241.508C-111.24 251.928 -90.9104 261.768 -80.7104 264.588C-69.1504 267.778 -45.0104 264.098 -19.4604 260.198C6.85963 256.198 34.0796 252.028 50.4196 254.938C67.5196 257.938 87.0196 268.138 101.29 281.458C117.98 297.028 125.84 314.998 123.43 332.068C120.6 352.068 103.1 374.118 76.5996 391.118C48.5596 409.108 14.4796 418.868 -20.0204 418.888ZM-203.22 212.888C-203.877 212.915 -204.511 213.134 -205.044 213.518C-205.577 213.902 -205.986 214.434 -206.22 215.048C-210.66 223.638 -204.35 254.588 -190.55 268.768C-173.66 286.108 -139.88 345.008 -134.07 367.238C-130.59 380.538 -121.48 391.528 -106.97 399.908C-88.3704 410.658 -61.2704 416.728 -26.4304 417.908C10.0696 419.188 46.5096 409.408 76.1496 390.388C102.05 373.768 119.86 351.388 122.61 331.918C124.98 315.128 117.21 297.408 100.73 282.038C86.5596 268.818 67.2296 258.738 50.2796 255.728C34.0696 252.838 6.91962 256.988 -19.3404 260.988C-44.9804 264.908 -69.1904 268.598 -80.9304 265.358C-91.2004 262.518 -111.57 252.668 -133.14 242.228C-160.85 228.828 -189.5 214.958 -202.63 212.878C-202.826 212.857 -203.023 212.85 -203.22 212.858V212.888Z" fill="#E9E9E9"/>
</svg>
