<svg width="1152" height="625" viewBox="0 0 1152 625" fill="none" xmlns="http://www.w3.org/2000/svg">
<g opacity="0.3">
<path d="M454.839 827.112C430.533 827.112 405.953 826.325 381.099 824.752C241.439 815.872 151.779 771.752 106.989 689.832C68.1894 618.832 68.8094 530.542 69.3594 452.622C69.7194 400.622 70.0694 351.492 58.2794 315.822C19.0394 197.062 -24.1906 170.622 -50.0206 154.822C-65.0206 145.672 -74.8606 139.632 -73.9406 120.982C-73.0406 102.712 -6.23055 79.3816 136.309 47.5616C197.959 33.8016 245.839 45.6816 284.309 55.2316C303.579 60.0116 320.249 64.1516 334.879 64.1016C375.139 63.9816 386.139 59.5816 410.229 49.9316C430.329 41.9316 460.689 29.7416 525.739 13.3816C582.909 -0.988419 672.179 -4.02842 758.739 5.46158C807.989 10.8616 854.739 19.9516 897.739 32.4616C945.839 46.4616 988.059 64.5316 1023.24 86.1316C1088.41 126.132 1128.5 177.472 1142.41 238.722C1156.12 299.062 1154.41 360.792 1137.25 422.202C1120.25 483.202 1088.92 540.772 1044.16 593.312C979.019 669.802 887.839 731.482 780.479 771.692C723.219 793.162 661.339 808.592 596.339 817.592C549.446 823.994 502.168 827.175 454.839 827.112ZM192.339 43.8316C173.681 43.8471 155.082 45.923 136.879 50.0216C72.0495 64.4916 23.7894 77.0216 -10.6606 88.2316C-60.3706 104.442 -71.1506 115.112 -71.4506 121.112C-72.3006 138.282 -63.9206 143.402 -48.7206 152.702C-22.6006 168.702 21.1194 195.412 60.6494 315.032C72.5694 351.102 72.2195 400.422 71.8495 452.642C71.2995 530.262 70.6794 618.232 109.179 688.642C153.519 769.742 242.519 813.452 381.259 822.272C455.479 827.002 527.739 824.592 596.029 815.122C660.759 806.122 722.519 790.762 779.579 769.392C886.579 729.332 977.359 667.902 1042.23 591.742C1086.75 539.472 1117.9 482.222 1134.82 421.572C1151.82 360.572 1153.56 299.242 1139.95 239.312C1126.19 178.742 1086.48 127.932 1021.95 88.3116C986.949 66.8316 944.949 48.8616 897.049 34.9016C854.229 22.4216 807.609 13.3616 758.509 7.97159C672.199 -1.49841 583.259 1.51158 526.339 15.8216C461.449 32.1316 431.179 44.2516 411.149 52.2716C386.749 62.0316 375.609 66.4916 334.869 66.6116H334.659C319.749 66.6116 303.039 62.4716 283.659 57.6716C257.929 51.2716 227.889 43.8216 192.339 43.8316Z" fill="white"/>
<path d="M467.209 781.692C447.549 781.692 427.695 781.132 407.649 780.012C281.509 773.162 199.459 734.912 156.809 663.112C119.809 600.702 117.709 522.022 115.889 452.602C114.629 404.242 113.429 358.602 100.559 325.252C60.9986 218.552 19.5186 192.592 -5.26143 177.112C-20.2614 167.742 -30.1314 161.552 -29.4814 143.442C-29.2914 133.212 -10.9214 120.892 25.1086 106.842C57.5286 94.1916 102.969 80.6616 156.539 67.7116C212.469 53.9616 256.129 63.3116 291.199 70.8216C308.199 74.4516 322.799 77.5916 336.029 77.6016C377.979 77.7016 388.369 74.3816 419.209 64.6016C439.939 58.0116 468.309 48.9916 520.609 36.2816C574.179 23.2816 657.469 20.5216 737.969 29.1616C784.019 34.1016 827.649 42.4316 867.649 53.9316C912.529 66.8316 951.839 83.4716 984.489 103.402C1043.39 139.402 1079.94 185.402 1093.14 240.302C1106.28 295.522 1105.3 352.102 1090.22 408.472C1075.22 464.472 1047.13 517.412 1006.67 565.762C948.209 635.632 866.079 692.202 769.159 729.362C717.479 749.112 661.479 763.522 602.729 772.112C557.845 778.562 512.554 781.763 467.209 781.692ZM214.029 62.9916C194.839 63.0124 175.722 65.3629 157.099 69.9916C43.7886 97.3816 -26.8014 125.552 -27.1414 143.502C-27.7414 160.282 -18.8114 165.872 -4.01143 175.132C20.9886 190.792 62.9186 217.022 102.749 324.412C115.749 358.092 116.959 403.962 118.229 452.532C120.039 521.662 122.089 600.022 158.829 661.902C201.039 733.022 282.469 770.902 407.829 777.702C475.159 781.492 540.639 778.842 602.439 769.812C660.979 761.232 716.799 746.872 768.339 727.112C864.889 690.112 946.689 633.762 1004.89 564.202C1045.13 516.112 1073.09 463.492 1087.98 407.812C1102.98 351.812 1103.98 295.622 1090.88 240.812C1077.88 186.572 1041.64 141.002 983.279 105.372C940.159 79.0416 862.549 44.8516 737.739 31.4616C657.489 22.8516 574.509 25.5616 521.179 38.5316C468.969 51.2216 440.629 60.2216 419.939 66.8016C389.689 76.4216 378.339 80.0116 336.049 79.9316C322.569 79.9316 307.819 76.7616 290.729 73.1016C268.809 68.3916 243.539 62.9816 214.029 62.9916Z" fill="white"/>
<path d="M480.238 736.342C465.058 736.342 449.725 735.978 434.238 735.252C321.478 730.412 247.048 697.972 206.648 636.112C171.448 582.172 166.798 513.112 162.698 452.112C159.698 407.582 156.878 365.512 142.848 334.632C103.108 240.082 63.4082 214.682 39.6882 199.502C24.5882 189.852 14.6182 183.502 14.9782 165.852C14.7082 141.802 98.6582 108.532 176.768 87.8517C227.248 73.9817 266.848 80.8517 298.668 86.3717C313.098 88.8717 325.558 91.0317 337.178 91.0917C384.828 91.4617 393.558 89.2517 442.058 77.0217C460.318 72.4217 483.058 66.6917 515.468 59.1417C548.608 51.4017 594.468 47.5817 644.468 48.4017C700.808 49.3317 757.548 56.0617 808.568 67.8617C868.938 81.8617 919.298 102.252 958.258 128.552C1003.64 159.192 1032.44 197.292 1043.87 241.802C1056.45 291.912 1056.23 343.352 1043.21 394.692C1030.27 445.692 1005.36 494.012 969.208 538.182C917.438 601.352 844.338 652.802 757.858 686.912C674.638 719.732 581.428 736.302 480.238 736.342ZM236.688 81.8317C216.631 81.8283 196.666 84.543 177.338 89.9017C84.3382 114.572 16.9482 146.502 17.1682 165.832C16.8282 182.252 25.8782 188.042 40.8682 197.632C64.8082 212.942 104.868 238.572 144.868 333.722C159.058 364.942 161.868 407.192 164.868 451.932C168.948 512.622 173.578 581.402 208.468 634.862C248.468 696.112 322.338 728.252 434.338 733.112C553.108 738.762 661.698 722.542 757.098 684.922C843.248 650.922 916.028 599.722 967.578 536.772C1003.58 492.852 1028.3 444.872 1041.16 394.132C1054.09 343.132 1054.31 292.072 1041.82 242.322C1030.54 198.322 1002.04 160.682 957.108 130.322C918.378 104.172 868.258 83.8617 808.108 69.9517C757.248 58.1817 700.658 51.4717 644.478 50.5517C594.588 49.7317 548.948 53.5517 515.968 61.2217C483.568 68.7717 460.858 74.5017 442.608 79.1017C393.878 91.3817 385.098 93.5917 337.168 93.2417C325.368 93.1717 312.828 91.0017 298.298 88.4817C280.408 85.3517 260.048 81.8217 236.688 81.8317Z" fill="white"/>
<path d="M492.43 691.112C481.956 691.112 471.393 690.918 460.74 690.532C361.34 687.672 294.53 660.942 256.5 608.802C223.24 563.172 216.42 506.192 209.83 451.112C204.99 410.622 200.42 372.382 185.13 344.022C145.44 261.572 109 237.802 84.8896 222.112C68.9796 211.732 59.3796 205.462 59.4396 188.272C58.5396 166.272 118.97 131.002 197 107.922C242.54 93.6715 278.41 98.1416 307.24 101.742C318.24 103.112 328.69 104.412 338.32 104.512L343.19 104.582C399.3 105.402 403.88 105.462 510.31 81.9415C540.22 75.3015 583.08 71.8515 627.89 72.4515C679.44 73.1515 731.28 78.9415 777.8 89.1915C833.09 101.382 879.28 119.342 915.1 142.572C956.89 169.672 983.65 203.572 994.64 243.252C1006.64 288.252 1007.23 334.562 996.27 380.892C985.37 426.972 963.68 470.622 931.8 510.612C886.67 567.212 822.62 613.542 746.55 644.612C670.91 675.422 585.55 691.032 492.43 691.112ZM261.01 100.112C239.496 100.065 218.104 103.34 197.59 109.822C121.69 132.272 60.5896 167.412 61.4796 188.172C61.4196 204.302 70.6696 210.342 85.9996 220.342C108.83 235.232 147 260.152 186.95 343.042C202.4 371.702 206.95 410.132 211.86 450.822C218.42 505.662 225.2 562.382 258.15 607.542C295.78 659.132 362.07 685.542 460.8 688.432C566.02 692.282 661.9 676.872 745.8 642.642C821.54 611.732 885.32 565.642 930.23 509.272C961.92 469.522 983.48 426.152 994.3 380.362C1005.18 334.362 1004.64 288.362 992.7 243.732C981.84 204.532 955.37 171.052 914.01 144.222C878.4 121.122 832.43 103.222 777.38 91.1315C730.99 80.9016 679.29 75.1316 627.88 74.4316C583.22 73.8316 540.53 77.2715 510.78 83.8715C404.11 107.452 399.5 107.382 343.19 106.562L338.34 106.512C328.59 106.412 318.12 105.112 307.03 103.722C293.34 102.022 278.11 100.112 261.01 100.112Z" fill="white"/>
<path d="M504.558 645.922C498.828 645.922 493.078 645.862 487.278 645.732C294.008 643.732 274.528 540.462 257.278 449.402C250.458 413.242 244.008 379.092 227.378 353.402C188.038 283.172 153.378 260.202 130.438 244.992C114.018 234.112 104.108 227.542 103.848 210.672C103.098 200.002 114.348 185.062 134.718 169.742C156.338 153.472 185.618 138.662 217.168 128.022C258.908 112.772 290.448 114.942 318.278 116.852C325.668 117.362 332.638 117.852 339.418 117.962C349.618 118.182 358.508 118.562 366.348 118.902C402.568 120.472 424.418 121.422 505.128 104.762C556.598 94.0716 654.238 91.3216 746.978 110.542C797.178 120.952 839.198 136.452 871.878 156.612C910.078 180.172 934.798 209.822 945.358 244.722C956.866 284.549 958.234 326.621 949.338 367.112C940.488 408.252 922.008 447.282 894.418 483.112C855.938 533.112 800.888 574.272 735.238 602.242C667.208 631.212 589.668 645.892 504.558 645.922ZM287.998 117.372C264.054 117.229 240.282 121.43 217.838 129.772C150.068 152.632 104.398 190.692 105.778 210.562C106.028 226.482 115.628 232.842 131.528 243.392C154.618 258.692 189.528 281.822 229.048 352.392C245.848 378.392 252.328 412.692 259.188 449.042C267.898 495.162 276.898 542.852 307.788 579.882C342.918 622.002 401.638 642.882 487.308 643.882C578.968 645.952 662.138 631.362 734.518 600.532C799.868 572.692 854.658 531.702 892.938 481.992C920.358 446.392 938.718 407.612 947.508 366.752C956.353 326.566 955.008 284.806 943.598 245.272C930.048 200.482 884.868 141.052 746.598 112.402C654.118 93.2416 556.798 95.9716 505.518 106.622C424.628 123.292 402.678 122.342 366.338 120.762C358.508 120.422 349.638 120.042 339.458 119.762C332.628 119.652 325.628 119.172 318.218 118.662C308.658 118.052 298.678 117.362 287.998 117.372Z" fill="white"/>
<path d="M507.611 601.022C437.611 601.022 387.981 585.302 356.101 552.952C327.101 523.532 315.981 484.522 305.231 446.792C296.231 415.352 287.811 385.662 269.731 362.792C231.231 304.792 198.441 282.882 176.731 268.362C159.411 256.772 148.961 249.782 148.351 233.072C146.131 210.562 183.751 169.422 237.421 148.132C278.841 129.822 308.581 130.592 337.341 131.322L340.611 131.412C354.471 131.832 366.081 132.952 377.311 134.042C407.411 136.942 435.841 139.682 500.031 127.592C546.801 118.712 634.401 116.272 716.241 131.902C785.241 145.082 872.411 175.612 896.151 246.202C918.151 315.812 903.921 392.202 857.151 455.792C825.271 499.112 779.221 535.112 723.971 559.972C663.571 587.162 593.801 600.972 516.581 600.972H513.831C511.744 601.005 509.671 601.022 507.611 601.022ZM320.001 132.742C296.491 132.742 271.001 135.162 238.101 149.742C180.731 172.502 148.181 213.552 150.101 232.962C150.691 248.832 160.861 255.642 177.711 266.962C199.531 281.562 232.501 303.622 271.151 361.822C289.391 384.932 297.901 414.822 306.911 446.392C317.601 483.912 328.661 522.712 357.351 551.812C389.811 584.752 440.981 600.272 513.831 599.322H516.571C593.571 599.322 663.091 585.552 723.271 558.472C778.271 533.732 824.061 497.892 855.751 454.812C878.911 423.342 894.061 389.142 900.751 353.172C907.536 317.742 905.381 281.179 894.481 246.792C871.011 177.012 784.411 146.792 715.891 133.662C634.341 117.992 546.981 120.422 500.341 129.272C435.891 141.412 407.341 138.652 377.121 135.742C365.921 134.662 354.341 133.542 340.541 133.112L337.281 133.032C331.611 132.892 325.871 132.742 320.001 132.742Z" fill="white"/>
<path d="M521.72 556.672C470.5 556.672 432.41 546.002 405.65 524.182C378.89 502.362 366.01 472.182 353.44 442.872C342.7 417.872 331.59 391.952 312.04 372.132C275.21 326.582 244.49 306.072 224.17 292.502C205.26 279.872 193.85 272.252 192.82 255.452C190.12 234.162 214.03 189.552 257.64 168.212C288.37 150.872 313.53 143.872 341.76 144.832C356.76 145.452 369.76 147.512 383.45 149.682C412.45 154.292 442.45 159.052 494.89 150.402C537.2 143.322 614.89 141.192 685.45 153.242C746.61 163.672 824.26 188.522 846.91 247.652C868.01 307.272 858.18 373.222 819.91 428.652C794.62 465.292 757.53 496.152 712.65 517.882C663.01 541.882 605.03 554.832 540.33 556.262C533.963 556.528 527.76 556.665 521.72 556.672ZM336.72 146.332C310.8 146.332 287.07 153.442 258.41 169.622C215.41 190.672 191.78 234.422 194.41 255.302C195.41 271.372 205.93 278.402 225.06 291.182C245.46 304.802 276.3 325.402 313.23 371.082C332.94 391.082 344.11 417.082 354.91 442.242C367.41 471.362 380.33 501.472 406.67 522.952C436.25 547.112 479.97 557.442 540.34 554.632C604.83 553.202 662.58 540.342 712.02 516.402C756.65 494.792 793.53 464.122 818.66 427.702C856.66 372.702 866.36 307.312 845.44 248.202C823.06 189.792 745.95 165.202 685.2 154.802C614.82 142.802 537.36 144.912 495.2 151.962C442.54 160.662 412.4 155.882 383.2 151.252C369.51 149.082 356.59 147.032 341.69 146.412C340.02 146.362 338.34 146.332 336.69 146.332H336.72Z" fill="white"/>
<path d="M535.087 513.112C452.567 513.112 427.657 476.032 401.447 436.982C388.517 417.722 375.157 397.812 354.347 381.522C320.767 348.672 293.777 331.082 274.077 318.242C251.347 303.432 238.827 295.242 237.277 277.872C235.477 266.242 238.227 248.952 244.457 232.802C251.997 213.282 263.837 197.502 277.827 188.362C300.147 170.682 319.157 157.222 342.907 158.302C357.907 159.122 372.407 162.362 387.787 165.792C415.537 171.972 446.997 178.992 489.787 173.252C519.387 169.192 587.447 164.922 654.697 174.622C689.697 179.622 719.187 187.782 742.407 198.742C769.827 211.692 788.407 228.652 797.677 249.142C818.067 298.832 812.677 354.452 783.037 401.762C764.247 431.762 736.037 457.342 701.497 475.882C663.277 496.402 618.017 508.372 566.957 511.482C555.447 512.562 544.867 513.112 535.087 513.112ZM340.217 159.652C318.217 159.652 299.967 172.652 278.667 189.512C246.667 210.402 235.667 258.012 238.667 277.682C240.167 294.432 252.477 302.452 274.827 317.022C294.587 329.892 321.637 347.532 355.257 380.422C376.187 396.802 389.617 416.812 402.607 436.162C417.417 458.222 431.407 479.062 455.297 493.352C482.227 509.452 517.647 514.752 566.797 510.022C617.667 506.932 662.737 495.022 700.797 474.602C735.137 456.172 763.147 430.712 781.797 400.982C811.237 354.112 816.537 298.922 796.337 249.692C787.237 229.542 768.867 212.822 741.757 200.022C718.677 189.122 689.297 181.022 654.457 176.022C587.367 166.342 519.457 170.612 489.947 174.652C446.947 180.432 415.337 173.382 387.467 167.172C372.157 163.752 357.687 160.532 342.827 159.712C341.957 159.672 341.087 159.652 340.217 159.652Z" fill="white"/>
<path d="M547.102 471.272C497.262 471.272 474.222 451.512 446.602 427.802C432.182 415.432 417.272 402.632 396.662 390.852C369.972 371.382 348.182 358.202 330.662 347.602C300.662 329.422 284.072 319.412 281.742 300.262C277.862 278.892 278.612 228.392 297.962 208.552C299.102 207.002 300.242 205.432 301.372 203.862C313.222 187.512 325.482 170.602 344.062 171.732C358.522 172.732 374.612 177.382 391.652 182.282C419.232 190.212 450.482 199.192 484.652 196.062C521.652 192.562 708.052 178.722 748.432 250.582C768.432 290.452 767.752 335.932 746.642 375.402C734.042 398.952 715.132 418.742 690.442 434.242C663.532 451.132 630.922 462.052 593.532 466.692C575.722 469.842 560.452 471.272 547.102 471.272ZM342.342 172.962C325.342 172.962 313.732 189.052 302.452 204.622C301.312 206.202 300.165 207.778 299.012 209.352L298.952 209.412C279.902 228.902 279.202 278.872 283.052 300.062C285.312 318.632 301.672 328.532 331.372 346.502C348.902 357.112 370.722 370.312 397.372 389.772C418.022 401.582 432.982 414.412 447.442 426.832C482.212 456.672 509.672 480.232 593.322 465.422C630.562 460.802 662.992 449.942 689.752 433.152C714.252 417.772 733.012 398.152 745.502 374.792C766.412 335.702 767.062 290.652 747.282 251.192C731.192 222.552 689.632 204.392 623.762 197.242C565.762 190.942 507.242 195.242 484.762 197.342C450.372 200.492 418.992 191.472 391.312 183.522C374.312 178.642 358.312 174.032 343.982 173.012C343.412 172.982 342.852 172.962 342.342 172.962Z" fill="white"/>
<path d="M554.528 434.482C525.058 434.482 501.408 424.992 468.708 411.862C459.408 408.132 449.808 404.272 438.968 400.182C431.198 396.382 423.968 392.842 417.058 389.522C357.398 360.592 330.158 347.392 326.198 322.662C322.378 304.322 310.728 248.462 318.138 228.832C322.078 207.832 328.748 183.832 345.198 185.182C358.918 186.452 376.928 192.772 396.008 199.472C422.908 208.922 453.398 219.622 479.488 218.902C484.488 218.742 490.398 218.462 497.278 218.142C525.458 216.822 568.048 214.822 607.278 218.372C654.278 222.622 685.158 233.952 699.068 252.042C719.068 281.742 723.768 318.362 711.588 350.042C698.078 385.132 665.588 410.672 620.028 421.952C593.568 430.762 572.918 434.472 554.528 434.482ZM343.898 186.262C329.178 186.262 322.998 209.042 319.238 229.092V229.192C311.908 248.472 323.518 304.192 327.338 322.452C331.208 346.632 358.278 359.752 417.568 388.502C424.428 391.835 431.718 395.382 439.438 399.142C450.238 403.222 459.848 407.082 469.148 410.812C521.998 432.032 551.148 443.722 619.798 420.812C664.998 409.602 697.238 384.312 710.608 349.572C722.608 318.262 718.028 282.042 698.228 252.672C684.548 234.872 653.928 223.672 607.228 219.472C568.028 215.932 525.478 217.922 497.328 219.242C490.448 219.562 484.498 219.842 479.528 220.002C453.208 220.732 422.628 210.002 395.628 200.512C376.628 193.842 358.678 187.512 345.098 186.282C344.698 186.282 344.338 186.262 343.898 186.262Z" fill="white"/>
<path d="M537.411 415.582C520.271 415.582 501.661 413.582 481.261 409.482C409.201 390.892 376.131 371.622 370.661 345.062C367.801 332.872 359.401 309.492 351.991 288.872C346.131 272.552 340.581 257.112 338.441 249.112C335.851 242.322 334.241 232.822 334.171 223.752C334.081 213.822 335.791 206.082 338.981 201.962C339.787 200.784 340.9 199.85 342.199 199.261C343.499 198.672 344.935 198.451 346.351 198.622C359.401 200.182 380.351 208.882 402.521 218.082C428.861 229.022 456.111 240.332 474.381 241.722C484.321 242.432 500.041 241.562 518.251 240.562C563.441 238.062 625.351 234.632 649.811 253.452C671.741 272.882 683.811 300.622 681.471 325.882C679.471 347.092 667.471 364.802 646.731 377.092C623.131 395.092 600.921 405.992 576.871 411.412C563.913 414.258 550.679 415.657 537.411 415.582ZM345.411 199.582C344.301 199.598 343.21 199.879 342.229 200.401C341.248 200.922 340.406 201.67 339.771 202.582C333.261 210.982 334.121 235.042 339.391 248.832C341.531 256.832 347.071 272.232 352.931 288.542C360.341 309.192 368.751 332.592 371.631 344.842C377.021 371.002 409.871 390.052 481.491 408.532C518.491 415.922 549.641 416.532 576.681 410.472C600.581 405.092 622.681 394.232 646.201 376.302C666.681 364.152 678.521 346.702 680.511 325.802C682.881 300.862 670.881 273.432 649.201 254.232C625.051 235.652 563.341 239.112 518.341 241.562C500.101 242.562 484.341 243.442 474.341 242.722C455.911 241.322 428.601 229.982 402.181 219.012C380.071 209.832 359.181 201.162 346.271 199.612C345.982 199.579 345.692 199.562 345.401 199.562L345.411 199.582Z" fill="white"/>
<path d="M529.981 418.892C527.831 418.892 525.691 418.892 523.541 418.772C488.541 417.552 461.331 411.452 442.611 400.632C427.911 392.142 418.661 380.982 415.131 367.452C409.341 345.312 375.681 286.612 358.851 269.322C352.581 262.872 347.171 252.202 343.991 240.042C341.121 229.042 340.751 219.042 343.051 214.642C344.051 212.642 345.611 211.792 347.501 212.092C360.751 214.192 389.501 228.092 417.231 241.512C438.761 251.932 459.091 261.772 469.291 264.592C480.851 267.782 504.991 264.102 530.541 260.202C556.861 256.202 584.081 252.032 600.421 254.942C617.521 257.942 637.021 268.142 651.291 281.462C667.981 297.032 675.841 315.002 673.431 332.072C670.601 352.072 653.101 374.122 626.601 391.122C598.561 409.112 564.481 418.872 529.981 418.892ZM346.781 212.892C346.124 212.919 345.49 213.138 344.957 213.522C344.424 213.906 344.015 214.438 343.781 215.052C339.341 223.642 345.651 254.592 359.451 268.772C376.341 286.112 410.121 345.012 415.931 367.242C419.411 380.542 428.521 391.532 443.031 399.912C461.631 410.662 488.731 416.732 523.571 417.912C560.071 419.192 596.511 409.412 626.151 390.392C652.051 373.772 669.861 351.392 672.611 331.922C674.981 315.132 667.211 297.412 650.731 282.042C636.561 268.822 617.231 258.742 600.281 255.732C584.071 252.842 556.921 256.992 530.661 260.992C505.021 264.912 480.811 268.602 469.071 265.362C458.801 262.522 438.431 252.672 416.861 242.232C389.151 228.832 360.501 214.962 347.371 212.882C347.175 212.86 346.977 212.854 346.781 212.862V212.892Z" fill="white"/>
</g>
</svg>
