<svg width="550" height="728" viewBox="0 0 550 728" fill="none" xmlns="http://www.w3.org/2000/svg">
<path d="M464.976 727.224C443.604 727.224 421.993 726.533 400.141 725.149C277.346 717.342 198.514 678.55 159.133 606.523C125.018 544.097 125.563 466.469 126.047 397.959C126.364 352.238 126.671 309.041 116.305 277.679C81.8038 173.261 43.7943 150.014 21.0836 136.122C7.89506 128.077 -0.756636 122.766 0.052263 106.368C0.843577 90.3045 59.5855 69.7919 184.912 41.8145C239.117 29.7162 281.215 40.1615 315.039 48.5583C331.982 52.761 346.639 56.4011 359.502 56.3571C394.9 56.2516 404.572 52.383 425.753 43.8983C443.426 36.8644 470.119 26.1465 527.314 11.7622C577.58 -0.87249 656.069 -3.54537 732.176 4.7986C775.478 9.54648 816.583 17.5388 854.39 28.538C896.681 40.8473 933.803 56.7352 964.734 75.7267C1022.03 110.896 1057.28 156.036 1069.51 209.89C1081.57 262.943 1080.06 317.218 1064.98 371.212C1050.03 424.846 1022.48 475.463 983.128 521.659C925.854 588.911 845.686 643.143 751.291 678.497C700.945 697.374 646.538 710.941 589.388 718.854C548.157 724.483 506.589 727.28 464.976 727.224ZM234.176 38.535C217.771 38.5486 201.417 40.3738 185.413 43.9774C128.412 56.7 85.9802 67.7169 55.6904 77.5731C11.9835 91.8256 2.50534 101.207 2.24157 106.482C1.49422 121.579 8.86223 126.081 22.2266 134.258C45.1923 148.325 83.6326 171.81 118.389 276.984C128.869 308.698 128.562 352.062 128.236 397.976C127.753 466.223 127.208 543.569 161.058 605.476C200.044 676.782 278.296 715.214 400.281 722.969C465.538 727.128 529.072 725.009 589.115 716.682C646.028 708.769 700.33 695.264 750.499 676.475C844.578 641.253 924.395 587.241 981.431 520.278C1020.57 474.32 1047.96 423.984 1062.84 370.658C1077.79 317.025 1079.32 263.101 1067.35 210.408C1055.25 157.153 1020.34 112.479 963.6 77.6434C932.827 58.7574 895.899 42.9575 853.783 30.6834C816.134 19.7105 775.144 11.7446 731.974 7.00549C656.087 -1.3209 577.887 1.32561 527.841 13.9075C470.787 28.2479 444.173 38.9042 426.562 45.9557C405.108 54.5371 395.314 58.4585 359.493 58.564H359.309C346.199 58.564 331.507 54.9239 314.468 50.7036C291.845 45.0765 265.433 38.5262 234.176 38.535Z" fill="#E9E9E9"/>
<path d="M475.852 687.289C458.566 687.289 441.11 686.797 423.485 685.812C312.577 679.789 240.436 646.159 202.937 583.029C170.405 528.156 168.558 458.978 166.958 397.941C165.85 355.421 164.795 315.293 153.479 285.97C118.697 192.155 82.226 169.33 60.4385 155.72C47.2499 147.481 38.5718 142.039 39.1433 126.116C39.3104 117.121 55.462 106.289 87.1409 93.9357C115.646 82.8133 155.598 70.9172 202.699 59.5311C251.875 47.4416 290.262 55.6625 321.097 62.2655C336.044 65.4572 348.881 68.218 360.514 68.2268C397.398 68.3147 406.533 65.3956 433.649 56.7967C451.875 51.0025 476.819 43.0718 522.803 31.8966C569.904 20.4666 643.136 18.0399 713.914 25.6365C754.403 29.9799 792.765 37.304 827.934 47.4152C867.394 58.7574 901.957 73.3879 930.664 90.9111C982.451 122.564 1014.59 163.009 1026.19 211.279C1037.75 259.83 1036.88 309.578 1023.63 359.14C1010.44 408.377 985.74 454.924 950.166 497.436C898.765 558.868 826.554 608.606 741.338 641.279C695.899 658.644 646.661 671.314 595.006 678.866C555.543 684.537 515.721 687.352 475.852 687.289ZM253.247 55.3811C236.374 55.3994 219.566 57.466 203.192 61.5358C103.565 85.6181 41.4997 110.386 41.2008 126.169C40.6732 140.922 48.5248 145.837 61.5375 153.979C83.5185 167.748 120.385 190.81 155.405 285.231C166.835 314.844 167.899 355.175 169.016 397.879C170.607 458.661 172.409 527.558 204.713 581.965C241.825 644.497 313.422 677.802 423.643 683.781C482.842 687.113 540.414 684.784 594.751 676.844C646.222 669.3 695.301 656.674 740.617 639.3C825.507 606.769 897.429 557.224 948.601 496.064C983.981 453.781 1008.56 407.516 1021.66 358.56C1034.85 309.323 1035.72 259.918 1024.21 211.727C1012.78 164.037 980.912 123.97 929.6 92.6432C891.687 69.4929 823.45 39.4317 713.712 27.6587C643.153 20.0885 570.194 22.4712 523.304 33.8749C477.399 45.0325 452.482 52.9456 434.29 58.731C407.693 67.1893 397.714 70.3457 360.531 70.2754C348.679 70.2754 335.71 67.4882 320.684 64.2702C301.411 60.129 279.193 55.3723 253.247 55.3811Z" fill="#E9E9E9"/>
<path d="M487.308 647.416C473.961 647.416 460.48 647.096 446.863 646.458C347.72 642.202 282.279 613.68 246.757 559.29C215.808 511.864 211.72 451.144 208.115 397.51C205.477 358.358 202.998 321.368 190.662 294.217C155.721 211.085 120.815 188.753 99.9598 175.406C86.6834 166.921 77.9174 161.338 78.2339 145.82C77.9965 124.674 151.808 95.4216 220.486 77.239C264.87 65.0439 299.688 71.0843 327.665 75.9377C340.352 78.1358 351.308 80.0349 361.524 80.0877C403.42 80.413 411.096 78.4699 453.739 67.7168C469.794 63.6723 489.788 58.6343 518.284 51.9961C547.422 45.1908 587.743 41.8321 631.705 42.553C681.242 43.3707 731.13 49.288 775.988 59.663C829.068 71.9723 873.346 89.9 907.601 113.024C947.501 139.964 972.823 173.463 982.873 212.598C993.934 256.656 993.74 301.884 982.293 347.024C970.915 391.865 949.013 434.35 917.229 473.186C871.711 528.728 807.439 573.964 731.402 603.955C658.232 632.812 576.278 647.381 487.308 647.416ZM273.17 71.946C255.535 71.943 237.981 74.3298 220.987 79.0414C139.218 100.732 79.966 128.806 80.1594 145.802C79.8604 160.239 87.8176 165.33 100.997 173.762C122.046 187.223 157.269 209.758 192.438 293.417C204.914 320.867 207.385 358.015 210.023 397.352C213.61 450.713 217.681 511.187 248.358 558.191C283.527 612.044 348.476 640.303 446.951 644.576C551.378 649.544 646.855 635.282 730.734 602.206C806.48 572.311 870.471 527.294 915.796 471.946C947.448 433.33 969.183 391.144 980.49 346.532C991.859 301.691 992.052 256.797 981.07 213.055C971.153 174.368 946.094 141.274 906.59 114.58C872.537 91.5881 828.47 73.7308 775.584 61.5006C730.866 51.152 681.11 45.2523 631.714 44.4434C587.849 43.7224 547.72 47.0811 518.723 53.8249C490.236 60.4631 470.268 65.5012 454.222 69.5456C411.377 80.3427 403.657 82.2858 361.516 81.9781C351.141 81.9165 340.115 80.0086 327.34 77.7929C311.61 75.0409 293.709 71.9372 273.17 71.946Z" fill="#E9E9E9"/>
<path d="M498.026 607.648C488.818 607.648 479.53 607.478 470.163 607.138C382.767 604.623 324.025 581.121 290.588 535.278C261.344 495.158 255.348 445.059 249.554 396.631C245.298 361.03 241.28 327.408 227.837 302.473C192.94 229.98 160.9 209.081 139.702 195.285C125.713 186.159 117.272 180.646 117.325 165.532C116.534 146.189 169.666 115.178 238.273 94.8851C278.314 82.356 309.852 86.2862 335.2 89.4515C344.872 90.656 354.06 91.799 362.527 91.8869L366.809 91.9485C416.143 92.6695 420.17 92.7222 513.747 72.0425C540.045 66.2044 577.729 63.171 617.128 63.6986C662.453 64.314 708.032 69.4048 748.934 78.417C797.547 89.1349 838.159 104.926 869.654 125.351C906.397 149.178 929.926 178.984 939.588 213.872C950.139 253.438 950.658 294.156 941.022 334.891C931.438 375.406 912.367 413.785 884.337 448.945C844.657 498.71 788.342 539.445 721.458 566.763C654.953 593.853 579.901 607.578 498.026 607.648ZM294.553 88.0183C275.637 87.9772 256.829 90.8569 238.792 96.5557C172.058 116.295 118.336 147.191 119.119 165.444C119.066 179.626 127.199 184.937 140.678 193.729C160.751 206.821 194.311 228.732 229.437 301.612C243.021 326.81 247.021 360.6 251.339 396.376C257.106 444.593 263.068 494.464 292.038 534.17C325.124 579.53 383.409 602.751 470.216 605.292C562.729 608.677 647.031 595.128 720.799 565.031C787.392 537.854 843.47 497.33 882.957 447.767C910.82 412.818 929.776 374.685 939.289 334.425C948.855 293.98 948.381 253.535 937.883 214.294C928.334 179.828 905.061 150.391 868.695 126.801C837.386 106.491 796.967 90.7527 748.565 80.1227C707.777 71.1281 662.321 66.0549 617.119 65.4395C577.852 64.9119 540.318 67.9365 514.16 73.7395C420.372 94.4719 416.319 94.4104 366.809 93.6894L362.545 93.6454C353.972 93.5575 344.766 92.4145 335.016 91.1923C322.979 89.6976 309.588 88.0183 294.553 88.0183Z" fill="#E9E9E9"/>
<path d="M508.691 567.915C503.653 567.915 498.598 567.863 493.498 567.748C323.568 565.99 306.44 475.191 291.273 395.128C285.277 363.334 279.606 333.308 264.984 310.721C230.395 248.972 199.92 228.776 179.751 215.403C165.314 205.836 156.6 200.06 156.372 185.227C155.712 175.846 165.604 162.71 183.514 149.24C202.523 134.935 228.267 121.913 256.007 112.558C292.706 99.1497 320.438 101.058 344.907 102.737C351.404 103.185 357.533 103.616 363.494 103.713C372.462 103.906 380.279 104.24 387.172 104.539C419.018 105.92 438.229 106.755 509.192 92.107C554.447 82.7079 640.296 80.29 721.836 97.189C765.974 106.342 802.919 119.97 831.653 137.695C865.24 158.41 886.974 184.48 896.259 215.165C906.378 250.183 907.581 287.174 899.759 322.775C891.977 358.947 875.729 393.264 851.471 424.767C817.638 468.729 769.236 504.918 711.514 529.51C651.699 554.982 583.523 567.889 508.691 567.915ZM318.283 103.194C297.231 103.069 276.33 106.762 256.596 114.097C197.01 134.196 156.855 167.66 158.069 185.13C158.289 199.128 166.729 204.72 180.709 213.996C201.011 227.448 231.705 247.785 266.452 309.833C281.224 332.693 286.921 362.851 292.953 394.811C300.611 435.361 308.524 477.292 335.684 509.85C366.571 546.884 418.2 565.242 493.524 566.122C574.115 567.942 647.241 555.114 710.881 528.007C768.339 503.529 816.512 467.489 850.17 423.782C874.278 392.481 890.421 358.384 898.15 322.459C905.926 287.125 904.744 250.409 894.712 215.649C882.798 176.268 843.074 124.015 721.502 98.8244C640.19 81.9782 554.623 84.3785 509.535 93.7424C438.414 108.399 419.114 107.564 387.163 106.175C380.279 105.876 372.48 105.542 363.529 105.296C357.524 105.199 351.369 104.777 344.854 104.328C336.449 103.792 327.674 103.185 318.283 103.194Z" fill="#E9E9E9"/>
<path d="M511.373 528.437C449.826 528.437 406.19 514.616 378.16 486.172C352.662 460.305 342.885 426.006 333.433 392.833C325.52 365.189 318.117 339.085 302.22 318.977C268.369 267.981 239.539 248.717 220.451 235.95C205.222 225.76 196.034 219.614 195.498 204.922C193.546 185.13 226.623 148.958 273.812 130.239C310.23 114.141 336.378 114.818 361.665 115.459L364.54 115.539C376.727 115.908 386.934 116.893 396.808 117.851C423.273 120.401 448.27 122.81 504.708 112.18C545.83 104.372 622.852 102.227 694.808 115.969C755.476 127.558 832.119 154.401 852.992 216.466C872.335 277.67 859.824 344.835 818.702 400.746C790.672 438.834 750.183 470.487 701.605 492.345C648.499 516.251 587.154 528.393 519.26 528.393H516.842C515.007 528.423 513.184 528.437 511.373 528.437ZM346.419 116.708C325.748 116.708 303.337 118.836 274.41 131.655C223.968 151.666 195.349 187.759 197.037 204.825C197.555 218.779 206.497 224.766 221.312 234.719C240.497 247.556 269.486 266.952 303.468 318.124C319.506 338.443 326.988 364.723 334.91 392.481C344.309 425.47 354.033 459.584 379.259 485.17C407.799 514.132 452.789 527.778 516.842 526.943H519.251C586.952 526.943 648.077 514.836 700.989 491.026C749.348 469.273 789.608 437.762 817.471 399.884C837.834 372.214 851.154 342.144 857.037 310.518C863.002 279.367 861.107 247.22 851.524 216.985C830.888 155.632 754.746 129.061 694.501 117.517C622.799 103.739 545.989 105.876 504.981 113.657C448.314 124.331 423.212 121.904 396.641 119.346C386.794 118.396 376.612 117.411 364.479 117.033L361.612 116.963C356.627 116.84 351.58 116.708 346.419 116.708Z" fill="#E9E9E9"/>
<path d="M523.779 489.443C478.744 489.443 445.254 480.062 421.726 460.877C398.197 441.692 386.873 415.157 375.821 389.386C366.378 367.405 356.609 344.615 339.42 327.189C307.038 287.14 280.028 269.106 262.162 257.175C245.535 246.07 235.503 239.371 234.597 224.599C232.224 205.88 253.246 166.658 291.59 147.895C318.609 132.649 340.73 126.494 365.551 127.338C378.74 127.883 390.17 129.694 402.207 131.602C427.704 135.656 454.082 139.841 500.189 132.235C537.389 126.01 605.697 124.138 667.736 134.732C721.511 143.903 789.783 165.752 809.698 217.741C828.25 270.161 819.607 328.147 785.959 376.883C763.723 409.099 731.112 436.232 691.652 455.338C648.006 476.439 597.028 487.826 540.141 489.083C534.544 489.317 529.089 489.437 523.779 489.443ZM361.12 128.657C338.33 128.657 317.466 134.908 292.267 149.134C254.459 167.642 233.683 206.109 235.995 224.467C236.875 238.597 246.124 244.778 262.944 256.015C280.881 267.99 307.996 286.102 340.467 326.266C357.796 343.85 367.617 366.711 377.113 388.832C388.104 414.436 399.463 440.909 422.622 459.795C448.63 481.038 487.071 490.12 540.15 487.65C596.852 486.392 647.628 475.085 691.098 454.036C730.338 435.036 762.764 408.07 784.86 376.048C818.271 327.69 826.799 270.197 808.406 218.225C788.728 166.869 720.93 145.248 667.517 136.104C605.636 125.553 537.53 127.408 500.461 133.607C454.161 141.256 427.66 137.054 401.987 132.983C389.95 131.075 378.59 129.272 365.49 128.727C364.021 128.683 362.544 128.657 361.093 128.657H361.12Z" fill="#E9E9E9"/>
<path d="M535.534 451.144C462.98 451.144 441.078 418.542 418.033 384.207C406.664 367.273 394.918 349.768 376.621 335.445C347.096 306.562 323.365 291.096 306.044 279.807C286.059 266.785 275.051 259.584 273.689 244.312C272.106 234.086 274.524 218.884 280.001 204.685C286.631 187.522 297.041 173.647 309.342 165.611C328.966 150.066 345.681 138.232 366.562 139.181C379.751 139.902 392.5 142.751 406.023 145.767C430.421 151.2 458.082 157.373 495.705 152.326C521.73 148.756 581.571 145.002 640.7 153.53C671.473 157.927 697.402 165.101 717.818 174.738C741.927 186.124 758.263 201.036 766.413 219.051C784.341 262.741 779.602 311.644 753.541 353.241C737.02 379.618 712.217 402.109 681.848 418.41C648.244 436.452 608.45 446.976 563.556 449.71C553.436 450.66 544.133 451.144 535.534 451.144ZM364.197 140.368C344.854 140.368 328.808 151.798 310.08 166.622C281.945 184.99 272.273 226.85 274.911 244.145C276.23 258.872 287.053 265.923 306.704 278.734C324.078 290.05 347.861 305.559 377.421 334.478C395.823 348.88 407.632 366.473 419.053 383.486C432.074 402.882 444.375 421.206 465.38 433.77C489.058 447.926 520.2 452.586 563.415 448.427C608.142 445.71 647.769 435.238 681.233 417.284C711.426 401.08 736.053 378.694 752.451 352.555C778.336 311.345 782.996 262.82 765.235 219.535C757.234 201.818 741.083 187.117 717.246 175.863C696.954 166.279 671.122 159.158 640.489 154.761C581.501 146.25 521.792 150.005 495.846 153.557C458.038 158.639 430.246 152.44 405.741 146.98C392.28 143.973 379.558 141.142 366.492 140.421C365.727 140.386 364.962 140.368 364.197 140.368Z" fill="#E9E9E9"/>
<path d="M546.094 414.356C502.273 414.356 482.015 396.983 457.731 376.136C445.052 365.26 431.943 354.006 413.822 343.648C390.355 326.529 371.196 314.941 355.792 305.621C329.415 289.637 314.828 280.835 312.78 263.998C309.368 245.209 310.027 200.807 327.041 183.363C328.043 182 329.045 180.62 330.039 179.239C340.458 164.864 351.237 149.996 367.574 150.99C380.287 151.869 394.434 155.957 409.417 160.266C433.666 167.238 461.142 175.133 491.186 172.381C523.717 169.304 687.607 157.135 723.111 220.317C740.696 255.373 740.098 295.36 721.537 330.064C710.459 350.77 693.832 368.17 672.124 381.798C648.464 396.649 619.792 406.25 586.917 410.33C571.258 413.099 557.832 414.356 546.094 414.356ZM366.061 152.071C351.114 152.071 340.906 166.218 330.989 179.908C329.986 181.297 328.978 182.683 327.964 184.066L327.911 184.119C311.162 201.256 310.546 245.191 313.931 263.822C315.918 280.15 330.303 288.854 356.416 304.654C371.829 313.983 391.014 325.589 414.446 342.699C432.602 353.082 445.755 364.363 458.469 375.283C489.04 401.52 513.184 422.234 586.732 409.213C619.475 405.151 647.989 395.602 671.517 380.84C693.059 367.317 709.553 350.067 720.535 329.528C738.92 295.158 739.491 255.549 722.1 220.854C707.953 195.672 671.412 179.705 613.496 173.419C562.501 167.88 511.048 171.66 491.282 173.507C461.045 176.276 433.455 168.346 409.118 161.356C394.171 157.065 380.103 153.012 367.503 152.115C367.002 152.089 366.51 152.071 366.061 152.071Z" fill="#E9E9E9"/>
<path d="M552.627 382.009C526.716 382.009 505.922 373.665 477.171 362.121C468.994 358.842 460.553 355.448 451.022 351.852C444.191 348.51 437.834 345.398 431.758 342.479C379.303 317.043 355.352 305.437 351.871 283.693C348.512 267.568 338.269 218.454 344.784 201.194C348.248 182.73 354.113 161.628 368.576 162.815C380.639 163.932 396.474 169.489 413.25 175.38C436.902 183.689 463.71 193.096 486.649 192.463C491.045 192.323 496.241 192.076 502.291 191.795C527.068 190.635 564.514 188.876 599.007 191.997C640.331 195.734 667.482 205.696 679.712 221.601C697.297 247.715 701.429 279.912 690.72 307.767C678.842 338.619 650.275 361.075 610.217 370.993C586.952 378.739 568.796 382.001 552.627 382.009ZM367.433 163.765C354.491 163.765 349.057 183.794 345.751 201.423V201.511C339.306 218.462 349.514 267.454 352.873 283.508C356.276 304.768 380.077 316.304 432.207 341.582C438.238 344.513 444.648 347.631 451.435 350.937C460.931 354.524 469.381 357.918 477.558 361.198C524.025 379.855 549.655 390.134 610.015 369.99C649.756 360.134 678.103 337.898 689.858 307.353C700.409 279.824 696.382 247.978 678.973 222.155C666.945 206.505 640.023 196.657 598.963 192.965C564.497 189.852 527.085 191.602 502.335 192.762C496.285 193.044 491.054 193.29 486.684 193.431C463.543 194.072 436.656 184.638 412.916 176.294C396.211 170.43 380.428 164.864 368.488 163.783C368.137 163.783 367.82 163.765 367.433 163.765Z" fill="#E9E9E9"/>
<path d="M537.574 365.392C522.504 365.392 506.141 363.633 488.205 360.028C424.847 343.683 395.771 326.74 390.961 303.388C388.447 292.67 381.061 272.113 374.546 253.983C369.394 239.634 364.514 226.059 362.632 219.025C360.355 213.055 358.94 204.702 358.878 196.727C358.799 187.997 360.302 181.191 363.107 177.569C363.815 176.534 364.794 175.712 365.937 175.195C367.079 174.677 368.342 174.482 369.587 174.632C381.061 176.004 399.481 183.653 418.974 191.742C442.133 201.361 466.092 211.305 482.156 212.527C490.896 213.152 504.717 212.387 520.728 211.507C560.461 209.309 614.894 206.294 636.401 222.841C655.682 239.924 666.295 264.314 664.237 286.524C662.479 305.173 651.928 320.744 633.693 331.55C612.943 347.376 593.415 356.96 572.269 361.725C560.876 364.228 549.239 365.458 537.574 365.392ZM368.761 175.476C367.784 175.491 366.825 175.738 365.963 176.196C365.1 176.655 364.36 177.312 363.802 178.114C358.078 185.5 358.834 206.654 363.468 218.779C365.349 225.813 370.22 239.353 375.372 253.693C381.888 271.849 389.282 292.424 391.814 303.194C396.553 326.195 425.436 342.945 488.407 359.193C520.939 365.691 548.327 366.227 572.102 360.899C593.116 356.168 612.547 346.62 633.227 330.855C651.233 320.172 661.643 304.83 663.393 286.454C665.477 264.525 654.926 240.408 635.864 223.527C614.631 207.19 560.373 210.233 520.807 212.387C504.77 213.266 490.913 214.04 482.121 213.407C465.916 212.176 441.904 202.205 418.675 192.56C399.235 184.488 380.868 176.865 369.517 175.503C369.263 175.474 369.007 175.459 368.752 175.459L368.761 175.476Z" fill="#E9E9E9"/>
<path d="M531.042 368.302C529.151 368.302 527.27 368.302 525.38 368.196C494.606 367.124 470.682 361.76 454.223 352.247C441.298 344.782 433.165 334.97 430.061 323.074C424.971 303.607 395.375 251.996 380.578 236.794C375.065 231.123 370.308 221.742 367.512 211.05C364.989 201.379 364.664 192.586 366.686 188.717C367.565 186.959 368.937 186.212 370.598 186.475C382.248 188.322 407.526 200.543 431.908 212.343C450.838 221.504 468.713 230.156 477.681 232.635C487.845 235.44 509.07 232.205 531.534 228.776C554.676 225.259 578.609 221.592 592.975 224.151C608.01 226.788 625.155 235.757 637.702 247.468C652.377 261.158 659.287 276.958 657.168 291.966C654.68 309.551 639.294 328.938 615.994 343.885C591.34 359.703 561.376 368.284 531.042 368.302ZM369.965 187.179C369.388 187.203 368.831 187.395 368.362 187.733C367.893 188.071 367.534 188.538 367.328 189.078C363.424 196.631 368.972 223.843 381.105 236.311C395.956 251.557 425.656 303.344 430.765 322.889C433.824 334.583 441.834 344.246 454.592 351.614C470.946 361.066 494.773 366.403 525.406 367.44C557.498 368.566 589.537 359.967 615.598 343.244C638.37 328.631 654.03 308.953 656.448 291.834C658.531 277.072 651.7 261.492 637.21 247.978C624.751 236.355 607.755 227.492 592.852 224.845C578.6 222.304 554.728 225.953 531.64 229.47C509.096 232.917 487.81 236.161 477.487 233.312C468.458 230.815 450.548 222.155 431.582 212.976C407.219 201.194 382.029 188.999 370.484 187.17C370.312 187.151 370.139 187.146 369.965 187.152V187.179Z" fill="#E9E9E9"/>
</svg>
