<svg width="56" height="58" viewBox="0 0 56 58" fill="none" xmlns="http://www.w3.org/2000/svg">
<path d="M55.6773 14.4004C55.6567 13.8232 55.4206 13.2803 55.0121 12.8728C54.5764 12.4362 53.9746 12.1982 53.338 12.2072C50.9795 12.2853 49.1193 14.2692 49.1907 16.6304L49.3304 20.9254L48.5336 24.1517C48.4425 24.1432 48.3537 24.1254 48.2608 24.1254C47.4479 24.1254 46.6849 24.4401 46.113 25.0124L41.3135 29.8151L39.5737 30.116C38.5835 30.2838 37.6461 30.7673 36.9344 31.4794L33.6799 34.7339C32.7821 35.6317 32.2714 36.8241 32.2419 38.0906L32.1152 43.741C31.5303 43.8941 30.9835 44.1807 30.5384 44.6164C29.8651 45.2749 29.4892 46.153 29.479 47.0892L29.4035 54.1508C29.3933 55.0866 29.7504 55.9727 30.4098 56.6455C31.0683 57.3182 31.9464 57.6946 32.8826 57.7039L44.6003 57.8294H44.6391C45.5606 57.8294 46.4321 57.4727 47.0954 56.8231C47.7681 56.1647 48.1445 55.2866 48.1538 54.3503L48.2293 47.2887C48.2467 45.6691 47.1588 44.2927 45.6703 43.8714L45.7342 43.4303C45.9234 42.1598 46.5029 41.0085 47.4096 40.1017L52.9065 34.6053C54.2574 33.2549 55.1101 31.4704 55.307 29.5825L55.8904 24.045C55.932 23.8441 55.9543 23.6361 55.9565 23.4205L55.9579 23.4089C55.9579 23.4071 55.9574 23.4058 55.9574 23.404C55.9574 23.3759 55.9619 23.3495 55.9614 23.3214L55.6773 14.4004ZM46.9491 47.2759L46.8737 54.3375C46.8674 54.9312 46.6277 55.4901 46.1991 55.9093C45.7701 56.3285 45.1983 56.5495 44.6134 56.5495L32.8969 56.4241C32.3022 56.4178 31.7442 56.1781 31.325 55.7495C30.9058 55.3214 30.6781 54.758 30.6843 54.1638L30.7598 47.1022C30.766 46.5085 31.0058 45.9495 31.4343 45.5303C31.8567 45.1169 32.4102 44.8897 32.9955 44.8897H33.0205L44.7371 45.0152C45.9705 45.0285 46.9625 46.0428 46.9491 47.2758L46.9491 47.2759ZM52.0018 33.6999L46.5049 39.1963C45.4027 40.2985 44.6986 41.6968 44.4679 43.2432L44.3969 43.7307L33.3992 43.6128L33.522 38.1177C33.5438 37.182 33.9215 36.3008 34.5858 35.6369L37.8403 32.3824C38.3658 31.8574 39.0569 31.4998 39.7903 31.3757L41.7327 31.0405C41.755 31.0364 41.7724 31.0226 41.7943 31.0168C41.8367 31.0052 41.8755 30.9905 41.9152 30.9699C41.9541 30.9494 41.988 30.9266 42.0215 30.8994C42.0393 30.8851 42.0603 30.8788 42.0773 30.8623L47.0192 25.9164C47.6795 25.2561 48.8438 25.2566 49.5045 25.9164C50.1893 26.6012 50.1893 27.7159 49.5045 28.4007L43.8263 34.0789C43.5759 34.3293 43.5759 34.7338 43.8263 34.9838C43.9513 35.1088 44.1152 35.1713 44.279 35.1713C44.4428 35.1713 44.6067 35.1088 44.7317 34.9838L50.4098 29.3056C51.5937 28.1218 51.5937 26.1954 50.4098 25.0115C50.2152 24.8168 49.9924 24.6641 49.759 24.5307L50.5956 21.1459C50.6027 21.1164 50.596 21.0883 50.5996 21.0593C50.6027 21.0294 50.6156 21.0021 50.6143 20.9718L50.4723 16.5896C50.4219 14.9334 51.7272 13.5405 53.3754 13.4861C53.6598 13.4802 53.9156 13.5834 54.1094 13.7771C54.2906 13.9584 54.3911 14.1892 54.4 14.4427L54.6835 23.3182L54.0371 29.4481C53.8674 31.0467 53.1455 32.5566 52.0017 33.6999L52.0018 33.6999Z" fill="#53C5E2"/>
<path d="M45.9556 48.1615C45.9556 49.0789 45.2118 49.8231 44.294 49.8231C43.3766 49.8231 42.6328 49.0789 42.6328 48.1615C42.6328 47.2441 43.3766 46.4999 44.294 46.4999C45.2118 46.4999 45.9556 47.2441 45.9556 48.1615Z" fill="#53C5E2"/>
<path d="M25.4604 44.6152C25.013 44.1773 24.4715 43.8934 23.8836 43.7416L23.7568 38.0889C23.7278 36.8224 23.217 35.6299 22.3188 34.7322L19.0643 31.4777C18.3532 30.7661 17.4156 30.2822 16.4277 30.1152L14.6858 29.8143L9.88626 25.0117C9.31394 24.4394 8.55186 24.1246 7.73895 24.1246C7.64609 24.1246 7.5577 24.1434 7.46618 24.151L6.6693 20.9247L6.80904 16.6282C6.88091 14.268 5.02024 12.2844 2.65418 12.2059C2.0332 12.1997 1.42332 12.4358 0.988124 12.8716C0.579199 13.28 0.343038 13.8224 0.322501 14.4024L0.0381244 23.3292C0.037678 23.3559 0.0412493 23.3818 0.0421422 23.4086V23.41V23.4131C0.0434814 23.63 0.0662489 23.8421 0.108659 24.0475L0.692146 29.5828C0.889917 31.4716 1.74259 33.2556 3.0926 34.606L8.58952 40.1024C9.49621 41.0091 10.0757 42.16 10.2645 43.4284L10.3292 43.8717C8.84042 44.294 7.75334 45.6694 7.77025 47.2891L7.8457 54.3506C7.85596 55.2864 8.23141 56.1645 8.90418 56.8234C9.56891 57.473 10.4399 57.8297 11.3609 57.8297H11.3997L23.1163 57.7043C24.052 57.694 24.9306 57.3185 25.5891 56.6458C26.2476 55.973 26.6047 55.0868 26.5953 54.1511L26.5199 47.0895C26.5096 46.1525 26.1333 45.2743 25.4605 44.6155L25.4604 44.6152ZM9.49465 39.1974L3.99773 33.701C2.85396 32.5567 2.13168 31.0474 1.96516 29.4487L1.31874 23.3188L1.60223 14.4464C1.61116 14.1906 1.7116 13.9594 1.8933 13.7777C2.0866 13.5844 2.35267 13.4764 2.6192 13.4871C4.27406 13.5415 5.57988 14.9339 5.52948 16.5897L5.38752 20.9731C5.38618 21.0039 5.39913 21.0307 5.40225 21.0606C5.40538 21.0901 5.39913 21.1182 5.40627 21.1472L6.24287 24.532C6.00939 24.6651 5.78662 24.8173 5.59198 25.0128C4.4081 26.1967 4.4081 28.1231 5.59198 29.307L11.2702 34.9852C11.3952 35.1102 11.559 35.1727 11.7228 35.1727C11.8867 35.1727 12.0505 35.1102 12.1755 34.9852C12.4259 34.7347 12.4259 34.3303 12.1755 34.0803L6.49733 28.4021C5.81251 27.7173 5.81251 26.6025 6.49733 25.9177C7.15715 25.2579 8.3219 25.2579 8.98167 25.9177L13.9245 30.8637C13.941 30.8802 13.9625 30.886 13.9803 30.9007C14.0138 30.9275 14.0477 30.9512 14.0866 30.9713C14.1263 30.9918 14.1652 31.0065 14.2076 31.0182C14.2294 31.0244 14.246 31.0378 14.2692 31.0418L16.2134 31.378C16.9442 31.5016 17.6361 31.8592 18.1607 32.3842L21.4152 35.6387C22.0795 36.303 22.4563 37.1842 22.4791 38.1195L22.6018 43.6151L11.6041 43.7329L11.5331 43.2432C11.301 41.6977 10.597 40.299 9.49474 39.1973L9.49465 39.1974ZM24.6741 55.7494C24.2549 56.1784 23.6968 56.4177 23.1022 56.424L11.3856 56.5494C10.7758 56.561 10.2285 56.3284 9.79991 55.9092C9.37089 55.49 9.1316 54.9311 9.12536 54.3374L9.04991 47.2758C9.03652 46.0423 10.0289 45.0289 11.2624 45.0155L22.9789 44.8901C23.5963 44.9035 24.1365 45.1115 24.5647 45.5303C24.9937 45.9495 25.233 46.5084 25.2392 47.1021L25.3146 54.1637C25.3205 54.7579 25.0932 55.3213 24.674 55.7495L24.6741 55.7494Z" fill="#53C5E2"/>
<path d="M13.3667 48.1615C13.3667 49.0789 12.6229 49.8231 11.7055 49.8231C10.7877 49.8231 10.0439 49.0789 10.0439 48.1615C10.0439 47.2441 10.7877 46.4999 11.7055 46.4999C12.623 46.4999 13.3667 47.2441 13.3667 48.1615Z" fill="#53C5E2"/>
<path d="M30.9945 28.069V25.9904C31.9289 25.7381 32.8177 25.3707 33.6486 24.8917L35.1205 26.3636C35.4544 26.6975 35.8937 26.8649 36.3325 26.8649C36.7713 26.8649 37.2097 26.698 37.5441 26.3636L39.357 24.5507C40.0254 23.8824 40.0254 22.7954 39.357 22.127L37.8852 20.6551C38.3637 19.8239 38.732 18.9355 38.9834 18.0011H41.0615C42.008 18.0011 42.7772 17.231 42.7772 16.2854V13.7287C42.7772 12.7823 42.0071 12.0131 41.0615 12.0131H38.9834C38.7311 11.0787 38.3637 10.1903 37.8852 9.35901L39.357 7.88713C40.0254 7.21882 40.0254 6.13181 39.357 5.46347L37.5441 3.64964C36.8758 2.98223 35.7888 2.98268 35.1205 3.64964L33.6486 5.12153C32.8173 4.64295 31.9289 4.27464 30.9945 4.02286V1.94423C30.9945 0.998702 30.2244 0.228577 29.2784 0.228577H26.7217C25.7753 0.228577 25.0061 0.998668 25.0061 1.94423V4.02286C24.0717 4.27509 23.1833 4.64251 22.352 5.12153L20.8801 3.64873C20.2118 2.98132 19.1248 2.98177 18.4565 3.64873L16.6436 5.46164C15.9752 6.12995 15.9752 7.21695 16.6436 7.8853L18.1154 9.35718C17.6369 10.1884 17.2686 11.0768 17.0172 12.0112L14.9373 12.0121C13.9914 12.0121 13.2217 12.7822 13.2217 13.7278V16.2845C13.2217 17.2309 13.9918 18.0001 14.9373 18.0001H17.016C17.2682 18.9345 17.6356 19.8229 18.1142 20.6542L16.6423 22.1261C15.974 22.7944 15.974 23.8814 16.6423 24.5497L18.4552 26.3626C18.7891 26.6966 19.2284 26.864 19.6669 26.864C20.1057 26.864 20.545 26.697 20.8789 26.3626L22.3508 24.8908C23.182 25.3693 24.0704 25.7376 25.0048 25.9894L25.0053 28.0689C25.0053 29.0148 25.7754 29.7845 26.7209 29.7845H29.2776C30.2245 29.7845 30.9945 29.0144 30.9945 28.0689L30.9945 28.069ZM29.7146 28.069C29.7146 28.3136 29.5231 28.5047 29.2789 28.5047H26.7222C26.4776 28.5047 26.2865 28.3132 26.2865 28.069V25.4994C26.2865 25.4797 26.2767 25.4623 26.2749 25.4422C26.2709 25.398 26.262 25.357 26.2495 25.315C26.2379 25.2762 26.2245 25.24 26.2062 25.2047C26.187 25.1681 26.1638 25.1364 26.1383 25.1043C26.1129 25.0722 26.0865 25.0436 26.0553 25.0168C26.0245 24.9905 25.9919 24.9699 25.9562 24.9503C25.9182 24.9293 25.8807 24.9119 25.8383 24.8985C25.8191 24.8922 25.8044 24.8793 25.7847 24.8748C24.6405 24.6213 23.5665 24.1771 22.5932 23.5535C22.5758 23.5427 22.5561 23.5414 22.5383 23.5325C22.4995 23.5119 22.4602 23.4972 22.4186 23.4856C22.3789 23.474 22.3405 23.466 22.3003 23.4624C22.2602 23.4593 22.2209 23.4611 22.1807 23.4651C22.1392 23.4695 22.1008 23.4758 22.061 23.4883C22.0227 23.4999 21.9883 23.5164 21.9521 23.5356C21.9137 23.5561 21.8785 23.5785 21.8445 23.6075C21.8293 23.6204 21.8102 23.6253 21.7954 23.6401L19.9758 25.4597C19.8061 25.6285 19.5316 25.628 19.3628 25.4597L17.5499 23.6468C17.4687 23.5656 17.424 23.4566 17.424 23.3401C17.424 23.2236 17.4686 23.1142 17.5499 23.0334L19.3696 21.2138C19.3843 21.199 19.3892 21.1803 19.4021 21.1647C19.4303 21.1307 19.4535 21.0955 19.4731 21.0571C19.4923 21.0214 19.5088 20.9861 19.5205 20.9477C19.5325 20.9088 19.5392 20.8696 19.5437 20.8285C19.5481 20.7874 19.5499 20.7486 19.5463 20.7075C19.5432 20.6673 19.5347 20.6303 19.5231 20.5905C19.5115 20.5481 19.4968 20.5093 19.4763 20.47C19.4673 20.4522 19.466 20.4321 19.4553 20.4151C18.8312 19.4414 18.387 18.3678 18.1342 17.2236C18.1298 17.2039 18.1164 17.1892 18.1106 17.17C18.0972 17.1285 18.0798 17.0905 18.0588 17.0535C18.0383 17.0169 18.0173 16.9838 17.9909 16.9521C17.9655 16.9222 17.9374 16.8972 17.9066 16.8722C17.8726 16.8445 17.8387 16.8204 17.8003 16.8003C17.7677 16.7829 17.7338 16.7713 17.6981 16.7602C17.6534 16.7459 17.6097 16.7365 17.5624 16.7325C17.5436 16.7307 17.5284 16.7218 17.5092 16.7218L14.9374 16.7209C14.6927 16.7209 14.5016 16.5294 14.5016 16.2852V13.7285C14.5016 13.4838 14.6932 13.2928 14.9374 13.2928H17.507H17.5074C17.5882 13.2928 17.6654 13.2749 17.7386 13.2459C17.7636 13.2361 17.7842 13.2204 17.8078 13.2075C17.8525 13.1834 17.8949 13.1575 17.9329 13.1231C17.9552 13.1035 17.9726 13.0803 17.9918 13.0571C18.0217 13.0213 18.0489 12.9834 18.0704 12.9405C18.0851 12.9115 18.0967 12.8829 18.107 12.8517C18.1141 12.8307 18.1275 12.8129 18.1324 12.7901C18.3851 11.6459 18.8302 10.5718 19.4534 9.59855C19.4641 9.58114 19.4655 9.56149 19.4744 9.54364C19.495 9.5048 19.5097 9.46551 19.5213 9.4231C19.532 9.38426 19.5405 9.34631 19.5445 9.30614C19.5476 9.26507 19.5463 9.22623 19.5418 9.18516C19.5374 9.14409 19.5311 9.10569 19.5186 9.06596C19.507 9.02757 19.4905 8.9923 19.4713 8.95658C19.4508 8.91819 19.4284 8.88292 19.4003 8.84899C19.3874 8.83381 19.3825 8.81462 19.3677 8.79989L17.5481 6.98023C17.4668 6.89898 17.4222 6.79005 17.4222 6.67353C17.4222 6.55702 17.4668 6.44808 17.5481 6.36683L19.361 4.55392C19.5297 4.38517 19.8052 4.38517 19.9739 4.55392L21.7936 6.37358C21.7963 6.37626 21.7994 6.3767 21.8021 6.37938C21.8565 6.43251 21.919 6.47224 21.9864 6.5017C22.0016 6.50884 22.0172 6.51375 22.0333 6.51956C22.1016 6.54367 22.1731 6.56063 22.2454 6.56108H22.2467H22.2472C22.3195 6.56108 22.3914 6.54456 22.461 6.51956C22.4815 6.51242 22.4998 6.50215 22.5199 6.49277C22.5436 6.48116 22.569 6.47492 22.5918 6.46018C23.5655 5.83608 24.6391 5.39187 25.7833 5.13881C25.803 5.13435 25.8177 5.12095 25.8369 5.11515C25.8793 5.10176 25.9168 5.08435 25.9548 5.06336C25.9905 5.04372 26.0231 5.02229 26.0539 4.99685C26.0851 4.97006 26.1115 4.94104 26.1369 4.90935C26.1624 4.87721 26.1856 4.84551 26.2048 4.8089C26.2235 4.77363 26.236 4.73703 26.2481 4.69863C26.261 4.65712 26.2699 4.61604 26.2735 4.5714C26.2753 4.55176 26.2851 4.53479 26.2851 4.51426V1.94466C26.2851 1.70046 26.4771 1.50894 26.7213 1.50894H29.278C29.5226 1.50894 29.7137 1.70046 29.7137 1.94466V4.51426C29.7137 4.5339 29.7235 4.55131 29.7253 4.5714C29.7293 4.6156 29.7382 4.65667 29.7507 4.69863C29.7624 4.73747 29.7757 4.77363 29.794 4.8089C29.8132 4.84551 29.8365 4.87721 29.8619 4.90935C29.8874 4.94149 29.9137 4.97006 29.9449 4.99685C29.9757 5.02319 30.0083 5.04372 30.044 5.06336C30.082 5.08435 30.1195 5.10176 30.1619 5.11515C30.1811 5.1214 30.1958 5.13435 30.2155 5.13881C31.3597 5.39239 32.4338 5.83658 33.407 6.46018C33.4302 6.47492 33.4552 6.48116 33.4789 6.49277C33.4985 6.50259 33.5173 6.51242 33.5378 6.51956C33.6075 6.54456 33.6793 6.56108 33.7517 6.56108H33.7521H33.7534C33.8262 6.56108 33.8967 6.54367 33.9655 6.51956C33.9816 6.51375 33.9963 6.50884 34.0124 6.5017C34.0798 6.47179 34.1423 6.43206 34.1968 6.37938C34.1994 6.3767 34.2026 6.37626 34.2052 6.37358L36.0249 4.55392C36.1936 4.38517 36.4691 4.38517 36.6378 4.55392L38.4508 6.36683C38.532 6.44808 38.5767 6.55702 38.5767 6.67353C38.5767 6.79005 38.532 6.89943 38.4508 6.98023L36.6311 8.79989C36.6164 8.81462 36.6115 8.83337 36.5985 8.84899C36.5704 8.88292 36.5472 8.91819 36.5275 8.95658C36.5083 8.9923 36.4918 9.02757 36.4802 9.06596C36.4682 9.1048 36.4615 9.14408 36.457 9.18516C36.4525 9.22623 36.4507 9.26507 36.4543 9.30614C36.4574 9.34632 36.4659 9.38337 36.4775 9.4231C36.4891 9.46551 36.5039 9.50435 36.5244 9.54364C36.5333 9.56149 36.5347 9.58158 36.5454 9.59855C37.1695 10.5722 37.6137 11.6459 37.8664 12.7901C37.8713 12.8124 37.8843 12.8303 37.8919 12.8517C37.9021 12.8829 37.9137 12.9111 37.9285 12.9401C37.9508 12.9829 37.9771 13.0213 38.0079 13.0571C38.0271 13.0803 38.0445 13.1017 38.066 13.1222C38.1044 13.1566 38.1468 13.1829 38.1919 13.2075C38.2151 13.2204 38.2352 13.2356 38.2597 13.2454C38.3325 13.2745 38.4102 13.2923 38.491 13.2923H38.4914H41.061C41.3057 13.2923 41.4967 13.4838 41.4967 13.728V16.2847C41.4967 16.5294 41.3052 16.7204 41.061 16.7204H38.4914C38.4718 16.7204 38.4548 16.7303 38.4356 16.7311C38.3901 16.7352 38.3486 16.7441 38.3057 16.7575C38.2678 16.7691 38.232 16.7816 38.1977 16.8003C38.1606 16.82 38.128 16.8432 38.0954 16.8695C38.0642 16.895 38.0352 16.9209 38.0088 16.9521C37.9825 16.9829 37.9615 17.016 37.9414 17.0521C37.9204 17.0901 37.903 17.1271 37.8896 17.1691C37.8834 17.1883 37.8704 17.203 37.866 17.2227C37.6133 18.3669 37.1682 19.4409 36.5449 20.4142C36.5342 20.4316 36.5329 20.4513 36.524 20.4691C36.5034 20.508 36.4887 20.5472 36.4771 20.5897C36.4664 20.6285 36.4579 20.6664 36.4539 20.7066C36.4507 20.7477 36.4521 20.7865 36.4565 20.8276C36.461 20.8687 36.4673 20.9071 36.4798 20.9468C36.4914 20.9852 36.5079 21.0205 36.5271 21.0562C36.5476 21.0946 36.5699 21.1298 36.5981 21.1638C36.611 21.1789 36.6159 21.1981 36.6307 21.2129L38.4503 23.0325C38.5316 23.1138 38.5762 23.2227 38.5762 23.3392C38.5762 23.4557 38.5316 23.5647 38.4503 23.6459L36.6374 25.4588C36.4686 25.6276 36.1941 25.6285 36.0245 25.4588L34.2048 23.6392C34.1905 23.6249 34.1713 23.6195 34.1561 23.6066C34.1218 23.5776 34.0865 23.5548 34.0472 23.5343C34.0119 23.5155 33.9776 23.4999 33.9396 23.4874C33.8994 23.4744 33.8597 23.4682 33.8182 23.4637C33.7785 23.4593 33.7401 23.4579 33.7003 23.4611C33.6593 23.4642 33.6204 23.4731 33.5798 23.4843C33.5383 23.4959 33.5003 23.5106 33.4615 23.5302C33.4436 23.5392 33.4235 23.5405 33.4066 23.5521C32.4329 24.1762 31.3593 24.6204 30.215 24.8735C30.1954 24.878 30.1807 24.8913 30.1615 24.8972C30.1191 24.9105 30.0816 24.928 30.0436 24.9489C30.0079 24.9686 29.9753 24.99 29.9445 25.0155C29.9133 25.0422 29.8869 25.0713 29.8615 25.103C29.836 25.1351 29.8128 25.1668 29.7936 25.2034C29.7749 25.2387 29.7624 25.2753 29.7503 25.3137C29.7374 25.3552 29.7284 25.3963 29.7249 25.4409C29.7231 25.4605 29.7133 25.4775 29.7133 25.498V28.069L29.7146 28.069Z" fill="#53C5E2"/>
<path d="M34.815 15.0062C34.815 11.2481 31.7579 8.19141 28.0003 8.19141C24.2427 8.19141 21.1855 11.2485 21.1855 15.0062C21.1855 18.7633 24.2422 21.8214 28.0003 21.8214C31.7583 21.8214 34.815 18.7642 34.815 15.0062ZM28.0003 20.5415C24.9481 20.5415 22.4654 18.0584 22.4654 15.0066C22.4654 11.9553 24.9485 9.47175 28.0003 9.47175C31.0516 9.47175 33.5351 11.9548 33.5351 15.0066C33.5351 18.0584 31.0525 20.5415 28.0003 20.5415Z" fill="#53C5E2"/>
</svg>
