<svg width="30" height="38" viewBox="0 0 30 38" fill="none" xmlns="http://www.w3.org/2000/svg">
<path d="M29.6005 18.3649C29.6027 17.3529 29.3128 16.3618 28.7659 15.5103C28.2187 14.659 27.4378 13.9835 26.5165 13.5647V12.0446V12.0449C26.5165 7.89475 24.3025 4.05989 20.7085 1.98489C17.1148 -0.0901791 12.687 -0.0901791 9.09276 1.98489C5.49876 4.05968 3.28476 7.89447 3.28476 12.0449V13.5569C1.86568 14.2003 0.804828 15.44 0.388542 16.9417C-0.0277508 18.4433 0.242892 20.0522 1.12797 21.3345C2.01304 22.6172 3.42119 23.4414 4.97283 23.5848C5.12824 25.7 6.07833 27.6783 7.6319 29.122C9.18547 30.5659 11.2279 31.3686 13.3487 31.3689H16.4567C19.4106 31.3633 22.1448 29.8064 23.6567 27.2688V28.2768C23.6578 29.8499 23.1439 31.38 22.1933 32.6331C21.2426 33.8865 19.9078 34.7938 18.3928 35.2168C18.352 34.8976 18.1963 34.6041 17.9547 34.3915C17.7133 34.1786 17.4025 34.0611 17.0808 34.0608H12.7929C12.4414 34.0619 12.1046 34.2023 11.8563 34.4512C11.6082 34.7001 11.4687 35.0374 11.4687 35.389V36.2969C11.4687 36.6485 11.6082 36.9855 11.8563 37.2344C12.1046 37.4833 12.4414 37.6239 12.7929 37.6247H17.0808C17.4051 37.6242 17.7178 37.5042 17.9595 37.2882C18.2014 37.0723 18.3557 36.7748 18.3928 36.4529C20.2349 36.0185 21.8764 34.9747 23.051 33.4908C24.2257 32.0067 24.8649 30.1694 24.8649 28.2768V23.6007C26.1621 23.4682 27.3641 22.8597 28.2388 21.8926C29.1132 20.9255 29.5987 19.6688 29.6007 18.365L29.6005 18.3649ZM12.6683 36.297V35.3891C12.6672 35.3554 12.6798 35.3227 12.7032 35.2987C12.7266 35.2747 12.7587 35.2611 12.7925 35.2611H17.0804C17.1142 35.2611 17.1468 35.2744 17.1708 35.2984C17.1948 35.3224 17.2082 35.3551 17.2082 35.3891V36.297C17.2063 36.3668 17.1502 36.4229 17.0804 36.4251H12.7925C12.7233 36.4229 12.6683 36.3662 12.6683 36.297H12.6683ZM4.48476 12.0649C4.48476 8.34361 6.46997 4.9049 9.69261 3.04419C12.9153 1.1834 16.8862 1.1834 20.1083 3.04419C23.331 4.90469 25.3165 8.34333 25.3165 12.0649V13.201C25.1563 13.1687 24.9948 13.1447 24.8324 13.1291C24.6731 11.0166 23.7213 9.04256 22.168 7.60199C20.6147 6.16141 18.5748 5.36091 16.4562 5.36091H13.3482C11.23 5.36091 9.18974 6.16141 7.63645 7.60199C6.08316 9.04256 5.13174 11.0166 4.97238 13.1291C4.80831 13.1291 4.64425 13.169 4.48438 13.1971L4.48476 12.0649ZM23.6648 14.289C21.2128 13.977 19.2646 10.897 19.1888 7.08897C20.5146 7.6311 21.6488 8.55604 22.446 9.74604C23.2435 10.936 23.6678 12.3368 23.6648 13.7689V14.289ZM17.9287 6.71326C17.3768 10.8213 12.3528 14.0854 6.13654 14.3133V13.7692C6.14184 11.8612 6.90219 10.0331 8.25119 8.6841C9.60054 7.33474 11.4286 6.57474 13.3365 6.56946H16.4445C16.9429 6.56555 17.4403 6.61382 17.9286 6.71343L17.9287 6.71326ZM4.85654 22.3854C3.56411 22.1893 2.44497 21.3838 1.84926 20.2203C1.25327 19.057 1.25327 17.6781 1.84926 16.5146C2.44496 15.3514 3.56411 14.5456 4.85654 14.3495V22.3854ZM16.4565 30.1697H13.3485C11.439 30.1697 9.60776 29.411 8.25733 28.0609C6.90718 26.7108 6.14854 24.8793 6.14854 22.9697V15.5097C11.6765 15.3216 16.3485 12.8417 18.2643 9.41369C19.0003 12.7694 21.1122 15.2574 23.6644 15.5015V22.9615C23.6664 24.8737 22.9077 26.7085 21.5556 28.0606C20.2032 29.4128 18.3687 30.1717 16.4563 30.1694L16.4565 30.1697ZM24.9365 22.3854L24.9368 14.3497C26.229 14.5458 27.3481 15.3516 27.9441 16.5148C28.5401 17.6783 28.5401 19.0573 27.9441 20.2205C27.3481 21.384 26.229 22.1895 24.9368 22.3856L24.9365 22.3854Z" fill="#53C5E2"/>
<path d="M19.0844 17.7171C19.0532 17.6451 19.0099 17.5787 18.9563 17.5212C18.7856 17.3462 18.5244 17.2952 18.3004 17.3931C18.2658 17.4043 18.232 17.4191 18.2005 17.4372C18.1678 17.4567 18.1383 17.481 18.1123 17.5092C18.0838 17.5368 18.0585 17.5678 18.0364 17.601C17.9929 17.6668 17.9616 17.7399 17.9443 17.8172V17.9333V18.0533V18.053C17.9527 18.0915 17.9647 18.1289 17.9803 18.1652C17.996 18.2014 18.0146 18.236 18.0364 18.2689C18.0585 18.301 18.0838 18.3306 18.1123 18.3571C18.138 18.3867 18.1676 18.4121 18.2005 18.433L18.3045 18.4891C18.3405 18.5033 18.3782 18.5142 18.4164 18.5212H18.5364C18.6955 18.5201 18.8475 18.457 18.9605 18.3451C18.9876 18.3186 19.0119 18.289 19.0325 18.257C19.0543 18.224 19.073 18.1894 19.0883 18.1532C19.1282 18.0527 19.1394 17.9433 19.1204 17.837C19.1131 17.7957 19.1011 17.7556 19.0844 17.7171L19.0844 17.7171Z" fill="#53C5E2"/>
<path d="M11.6048 17.437C11.5727 17.4136 11.5378 17.3946 11.5007 17.381L11.4008 17.357C11.2242 17.321 11.0409 17.3662 10.9011 17.48C10.7616 17.5941 10.6807 17.7646 10.6807 17.9448C10.6801 18.0246 10.6966 18.1039 10.7287 18.177C10.7429 18.213 10.7602 18.2479 10.7808 18.2808C10.804 18.312 10.8294 18.3416 10.8567 18.369C11.0908 18.6028 11.4706 18.6028 11.7047 18.369C11.732 18.3416 11.7574 18.312 11.7808 18.2808C11.7808 18.2448 11.8207 18.2127 11.8369 18.1767C11.8528 18.1407 11.8609 18.1008 11.869 18.0648H11.8687C11.9089 17.8676 11.8472 17.6633 11.7047 17.521C11.6762 17.4875 11.6424 17.4594 11.6048 17.437H11.6048Z" fill="#53C5E2"/>
<path d="M16.5451 25.6049C16.5451 25.6049 16.0571 26.0368 14.9011 26.0368C13.7451 26.0368 13.3013 25.6367 13.261 25.6049C13.0236 25.3856 12.655 25.3937 12.4276 25.6233C12.2002 25.853 12.1955 26.2215 12.417 26.4568C12.4971 26.5368 13.237 27.2567 14.9011 27.2567C16.5651 27.2567 17.3012 26.5566 17.3851 26.4568H17.3849C17.6125 26.2263 17.6125 25.8555 17.3849 25.6248C17.1544 25.3968 16.7861 25.3879 16.545 25.6049L16.5451 25.6049Z" fill="#53C5E2"/>
<path d="M16.9649 22.3213C16.9649 21.9899 16.6962 21.7212 16.365 21.7212H15.5008V17.4692C15.5008 17.138 15.2321 16.8694 14.9009 16.8694C14.5695 16.8694 14.3008 17.138 14.3008 17.4692V22.9212H16.3649C16.6961 22.9212 16.9648 22.6525 16.9648 22.3214L16.9649 22.3213Z" fill="#53C5E2"/>
</svg>
