<svg width="120" height="120" viewBox="0 0 120 120" fill="none" xmlns="http://www.w3.org/2000/svg">
<path d="M25.3836 38.3823V96.8001C25.3836 97.684 26.1002 98.3998 26.9834 98.3998H79.816C79.8167 98.3998 79.8173 98.3992 79.818 98.3992C87.9857 98.3945 94.6291 91.7489 94.6291 83.58C94.6291 75.4084 87.9816 68.7609 79.8099 68.7609C76.9272 68.7609 74.2431 69.6013 71.9643 71.0309V66.0789C71.9643 61.757 75.4773 58.242 79.7978 58.2367C79.8045 58.2367 79.8098 58.2407 79.8158 58.2407C79.8205 58.2407 79.8239 58.2381 79.8286 58.2381C81.9265 58.2434 83.8933 59.057 85.3638 60.5256C86.8484 62.0243 87.6654 63.9956 87.6654 66.079C87.6654 66.9629 88.382 67.6788 89.2652 67.6788C90.1491 67.6788 90.865 66.9623 90.865 66.079C90.865 63.1472 89.7179 60.3751 87.6313 58.2689C85.9291 56.5673 83.7622 55.5026 81.415 55.1645V48.673H84.9039C85.7878 48.673 86.5037 47.9565 86.5037 47.0732V35.3069C86.5037 34.423 85.7871 33.7071 84.9039 33.7071H81.415L81.4156 23.1998C81.4156 22.3158 80.6991 21.6 79.8159 21.6H41.9919C41.9584 21.6 41.9289 21.6174 41.8954 21.6194C41.7408 21.6274 41.5921 21.6569 41.4461 21.7085C41.412 21.7212 41.3785 21.7299 41.345 21.7446C41.1635 21.8237 40.9908 21.9241 40.8454 22.0694L25.8394 37.0754C25.6901 37.2247 25.589 37.4029 25.51 37.5897C25.5073 37.5957 25.5059 37.6017 25.5033 37.6078C25.4263 37.7959 25.3874 37.9935 25.3861 38.1971C25.3861 38.2011 25.3841 38.2038 25.3841 38.2078V38.2386C25.3847 38.2875 25.3787 38.335 25.3841 38.3832L25.3836 38.3823ZM40.3763 27.0768V36.6065H30.8472L40.3763 27.0768ZM91.4277 83.5797C91.4277 89.9868 86.2152 95.1993 79.8081 95.1993C73.401 95.1993 68.1885 89.9868 68.1885 83.5797C68.1885 77.1725 73.401 71.9601 79.8081 71.9601C86.2152 71.9601 91.4277 77.1725 91.4277 83.5797ZM83.3035 45.4711H79.818C79.8167 45.4711 79.8154 45.4704 79.814 45.4704C79.8127 45.4704 79.8114 45.4711 79.81 45.4711H63.8939L66.563 42.1999C67.0438 41.6106 67.0438 40.7655 66.563 40.1762L63.8939 36.9043H79.7833C79.794 36.9043 79.8034 36.9103 79.8141 36.9103C79.8248 36.9103 79.8342 36.9043 79.8449 36.9043H83.3029L83.3035 45.4711ZM78.2148 33.7048H60.5234C59.9053 33.7048 59.3428 34.0603 59.0783 34.6188C58.8138 35.1766 58.8928 35.8376 59.2839 36.3163L63.259 41.188L59.2839 46.059C58.8935 46.5378 58.8138 47.1987 59.0783 47.7565C59.3428 48.315 59.9053 48.6706 60.5234 48.6706H78.2148V55.1621C72.8791 55.9375 68.7635 60.5298 68.7635 66.0766V73.7319C66.4243 76.3529 64.9893 79.7969 64.9893 83.5777C64.9893 88.2874 67.2045 92.4807 70.6391 95.1973L28.5825 95.198V39.806H41.9754C42.8593 39.806 43.5751 39.0895 43.5751 38.2062L43.5758 24.7993H78.2147L78.2148 33.7048Z" fill="#53C5E2"/>
<path d="M78.2093 85.7995V90.4576C78.2093 91.3415 78.9258 92.0573 79.8091 92.0573C80.693 92.0573 81.4089 91.3408 81.4089 90.4576V85.7995C83.3522 85.1299 84.7605 83.3044 84.7605 81.1375C84.7605 78.4066 82.5393 76.1861 79.8091 76.1861C77.0796 76.1861 74.8584 78.4073 74.8584 81.1375C74.8584 83.3038 76.2673 85.1299 78.2093 85.7995ZM79.8098 79.3857C80.7754 79.3857 81.5616 80.1718 81.5616 81.1375C81.5616 82.1031 80.7754 82.8886 79.8098 82.8886C78.8441 82.8886 78.0586 82.1032 78.0586 81.1375C78.0586 80.1719 78.8441 79.3857 79.8098 79.3857Z" fill="#53C5E2"/>
<path d="M34.1265 55.5372C34.1265 56.4211 34.843 57.137 35.7262 57.137H60.8662C61.7502 57.137 62.466 56.4205 62.466 55.5372C62.466 54.6533 61.7495 53.9374 60.8662 53.9374H35.7262C34.8423 53.9374 34.1265 54.6533 34.1265 55.5372Z" fill="#53C5E2"/>
<path d="M60.8657 60.7041H35.7257C34.8418 60.7041 34.126 61.4206 34.126 62.3038C34.126 63.1878 34.8425 63.9036 35.7257 63.9036H60.8657C61.7497 63.9036 62.4655 63.1871 62.4655 62.3038C62.4655 61.4206 61.7497 60.7041 60.8657 60.7041Z" fill="#53C5E2"/>
<path d="M54.4649 67.4704H35.7243C34.8404 67.4704 34.1245 68.1869 34.1245 69.0701C34.1245 69.9541 34.841 70.6699 35.7243 70.6699H54.4649C55.3488 70.6699 56.0646 69.9534 56.0646 69.0701C56.0646 68.1869 55.3481 67.4704 54.4649 67.4704Z" fill="#53C5E2"/>
<path d="M54.4649 74.2383H35.7243C34.8404 74.2383 34.1245 74.9549 34.1245 75.8381C34.1245 76.722 34.841 77.4379 35.7243 77.4379H54.4649C55.3488 77.4379 56.0646 76.7214 56.0646 75.8381C56.0646 74.9542 55.3481 74.2383 54.4649 74.2383Z" fill="#53C5E2"/>
<path d="M54.4649 81.0046H35.7243C34.8404 81.0046 34.1245 81.7212 34.1245 82.6044C34.1245 83.4883 34.841 84.2042 35.7243 84.2042H54.4649C55.3488 84.2042 56.0646 83.4877 56.0646 82.6044C56.0646 81.7212 55.3481 81.0046 54.4649 81.0046Z" fill="#53C5E2"/>
</svg>
