<svg width="120" height="120" viewBox="0 0 120 120" fill="none" xmlns="http://www.w3.org/2000/svg">
<path d="M95.0399 58.4757C95.0452 56.0469 94.3495 53.6684 93.0369 51.6246C91.7237 49.5815 89.8493 47.9603 87.6383 46.9552V43.307V43.3077C87.6383 33.3474 82.3247 24.1437 73.6991 19.1637C65.0741 14.1835 54.4476 14.1835 45.8213 19.1637C37.1957 24.1432 31.8821 33.3467 31.8821 43.3077V46.9365C28.4764 48.4807 25.9303 51.4559 24.9312 55.06C23.9321 58.6639 24.5817 62.5252 26.7059 65.6029C28.83 68.6812 32.2096 70.6593 35.9335 71.0035C36.3065 76.0801 38.5867 80.8279 42.3153 84.2927C46.0439 87.7581 50.9457 89.6846 56.0356 89.6853H63.4948C70.5842 89.6719 77.1461 85.9353 80.7748 79.845V82.2643C80.7775 86.0397 79.544 89.7121 77.2626 92.7194C74.981 95.7275 71.7775 97.9051 68.1413 98.9203C68.0436 98.1543 67.6699 97.4498 67.09 96.9395C66.5108 96.4286 65.7648 96.1466 64.9928 96.146H54.7017C53.858 96.1486 53.0497 96.4855 52.4538 97.0828C51.8585 97.6801 51.5236 98.4897 51.5236 99.3335V101.513C51.5236 102.356 51.8585 103.165 52.4538 103.763C53.0498 104.36 53.858 104.697 54.7017 104.699H64.9928C65.7709 104.698 66.5216 104.41 67.1015 103.892C67.6821 103.373 68.0524 102.66 68.1415 101.887C72.5624 100.844 76.502 98.3392 79.3212 94.7779C82.1403 91.2161 83.6746 86.8065 83.6746 82.2643V71.0417C86.7877 70.7236 89.6725 69.2632 91.7719 66.9422C93.8705 64.6212 95.0357 61.6051 95.0403 58.4758L95.0399 58.4757ZM54.4027 101.513V99.3338C54.4 99.2528 54.4302 99.1745 54.4864 99.1169C54.5427 99.0593 54.6197 99.0265 54.7007 99.0265H64.9917C65.0728 99.0265 65.1511 99.0586 65.2087 99.1162C65.2663 99.1738 65.2984 99.2522 65.2984 99.3338V101.513C65.2937 101.68 65.1591 101.815 64.9917 101.82H54.7007C54.5346 101.815 54.4027 101.679 54.4027 101.513H54.4027ZM34.7621 43.3557C34.7621 34.4246 39.5267 26.1717 47.261 21.706C54.9953 17.2401 64.5256 17.2401 72.2587 21.706C79.9931 26.1712 84.7583 34.424 84.7583 43.3557V46.0825C84.3739 46.0048 83.9862 45.9472 83.5964 45.9097C83.2141 40.8399 80.9299 36.1021 77.202 32.6447C73.4741 29.1874 68.5783 27.2662 63.4937 27.2662H56.0345C50.9506 27.2662 46.0541 29.1874 42.3262 32.6447C38.5983 36.1021 36.3149 40.8399 35.9324 45.9097C35.5387 45.9097 35.1449 46.0055 34.7612 46.0731L34.7621 43.3557ZM80.7941 48.6935C74.9093 47.9448 70.2338 40.5527 70.0517 31.4135C73.2338 32.7146 75.9559 34.9345 77.8692 37.7905C79.7831 40.6465 80.8015 44.0082 80.7941 47.4453V48.6935ZM67.0276 30.5118C65.703 40.371 53.6455 48.2049 38.7264 48.7518V47.446C38.7392 42.8669 40.564 38.4794 43.8016 35.2418C47.04 32.0033 51.4274 30.1793 56.0064 30.1667H63.4656C64.6616 30.1573 65.8555 30.2731 67.0274 30.5122L67.0276 30.5118ZM35.6544 68.1249C32.5526 67.6542 29.8667 65.721 28.4369 62.9286C27.0066 60.1369 27.0066 56.8274 28.4369 54.035C29.8666 51.2433 32.5526 49.3094 35.6544 48.8387V68.1249ZM63.4944 86.8072H56.0352C51.4523 86.8072 47.0573 84.9865 43.8163 81.7461C40.576 78.5058 38.7552 74.1102 38.7552 69.5272V51.6232C52.0223 51.1719 63.2352 45.22 67.8329 36.9928C69.5995 45.0465 74.668 51.0177 80.7933 51.6037V69.5077C80.798 74.0968 78.9772 78.5003 75.7322 81.7454C72.4864 84.9906 68.0836 86.812 63.4937 86.8065L63.4944 86.8072ZM83.8464 68.1249L83.8471 48.8392C86.9482 49.31 89.6342 51.2438 91.0646 54.0356C92.495 56.828 92.495 60.1374 91.0646 62.9291C89.6342 65.7215 86.9482 67.6547 83.8471 68.1254L83.8464 68.1249Z" fill="#53C5E2"/>
<path d="M69.8021 56.9209C69.7271 56.7481 69.6233 56.5887 69.4947 56.4508C69.0849 56.0309 68.4581 55.9084 67.9204 56.1434C67.8374 56.1702 67.7563 56.2057 67.6807 56.2492C67.6023 56.2961 67.5313 56.3543 67.469 56.422C67.4007 56.4883 67.3398 56.5626 67.2869 56.6423C67.1824 56.8003 67.1074 56.9758 67.0659 57.1613V57.4398V57.7278V57.7271C67.086 57.8195 67.1148 57.9093 67.1523 57.9963C67.1898 58.0834 67.2347 58.1664 67.2869 58.2454C67.3398 58.3224 67.4007 58.3934 67.469 58.457C67.5307 58.528 67.6016 58.5889 67.6807 58.6392L67.9304 58.7738C68.0168 58.8079 68.1072 58.834 68.199 58.8508H68.4869C68.8686 58.8481 69.2336 58.6967 69.5048 58.4282C69.5697 58.3646 69.628 58.2936 69.6775 58.2166C69.7298 58.1376 69.7746 58.0546 69.8115 57.9675C69.9072 57.7265 69.934 57.4639 69.8885 57.2088C69.8711 57.1097 69.8423 57.0133 69.8021 56.9209L69.8021 56.9209Z" fill="#53C5E2"/>
<path d="M51.8502 56.2489C51.7732 56.1926 51.6895 56.1471 51.6004 56.1143L51.3607 56.0567C50.9368 55.9703 50.4969 56.0788 50.1614 56.352C49.8265 56.6259 49.6324 57.035 49.6324 57.4676C49.631 57.6591 49.6705 57.8493 49.7475 58.0248C49.7817 58.1111 49.8232 58.1949 49.8728 58.2739C49.9283 58.3489 49.9893 58.4198 50.0549 58.4855C50.6167 59.0466 51.5281 59.0466 52.0899 58.4855C52.1556 58.4199 52.2165 58.3489 52.2727 58.2739C52.2727 58.1875 52.3685 58.1105 52.4073 58.0241C52.4455 57.9377 52.4649 57.8419 52.4844 57.7556H52.4837C52.5801 57.2821 52.4321 56.7919 52.0899 56.4504C52.0216 56.3701 51.9406 56.3024 51.8502 56.2489H51.8502Z" fill="#53C5E2"/>
<path d="M63.7061 75.8517C63.7061 75.8517 62.5349 76.8883 59.7605 76.8883C56.9861 76.8883 55.9209 75.9281 55.8243 75.8517C55.2545 75.3254 54.3699 75.3448 53.8241 75.8959C53.2784 76.447 53.267 77.3316 53.7987 77.8961C53.9909 78.0883 55.7667 79.816 59.7604 79.816C63.7542 79.816 65.5208 78.1358 65.7222 77.8961H65.7215C66.268 77.343 66.268 76.4531 65.7215 75.8993C65.1684 75.3522 64.2845 75.3308 63.7059 75.8518L63.7061 75.8517Z" fill="#53C5E2"/>
<path d="M64.7141 67.9711C64.7141 67.1756 64.0692 66.5308 63.2744 66.5308H61.2004V56.3261C61.2004 55.5313 60.5556 54.8864 59.7607 54.8864C58.9652 54.8864 58.3203 55.5313 58.3203 56.3261V69.4109H63.2743C64.0691 69.4109 64.714 68.7661 64.714 67.9712L64.7141 67.9711Z" fill="#53C5E2"/>
</svg>
