<svg width="120" height="120" viewBox="0 0 120 120" fill="none" xmlns="http://www.w3.org/2000/svg">
<path d="M27.2039 81.7272H21.7944C20.0292 81.7272 18.4181 81.0013 17.2523 79.8348C16.0857 78.675 15.3599 77.0638 15.3599 75.294V37.0346C15.3599 35.268 16.0831 33.659 17.2476 32.4938C18.4188 31.3239 20.028 30.6 21.7944 30.6H72.0624C73.7813 30.6 75.3431 31.3004 76.4721 32.4302C77.6011 33.5592 78.3023 35.1207 78.3023 36.8398V42.4159H89.9707C91.3529 42.4159 92.65 42.7614 93.7816 43.4056C94.9146 44.0505 95.8735 44.9933 96.58 46.1846L103.042 57.0858C103.58 57.9932 103.979 58.9173 104.244 59.889C104.511 60.8667 104.64 61.8618 104.64 62.9104V75.2934C104.64 77.0646 103.917 78.6745 102.752 79.839C101.587 81.0035 99.9776 81.7268 98.2064 81.7268H97.8729C97.5769 83.727 96.6394 85.5182 95.2754 86.8823C93.6087 88.5491 91.3024 89.5809 88.7577 89.5809C86.213 89.5809 83.9081 88.549 82.2413 86.8823C80.8773 85.5182 79.9398 83.727 79.6425 81.7268H77.2888C77.2165 81.7268 77.1448 81.7214 77.0758 81.7107C77.0069 81.7207 76.9352 81.7268 76.8629 81.7268H45.4349C45.1376 83.727 44.2001 85.5182 42.836 86.8823C41.1693 88.5491 38.8644 89.5809 36.3197 89.5809C33.775 89.5809 31.4688 88.549 29.802 86.8823C28.4379 85.5182 27.5004 83.727 27.2045 81.7268L27.2039 81.7272ZM66.9376 59.1432C67.7324 59.1432 68.3773 59.7881 68.3773 60.5829C68.3773 61.3778 67.7324 62.0227 66.9376 62.0227H31.9301C31.1353 62.0227 30.4904 61.3778 30.4904 60.5829C30.4904 59.7881 31.1353 59.1432 31.9301 59.1432H66.9376ZM66.9376 50.7801C67.7324 50.7801 68.3773 51.4249 68.3773 52.2198C68.3773 53.0147 67.7324 53.6595 66.9376 53.6595H43.4724C42.6776 53.6595 42.0327 53.0147 42.0327 52.2198C42.0327 51.4249 42.6776 50.7801 43.4724 50.7801H66.9376ZM66.9376 42.4169C67.7324 42.4169 68.3773 43.0618 68.3773 43.8566C68.3773 44.6515 67.7324 45.2964 66.9376 45.2964H54.4481C53.6533 45.2964 53.0084 44.6515 53.0084 43.8566C53.0084 43.0618 53.6533 42.4169 54.4481 42.4169H66.9376ZM97.8496 78.8489H98.2065C99.1828 78.8489 100.073 78.4478 100.716 77.805C101.359 77.1621 101.76 76.2721 101.76 75.2958V62.9128C101.76 62.6067 101.746 62.3094 101.72 62.0228H85.8609C85.0661 62.0228 84.4212 61.378 84.4212 60.5831V45.2985H78.3028V78.8488H79.6668C79.9876 76.9122 80.9144 75.1785 82.2417 73.8506C83.9084 72.1839 86.2133 71.1506 88.758 71.1506C91.3027 71.1506 93.6089 72.1839 95.2757 73.8506C96.6036 75.1786 97.5285 76.9122 97.8499 78.8488L97.8496 78.8489ZM45.4113 78.8489H75.4233V36.8421C75.4233 35.918 75.0443 35.0769 74.4369 34.4688C73.8289 33.8608 72.9878 33.4824 72.0637 33.4824H21.7957C20.8173 33.4824 19.9261 33.8815 19.2832 34.5244C18.6403 35.1672 18.2412 36.0585 18.2412 37.0368V75.2963C18.2412 76.2713 18.6423 77.1606 19.2866 77.8041C19.9274 78.4516 20.8174 78.8494 21.7958 78.8494H27.2292C27.5499 76.9128 28.4754 75.1791 29.8034 73.8512C31.4701 72.1845 33.7764 71.1512 36.3211 71.1512C38.8658 71.1512 41.1706 72.1845 42.8374 73.8512C44.1653 75.1791 45.0914 76.9128 45.4123 78.8494L45.4113 78.8489ZM40.8002 75.8871C39.6538 74.7407 38.07 74.0309 36.3203 74.0309C34.5705 74.0309 32.9855 74.7407 31.8389 75.8871C30.6939 77.0322 29.9841 78.6173 29.9841 80.3671C29.9841 82.1169 30.6939 83.7033 31.8389 84.8484C32.984 85.9935 34.5705 86.7033 36.3203 86.7033C38.07 86.7033 39.6551 85.9934 40.8002 84.8484C41.9466 83.702 42.6564 82.1169 42.6564 80.3671C42.6564 78.6173 41.9466 77.0337 40.8002 75.8871ZM93.2402 75.8871C92.0938 74.7407 90.5087 74.0309 88.7589 74.0309C87.0091 74.0309 85.4255 74.7407 84.2789 75.8871C83.1324 77.0336 82.4227 78.6173 82.4227 80.3671C82.4227 82.1169 83.1325 83.7019 84.2789 84.8484C85.424 85.9935 87.0091 86.7033 88.7589 86.7033C90.5087 86.7033 92.0951 85.9934 93.2402 84.8484C94.3853 83.7033 95.0951 82.1169 95.0951 80.3671C95.0951 78.6173 94.3852 77.0323 93.2402 75.8871ZM100.894 59.142C100.795 58.9445 100.686 58.7482 100.57 58.55L94.1075 47.6489C93.6582 46.8915 93.0609 46.2996 92.3658 45.9038C91.6727 45.5093 90.8578 45.2971 89.9725 45.2971H87.302V59.1413H100.894L100.894 59.142Z" fill="#53C5E2"/>
</svg>
