<svg width="120" height="120" viewBox="0 0 120 120" fill="none" xmlns="http://www.w3.org/2000/svg">
<path d="M99.8253 43.1503L87.3252 20.6501C87.1098 20.2561 86.6996 20.0078 86.2504 20H33.7501C33.2992 20.0006 32.8835 20.2444 32.6625 20.6373L20.1624 43.1374C20.0564 43.3244 20.0006 43.5353 20 43.7501V98.7505C20 99.082 20.1317 99.4 20.3661 99.6344C20.6004 99.8688 20.9185 100 21.25 100H98.7505C99.082 100 99.4 99.8688 99.6344 99.6344C99.8688 99.4 100 99.082 100 98.7505V43.7501C99.9938 43.5386 99.9335 43.3322 99.8253 43.1503V43.1503ZM96.6255 42.5001H73.4754L69.0629 22.5H85.513L96.6255 42.5001ZM53.0753 53.6129C55.5144 52.3239 57.832 50.8178 60.0006 49.1129C62.1692 50.8178 64.4866 52.3239 66.9259 53.6129C69.9332 55.1894 73.113 56.4137 76.4008 57.2625C76.989 60.9935 76.9466 64.796 76.2758 68.5126C73.926 81.2252 64.5883 89.0627 60.0257 92.2627C55.4381 89.1003 46.1004 81.2627 43.7756 68.5126C43.1049 64.796 43.0625 60.9935 43.6506 57.2625C46.9214 56.4104 50.0837 55.1855 53.0754 53.6129H53.0753ZM68.0753 51.388V51.3875C65.4889 50.0281 63.0507 48.4025 60.8007 46.5376C60.337 46.1514 59.664 46.1514 59.2003 46.5376C56.9503 48.4026 54.5123 50.0282 51.9257 51.3875C50.8883 51.9377 49.8258 52.4126 48.7504 52.8752V45.0002H71.2505V52.8752C70.1757 52.4126 69.1132 51.9377 68.0752 51.3875L68.0753 51.388ZM49.0624 42.5001L53.4998 22.5H66.4999L70.9374 42.5001H49.0624ZM34.488 22.5H50.9381L46.5006 42.5001H23.3748L34.488 22.5ZM97.5012 97.5005H22.5008V45.0002H46.2509V53.8249C44.9273 54.3099 43.5796 54.7273 42.2135 55.0749C41.733 55.1904 41.3658 55.5772 41.276 56.0627C40.4886 60.3434 40.4886 64.7319 41.276 69.0125C43.9133 83.3497 54.7761 91.8497 59.3132 94.8369V94.8375C59.7306 95.112 60.2708 95.112 60.6882 94.8375C65.2257 91.8123 76.0883 83.3122 78.7512 68.9744C79.5386 64.6937 79.5386 60.3052 78.7512 56.0246C78.6614 55.5392 78.2936 55.1524 77.8137 55.0369C76.4476 54.6893 75.1 54.2718 73.7762 53.7869V44.9994H97.5007L97.5012 97.5005Z" fill="#53C5E2"/>
<path d="M59.1882 87.2005C59.6559 87.6006 60.3456 87.6006 60.8132 87.2005C64.5677 83.9555 67.6436 79.9996 69.864 75.5609C72.0844 71.1221 73.4053 66.2891 73.7507 61.3381C73.777 60.7711 73.4176 60.2577 72.8757 60.0881C70.7909 59.4329 68.7601 58.6182 66.801 57.6506C64.6798 56.6054 62.6481 55.3889 60.7257 54.0127C60.2921 53.7041 59.7095 53.7041 59.2759 54.0127C57.3535 55.3889 55.3216 56.6053 53.2006 57.6506C51.2392 58.6127 49.2084 59.4275 47.1259 60.0881C46.584 60.2577 46.2246 60.7711 46.2509 61.3381C46.5963 66.289 47.9172 71.1221 50.1376 75.5609C52.358 79.9996 55.4339 83.9555 59.1884 87.2005H59.1882ZM54.3009 59.8761C56.2792 58.8984 58.1844 57.7789 60.0007 56.5262C61.8171 57.779 63.7222 58.8983 65.7004 59.8761C67.4761 60.7455 69.3047 61.5011 71.1759 62.1384C70.3483 70.7411 66.3678 78.7327 60.0005 84.5756C53.6333 78.733 49.6527 70.7407 48.8252 62.1384C50.6963 61.5011 52.5249 60.7455 54.3006 59.8761H54.3009Z" fill="#53C5E2"/>
<path d="M56.4263 75.6376C56.6143 75.9579 56.9347 76.1778 57.3013 76.238H57.5011C57.8046 76.2375 58.0982 76.1264 58.3258 75.9255L68.3259 67.1755C68.5915 66.9612 68.7584 66.6481 68.7874 66.3083C68.8164 65.969 68.7059 65.6319 68.4805 65.3758C68.255 65.1202 67.9353 64.9673 67.5943 64.9528C67.2539 64.9383 66.9219 65.0639 66.6763 65.3005L57.8013 73.0628L54.8264 68.0628H54.8259C54.6802 67.7402 54.4051 67.4947 54.068 67.387C53.7315 67.2793 53.3644 67.3189 53.0586 67.4969C52.7527 67.6749 52.5368 67.9735 52.4637 68.32C52.3911 68.666 52.4681 69.0265 52.6763 69.3128L56.4263 75.6376Z" fill="#53C5E2"/>
</svg>
