<svg width="175" height="39" viewBox="0 0 175 39" fill="none" xmlns="http://www.w3.org/2000/svg">
<path d="M16.3415 3.13008C8.24982 5.84733 3.24194 10.7384 0 16.8457C1.58144 8.07288 6.85289 2.76778 15.2872 0.412828C15.4981 0.361071 15.6826 0.309314 15.8934 0.283435C19.0036 -0.260014 19.9524 0.645735 18.2392 2.09493C17.6857 2.56075 17.0268 2.89717 16.3415 3.13008Z" fill="url(#paint0_linear_203_1981)"/>
<path d="M3.05735 30.2779C0.395262 26.4996 -0.184598 22.4108 2.21391 17.8562C3.79535 15.0613 5.77214 12.7064 8.19701 10.8431C9.96295 9.47155 11.9661 8.46229 14.101 7.71181C21.1384 5.22747 24.0641 2.66549 21.771 0C24.4331 0.18115 26.489 0.957507 26.2781 3.77827C25.1184 8.41053 21.033 11.3348 15.3398 13.3792C13.7057 13.9744 12.1242 14.699 10.6482 15.6565C5.00778 19.2536 2.31934 24.0671 3.05735 30.2779Z" fill="url(#paint1_linear_203_1981)"/>
<path d="M21.7182 21.8152C13.6266 25.3864 8.4869 28.0778 9.77841 36.0484C3.5581 31.4161 5.69303 22.074 13.363 18.0887C26.2781 12.2142 31.3914 6.65033 28.4657 2.06982C34.3697 6.98675 34.3961 12.0848 28.5448 17.3899C26.5416 19.2532 24.2222 20.7283 21.7182 21.8152Z" fill="url(#paint2_linear_203_1981)"/>
<path d="M29.2297 28.0778C20.031 34.9615 15.1812 33.7194 16.7627 38.1187C7.30041 36.0484 13.4153 29.6823 22.5349 25.0501C24.9598 23.8079 27.3056 22.5657 29.4669 20.9354C36.0825 15.9926 35.6872 9.67818 34.0003 6.77979C40.6423 13.2753 37.2686 21.7894 29.2297 28.0778Z" fill="url(#paint3_linear_203_1981)"/>
<path d="M22.6669 34.8323C30.7586 32.1151 35.7665 27.224 39.0085 21.1167C37.427 29.8637 32.1556 35.1946 23.7212 37.5496C23.5104 37.6013 23.3259 37.6531 23.115 37.679C20.0049 38.2224 19.056 37.3167 20.7692 35.8675C21.3227 35.4275 21.9817 35.0652 22.6669 34.8323Z" fill="url(#paint4_linear_203_1981)"/>
<path d="M58.877 9.75543C60.8333 10.7191 61.0913 12.5207 60.8978 13.5892C60.5323 15.8307 58.9845 17.1924 55.8027 17.1924H49.9551V3.21924H55.7167C58.447 3.21924 60.4464 4.81139 60.3819 7.47195C60.3389 8.12138 59.9304 9.2317 58.877 9.75543ZM55.7167 8.68701C57.4796 8.68701 57.5441 6.19404 55.7167 6.19404H53.6098V8.68701H55.7167ZM55.7167 14.0919C57.9095 14.0919 57.8665 11.2219 55.7167 11.2219H53.6098V14.0919H55.7167Z" fill="#414042"/>
<path d="M66.1865 12.5207C66.1865 14.7623 70.2713 14.7623 70.2928 12.5207V3.21924H73.969V12.5207C73.9475 19.0779 62.5103 19.0779 62.5318 12.5207V3.21924H66.1865V12.5207Z" fill="#414042"/>
<path d="M77.7105 12.7722C79.1509 14.469 82.3112 14.5528 82.4186 13.0445C82.4616 12.2484 81.1502 11.8085 79.9678 11.6409C77.6675 11.2847 75.5606 9.8602 75.5606 7.19963C75.5606 4.45527 78.1189 3.00977 80.7418 3.00977C82.4831 3.00977 84.16 3.4916 85.6434 5.23039L83.2786 7.01109C81.7737 5.46084 79.2154 5.50274 79.1509 7.13678C79.1939 7.80716 79.9463 8.2052 81.0642 8.43564C83.6226 8.89653 86.1594 9.75545 86.0089 13.1911C85.8799 15.8936 82.9776 17.381 80.3333 17.381C78.6134 17.381 76.786 16.5221 75.4531 14.8461L77.7105 12.7722Z" fill="#414042"/>
<path d="M91.1469 17.1924H87.5137V3.21924H91.1469V17.1924Z" fill="#414042"/>
<path d="M93.4258 3.21924H96.8655L100.327 9.16885L101.552 11.9761L101.66 11.9551C101.638 11.9551 101.273 9.54594 101.251 9.54594V3.21924H104.863V17.1924H101.187L97.9405 11.6828L96.6935 8.87556L96.5861 8.89651L97.059 11.599V17.1924H93.4258V3.21924Z" fill="#414042"/>
<path d="M110.774 8.70796H116.579V11.7666H110.774V13.8615H117.095V17.1924H107.12V3.21924H117.095V6.52923H110.774V8.70796Z" fill="#414042"/>
<path d="M120.62 12.7722C122.061 14.469 125.221 14.5528 125.328 13.0445C125.371 12.2484 124.06 11.8085 122.877 11.6409C120.577 11.2847 118.47 9.8602 118.47 7.19963C118.47 4.45527 121.029 3.00977 123.651 3.00977C125.393 3.00977 127.07 3.4916 128.553 5.23039L126.188 7.01109C124.683 5.46084 122.125 5.50274 122.061 7.13678C122.104 7.80716 122.856 8.2052 123.974 8.43564C126.532 8.89653 129.069 9.75545 128.919 13.1911C128.79 15.8936 125.887 17.381 123.243 17.381C121.523 17.381 119.696 16.5221 118.363 14.8461L120.62 12.7722Z" fill="#414042"/>
<path d="M132.057 12.7722C133.498 14.469 136.658 14.5528 136.765 13.0445C136.808 12.2484 135.497 11.8085 134.315 11.6409C132.014 11.2847 129.907 9.8602 129.907 7.19963C129.907 4.45527 132.466 3.00977 135.088 3.00977C136.83 3.00977 138.507 3.4916 139.99 5.23039L137.625 7.01109C136.12 5.46084 133.562 5.50274 133.498 7.13678C133.541 7.80716 134.293 8.2052 135.411 8.43564C137.969 8.89653 140.506 9.75545 140.356 13.1911C140.227 15.8936 137.324 17.381 134.68 17.381C132.96 17.381 131.133 16.5221 129.8 14.8461L132.057 12.7722Z" fill="#414042"/>
<path d="M147.989 13.1488H141.668V9.79688H147.989V13.1488Z" fill="#414042"/>
<path d="M153.643 12.5207C153.643 14.7623 157.728 14.7623 157.749 12.5207V3.21924H161.426V12.5207C161.404 19.0779 149.967 19.0779 149.988 12.5207V3.21924H153.665V12.5207H153.643Z" fill="#414042"/>
<path d="M163.574 3.21924H169.314C172.819 3.21924 174.56 5.69126 174.56 8.16328C174.56 10.6563 172.797 13.1073 169.336 13.1073H167.207V17.1924H163.574V3.21924ZM169.293 9.96492C171.486 9.98587 171.486 6.48733 169.293 6.50828H167.186V9.96492H169.293Z" fill="#414042"/>
<path d="M49.9551 31.8209V23.0469H53.0789C54.4877 23.0469 55.6515 23.4647 56.5397 24.3003C57.4278 25.1359 57.8872 26.1805 57.8872 27.4339C57.8872 28.6873 57.4278 29.7319 56.5397 30.5675C55.6515 31.4031 54.4877 31.8209 53.1096 31.8209H49.9551ZM50.9657 30.9256H53.0789C54.2121 30.9256 55.1003 30.5973 55.8047 29.9408C56.4784 29.2842 56.8153 28.4486 56.8153 27.4637C56.8153 26.4789 56.4784 25.6433 55.774 24.9867C55.1003 24.3302 54.1815 24.0019 53.0789 24.0019H50.9657V30.9256Z" fill="#414042"/>
<path d="M59.876 23.9122V22.8677H61.0091V23.942H59.876V23.9122ZM59.9372 31.8208V25.3447H60.9173V31.8208H59.9372Z" fill="#414042"/>
<path d="M66.187 33.8508C65.0538 33.8508 64.0432 33.5524 63.155 32.9555L63.6144 32.2094C64.4107 32.7765 65.2376 33.045 66.187 33.045C66.922 33.045 67.5345 32.8361 67.9633 32.4482C68.3921 32.0602 68.6065 31.4932 68.6065 30.7471V29.9712C67.9021 30.8963 67.0445 31.344 66.0032 31.344C65.1763 31.344 64.4413 31.0754 63.7982 30.5083C63.1857 29.9413 62.8794 29.1952 62.8794 28.2999C62.8794 27.3748 63.1857 26.6585 63.8288 26.0915C64.4413 25.5245 65.1763 25.2559 66.0032 25.2559C67.0752 25.2559 67.9327 25.7035 68.6065 26.569V25.4051H69.5865V30.7769C69.5865 31.7618 69.3109 32.5079 68.729 33.0749C68.1471 33.5822 67.2895 33.8508 66.187 33.8508ZM66.187 30.4785C66.8301 30.4785 67.412 30.2696 67.9021 29.8518C68.3921 29.434 68.6371 28.8968 68.6371 28.2701C68.6371 27.6433 68.3921 27.1062 67.9021 26.6884C67.412 26.2705 66.8301 26.0616 66.187 26.0616C65.5439 26.0616 64.9926 26.2705 64.5332 26.6585C64.1044 27.0763 63.8594 27.5837 63.8594 28.2701C63.8594 28.8968 64.0738 29.434 64.5332 29.8518C64.9926 30.2696 65.5439 30.4785 66.187 30.4785Z" fill="#414042"/>
<path d="M71.8193 23.9122V22.8677H72.9525V23.942H71.8193V23.9122ZM71.8806 31.8208V25.3447H72.8606V31.8208H71.8806Z" fill="#414042"/>
<path d="M77.3972 31.9406C76.8153 31.9406 76.3559 31.7914 76.019 31.493C75.6821 31.1945 75.4984 30.7469 75.4984 30.1202V26.2106H74.5796V25.3452H75.4984V23.3755H76.4784V25.3452H78.5916V26.2106H76.4784V30.0008C76.4784 30.717 76.8459 31.0752 77.6116 31.0752C77.9485 31.0752 78.2547 30.9856 78.5916 30.8364V31.672C78.2547 31.8511 77.826 31.9406 77.3972 31.9406Z" fill="#414042"/>
<path d="M82.3577 31.9703C81.6839 31.9703 81.102 31.7912 80.612 31.4331C80.122 31.075 79.877 30.5676 79.877 29.9409C79.877 29.2545 80.122 28.7471 80.6426 28.3592C81.1632 28.0011 81.837 27.7921 82.7252 27.7921C83.3989 27.7921 84.1033 27.8817 84.7465 28.0607V27.8518C84.7465 27.2848 84.5627 26.8371 84.2258 26.5387C83.889 26.2403 83.3989 26.0911 82.7558 26.0911C82.1126 26.0911 81.4389 26.2403 80.7345 26.5686L80.4282 25.7926C81.2551 25.4345 82.0514 25.2256 82.8477 25.2256C83.7971 25.2256 84.5015 25.4643 84.9915 25.9418C85.4509 26.3895 85.6959 27.0162 85.6959 27.8518V31.821H84.7465V30.866C84.1646 31.6121 83.3683 31.9703 82.3577 31.9703ZM82.5414 31.1943C83.1539 31.1943 83.6746 31.0451 84.1033 30.7168C84.5321 30.3885 84.7465 29.9707 84.7465 29.4634V28.8665C84.1033 28.6875 83.4602 28.5979 82.8171 28.5979C82.2045 28.5979 81.7451 28.7173 81.3776 28.956C81.0407 29.1948 80.857 29.5231 80.857 29.9409C80.857 30.3289 81.0101 30.6571 81.347 30.8959C81.6839 31.075 82.082 31.1943 82.5414 31.1943Z" fill="#414042"/>
<path d="M87.9316 31.8212V22.6592H88.9117V31.8212H87.9316Z" fill="#414042"/>
<path d="M97.0593 31.9703C96.3856 31.9703 95.8037 31.7912 95.3136 31.4331C94.8236 31.075 94.5786 30.5676 94.5786 29.9409C94.5786 29.2545 94.8236 28.7471 95.3443 28.3592C95.8649 28.0011 96.5387 27.7921 97.4268 27.7921C98.1006 27.7921 98.805 27.8817 99.4482 28.0607V27.8518C99.4482 27.2848 99.2644 26.8371 98.9275 26.5387C98.5906 26.2403 98.1006 26.0911 97.4575 26.0911C96.8143 26.0911 96.1405 26.2403 95.4361 26.5686L95.1299 25.7926C95.9568 25.4345 96.7531 25.2256 97.5493 25.2256C98.4988 25.2256 99.2032 25.4643 99.6932 25.9418C100.153 26.3895 100.398 27.0162 100.398 27.8518V31.821H99.4482V30.866C98.8663 31.6121 98.07 31.9703 97.0593 31.9703ZM97.2431 31.1943C97.8556 31.1943 98.3762 31.0451 98.805 30.7168C99.2338 30.3885 99.4482 29.9707 99.4482 29.4634V28.8665C98.805 28.6875 98.1619 28.5979 97.5187 28.5979C96.9062 28.5979 96.4468 28.7173 96.0793 28.956C95.7424 29.1948 95.5586 29.5231 95.5586 29.9409C95.5586 30.3289 95.7118 30.6571 96.0487 30.8959C96.3856 31.075 96.7837 31.1943 97.2431 31.1943Z" fill="#414042"/>
<path d="M105.481 33.8508C104.348 33.8508 103.338 33.5524 102.449 32.9555L102.909 32.2094C103.705 32.7765 104.532 33.045 105.481 33.045C106.216 33.045 106.829 32.8361 107.258 32.4482C107.687 32.0602 107.901 31.4932 107.901 30.7471V29.9712C107.197 30.8963 106.339 31.344 105.298 31.344C104.471 31.344 103.736 31.0754 103.093 30.5083C102.48 29.9413 102.174 29.1952 102.174 28.2999C102.174 27.3748 102.48 26.6585 103.123 26.0915C103.736 25.5245 104.471 25.2559 105.298 25.2559C106.37 25.2559 107.227 25.7035 107.901 26.569V25.4051H108.881V30.7769C108.881 31.7618 108.605 32.5079 108.023 33.0749C107.442 33.5822 106.584 33.8508 105.481 33.8508ZM105.481 30.4785C106.125 30.4785 106.706 30.2696 107.197 29.8518C107.687 29.434 107.932 28.8968 107.932 28.2701C107.932 27.6433 107.687 27.1062 107.197 26.6884C106.706 26.2705 106.125 26.0616 105.481 26.0616C104.838 26.0616 104.287 26.2705 103.828 26.6585C103.399 27.0763 103.154 27.5837 103.154 28.2701C103.154 28.8968 103.368 29.434 103.828 29.8518C104.287 30.2696 104.838 30.4785 105.481 30.4785Z" fill="#414042"/>
<path d="M111.666 28.9859C111.727 29.6425 112.003 30.1797 112.432 30.5677C112.86 30.9556 113.412 31.1645 113.994 31.1645C114.79 31.1645 115.494 30.8661 116.107 30.2394L116.719 30.7766C115.984 31.5823 115.065 32.0001 113.963 32.0001C113.013 32.0001 112.248 31.6719 111.605 31.0452C110.962 30.4184 110.655 29.6127 110.655 28.598C110.655 27.643 110.962 26.8372 111.574 26.1806C112.187 25.5241 112.952 25.1958 113.84 25.1958C114.79 25.1958 115.555 25.5241 116.107 26.1806C116.658 26.8372 116.934 27.643 116.934 28.6278C116.934 28.7472 116.934 28.8666 116.934 28.9561H111.666V28.9859ZM111.666 28.21H115.954C115.892 27.5833 115.678 27.0759 115.31 26.6581C114.943 26.2403 114.453 26.0314 113.81 26.0314C113.258 26.0314 112.768 26.2403 112.34 26.6581C111.972 27.0461 111.758 27.5534 111.666 28.21Z" fill="#414042"/>
<path d="M118.709 31.821V25.345H119.689V26.479C120.21 25.6434 120.975 25.2256 121.955 25.2256C122.752 25.2256 123.364 25.4643 123.824 25.9418C124.283 26.4193 124.497 27.046 124.497 27.822V31.821H123.517V28.0309C123.517 27.434 123.364 26.9565 123.027 26.5984C122.69 26.2403 122.262 26.0911 121.68 26.0911C121.098 26.0911 120.638 26.2701 120.24 26.6581C119.873 27.046 119.658 27.5235 119.658 28.1204V31.821H118.709Z" fill="#414042"/>
<path d="M129.646 31.9703C128.697 31.9703 127.87 31.642 127.227 30.9854C126.583 30.3289 126.247 29.5231 126.247 28.5979C126.247 27.6728 126.583 26.867 127.227 26.2104C127.87 25.5539 128.697 25.2256 129.646 25.2256C130.687 25.2256 131.576 25.6136 132.311 26.3895L131.667 27.0461C131.055 26.4193 130.381 26.0911 129.615 26.0911C128.942 26.0911 128.39 26.3298 127.931 26.8371C127.472 27.3146 127.257 27.9414 127.257 28.6278C127.257 29.344 127.502 29.9409 127.962 30.4184C128.421 30.8959 129.003 31.1645 129.707 31.1645C130.412 31.1645 131.086 30.8362 131.729 30.1796L132.372 30.7765C131.576 31.5525 130.687 31.9703 129.646 31.9703Z" fill="#414042"/>
<path d="M135.033 33.8806C134.543 33.8806 134.084 33.7612 133.624 33.5523L133.961 32.7764C134.267 32.9256 134.635 33.0151 135.002 33.0151C135.309 33.0151 135.554 32.9256 135.768 32.7465C135.982 32.5675 136.166 32.2392 136.381 31.7915L133.349 25.3154H134.451L136.871 30.7171L139.014 25.3154H140.056L137.269 32.0303C136.993 32.6868 136.687 33.1643 136.319 33.4329C135.952 33.7314 135.523 33.8806 135.033 33.8806Z" fill="#414042"/>
<defs>
<linearGradient id="paint0_linear_203_1981" x1="-0.63301" y1="16.2212" x2="16.8325" y2="-1.56741" gradientUnits="userSpaceOnUse">
<stop stop-color="#CE2000"/>
<stop offset="0.6128" stop-color="#A61A00"/>
<stop offset="1" stop-color="#DD1500"/>
</linearGradient>
<linearGradient id="paint1_linear_203_1981" x1="-0.653571" y1="26.6122" x2="24.8622" y2="0.624389" gradientUnits="userSpaceOnUse">
<stop stop-color="#CE2000"/>
<stop offset="0.6128" stop-color="#A61A00"/>
<stop offset="1" stop-color="#DD1500"/>
</linearGradient>
<linearGradient id="paint2_linear_203_1981" x1="5.75094" y1="32.2295" x2="32.0269" y2="5.46753" gradientUnits="userSpaceOnUse">
<stop stop-color="#CE2000"/>
<stop offset="0.6128" stop-color="#A61A00"/>
<stop offset="1" stop-color="#DD1500"/>
</linearGradient>
<linearGradient id="paint3_linear_203_1981" x1="12.6421" y1="36.1939" x2="37.85" y2="10.5197" gradientUnits="userSpaceOnUse">
<stop stop-color="#CE2000"/>
<stop offset="0.6128" stop-color="#A61A00"/>
<stop offset="1" stop-color="#DD1500"/>
</linearGradient>
<linearGradient id="paint4_linear_203_1981" x1="21.8441" y1="39.2189" x2="39.3097" y2="21.4304" gradientUnits="userSpaceOnUse">
<stop stop-color="#CE2000"/>
<stop offset="0.6128" stop-color="#A61A00"/>
<stop offset="1" stop-color="#DD1500"/>
</linearGradient>
</defs>
</svg>
