<svg width="25" height="24" viewBox="0 0 25 24" fill="none" xmlns="http://www.w3.org/2000/svg">
<path d="M17.2071 10.7071C17.5976 10.3166 17.5976 9.68342 17.2071 9.29289C16.8166 8.90237 16.1834 8.90237 15.7929 9.29289L17.2071 10.7071ZM12.5 14L11.7929 14.7071C12.1834 15.0976 12.8166 15.0976 13.2071 14.7071L12.5 14ZM9.20711 9.29289C8.81658 8.90237 8.18342 8.90237 7.79289 9.29289C7.40237 9.68342 7.40237 10.3166 7.79289 10.7071L9.20711 9.29289ZM15.7929 9.29289L11.7929 13.2929L13.2071 14.7071L17.2071 10.7071L15.7929 9.29289ZM13.2071 13.2929L9.20711 9.29289L7.79289 10.7071L11.7929 14.7071L13.2071 13.2929Z" fill="white"/>
</svg>
