<svg width="24" height="24" viewBox="0 0 24 24" fill="none" xmlns="http://www.w3.org/2000/svg">
<path d="M3 2C2.44772 2 2 2.44772 2 3C2 3.55228 2.44772 4 3 4V2ZM5.27148 4.26477L6.24929 4.05524V4.05524L5.27148 4.26477ZM7.72945 15.7353L6.75164 15.9448L7.72945 15.7353ZM7.99349 16.5802L7.17904 17.1604L7.99349 16.5802ZM8.41211 16.918L8.8088 16H8.8088L8.41211 16.918ZM4.5878 3.08205L4.98449 2.1641L4.5878 3.08205ZM5.00586 3.4198L5.82032 2.83958V2.83958L5.00586 3.4198ZM6 5C5.44772 5 5 5.44772 5 6C5 6.55228 5.44772 7 6 7V5ZM20.411 8.04346L21.3718 8.32062L20.411 8.04346ZM19.0264 12.8435L18.0655 12.5663H18.0655L19.0264 12.8435ZM7.73047 13C7.17818 13 6.73047 13.4477 6.73047 14C6.73047 14.5523 7.17818 15 7.73047 15V13ZM18.7256 13.6193L19.5108 14.2386L18.7256 13.6193ZM18.3171 13.926L18.6945 14.8521L18.3171 13.926ZM20.1979 6.15036L19.6706 7L20.1979 6.15036ZM20.6329 6.72876L21.5954 6.45755L20.6329 6.72876ZM17 20C16.4477 20 16 19.5523 16 19H14C14 20.6569 15.3431 22 17 22V20ZM16 19C16 18.4477 16.4477 18 17 18V16C15.3431 16 14 17.3431 14 19H16ZM17 18C17.5523 18 18 18.4477 18 19H20C20 17.3431 18.6569 16 17 16V18ZM18 19C18 19.5523 17.5523 20 17 20V22C18.6569 22 20 20.6569 20 19H18ZM8 20C7.44772 20 7 19.5523 7 19H5C5 20.6569 6.34315 22 8 22V20ZM7 19C7 18.4477 7.44772 18 8 18V16C6.34315 16 5 17.3431 5 19H7ZM8 18C8.55228 18 9 18.4477 9 19H11C11 17.3431 9.65685 16 8 16V18ZM9 19C9 19.5523 8.55228 20 8 20V22C9.65685 22 11 20.6569 11 19H9ZM3 4H3.70653V2H3V4ZM4.29368 4.4743L6.75164 15.9448L8.70725 15.5257L6.24929 4.05524L4.29368 4.4743ZM9.29395 18H17V16H9.29395V18ZM6.75164 15.9448C6.79669 16.155 6.8411 16.3663 6.89252 16.5431C6.94754 16.7321 7.02838 16.9489 7.17904 17.1604L8.80795 16C8.8386 16.043 8.83574 16.0628 8.81289 15.9843C8.78646 15.8935 8.75885 15.7666 8.70725 15.5257L6.75164 15.9448ZM9.29395 16C9.0487 16 8.9186 15.9994 8.82477 15.9925C8.7435 15.9865 8.76135 15.9795 8.8088 16L8.01542 17.8359C8.25273 17.9385 8.48087 17.9725 8.67774 17.987C8.86205 18.0006 9.07794 18 9.29395 18V16ZM7.17904 17.1604C7.39185 17.4592 7.6823 17.692 8.01542 17.8359L8.8088 16L8.80795 16L7.17904 17.1604ZM3.70653 4C3.95179 4 4.08169 4.00063 4.17531 4.00754C4.25621 4.01351 4.23836 4.02042 4.1911 4L4.98449 2.1641C4.74738 2.06163 4.51952 2.02751 4.32256 2.01297C4.13833 1.99937 3.92253 2 3.70653 2V4ZM6.24929 4.05524C6.20387 3.8433 6.15911 3.63215 6.10686 3.45436C6.05109 3.26461 5.96979 3.04939 5.82032 2.83958L4.1914 4.00002C4.16193 3.95866 4.16512 3.94042 4.18801 4.01829C4.21441 4.10812 4.24245 4.23523 4.29368 4.4743L6.24929 4.05524ZM4.1911 4L4.1914 4.00002L5.82032 2.83958C5.60825 2.5419 5.3188 2.30857 4.98449 2.1641L4.1911 4ZM6 7H18.8732V5H6V7ZM19.4502 7.7663L18.0655 12.5663L19.9872 13.1206L21.3718 8.32062L19.4502 7.7663ZM17.4883 13H7.73047V15H17.4883V13ZM18.0655 12.5663C18.0019 12.787 17.9679 12.9028 17.9378 12.9849C17.912 13.0551 17.9108 13.0377 17.9404 13L19.5108 14.2386C19.783 13.8935 19.8923 13.4495 19.9872 13.1206L18.0655 12.5663ZM17.4883 15C17.8307 15 18.2874 15.018 18.6945 14.8521L17.9397 13C17.984 12.9819 18.0004 12.988 17.9258 12.9932C17.8387 12.9994 17.718 13 17.4883 13V15ZM17.9404 13L17.9397 13L18.6945 14.8521C19.0129 14.7223 19.2953 14.5118 19.5108 14.2386L17.9404 13ZM18.8732 7C19.2527 7 19.4707 7.00094 19.6266 7.01484C19.7759 7.02816 19.7442 7.04572 19.6706 7L20.7253 5.30072C20.4094 5.10464 20.0763 5.04702 19.8043 5.02275C19.5387 4.99906 19.2155 5 18.8732 5V7ZM21.3718 8.32062C21.4668 7.99117 21.5571 7.68087 21.6078 7.41872C21.6597 7.15021 21.696 6.81467 21.5954 6.45755L19.6704 6.99997C19.6471 6.91727 19.6725 6.89234 19.6441 7.0392C19.6145 7.19241 19.5552 7.40225 19.4502 7.7663L21.3718 8.32062ZM19.6706 7L19.6704 6.99997L21.5954 6.45755C21.4601 5.9772 21.1501 5.56436 20.7253 5.30072L19.6706 7Z" fill="white"/>
</svg>
