<svg width="8" height="5" viewBox="0 0 8 5" fill="none" xmlns="http://www.w3.org/2000/svg">
<path d="M7.27038 1.10355C7.46564 0.908291 7.46564 0.591709 7.27038 0.396447C7.07512 0.201184 6.75854 0.201184 6.56328 0.396447L7.27038 1.10355ZM4.00016 3.66667L3.64661 4.02022C3.74038 4.11399 3.86755 4.16667 4.00016 4.16667C4.13277 4.16667 4.25995 4.11399 4.35372 4.02022L4.00016 3.66667ZM1.43705 0.396447C1.24179 0.201184 0.925205 0.201184 0.729943 0.396447C0.534681 0.591709 0.534681 0.908291 0.729943 1.10355L1.43705 0.396447ZM6.56328 0.396447L3.64661 3.31311L4.35372 4.02022L7.27038 1.10355L6.56328 0.396447ZM4.35372 3.31311L1.43705 0.396447L0.729943 1.10355L3.64661 4.02022L4.35372 3.31311Z" fill="#414042"/>
</svg>
