<svg width="34" height="38" viewBox="0 0 34 38" fill="none" xmlns="http://www.w3.org/2000/svg">
<path d="M30.4587 0.000435284H3.54157C1.79271 0.000435284 0.375 1.41844 0.375 3.16701V34.8334C0.375 36.5823 1.79271 38 3.54157 38L30.4587 38.0003C32.2073 38.0003 33.6253 36.5823 33.6253 34.8337V3.16657C33.6253 1.418 32.2073 0 30.4587 0V0.000435284ZM32.0419 34.834C32.0419 35.7076 31.3323 36.4174 30.4584 36.4174L3.542 36.4172C2.66814 36.4172 1.95857 35.7076 1.95857 34.8337V3.1673C1.95857 2.29373 2.66811 1.58387 3.542 1.58387L30.4591 1.58415C31.3327 1.58415 32.0426 2.29369 32.0426 3.16758L32.0419 34.834Z" fill="white"/>
<path d="M5.125 12.6669H28.875V4.75049H5.125V12.6669ZM6.70843 6.33377H27.2913V11.0838H6.70843V6.33377Z" fill="white"/>
<path d="M5.125 20.584H9.875V15.834H5.125V20.584ZM6.70843 17.4171H8.29186L8.29158 19.0006H6.70815L6.70843 17.4171Z" fill="white"/>
<path d="M11.457 20.584H16.2073V15.834H11.457V20.584ZM13.0405 17.4171H14.6239V19.0006H13.0405V17.4171Z" fill="white"/>
<path d="M17.793 20.584H22.543V15.834H17.793V20.584ZM19.3764 17.4171H20.9598V19.0006H19.3764V17.4171Z" fill="white"/>
<path d="M24.125 20.584H28.875V15.834H24.125V20.584ZM25.7084 17.4171H27.2919L27.2916 19.0006H25.7084L25.7084 17.4171Z" fill="white"/>
<path d="M5.125 26.917H9.875V22.167H5.125V26.917ZM6.70843 23.7504H8.29186V25.3338H6.70843V23.7504Z" fill="white"/>
<path d="M11.457 26.917H16.2073V22.167H11.457V26.917ZM13.0405 23.7504H14.6239V25.3338H13.0405V23.7504Z" fill="white"/>
<path d="M17.793 26.917H22.543V22.167H17.793V26.917ZM19.3764 23.7504H20.9598V25.3338H19.3764V23.7504Z" fill="white"/>
<path d="M5.125 33.2505H9.875V28.5005H5.125V33.2505ZM6.70843 30.0839H8.29186V31.6673H6.70843V30.0839Z" fill="white"/>
<path d="M11.457 33.2505H16.2073V28.5005H11.457V33.2505ZM13.0405 30.0839H14.6239V31.6673H13.0405V30.0839Z" fill="white"/>
<path d="M17.793 33.2505H22.543V28.5005H17.793V33.2505ZM19.3764 30.0839H20.9598V31.6673L19.3764 31.6671V30.0839Z" fill="white"/>
<path d="M24.125 33.2506H28.875V22.167H24.125V33.2506ZM25.7084 23.7506H27.2919V31.667H25.7084V23.7506Z" fill="white"/>
</svg>
