<svg width="9" height="16" viewBox="0 0 9 16" fill="none" xmlns="http://www.w3.org/2000/svg">
<path d="M1.70711 0.292893C1.31658 -0.0976315 0.683418 -0.0976315 0.292893 0.292893C-0.0976309 0.683417 -0.0976309 1.31658 0.292893 1.70711L1.70711 0.292893ZM8 8L8.70711 8.70711C8.89464 8.51957 9 8.26522 9 8C9 7.73478 8.89464 7.48043 8.70711 7.29289L8 8ZM0.292893 14.2929C-0.0976311 14.6834 -0.0976311 15.3166 0.292893 15.7071C0.683417 16.0976 1.31658 16.0976 1.70711 15.7071L0.292893 14.2929ZM0.292893 1.70711L7.29289 8.70711L8.70711 7.29289L1.70711 0.292893L0.292893 1.70711ZM7.29289 7.29289L0.292893 14.2929L1.70711 15.7071L8.70711 8.70711L7.29289 7.29289Z" fill="#414042"/>
</svg>
