<svg width="34" height="46" viewBox="0 0 34 46" fill="none" xmlns="http://www.w3.org/2000/svg">
<path d="M22.7057 3.73416V10.9398H29.9113L22.7057 3.73416ZM32.8748 11.189C33.0777 11.3805 33.1902 11.6253 33.1902 11.9005V44.6176C33.1902 45.1477 32.7596 45.5782 32.2296 45.5782H1.77017C1.24015 45.5782 0.80957 45.1477 0.80957 44.6176V1.41763C0.80957 0.887608 1.24015 0.457031 1.77017 0.457031H21.7459C22.0238 0.457031 22.2716 0.573551 22.4574 0.772434L32.876 11.191L32.8748 11.189ZM20.7848 2.37585H2.72994V43.655H31.2694V12.8587H21.7448C21.2148 12.8587 20.7842 12.4281 20.7842 11.8981V2.37525L20.7848 2.37585ZM19.09 36.7747C19.62 36.7747 20.0506 37.2053 20.0506 37.7353C20.0506 38.2653 19.62 38.6959 19.09 38.6959H6.34854C5.81852 38.6959 5.38794 38.2653 5.38794 37.7353C5.38794 37.2053 5.81852 36.7747 6.34854 36.7747H19.09ZM19.09 19.985C19.62 19.985 20.0506 20.4156 20.0506 20.9456C20.0506 21.4756 19.62 21.9062 19.09 21.9062H6.34854C5.81852 21.9062 5.38794 21.4756 5.38794 20.9456C5.38794 20.4156 5.81852 19.985 6.34854 19.985H19.09ZM19.09 28.3803C19.62 28.3803 20.0506 28.8109 20.0506 29.3409C20.0506 29.8709 19.62 30.3015 19.09 30.3015H6.34854C5.81852 30.3015 5.38794 29.8709 5.38794 29.3409C5.38794 28.8109 5.81852 28.3803 6.34854 28.3803H19.09ZM23.1711 34.535H27.651C28.181 34.535 28.6116 34.9656 28.6116 35.4956V39.9755C28.6116 40.5056 28.181 40.9361 27.651 40.9361H23.1711C22.6411 40.9361 22.2105 40.5056 22.2105 39.9755V35.4956C22.2105 34.9656 22.6411 34.535 23.1711 34.535ZM26.6904 36.4559H24.1314V39.0149H26.6904V36.4559ZM23.1711 17.6793H27.651C28.181 17.6793 28.6116 18.1099 28.6116 18.6399V23.1198C28.6116 23.6498 28.181 24.0804 27.651 24.0804H23.1711C22.6411 24.0804 22.2105 23.6498 22.2105 23.1198V18.6399C22.2105 18.1099 22.6411 17.6793 23.1711 17.6793ZM26.6904 19.6001H24.1314V22.1591H26.6904V19.6001ZM23.1711 26.1077H27.651C28.181 26.1077 28.6116 26.5383 28.6116 27.0683V31.5483C28.6116 32.0783 28.181 32.5089 27.651 32.5089H23.1711C22.6411 32.5089 22.2105 32.0783 22.2105 31.5483V27.0683C22.2105 26.5383 22.6411 26.1077 23.1711 26.1077ZM26.6904 28.0286H24.1314V30.5876H26.6904V28.0286Z" fill="#414042"/>
</svg>
