<svg width="70" height="70" viewBox="0 0 70 70" fill="none" xmlns="http://www.w3.org/2000/svg">
<path d="M34.8111 14.0938C33.0213 14.0938 31.5654 15.5497 31.5654 17.3395C31.5654 19.1293 33.0213 20.5852 34.8111 20.5852C36.6009 20.5852 38.0556 19.1293 38.0556 17.3395C38.056 15.5497 36.6009 14.0938 34.8111 14.0938ZM34.8111 19.4653C33.6384 19.4653 32.6853 18.511 32.6853 17.3395C32.6853 16.168 33.6396 15.2137 34.8111 15.2137C35.9826 15.2137 36.9357 16.168 36.9357 17.3395C36.9361 18.511 35.983 19.4653 34.8111 19.4653Z" fill="#53C5E2"/>
<path d="M25.2322 12.9781H21.5834C21.2744 12.9781 21.0232 13.2289 21.0232 13.5383V21.1399C21.0232 21.4489 21.274 21.7 21.5834 21.7H25.2322C25.5411 21.7 25.7923 21.4493 25.7923 21.1399V13.5383C25.7923 13.2289 25.5423 12.9781 25.2322 12.9781ZM24.6724 20.5808H22.1435V14.0996H24.6724V20.5808Z" fill="#53C5E2"/>
<path d="M48.8211 13.5492H46.0613V10.9039C46.0613 10.5949 45.8105 10.3438 45.5011 10.3438H27.1861V7.61016C27.1861 7.30118 26.9354 7.05 26.626 7.05H18.7467C18.4377 7.05 18.1865 7.30078 18.1865 7.61016V23.7752C18.1865 24.0841 18.4373 24.3353 18.7467 24.3353H27.383V27.3716C25.7353 28.7368 24.685 30.7978 24.685 33.0993C24.685 33.4083 24.9358 33.6595 25.2451 33.6595H25.9362L19.2721 60.6585C19.149 61.1581 19.226 61.6765 19.4939 62.119C19.7604 62.5604 20.1826 62.8705 20.6834 62.9936C20.8381 63.0315 20.9924 63.0506 21.1483 63.0506C21.4956 63.0506 21.837 62.9565 22.1416 62.7717C22.5831 62.5061 22.8932 62.0842 23.0163 61.5834L29.9089 33.6594H30.1967V61.1214C30.1967 62.1843 31.0612 63.0499 32.1252 63.0499C33.1893 63.0499 34.0537 62.1855 34.0537 61.1214V33.6594H34.3428L41.2354 61.5824C41.3577 62.0832 41.669 62.5055 42.1088 62.7719C42.4135 62.9567 42.7549 63.0508 43.1034 63.0508C43.2581 63.0508 43.4135 63.0317 43.5682 62.9938C44.069 62.8707 44.4913 62.5582 44.7577 62.1168C45.0233 61.6754 45.1026 61.1583 44.9772 60.6586L38.3155 33.6596H39.0054C39.3144 33.6596 39.5655 33.4089 39.5655 33.0995C39.5655 30.7979 38.5151 28.737 36.8675 27.3718V24.3355H45.5038C45.8128 24.3355 46.064 24.0847 46.064 23.7753V21.13H48.8238C50.4746 21.13 51.8164 19.787 51.8164 18.1374V16.5413C51.8137 14.8913 50.4711 13.5495 48.8211 13.5495V13.5492ZM19.3071 8.16992H26.0665V10.3437H19.3071V8.16992ZM21.9278 61.3149C21.8762 61.5243 21.7466 61.7013 21.5614 61.8122C21.3755 61.9231 21.1559 61.9532 20.9508 61.9052C20.7403 61.8524 20.5633 61.7227 20.4524 61.538C20.3403 61.3532 20.3079 61.1372 20.3594 60.9266L27.0895 33.6586H28.7551L21.9278 61.3149ZM32.9318 61.1212C32.9318 61.5657 32.5689 61.9298 32.1232 61.9298C31.6775 61.9298 31.3146 61.5669 31.3146 61.1212V33.6592H32.9306V61.1212H32.9318ZM43.8888 60.9274C43.9415 61.1368 43.9091 61.3532 43.797 61.538C43.6849 61.7227 43.5079 61.8528 43.2997 61.9052C43.0904 61.9567 42.8732 61.9231 42.6884 61.8122C42.5036 61.7001 42.3736 61.5231 42.322 61.3138L35.4954 33.6588H37.1599L43.8888 60.9274ZM38.4154 32.5384H25.8334C26.1178 29.3161 28.8283 26.7794 32.1232 26.7794C35.4193 26.7794 38.131 29.3161 38.4154 32.5384ZM35.7455 26.6056C34.6725 26.0041 33.4385 25.6591 32.1244 25.6591C30.8107 25.6591 29.5764 26.0052 28.5045 26.6056V24.3341H35.7463L35.7467 26.6056H35.7455ZM44.9416 23.2142H19.3066L19.307 11.4632H44.941L44.9416 23.2142ZM50.6939 18.1361C50.6939 19.1689 49.8541 20.0088 48.8212 20.0088H46.0614V14.6674H48.8212C49.854 14.6674 50.6939 15.5073 50.6939 16.5401V18.1361Z" fill="#53C5E2"/>
</svg>
