<svg width="70" height="70" viewBox="0 0 70 70" fill="none" xmlns="http://www.w3.org/2000/svg">
<path d="M35.0301 30.8887C32.7637 30.8887 30.9199 32.7321 30.9199 34.9985C30.9199 37.2649 32.7637 39.1083 35.0301 39.1083C37.2961 39.1083 39.1399 37.2649 39.1399 34.9985C39.1399 32.7321 37.2961 30.8887 35.0301 30.8887ZM35.0301 37.9883C33.3813 37.9883 32.0399 36.6473 32.0399 34.9985C32.0399 33.3497 33.3809 32.0087 35.0301 32.0087C36.6789 32.0087 38.0199 33.3497 38.0199 34.9985C38.0199 36.6473 36.6789 37.9883 35.0301 37.9883Z" fill="#53C5E2"/>
<path d="M43.115 33.8247C43.2732 33.8083 43.4165 33.7251 43.5099 33.5966C43.6033 33.4681 43.6372 33.3056 43.604 33.1505C43.3818 32.1153 42.9763 31.1376 42.3985 30.2439C42.3122 30.1103 42.1735 30.0201 42.0165 29.9951C41.8618 29.9689 41.6997 30.0126 41.5759 30.1126C41.1052 30.4923 40.4286 30.456 40.0005 30.0279C39.5724 29.5998 39.536 28.922 39.9161 28.4517C40.0161 28.3286 40.0587 28.1685 40.0333 28.0115C40.0083 27.8544 39.9177 27.7161 39.7845 27.6298C38.8911 27.0525 37.9134 26.647 36.8783 26.4251C36.722 26.3919 36.5607 26.4255 36.4322 26.5193C36.3037 26.6122 36.2205 26.756 36.2041 26.9142C36.1408 27.5157 35.6357 27.9693 35.0299 27.9693C34.424 27.9693 33.9194 27.5158 33.8557 26.9142C33.8389 26.756 33.7557 26.6122 33.6275 26.5193C33.499 26.4263 33.3377 26.3931 33.1815 26.4251C32.1471 26.647 31.1694 27.0525 30.2753 27.6298C30.1421 27.7161 30.0514 27.8544 30.0264 28.0115C30.0014 28.1685 30.044 28.3286 30.1436 28.4517C30.5233 28.922 30.487 29.5997 30.0589 30.0279C29.6311 30.4568 28.9537 30.4923 28.4834 30.1126C28.36 30.0126 28.1995 29.9689 28.0428 29.9951C27.8858 30.0201 27.7471 30.1103 27.6608 30.2439C27.0835 31.1376 26.6776 32.1154 26.4553 33.1505C26.4221 33.306 26.4561 33.4681 26.5494 33.5966C26.6428 33.7251 26.7862 33.8083 26.9444 33.8247C27.5463 33.8884 27.9999 34.3931 27.9999 34.9989C27.9999 35.6047 27.5463 36.1094 26.9444 36.1731C26.7862 36.1895 26.6428 36.2727 26.5494 36.4012C26.4561 36.5297 26.4221 36.6923 26.4553 36.8473C26.6776 37.8825 27.083 38.8602 27.6608 39.7539C27.7471 39.8875 27.8858 39.9777 28.0428 40.0027C28.1983 40.0297 28.3596 39.9852 28.4834 39.8852C28.9534 39.5051 29.6304 39.5418 30.0589 39.9699C30.487 40.3981 30.5233 41.0758 30.1432 41.5461C30.0432 41.6692 30.0006 41.8293 30.026 41.9864C30.051 42.1434 30.1417 42.2817 30.2749 42.368C31.1686 42.9453 32.1468 43.3508 33.1811 43.5727C33.3365 43.6043 33.4986 43.5715 33.6272 43.4786C33.7557 43.3856 33.8389 43.2418 33.8553 43.0836C33.9186 42.4821 34.4236 42.0285 35.0295 42.0285C35.6353 42.0285 36.14 42.4821 36.2037 43.0836C36.2205 43.2418 36.3037 43.3856 36.4318 43.4786C36.5283 43.5485 36.6435 43.5852 36.7603 43.5852C36.7994 43.5852 36.8388 43.5809 36.8779 43.5727C37.9127 43.3508 38.8908 42.9454 39.7841 42.368C39.9173 42.2817 40.0079 42.1434 40.0329 41.9864C40.0579 41.8293 40.0153 41.6692 39.9157 41.5461C39.536 41.0758 39.5724 40.3981 40.0005 39.9699C40.4286 39.5417 41.1056 39.5055 41.5759 39.8852C41.699 39.9852 41.8595 40.0285 42.0165 40.0027C42.1736 39.9777 42.3122 39.8875 42.3986 39.7539C42.9759 38.8602 43.3818 37.8824 43.6041 36.8473C43.6373 36.6918 43.6033 36.5297 43.5099 36.4012C43.4166 36.2727 43.2732 36.1895 43.115 36.1731C42.513 36.1094 42.0595 35.6047 42.0595 34.9989C42.0595 34.3931 42.513 33.8884 43.115 33.8247L43.115 33.8247ZM42.3779 37.1333C42.2216 37.6724 42.006 38.1915 41.7337 38.6849C40.8904 38.3255 39.888 38.4978 39.2087 39.1783C38.5294 39.8576 38.3568 40.8595 38.7162 41.7033C38.2228 41.9755 37.7036 42.1904 37.1641 42.347C36.822 41.4962 35.9911 40.9091 35.0297 40.9091C34.0683 40.9091 33.2372 41.4958 32.8953 42.347C32.3563 42.1908 31.8371 41.9755 31.3433 41.7033C31.7027 40.8595 31.5297 39.8576 30.8508 39.1783C30.1711 38.4978 29.1684 38.3267 28.3258 38.6849C28.0535 38.1915 27.8379 37.6728 27.6816 37.1333C28.5328 36.7911 29.1195 35.9603 29.1195 34.9989C29.1195 34.0375 28.5328 33.2067 27.6812 32.8645C27.8375 32.3254 28.0531 31.8063 28.3254 31.3129C29.1691 31.6727 30.1707 31.5 30.8504 30.8195C31.5297 30.1402 31.7023 29.1383 31.3429 28.2945C31.8367 28.0223 32.3555 27.8074 32.895 27.6508C33.2371 28.5016 34.0679 29.0887 35.0294 29.0887C35.9908 29.0887 36.8219 28.502 37.1637 27.6508C37.7028 27.807 38.2224 28.0223 38.7158 28.2945C38.3564 29.1383 38.5294 30.1402 39.2083 30.8195C39.8876 31.5 40.8907 31.6703 41.7333 31.3129C42.0056 31.8063 42.2212 32.325 42.3775 32.8645C41.5263 33.2067 40.9396 34.0375 40.9396 34.9989C40.9396 35.9603 41.5263 36.7911 42.3779 37.1333Z" fill="#53C5E2"/>
<path d="M53.715 26.6647V16.0507C53.715 15.3265 53.2994 14.7042 52.6298 14.4269C51.9607 14.1492 51.2259 14.2953 50.7142 14.8074L48.4365 17.0851C44.1681 13.8781 38.9002 12.3054 33.5365 12.6456C22.9575 13.3206 14.2405 21.4343 12.8075 31.9396C12.4548 34.5263 12.5501 37.1294 13.0915 39.6767C13.1466 39.9353 13.3747 40.12 13.6392 40.12H18.7857C18.961 40.12 19.1263 40.038 19.2317 39.8982C19.3376 39.7587 19.372 39.5779 19.3247 39.4087C18.7817 37.4767 18.6005 35.4845 18.7853 33.4872C19.5259 25.4849 26.133 19.1432 34.1543 18.7372C37.7148 18.5536 41.1242 19.4997 44.052 21.4688L41.2965 24.2239C40.784 24.7364 40.6383 25.4704 40.9156 26.1395C41.1929 26.809 41.8148 27.2247 42.5394 27.2247H53.1534C53.4632 27.2251 53.714 26.9743 53.714 26.6649L53.715 26.6647ZM52.5951 26.1046H42.5401C42.1452 26.1046 41.9893 25.8034 41.9511 25.7108C41.9128 25.6182 41.8096 25.2952 42.0889 25.0159L45.3159 21.7893C45.4316 21.6741 45.4909 21.5131 45.4784 21.3502C45.4659 21.1873 45.3824 21.0381 45.2507 20.9412C41.9968 18.5627 38.1409 17.4139 34.0987 17.6185C25.5249 18.0529 18.4627 24.8306 17.6707 33.3845C17.4957 35.274 17.6277 37.1603 18.0629 39.0005H14.0981C13.6637 36.7224 13.6028 34.3997 13.9176 32.0907C15.2781 22.1126 23.5594 14.4047 33.6076 13.7637C38.8596 13.4302 44.0196 15.0282 48.1386 18.2688C48.3613 18.4442 48.6808 18.4251 48.8808 18.2247L51.5062 15.5993C51.7859 15.3192 52.1086 15.4231 52.2011 15.4614C52.2937 15.4997 52.5949 15.6552 52.5949 16.0505L52.5951 26.1046Z" fill="#53C5E2"/>
<path d="M17.3698 55.5707C18.0386 55.848 18.7729 55.7023 19.2854 55.1902L21.5663 52.9093C25.469 55.848 30.1026 57.3984 35.0003 57.3984C47.3523 57.3984 57.4003 47.3494 57.4003 34.9984C57.4003 33.2953 57.2019 31.5808 56.8109 29.9015C56.7519 29.6476 56.5257 29.4683 56.2652 29.4683H51.0976C50.9198 29.4683 50.7527 29.5527 50.6468 29.6957C50.5413 29.8383 50.5097 30.0234 50.5624 30.1933C51.1558 32.1171 51.3847 34.1249 51.2433 36.1593C50.6796 44.2667 44.1343 50.7543 36.0193 51.2503C32.3994 51.4742 28.9314 50.5316 25.9493 48.5257L28.7024 45.7726C29.2145 45.2609 29.3606 44.5269 29.0836 43.8574C28.8063 43.1879 28.184 42.7722 27.4598 42.7722L16.8448 42.7726C16.5354 42.7726 16.2847 43.023 16.2847 43.3328V53.9468C16.2847 54.6706 16.7003 55.2929 17.3699 55.5702L17.3698 55.5707ZM17.4046 43.8927H27.4596C27.8549 43.8927 28.0104 44.1939 28.0486 44.2865C28.0869 44.379 28.1901 44.7017 27.9108 44.981L24.6866 48.2052C24.5709 48.3204 24.5116 48.4814 24.5241 48.6442C24.5366 48.8071 24.6202 48.9564 24.7522 49.0532C28.0631 51.4735 31.9819 52.6204 36.0882 52.3677C44.7624 51.838 51.7582 44.9032 52.3612 36.2367C52.4948 34.3183 52.3194 32.4219 51.8397 30.5879H55.8167C56.1249 32.0453 56.2812 33.527 56.2812 34.9981C56.2812 46.7321 46.7351 56.2781 35.0012 56.2781C30.1918 56.2781 25.6495 54.7035 21.8651 51.725C21.7628 51.6446 21.6405 51.6051 21.5191 51.6051C21.3749 51.6051 21.2316 51.6602 21.123 51.7692L18.4945 54.3981C18.2152 54.6774 17.8921 54.5742 17.7995 54.536C17.707 54.4977 17.4058 54.3422 17.4058 53.9469L17.4046 43.8927Z" fill="#53C5E2"/>
</svg>
