<svg width="70" height="70" viewBox="0 0 70 70" fill="none" xmlns="http://www.w3.org/2000/svg">
<path d="M56.8398 14.8403H51.8V13.1602C51.8 12.8508 51.5492 12.6 51.2398 12.6L34.4398 12.6004C34.1304 12.6004 33.8797 12.8512 33.8797 13.1606V14.8407H28.8399C28.5305 14.8407 28.2797 15.0914 28.2797 15.4008V18.761H23.7996C21.0207 18.761 18.7598 21.0219 18.7598 23.8008V27.1606H18.1996C17.2731 27.1606 16.5195 27.9141 16.5195 28.8407V29.9606C16.5195 30.8872 17.2731 31.6407 18.1996 31.6407H18.7598V31.8536C18.7598 34.5462 20.2871 36.9876 22.6797 38.1809L22.6801 39.4805H19.9528C15.8985 39.4805 12.6001 42.7789 12.6001 46.8332V56.8402C12.6001 57.1496 12.8509 57.4004 13.1603 57.4004H56.8403C57.1496 57.4004 57.4004 57.1496 57.4004 56.8402L57.4 15.4002C57.4 15.0908 57.1493 14.84 56.8399 14.84L56.8398 14.8403ZM18.7598 30.5203H18.1996C17.891 30.5203 17.6395 30.2691 17.6395 29.9601V28.8402C17.6395 28.5316 17.8906 28.28 18.1996 28.28H18.7598V30.5203ZM34.9998 15.4003V13.7202H50.6798V18.2003H34.9998V15.4003ZM19.8798 23.8003C19.8798 21.6386 21.6384 19.8804 23.7997 19.8804H28.2798C28.447 19.8804 28.6099 19.8901 28.7708 19.9097C30.7255 20.1522 32.1997 21.8249 32.1997 23.8003V26.2741C32.1731 26.2885 32.147 26.3049 32.1204 26.319C32.0626 26.3495 32.0044 26.3772 31.9458 26.4049C31.872 26.4401 31.7977 26.4733 31.7235 26.5041C31.6618 26.5295 31.6001 26.553 31.5384 26.5752C31.4661 26.6014 31.3934 26.6248 31.3204 26.6467C31.2563 26.6659 31.1919 26.6842 31.1274 26.7002C31.0552 26.7182 30.9821 26.733 30.9091 26.7471C30.8434 26.7596 30.7774 26.7725 30.7114 26.7819C30.6376 26.7924 30.5626 26.7991 30.488 26.8053C30.4216 26.8112 30.3555 26.8178 30.2887 26.8206C30.211 26.8237 30.1321 26.8217 30.0536 26.8206C29.9887 26.8194 29.9243 26.8206 29.8587 26.8166C29.7716 26.8116 29.6829 26.8006 29.5942 26.7901C29.536 26.7834 29.4786 26.7795 29.4196 26.7706C29.2723 26.7479 29.1235 26.7194 28.9727 26.6831C27.4512 26.3131 26.111 25.2959 25.2539 24.5073C24.6211 23.9268 24.2418 23.4549 24.2379 23.4506C24.1879 23.3881 24.1254 23.3421 24.0571 23.3069C24.0489 23.3026 24.0418 23.2971 24.0336 23.2936C23.9684 23.2639 23.8977 23.2495 23.8239 23.246C23.8149 23.2456 23.8078 23.2405 23.7996 23.2405C23.7801 23.2405 23.7606 23.2417 23.7407 23.2436C23.5508 23.2639 23.384 23.3792 23.2989 23.5499C23.102 23.944 22.8074 24.2253 22.4028 24.4081C22.3078 24.4503 22.2086 24.4835 22.1086 24.5128C22.0801 24.521 22.0516 24.5284 22.0231 24.5358C21.9414 24.5569 21.8586 24.5745 21.775 24.5885C21.7543 24.5921 21.7336 24.5967 21.7129 24.5999C21.611 24.6151 21.5082 24.6249 21.4059 24.6311C21.3801 24.6327 21.3543 24.6331 21.3282 24.6342C21.2457 24.6378 21.1641 24.6389 21.0832 24.6378C21.0578 24.6374 21.0325 24.6374 21.0075 24.6366C20.9071 24.6335 20.8078 24.6284 20.7121 24.6202C20.7016 24.6194 20.6922 24.6178 20.6817 24.6171C20.5938 24.6089 20.5086 24.5991 20.4266 24.5878C20.4059 24.585 20.3852 24.5823 20.3649 24.5792C20.2809 24.5667 20.1993 24.5538 20.1243 24.5397C20.1219 24.5393 20.1192 24.5389 20.1164 24.5385C20.0375 24.5237 19.9657 24.5085 19.8993 24.494C19.8922 24.4924 19.8864 24.4909 19.8797 24.4893L19.8798 23.8003ZM19.8798 31.853V25.6339C19.8837 25.6346 19.8888 25.6354 19.8931 25.6362C20.0696 25.6694 20.2692 25.6999 20.486 25.7225C20.5153 25.7257 20.5454 25.728 20.5751 25.7307C20.6552 25.7382 20.7372 25.7436 20.8208 25.7483C20.856 25.7503 20.8907 25.7518 20.9263 25.7534C21.0188 25.7565 21.113 25.7573 21.2083 25.7561C21.2329 25.7557 21.2571 25.7565 21.2817 25.7557C21.4009 25.7526 21.522 25.7456 21.6438 25.7339C21.672 25.7311 21.7001 25.7264 21.7282 25.7233C21.8224 25.7128 21.9165 25.6995 22.0106 25.6827C22.0505 25.6757 22.0903 25.6675 22.1302 25.6593C22.2177 25.6413 22.3044 25.6194 22.3907 25.5952C22.4278 25.5846 22.4649 25.5753 22.5021 25.5636C22.6228 25.5257 22.7427 25.4831 22.8599 25.4311C23.2528 25.2534 23.586 25.0116 23.8575 24.7077C24.0302 24.8886 24.2446 25.1026 24.495 25.3331C25.4485 26.2104 26.9532 27.346 28.7075 27.7726C28.9192 27.8238 29.1286 27.8593 29.3368 27.8878C29.3864 27.8945 29.436 27.9011 29.4857 27.907C29.6892 27.9296 29.8911 27.9437 30.0915 27.9445C30.0989 27.9445 30.1067 27.946 30.1142 27.946C30.1317 27.946 30.1485 27.9425 30.1661 27.9425C30.3888 27.9405 30.6087 27.9245 30.8267 27.8956C30.8513 27.8925 30.8759 27.8909 30.9001 27.8874C31.122 27.8546 31.3411 27.8046 31.5579 27.7433C31.597 27.7323 31.6364 27.7218 31.6755 27.7097C31.8521 27.6546 32.0271 27.5948 32.1997 27.5222V31.8531C32.1997 32.298 32.1501 32.7347 32.0556 33.157C31.7083 34.7054 30.7529 36.0601 29.3958 36.9058C29.1493 37.0593 28.8899 37.196 28.6184 37.3136C27.8673 37.6366 27.0715 37.8003 26.2524 37.8003H25.827C25.6122 37.8003 25.3989 37.7874 25.1876 37.7652C24.5935 37.7019 24.0149 37.5519 23.4606 37.3136C23.4602 37.3136 23.4598 37.3136 23.4598 37.3132C21.2852 36.3667 19.8797 34.2241 19.8797 31.853L19.8798 31.853ZM28.2798 38.626V40.6002C28.2798 41.8354 27.2747 42.84 26.04 42.84C25.4435 42.84 24.8791 42.6072 24.4556 42.1888C24.0325 41.7611 23.7997 41.1966 23.7997 40.6001V38.6259C23.9825 38.6806 24.1677 38.7255 24.354 38.765C24.4001 38.7747 24.4466 38.7814 24.4931 38.7903C24.6618 38.8224 24.8318 38.8486 25.0029 38.8685C25.0622 38.8755 25.1216 38.8825 25.1814 38.8876C25.395 38.9071 25.6103 38.92 25.8271 38.92H26.2525C26.4693 38.92 26.6845 38.9068 26.8982 38.8876C26.9579 38.8821 27.0169 38.8751 27.0763 38.8685C27.2486 38.8486 27.4193 38.8224 27.5892 38.79C27.6341 38.7814 27.6794 38.7747 27.7239 38.7653C27.9111 38.7259 28.0966 38.6806 28.2798 38.6259L28.2798 38.626ZM38.3598 56.28H13.7198V46.8327C13.7198 43.396 16.5159 40.5999 19.9526 40.5999H22.6799C22.6799 41.4936 23.0275 42.3374 23.6639 42.9804C24.3025 43.612 25.1463 43.9601 26.0397 43.9601C27.8924 43.9601 29.3999 42.4531 29.3999 40.5999H32.1272C35.5639 40.5999 38.36 43.396 38.36 46.8327L38.3598 56.28ZM56.2798 56.28H39.4798V46.8327C39.4798 42.7784 36.1814 39.48 32.1271 39.48H29.3998V38.1847C29.4248 38.1722 29.4486 38.1577 29.4732 38.1448C29.5396 38.1108 29.6045 38.0741 29.6697 38.0382C29.7533 37.9921 29.8361 37.9456 29.9174 37.8964C29.9822 37.8569 30.0459 37.8155 30.1092 37.7741C30.1865 37.7237 30.2635 37.6726 30.3385 37.6194C30.4014 37.5749 30.4627 37.5288 30.5236 37.4823C30.5959 37.4272 30.6674 37.3718 30.7377 37.314C30.7971 37.2651 30.8549 37.2151 30.9127 37.1647C30.9803 37.1054 31.0467 37.0448 31.1119 36.9831C31.1682 36.93 31.2228 36.8761 31.2771 36.821C31.3392 36.7581 31.4002 36.6936 31.4599 36.6284C31.5123 36.571 31.5639 36.5132 31.6146 36.4546C31.6721 36.3874 31.7279 36.319 31.783 36.2499C31.831 36.1893 31.8787 36.1288 31.9248 36.0667C31.9771 35.996 32.0275 35.9237 32.0775 35.8511C32.1213 35.7874 32.1646 35.7233 32.2064 35.6585C32.2541 35.5843 32.299 35.5081 32.3435 35.4319C32.3826 35.3655 32.4217 35.2991 32.4588 35.2315C32.5014 35.1534 32.5408 35.0741 32.5803 34.9944C32.6142 34.9257 32.649 34.8573 32.681 34.7874C32.7185 34.7054 32.7525 34.6222 32.7865 34.5386C32.8154 34.4686 32.8451 34.3991 32.8717 34.3284C32.9041 34.2421 32.9322 34.1542 32.9611 34.0667C32.9842 33.996 33.0092 33.9265 33.0303 33.855C33.0572 33.7639 33.0795 33.6714 33.1025 33.5792C33.1201 33.5089 33.1396 33.4397 33.1553 33.3686C33.1767 33.271 33.1931 33.1722 33.2103 33.0733C33.2221 33.0061 33.2361 32.9397 33.2463 32.8722C33.2623 32.7604 33.2728 32.6475 33.2838 32.5347C33.2892 32.4784 33.2974 32.4229 33.3017 32.3663C33.3131 32.1964 33.3197 32.0249 33.3197 31.8526V31.6397H33.8799C34.8064 31.6397 35.56 30.8862 35.56 29.9596V28.8397C35.56 27.9132 34.8064 27.1596 33.8799 27.1596H33.3197V23.7994C33.3197 23.6455 33.3123 23.4936 33.2986 23.3428C33.2943 23.2932 33.2853 23.2447 33.2795 23.1951C33.2674 23.0951 33.2556 22.9951 33.2377 22.8967C33.2271 22.8385 33.2123 22.7815 33.1998 22.7236C33.1806 22.6365 33.1619 22.549 33.1385 22.4635C33.1217 22.4029 33.1017 22.344 33.0826 22.2842C33.0572 22.2033 33.0318 22.1229 33.0021 22.044C32.9799 21.9842 32.9549 21.9256 32.9303 21.867C32.8986 21.7908 32.8666 21.7151 32.8314 21.6408C32.8037 21.5826 32.774 21.526 32.7443 21.4694C32.7064 21.3971 32.6681 21.3256 32.6271 21.2557C32.5947 21.2002 32.5607 21.1459 32.526 21.0916C32.4822 21.0233 32.4377 20.9561 32.3908 20.8901C32.3537 20.8377 32.3162 20.7865 32.2771 20.7358C32.2275 20.6713 32.1767 20.6084 32.1244 20.5463C32.0834 20.4979 32.0424 20.4502 31.9998 20.4033C31.9443 20.3428 31.8873 20.2842 31.8291 20.226C31.7849 20.1819 31.7408 20.1381 31.6951 20.0955C31.6334 20.0385 31.5697 19.9846 31.5053 19.9307C31.4588 19.8916 31.4127 19.8522 31.365 19.8151C31.2963 19.7619 31.2252 19.712 31.1537 19.662C31.1061 19.6287 31.0596 19.5944 31.0107 19.5627C30.9334 19.5127 30.8537 19.467 30.7732 19.4213C30.7268 19.3948 30.6814 19.3662 30.6338 19.3412C30.5416 19.2924 30.4459 19.2487 30.3502 19.2053C30.3123 19.1881 30.2756 19.1686 30.2369 19.1522C29.9689 19.0401 29.6896 18.9491 29.3998 18.8834V15.96H33.8799V18.76C33.8799 19.0694 34.1307 19.3202 34.4401 19.3202H51.2401C51.5494 19.3202 51.8002 19.0694 51.8002 18.76V15.96H56.2803L56.2798 56.28ZM33.3198 30.52V28.2802H33.8799C34.1885 28.2802 34.4401 28.5313 34.4401 28.8403V29.9602C34.4401 30.2688 34.1889 30.5204 33.8799 30.5204L33.3198 30.52Z" fill="#53C5E2"/>
<path d="M45.7097 23.8005H41.2296C40.9202 23.8005 40.6694 24.0512 40.6694 24.3606V28.8407C40.6694 29.1501 40.9202 29.4009 41.2296 29.4009H45.7097C46.0191 29.4009 46.2699 29.1501 46.2699 28.8407V24.3606C46.2695 24.0512 46.0187 23.8005 45.7097 23.8005ZM45.1495 28.2806H41.7893V24.9204H45.1495V28.2806Z" fill="#53C5E2"/>
<path d="M47.9497 24.3605C47.9497 24.6698 48.2005 24.9206 48.5099 24.9206H54.547C54.8563 24.9206 55.1071 24.6698 55.1071 24.3605C55.1071 24.0511 54.8563 23.8003 54.547 23.8003H48.5099C48.2005 23.8003 47.9497 24.0511 47.9497 24.3605Z" fill="#53C5E2"/>
<path d="M48.5099 29.4005H53.4267C53.736 29.4005 53.9868 29.1497 53.9868 28.8403C53.9868 28.5309 53.736 28.2802 53.4267 28.2802L48.5099 28.2805C48.2005 28.2805 47.9497 28.5313 47.9497 28.8407C47.9497 29.1497 48.2005 29.4005 48.5099 29.4005Z" fill="#53C5E2"/>
<path d="M43.4699 33.8805C41.9261 33.8805 40.6699 35.1367 40.6699 36.6805C40.6699 38.2243 41.9261 39.4805 43.4699 39.4805C45.0137 39.4805 46.2699 38.2243 46.2699 36.6805C46.2699 35.1367 45.0137 33.8805 43.4699 33.8805ZM43.4699 38.3606C42.5434 38.3606 41.7898 37.607 41.7898 36.6805C41.7898 35.7539 42.5433 35.0004 43.4699 35.0004C44.3965 35.0004 45.15 35.7539 45.15 36.6805C45.15 37.6066 44.3965 38.3606 43.4699 38.3606Z" fill="#53C5E2"/>
<path d="M54.5466 33.8805H48.5099C48.2005 33.8805 47.9497 34.1312 47.9497 34.4406C47.9497 34.75 48.2005 35.0008 48.5099 35.0008H54.547C54.8563 35.0008 55.1071 34.75 55.1071 34.4406C55.1067 34.1312 54.856 33.8805 54.5466 33.8805H54.5466Z" fill="#53C5E2"/>
<path d="M48.5099 39.4805H53.4267C53.736 39.4805 53.9868 39.2297 53.9868 38.9203C53.9868 38.6109 53.736 38.3602 53.4267 38.3602L48.5099 38.3605C48.2005 38.3605 47.9497 38.6113 47.9497 38.9207C47.9497 39.2297 48.2005 39.4805 48.5099 39.4805V39.4805Z" fill="#53C5E2"/>
<path d="M45.7097 43.9605H41.2296C40.9202 43.9605 40.6694 44.2112 40.6694 44.5206V49.0007C40.6694 49.3101 40.9202 49.5609 41.2296 49.5609H45.7097C46.0191 49.5609 46.2699 49.3101 46.2699 49.0007V44.5206C46.2695 44.2109 46.0187 43.9605 45.7097 43.9605ZM45.1495 48.4402H41.7893V45.08H45.1495V48.4402Z" fill="#53C5E2"/>
<path d="M54.5466 43.9605H48.5099C48.2005 43.9605 47.9497 44.2112 47.9497 44.5206C47.9497 44.83 48.2005 45.0808 48.5099 45.0808H54.547C54.8563 45.0808 55.1071 44.83 55.1071 44.5206C55.1067 44.2109 54.856 43.9605 54.5466 43.9605H54.5466Z" fill="#53C5E2"/>
<path d="M53.4267 48.4405H48.5099C48.2005 48.4405 47.9497 48.6912 47.9497 49.0006C47.9497 49.31 48.2005 49.5608 48.5099 49.5608H53.4267C53.7361 49.5608 53.9868 49.31 53.9868 49.0006C53.9868 48.6912 53.7361 48.4405 53.4267 48.4405Z" fill="#53C5E2"/>
<path d="M34.4398 46.2005H29.4C29.0906 46.2005 28.8398 46.4512 28.8398 46.7606V50.1208C28.8398 50.4302 29.0906 50.681 29.4 50.681H34.4398C34.7492 50.681 35 50.4302 35 50.1208V46.7606C35 46.4512 34.7492 46.2005 34.4398 46.2005ZM33.88 49.5607H29.9601V47.3209H33.88V49.5607Z" fill="#53C5E2"/>
</svg>
