<svg width="24" height="24" viewBox="0 0 24 24" fill="none" xmlns="http://www.w3.org/2000/svg">
<path d="M5.09277 9.04395L4.43427 8.29137L5.09277 9.04395ZM9.89278 4.84395L9.23427 4.09137L9.23427 4.09137L9.89278 4.84395ZM14.1074 4.84395L13.4489 5.59652V5.59652L14.1074 4.84395ZM18.9074 9.04395L18.2489 9.79653L18.9074 9.04395ZM11.4326 3.73982L11.7162 4.69877L11.4326 3.73982ZM12.5674 3.73982L12.2838 4.69877L12.5674 3.73982ZM4.06497 10.4021L5.03249 10.6549L4.06497 10.4021ZM4.34521 9.78433L3.51784 9.22268L3.51784 9.22268L4.34521 9.78433ZM4.15224 18.7654L3.22836 19.1481H3.22836L4.15224 18.7654ZM9.84766 18.7654L8.92378 18.3828L9.84766 18.7654ZM8.76537 19.8479L9.14805 20.7717L8.76537 19.8479ZM14.1522 18.7654L13.2284 19.1481V19.1481L14.1522 18.7654ZM19.8477 18.7654L18.9238 18.3828L19.8477 18.7654ZM18.7654 19.8479L19.1481 20.7717L18.7654 19.8479ZM19.9351 10.4021L18.9675 10.6549L19.9351 10.4021ZM19.6548 9.78432L20.4821 9.22268V9.22268L19.6548 9.78432ZM19 11.4522V17.0002H21V11.4522H19ZM15 17.0001V16.0001H13V17.0001H15ZM9 16.0001V17.0001H11V16.0001H9ZM5 17.0002V11.4522H3V17.0002H5ZM5.75128 9.79653L10.5513 5.59652L9.23427 4.09137L4.43427 8.29137L5.75128 9.79653ZM13.4489 5.59652L18.2489 9.79653L19.5659 8.29137L14.7659 4.09137L13.4489 5.59652ZM10.5513 5.59652C10.9362 5.25975 11.1828 5.04481 11.3841 4.89429C11.5753 4.75129 11.665 4.71391 11.7162 4.69877L11.149 2.78087C10.7801 2.88998 10.4732 3.07802 10.1862 3.29269C9.9092 3.49986 9.596 3.77486 9.23427 4.09137L10.5513 5.59652ZM14.7659 4.09137C14.4041 3.77481 14.0909 3.49982 13.8138 3.29263C13.5267 3.07796 13.2198 2.88996 12.851 2.78087L12.2838 4.69877C12.335 4.71392 12.4249 4.75135 12.6161 4.89435C12.8174 5.04484 13.0641 5.2598 13.4489 5.59652L14.7659 4.09137ZM11.7162 4.69877C11.9013 4.64403 12.0987 4.64403 12.2838 4.69877L12.851 2.78087C12.2957 2.61666 11.7043 2.61666 11.149 2.78087L11.7162 4.69877ZM5 11.4522C5 10.8655 5.00759 10.7501 5.03249 10.6549L3.09746 10.1492C2.99241 10.5513 3 10.9702 3 11.4522H5ZM4.43427 8.29137C4.07166 8.60865 3.75123 8.87886 3.51784 9.22268L5.17259 10.346C5.22787 10.2645 5.30962 10.183 5.75128 9.79653L4.43427 8.29137ZM5.03249 10.6549C5.06132 10.5445 5.10873 10.4401 5.17259 10.346L3.51784 9.22268C3.32588 9.50546 3.18378 9.81888 3.09746 10.1492L5.03249 10.6549ZM7.00023 19.0001C6.52061 19.0001 6.21097 18.9996 5.97399 18.9834C5.74599 18.9678 5.65916 18.9412 5.61755 18.924L4.85218 20.7717C5.17811 20.9067 5.50802 20.9562 5.83785 20.9787C6.15869 21.0006 6.54797 21.0001 7.00023 21.0001V19.0001ZM3 17.0002C3 17.4524 2.99946 17.8417 3.02135 18.1625C3.04386 18.4923 3.09336 18.8222 3.22836 19.1481L5.07612 18.3828C5.05888 18.3411 5.03226 18.2543 5.01671 18.0264C5.00054 17.7894 5 17.4798 5 17.0002H3ZM5.61755 18.924C5.37233 18.8224 5.17754 18.6276 5.07612 18.3828L3.22836 19.1481C3.53292 19.8834 4.11729 20.4673 4.85218 20.7717L5.61755 18.924ZM9 17.0001C9 17.4796 8.99943 17.7893 8.98324 18.0262C8.96767 18.2542 8.94104 18.3411 8.92378 18.3828L10.7715 19.1481C10.9065 18.8223 10.9561 18.4924 10.9786 18.1625C11.0005 17.8417 11 17.4524 11 17.0001H9ZM7.00023 21.0001C7.45249 21.0001 7.84171 21.0006 8.16251 20.9787C8.49233 20.9562 8.82216 20.9067 9.14805 20.7717L8.38268 18.924C8.34104 18.9412 8.25424 18.9678 8.02634 18.9834C7.78943 18.9996 7.47986 19.0001 7.00023 19.0001V21.0001ZM8.92378 18.3828C8.82224 18.6279 8.6276 18.8225 8.38268 18.924L9.14805 20.7717C9.88325 20.4672 10.4671 19.8831 10.7715 19.1481L8.92378 18.3828ZM12 13.0001C10.3431 13.0001 9 14.3432 9 16.0001H11C11 15.4478 11.4477 15.0001 12 15.0001V13.0001ZM15 16.0001C15 14.3432 13.6569 13.0001 12 13.0001V15.0001C12.5523 15.0001 13 15.4478 13 16.0001H15ZM17.0002 19.0001C16.5206 19.0001 16.211 18.9996 15.974 18.9834C15.746 18.9678 15.6592 18.9412 15.6175 18.924L14.8522 20.7717C15.1781 20.9067 15.508 20.9562 15.8378 20.9787C16.1587 21.0006 16.548 21.0001 17.0002 21.0001V19.0001ZM13 17.0001C13 17.4523 12.9995 17.8416 13.0213 18.1625C13.0439 18.4923 13.0934 18.8222 13.2284 19.1481L15.0761 18.3828C15.0589 18.3411 15.0323 18.2543 15.0167 18.0263C15.0005 17.7893 15 17.4797 15 17.0001H13ZM15.6175 18.924C15.3723 18.8224 15.1775 18.6276 15.0761 18.3828L13.2284 19.1481C13.5329 19.8834 14.1173 20.4673 14.8522 20.7717L15.6175 18.924ZM19 17.0002C19 17.4797 18.9994 17.7893 18.9832 18.0263C18.9677 18.2542 18.941 18.3411 18.9238 18.3828L20.7715 19.1481C20.9065 18.8223 20.9561 18.4925 20.9786 18.1626C21.0005 17.8417 21 17.4525 21 17.0002H19ZM17.0002 21.0001C17.4525 21.0001 17.8417 21.0006 18.1625 20.9787C18.4923 20.9562 18.8222 20.9067 19.1481 20.7717L18.3827 18.924C18.341 18.9412 18.2542 18.9678 18.0263 18.9834C17.7894 18.9996 17.4799 19.0001 17.0002 19.0001V21.0001ZM18.9238 18.3828C18.8222 18.6279 18.6276 18.8225 18.3827 18.924L19.1481 20.7717C19.8832 20.4672 20.4671 19.8831 20.7715 19.1481L18.9238 18.3828ZM21 11.4522C21 10.9703 21.0076 10.5513 20.9026 10.1492L18.9675 10.6549C18.9924 10.7501 19 10.8654 19 11.4522H21ZM18.2489 9.79653C18.6902 10.1826 18.772 10.2644 18.8274 10.346L20.4821 9.22268C20.2488 8.87896 19.9289 8.60898 19.5659 8.29137L18.2489 9.79653ZM20.9026 10.1492C20.8162 9.81875 20.674 9.50534 20.4821 9.22268L18.8274 10.346C18.8913 10.4402 18.9387 10.5447 18.9675 10.6549L20.9026 10.1492Z" fill="#414042"/>
<rect width="24" height="24" stroke="white"/>
</svg>
