<svg width="38" height="48" viewBox="0 0 38 48" fill="none" xmlns="http://www.w3.org/2000/svg">
<path d="M37.4607 11.5463C37.455 11.5175 37.4443 11.4918 37.4363 11.4643C37.4262 11.4318 37.4188 11.399 37.4061 11.3672C37.3931 11.3351 37.375 11.3056 37.3576 11.2751C37.3445 11.2507 37.3335 11.2253 37.3177 11.2021C37.2826 11.1492 37.2424 11.1 37.1979 11.0548L27.2387 1.09654C27.1942 1.05134 27.1446 1.01149 27.0914 0.976005C27.069 0.960603 27.0439 0.950558 27.0204 0.937165C26.9896 0.919755 26.9595 0.901005 26.9267 0.887612C26.8955 0.874554 26.8627 0.867522 26.8306 0.857813C26.8028 0.849777 26.7763 0.838728 26.7475 0.83337C26.6856 0.820982 26.6223 0.814285 26.5594 0.814285H2.43936C1.38036 0.814285 0.519531 1.67546 0.519531 2.73411V45.2141C0.519531 46.2731 1.3807 47.1339 2.43936 47.1339H35.5594C36.6184 47.1339 37.4792 46.2728 37.4792 45.2141L37.4795 11.735C37.4795 11.672 37.4728 11.6094 37.4608 11.5468L37.4607 11.5463ZM26.5596 3.13194L35.1618 11.7342H26.5596V3.13194ZM35.5596 45.2142H2.43955V2.73423H24.6396V11.7342C24.6396 12.7932 25.5007 13.6541 26.5594 13.6541L35.5594 13.6544L35.5596 45.2142Z" fill="#53C5E2"/>
<path d="M7.32031 28.3755C7.32031 34.8155 12.5599 40.0558 19.0006 40.0558C25.4413 40.0558 30.6809 34.8161 30.6809 28.3755C30.6809 21.9352 25.4413 16.6952 19.0006 16.6952C12.5603 16.6949 7.32031 21.9348 7.32031 28.3755ZM28.76 28.3755C28.76 33.7571 24.3823 38.1349 19.0006 38.1349C13.6194 38.1349 9.24117 33.7568 9.24117 28.3755C9.24117 22.9936 13.6196 18.6152 19.0006 18.6152C24.3825 18.6152 28.76 22.9937 28.76 28.3755Z" fill="#53C5E2"/>
<path d="M14.5327 28.0755C14.1899 27.6704 13.5839 27.6201 13.1797 27.9633C12.7749 28.3055 12.7247 28.9112 13.0669 29.316L16.5868 33.4758C16.5878 33.4768 16.5892 33.4778 16.5902 33.4788C16.633 33.5287 16.6809 33.5752 16.7351 33.6171C16.7355 33.6174 16.7365 33.6181 16.7375 33.6184C16.8142 33.677 16.8989 33.7189 16.9869 33.751C17.008 33.759 17.0291 33.7657 17.0509 33.7721C17.1376 33.7979 17.2267 33.8153 17.3167 33.8153C17.3177 33.8153 17.3181 33.8156 17.3191 33.8156H17.3194H17.3198C17.3847 33.8156 17.4493 33.8069 17.5133 33.7935C17.5314 33.7899 17.5494 33.7838 17.5672 33.7795C17.6134 33.7674 17.6579 33.7517 17.7021 33.7326C17.7222 33.7236 17.7416 33.7152 17.7607 33.7051C17.8042 33.6827 17.8461 33.6553 17.8869 33.6255C17.9013 33.6147 17.9171 33.6064 17.9311 33.5946C17.9341 33.5923 17.9375 33.5903 17.9402 33.588C17.9924 33.5434 18.0386 33.4949 18.0788 33.4426C18.0791 33.4416 18.0808 33.4406 18.0811 33.4396L24.9617 24.4799C25.2848 24.0594 25.2054 23.4567 24.7849 23.1336C24.3644 22.8112 23.7616 22.8898 23.4389 23.3104L17.2836 31.3257L14.5327 28.0755Z" fill="#53C5E2"/>
</svg>
