<svg width="24" height="24" viewBox="0 0 24 24" fill="none" xmlns="http://www.w3.org/2000/svg">
<path d="M3.21799 6.09204L4.10899 6.54603L3.21799 6.09204ZM4.0918 5.21799L4.54579 6.10899L4.0918 5.21799ZM4.0918 18.782L4.54579 17.891H4.54579L4.0918 18.782ZM3.21799 17.908L2.32698 18.362H2.32698L3.21799 17.908ZM20.7822 17.908L19.8912 17.454L20.7822 17.908ZM19.9078 18.782L19.4538 17.891L19.9078 18.782ZM20.7822 6.09204L19.8912 6.54603V6.54603L20.7822 6.09204ZM19.9078 5.21799L20.3618 4.32698V4.32698L19.9078 5.21799ZM4.58917 5.19199C4.14292 4.8666 3.51738 4.96458 3.19199 5.41083C2.8666 5.85708 2.96458 6.48262 3.41083 6.80801L4.58917 5.19199ZM12.2286 12L11.6394 12.808C11.9987 13.07 12.4877 13.0633 12.8397 12.7915L12.2286 12ZM20.6111 6.79154C21.0482 6.45403 21.129 5.82604 20.7915 5.38888C20.454 4.95173 19.826 4.87095 19.3888 5.20846L20.6111 6.79154ZM20 8.19995V15.8H22V8.19995H20ZM17.8002 18H6.2002V20H17.8002V18ZM4 15.8V8.19995H2V15.8H4ZM6.2002 6H17.8002V4H6.2002V6ZM4 8.19995C4 7.6234 4.00078 7.25114 4.02393 6.96783C4.04612 6.6962 4.0838 6.59549 4.10899 6.54603L2.32698 5.63805C2.13419 6.01642 2.06287 6.40961 2.03057 6.80495C1.99922 7.18861 2 7.6564 2 8.19995H4ZM6.2002 4C5.65663 4 5.18874 3.99922 4.80498 4.03057C4.40962 4.06286 4.01624 4.13416 3.63781 4.32698L4.54579 6.10899C4.59517 6.08383 4.69595 6.04613 4.9678 6.02393C5.25126 6.00078 5.62365 6 6.2002 6V4ZM4.10899 6.54603C4.205 6.35761 4.35788 6.20474 4.54579 6.10899L3.63781 4.32698C3.07306 4.61473 2.61447 5.07382 2.32698 5.63805L4.10899 6.54603ZM6.2002 18C5.62367 18 5.25127 17.9992 4.96782 17.9761C4.69598 17.9538 4.59519 17.9161 4.54579 17.891L3.63781 19.673C4.01623 19.8658 4.40959 19.9371 4.80496 19.9694C5.18873 20.0008 5.65662 20 6.2002 20V18ZM2 15.8C2 16.3435 1.99922 16.8113 2.03057 17.195C2.06287 17.5904 2.13418 17.9836 2.32698 18.362L4.10899 17.454C4.08381 17.4046 4.04613 17.3039 4.02393 17.0322C4.00078 16.7488 4 16.3765 4 15.8H2ZM4.54579 17.891C4.35778 17.7952 4.20494 17.6424 4.10899 17.454L2.32698 18.362C2.61452 18.9264 3.07317 19.3853 3.63781 19.673L4.54579 17.891ZM20 15.8C20 16.3766 19.9993 16.7489 19.9762 17.0323C19.954 17.3041 19.9163 17.4047 19.8912 17.454L21.6732 18.362C21.8661 17.9835 21.9373 17.5902 21.9696 17.1949C22.0008 16.8112 22 16.3434 22 15.8H20ZM17.8002 20C18.3438 20 18.8115 20.0008 19.1951 19.9694C19.5904 19.9371 19.9835 19.8657 20.3618 19.673L19.4538 17.891C19.4043 17.9162 19.3036 17.9539 19.0321 17.9761C18.7489 17.9992 18.3767 18 17.8002 18V20ZM19.8912 17.454C19.7956 17.6417 19.6425 17.7948 19.4538 17.891L20.3618 19.673C20.9257 19.3856 21.3854 18.927 21.6732 18.362L19.8912 17.454ZM22 8.19995C22 7.6565 22.0008 7.1887 21.9695 6.80511C21.9373 6.40983 21.8661 6.01653 21.6732 5.63805L19.8912 6.54603C19.9164 6.59537 19.954 6.69598 19.9762 6.96767C19.9993 7.25105 20 7.6233 20 8.19995H22ZM17.8002 6C18.3768 6 18.7489 6.00078 19.0321 6.02393C19.3036 6.04611 19.4043 6.08377 19.4538 6.10899L20.3618 4.32698C19.9835 4.13421 19.5904 4.06288 19.1951 4.03057C18.8115 3.99922 18.3437 4 17.8002 4V6ZM21.6732 5.63805C21.3854 5.07316 20.9259 4.61439 20.3618 4.32698L19.4538 6.10899C19.6424 6.20507 19.7956 6.35828 19.8912 6.54603L21.6732 5.63805ZM3.41083 6.80801L11.6394 12.808L12.8177 11.192L4.58917 5.19199L3.41083 6.80801ZM12.8397 12.7915L20.6111 6.79154L19.3888 5.20846L11.6175 11.2085L12.8397 12.7915Z" fill="white"/>
</svg>
