<svg width="20" height="20" viewBox="0 0 20 20" fill="none" xmlns="http://www.w3.org/2000/svg">
<path d="M10 15.625C9.65833 15.625 9.375 15.3417 9.375 15V12.5C9.375 12.1583 9.65833 11.875 10 11.875C10.3417 11.875 10.625 12.1583 10.625 12.5V15C10.625 15.3417 10.3417 15.625 10 15.625Z" fill="#414042"/>
<path d="M14.6666 18.8H5.3333C3.81663 18.8 2.4333 17.6333 2.1833 16.1417L1.07497 9.5C0.891634 8.46667 1.39997 7.14167 2.22497 6.48333L7.99997 1.85833C9.11663 0.958333 10.875 0.966666 12 1.86667L17.775 6.48333C18.5916 7.14167 19.0916 8.46667 18.925 9.5L17.8166 16.1333C17.5666 17.6083 16.15 18.8 14.6666 18.8ZM9.99163 2.44167C9.54997 2.44167 9.1083 2.575 8.7833 2.83333L3.0083 7.46667C2.54163 7.84167 2.2083 8.70833 2.3083 9.3L3.41663 15.9333C3.56663 16.8083 4.44163 17.55 5.3333 17.55H14.6666C15.5583 17.55 16.4333 16.8083 16.5833 15.925L17.6916 9.29167C17.7833 8.70833 17.45 7.825 16.9916 7.45833L11.2166 2.84167C10.8833 2.575 10.4333 2.44167 9.99163 2.44167Z" fill="#414042"/>
</svg>
