<svg width="20" height="20" viewBox="0 0 20 20" fill="none" xmlns="http://www.w3.org/2000/svg">
<path d="M2.5 1.9C2.16863 1.9 1.9 2.16863 1.9 2.5C1.9 2.83137 2.16863 3.1 2.5 3.1V1.9ZM4.3929 3.55398L4.97959 3.42826L4.3929 3.55398ZM6.44121 13.1127L5.85452 13.2384L6.44121 13.1127ZM6.66124 13.8168L6.17257 14.165L6.66124 13.8168ZM7.01009 14.0983L7.24811 13.5475L7.01009 14.0983ZM3.82316 2.56837L4.06118 2.0176V2.0176L3.82316 2.56837ZM4.17155 2.84983L4.66022 2.5017V2.5017L4.17155 2.84983ZM5 4.4C4.66863 4.4 4.4 4.66863 4.4 5C4.4 5.33137 4.66863 5.6 5 5.6V4.4ZM17.0092 6.70288L17.5856 6.86918L17.0092 6.70288ZM15.8553 10.7029L15.2788 10.5366L15.8553 10.7029ZM6.44206 11.0667C6.11069 11.0667 5.84206 11.3353 5.84206 11.6667C5.84206 11.998 6.11069 12.2667 6.44206 12.2667V11.0667ZM15.6047 11.3494L16.0758 11.721L15.6047 11.3494ZM15.2642 11.605L15.4907 12.1607L15.2642 11.605ZM16.8316 5.1253L16.5152 5.63508L16.8316 5.1253ZM17.1941 5.6073L17.7716 5.44457L17.1941 5.6073ZM14.1667 16.9C13.5776 16.9 13.1 16.4224 13.1 15.8333H11.9C11.9 17.0852 12.9148 18.1 14.1667 18.1V16.9ZM13.1 15.8333C13.1 15.2442 13.5776 14.7667 14.1667 14.7667V13.5667C12.9148 13.5667 11.9 14.5815 11.9 15.8333H13.1ZM14.1667 14.7667C14.7558 14.7667 15.2333 15.2442 15.2333 15.8333H16.4333C16.4333 14.5815 15.4185 13.5667 14.1667 13.5667V14.7667ZM15.2333 15.8333C15.2333 16.4224 14.7558 16.9 14.1667 16.9V18.1C15.4185 18.1 16.4333 17.0852 16.4333 15.8333H15.2333ZM6.66667 16.9C6.07756 16.9 5.6 16.4224 5.6 15.8333H4.4C4.4 17.0852 5.41482 18.1 6.66667 18.1V16.9ZM5.6 15.8333C5.6 15.2442 6.07756 14.7667 6.66667 14.7667V13.5667C5.41482 13.5667 4.4 14.5815 4.4 15.8333H5.6ZM6.66667 14.7667C7.25577 14.7667 7.73333 15.2442 7.73333 15.8333H8.93333C8.93333 14.5815 7.91851 13.5667 6.66667 13.5667V14.7667ZM7.73333 15.8333C7.73333 16.4224 7.25577 16.9 6.66667 16.9V18.1C7.91851 18.1 8.93333 17.0852 8.93333 15.8333H7.73333ZM2.5 3.1H3.08878V1.9H2.5V3.1ZM3.80622 3.67969L5.85452 13.2384L7.02789 12.987L4.97959 3.42826L3.80622 3.67969ZM7.74495 14.7667H14.1667V13.5667H7.74495V14.7667ZM5.85452 13.2384C5.89282 13.4172 5.92787 13.5834 5.96781 13.7207C6.00991 13.8654 6.06817 14.0184 6.17257 14.165L7.14992 13.4687C7.15431 13.4749 7.14283 13.4638 7.12004 13.3855C7.09509 13.2997 7.07013 13.1841 7.02789 12.987L5.85452 13.2384ZM7.74495 13.5667C7.54399 13.5667 7.42557 13.5663 7.33682 13.5598C7.25561 13.5538 7.24179 13.5448 7.24811 13.5475L6.77208 14.6491C6.93661 14.7202 7.09803 14.7454 7.2486 14.7565C7.39164 14.767 7.56154 14.7667 7.74495 14.7667V13.5667ZM6.17257 14.165C6.32496 14.3789 6.53314 14.5458 6.77208 14.6491L7.24811 13.5475C7.20796 13.5302 7.17394 13.5024 7.14992 13.4687L6.17257 14.165ZM3.08878 3.1C3.28975 3.1 3.40802 3.10038 3.49661 3.10692C3.57756 3.11289 3.59135 3.12182 3.58515 3.11914L4.06118 2.0176C3.89676 1.94655 3.73555 1.92129 3.58496 1.91018C3.442 1.89962 3.27219 1.9 3.08878 1.9V3.1ZM4.97959 3.42826C4.94106 3.24847 4.90571 3.08232 4.86518 2.94443C4.82255 2.79936 4.76391 2.64724 4.66022 2.5017L3.68288 3.19797C3.6792 3.1928 3.69097 3.20484 3.71387 3.28278C3.73889 3.3679 3.76421 3.48363 3.80622 3.67969L4.97959 3.42826ZM3.58515 3.11914C3.62458 3.13618 3.6584 3.16362 3.68288 3.19797L4.66022 2.5017C4.50829 2.28843 4.30084 2.12117 4.06118 2.0176L3.58515 3.11914ZM5 5.6H15.7277V4.4H5V5.6ZM16.4327 6.53658L15.2788 10.5366L16.4318 10.8692L17.5856 6.86918L16.4327 6.53658ZM14.5736 11.0667H6.44206V12.2667H14.5736V11.0667ZM15.2788 10.5366C15.2267 10.7174 15.1958 10.8232 15.1672 10.9011C15.1412 10.9719 15.1299 10.9825 15.1336 10.9779L16.0758 11.721C16.2674 11.478 16.347 11.1633 16.4318 10.8692L15.2788 10.5366ZM14.5736 12.2667C14.8797 12.2667 15.2041 12.2774 15.4907 12.1607L15.0378 11.0494C15.0432 11.0472 15.0299 11.0551 14.9547 11.0605C14.8719 11.0663 14.7617 11.0667 14.5736 11.0667V12.2667ZM15.1336 10.9779C15.1093 11.0086 15.0763 11.0337 15.0378 11.0494L15.4907 12.1607C15.7191 12.0676 15.9215 11.9166 16.0758 11.721L15.1336 10.9779ZM15.7277 5.6C16.0396 5.6 16.2335 5.60056 16.3762 5.61329C16.515 5.62567 16.5311 5.64497 16.5152 5.63508L17.148 4.61551C16.9302 4.48032 16.6952 4.43698 16.4828 4.41804C16.2743 4.39944 16.0173 4.4 15.7277 4.4V5.6ZM17.5856 6.86918C17.666 6.5906 17.7376 6.34374 17.7774 6.13799C17.8179 5.92842 17.841 5.69087 17.7716 5.44457L16.6166 5.77003C16.6116 5.75242 16.6256 5.7737 16.5992 5.91028C16.5721 6.05067 16.519 6.23725 16.4327 6.53658L17.5856 6.86918ZM16.5152 5.63508C16.5645 5.66568 16.6007 5.71369 16.6166 5.77003L17.7716 5.44457C17.6746 5.10027 17.4524 4.80443 17.148 4.61551L16.5152 5.63508Z" fill="#414042"/>
</svg>
