<svg width="20" height="20" viewBox="0 0 20 20" fill="none" xmlns="http://www.w3.org/2000/svg">
<path d="M16.6667 4.79167H11.6667C11.3251 4.79167 11.0417 4.50834 11.0417 4.16667C11.0417 3.82501 11.3251 3.54167 11.6667 3.54167H16.6667C17.0084 3.54167 17.2917 3.82501 17.2917 4.16667C17.2917 4.50834 17.0084 4.79167 16.6667 4.79167Z" fill="#414042"/>
<path d="M14.1667 7.29167H11.6667C11.3251 7.29167 11.0417 7.00834 11.0417 6.66667C11.0417 6.32501 11.3251 6.04167 11.6667 6.04167H14.1667C14.5084 6.04167 14.7917 6.32501 14.7917 6.66667C14.7917 7.00834 14.5084 7.29167 14.1667 7.29167Z" fill="#414042"/>
<path d="M9.58342 18.125C4.87508 18.125 1.04175 14.2917 1.04175 9.58334C1.04175 4.87501 4.87508 1.04167 9.58342 1.04167C9.92508 1.04167 10.2084 1.32501 10.2084 1.66667C10.2084 2.00834 9.92508 2.29167 9.58342 2.29167C5.55841 2.29167 2.29175 5.56667 2.29175 9.58334C2.29175 13.6 5.55841 16.875 9.58342 16.875C13.6084 16.875 16.8751 13.6 16.8751 9.58334C16.8751 9.24167 17.1584 8.95834 17.5001 8.95834C17.8417 8.95834 18.1251 9.24167 18.1251 9.58334C18.1251 14.2917 14.2917 18.125 9.58342 18.125Z" fill="#414042"/>
<path d="M18.3333 18.9583C18.175 18.9583 18.0166 18.9 17.8916 18.775L16.225 17.1083C15.9833 16.8667 15.9833 16.4667 16.225 16.225C16.4666 15.9833 16.8666 15.9833 17.1083 16.225L18.775 17.8917C19.0166 18.1333 19.0166 18.5333 18.775 18.775C18.65 18.9 18.4916 18.9583 18.3333 18.9583Z" fill="#414042"/>
</svg>
