<svg width="20" height="20" viewBox="0 0 20 20" fill="none" xmlns="http://www.w3.org/2000/svg">
<path d="M17.5 6.45833H2.5C2.15833 6.45833 1.875 6.17499 1.875 5.83333C1.875 5.49166 2.15833 5.20833 2.5 5.20833H17.5C17.8417 5.20833 18.125 5.49166 18.125 5.83333C18.125 6.17499 17.8417 6.45833 17.5 6.45833Z" fill="#414042"/>
<path d="M15 10.625H5C4.65833 10.625 4.375 10.3417 4.375 10C4.375 9.65833 4.65833 9.375 5 9.375H15C15.3417 9.375 15.625 9.65833 15.625 10C15.625 10.3417 15.3417 10.625 15 10.625Z" fill="#414042"/>
<path d="M11.6666 14.7917H8.33325C7.99159 14.7917 7.70825 14.5083 7.70825 14.1667C7.70825 13.825 7.99159 13.5417 8.33325 13.5417H11.6666C12.0083 13.5417 12.2916 13.825 12.2916 14.1667C12.2916 14.5083 12.0083 14.7917 11.6666 14.7917Z" fill="#414042"/>
</svg>
