<svg width="80" height="80" viewBox="0 0 80 80" fill="none" xmlns="http://www.w3.org/2000/svg">
<path d="M64.4016 25.3H53.2016C52.1016 21.3 48.4016 18.3 44.0016 18.3C39.6016 18.3 36.0016 21.3 34.8016 25.3H24.6016V23C24.6016 20.2 22.4016 18 19.6016 18H15.6016C15.0016 18 14.6016 18.4 14.6016 19C14.6016 19.6 15.0016 20 15.6016 20H19.6016C21.3016 20 22.6016 21.3 22.6016 23V47C22.6016 50.8 25.6016 53.8 29.3016 54C28.7016 54.8 28.3016 55.9 28.3016 57C28.3016 59.8 30.5016 62 33.3016 62C36.1016 62 38.3016 59.8 38.3016 57C38.3016 55.9 37.9016 54.8 37.3016 54H47.6016C47.0016 54.8 46.6016 55.9 46.6016 57C46.6016 59.8 48.8016 62 51.6016 62C54.4016 62 56.6016 59.8 56.6016 57C56.6016 55.9 56.2016 54.8 55.6016 54H59.7016C60.3016 54 60.7016 53.6 60.7016 53C60.7016 52.4 60.3016 52 59.7016 52H29.7016C26.9016 52 24.7016 49.8 24.7016 47V46.7H57.001C57.401 46.7 57.801 46.4 57.901 46.1L65.301 26.7994C65.401 26.4994 65.401 26.0994 65.201 25.8994C65.001 25.6994 64.701 25.2994 64.401 25.2994L64.4016 25.3ZM36.301 57.0006C36.301 58.7006 35.001 60.0006 33.301 60.0006C31.601 60.0006 30.301 58.7006 30.301 57.0006C30.301 55.3006 31.601 54.0006 33.301 54.0006C35.001 54.0006 36.301 55.3006 36.301 57.0006ZM54.6004 57.0006C54.6004 58.7006 53.3004 60.0006 51.6004 60.0006C49.9004 60.0006 48.6004 58.7006 48.6004 57.0006C48.6004 55.3006 49.9004 54.0006 51.6004 54.0006C53.3004 54.0006 54.6004 55.3006 54.6004 57.0006ZM44.0004 20.3011C48.1004 20.3011 51.5004 23.7011 51.5004 27.8011C51.5004 31.9011 48.1004 35.3011 44.0004 35.3011C39.9004 35.3011 36.5004 31.9011 36.5004 27.8011C36.5004 23.7011 39.9004 20.3011 44.0004 20.3011ZM56.2998 44.7011H24.5993V27.3011H34.4993V27.8011C34.4993 33.0011 38.7993 37.3011 43.9993 37.3011C49.1993 37.3011 53.4993 33.0011 53.4993 27.8011V27.3011H62.9993L56.2998 44.7011Z" fill="#53C5E2"/>
<path d="M42.5015 30.9C42.7015 31.1 42.9015 31.2 43.2015 31.2C43.5015 31.2 43.7015 31.1 43.9015 30.9L48.2015 26.3C48.6015 25.9 48.6015 25.3 48.2015 24.9C47.8015 24.5 47.2015 24.5 46.8015 24.9L43.1015 28.8L41.2015 27C40.8015 26.6 40.2015 26.7 39.8015 27.1C39.4015 27.5 39.5015 28.1 39.9015 28.5L42.5015 30.9Z" fill="#53C5E2"/>
</svg>
