<svg width="80" height="80" viewBox="0 0 80 80" fill="none" xmlns="http://www.w3.org/2000/svg">
<path d="M51.3069 52.2286H37.4829C34.8092 52.2286 32.6328 50.0527 32.6328 47.3786V38.8308C32.6328 36.1571 34.8087 33.9807 37.4829 33.9807H51.3069C53.9806 33.9807 56.1569 36.1566 56.1569 38.8308V47.3786C56.1565 50.0526 53.9806 52.2286 51.3069 52.2286ZM37.4966 35.4035C35.605 35.4035 34.0689 36.9396 34.0689 38.8311V47.3789C34.0689 49.2705 35.605 50.8066 37.4966 50.8066H51.3206C53.2121 50.8066 54.7482 49.2705 54.7482 47.3789V38.8311C54.7482 36.9396 53.2121 35.4035 51.3206 35.4035H37.4966Z" fill="#53C5E2"/>
<path d="M38.2949 52.2287C37.8967 52.2287 37.5837 51.9157 37.5837 51.5175V46.3407H33.3596C32.9614 46.3407 32.6484 46.0278 32.6484 45.6295C32.6484 45.2313 32.9614 44.9184 33.3596 44.9184H38.2949C38.6931 44.9184 39.0061 45.2313 39.0061 45.6295V51.5175C39.0061 51.9015 38.6931 52.2287 38.2949 52.2287L38.2949 52.2287Z" fill="#53C5E2"/>
<path d="M50.5119 52.2286C50.1137 52.2286 49.8008 51.9157 49.8008 51.5175V45.6295C49.8008 45.2313 50.1137 44.9183 50.5119 44.9183H55.4473C55.8455 44.9183 56.1584 45.2313 56.1584 45.6295C56.1584 46.0277 55.8455 46.3406 55.4473 46.3406H51.2231V51.5174C51.2231 51.9014 50.9102 52.2286 50.512 52.2286L50.5119 52.2286Z" fill="#53C5E2"/>
<path d="M55.4462 42.4161H46.4865C46.0882 42.4161 45.7753 42.1031 45.7753 41.7049C45.7753 41.3067 46.0882 40.9937 46.4865 40.9937H55.4462C55.8444 40.9937 56.1574 41.3067 56.1574 41.7049C56.157 42.1031 55.8444 42.4161 55.4462 42.4161ZM42.3194 42.4161H33.3596C32.9614 42.4161 32.6484 42.1031 32.6484 41.7049C32.6484 41.3067 32.9614 40.9937 33.3596 40.9937H42.3194C42.7176 40.9937 43.0305 41.3067 43.0305 41.7049C43.0305 42.1031 42.7033 42.4161 42.3194 42.4161Z" fill="#53C5E2"/>
<path d="M49.2173 35.4046C48.8191 35.4046 48.5062 35.0917 48.5062 34.6935V32.5033C48.5062 31.6783 47.8379 31.0243 47.0272 31.0243H41.8076C40.9825 31.0243 40.3286 31.6926 40.3286 32.5033V34.6935C40.3286 35.0917 40.0156 35.4046 39.6174 35.4046C39.2192 35.4046 38.9062 35.0917 38.9062 34.6935V32.5033C38.9062 30.8962 40.2147 29.6019 41.8076 29.6019H47.0273C48.6344 29.6019 49.9286 30.9104 49.9286 32.5033V34.6935C49.9286 35.0774 49.6014 35.4046 49.2175 35.4046H49.2173Z" fill="#53C5E2"/>
<path d="M44.4112 44.4926C42.8751 44.4926 41.6094 43.2413 41.6094 41.6908C41.6094 40.1409 42.8607 38.889 44.4112 38.889C45.9611 38.889 47.213 40.1403 47.213 41.6908C47.1987 43.2412 45.9474 44.4926 44.4112 44.4926ZM44.4112 40.3257C43.6576 40.3257 43.0318 40.9373 43.0318 41.7051C43.0318 42.4587 43.6434 43.0845 44.4112 43.0845C45.179 43.0845 45.7906 42.4729 45.7906 41.7051C45.7906 40.9373 45.1647 40.3257 44.4112 40.3257Z" fill="#53C5E2"/>
<path d="M32.18 70.8881C30.1179 70.8881 28.2831 69.8497 23.8741 67.2613C23.163 66.8345 22.3666 66.3796 21.4992 65.8676C21.3429 65.768 21.1719 65.6828 21.0157 65.5832C19.8639 64.8863 19.0956 64.4738 18.2281 64.8296C17.8585 64.9721 17.446 64.8011 17.3036 64.4314C17.1612 64.0618 17.3322 63.6493 17.7018 63.5069C19.2947 62.8667 20.6599 63.706 21.755 64.3743C21.9112 64.4738 22.0536 64.5591 22.2099 64.6444C23.0916 65.1564 23.8738 65.6256 24.5991 66.0381C28.112 68.1001 29.8612 69.1385 31.3544 69.4086C32.791 69.6644 34.1706 69.2238 36.9151 68.3278C38.6647 67.7591 40.8406 67.0479 43.9125 66.2372L52.6451 63.8903C54.0674 63.5064 54.9205 62.0412 54.5366 60.6051C54.3518 59.9225 53.9107 59.3395 53.2853 58.9836C52.6594 58.6282 51.9344 58.5287 51.2514 58.7135L39.4182 61.8849C39.3472 62.2688 39.2048 62.6385 39.0057 62.98C38.5365 63.7764 37.7968 64.3594 36.8865 64.6015C35.9905 64.8434 35.0517 64.7153 34.241 64.26L27.2022 60.1787C26.8607 59.9796 26.7473 59.5528 26.9464 59.2117C27.1455 58.8702 27.5723 58.7568 27.9133 58.9559L34.9674 63.0234C35.4366 63.2935 35.9915 63.3649 36.5317 63.2225C37.0581 63.0801 37.513 62.739 37.783 62.2698C37.9536 61.9854 38.0388 61.6582 38.0531 61.331V61.2743C38.0531 61.0894 38.0388 60.8903 37.9821 60.7055C37.8397 60.1792 37.4987 59.7243 37.0295 59.4542L29.9754 55.3868C28.9513 54.7894 28.0267 54.2064 27.1307 53.6515C22.9352 51.006 20.1762 49.2568 14.7719 51.8023C14.4165 51.9729 13.9897 51.8166 13.8192 51.4608C13.6487 51.1054 13.8049 50.6786 14.1607 50.5081C20.2764 47.621 23.6326 49.7545 27.8853 52.4425C28.767 52.997 29.6773 53.5805 30.6728 54.1493L37.7269 58.2167C38.5233 58.6859 39.1063 59.4256 39.3484 60.3359C39.3627 60.3645 39.3627 60.3926 39.3769 60.4212L50.8832 57.335C51.9355 57.0506 53.0448 57.1926 53.998 57.7475C54.9507 58.302 55.6336 59.1841 55.9181 60.2363C56.5011 62.4265 55.2069 64.6738 53.0167 65.2569L44.2694 67.6028C41.2399 68.4135 39.0783 69.1104 37.3431 69.6792C34.9967 70.4475 33.5319 70.8881 32.1806 70.8881L32.18 70.8881Z" fill="#53C5E2"/>
<path d="M15.6533 68.4286C15.0989 68.4286 14.544 68.2862 14.0604 68.0018C13.3207 67.5751 12.7805 66.8782 12.5672 66.0532L8.85516 52.2006C8.40024 50.4938 9.40962 48.7305 11.1163 48.2751L13.5198 47.6349C13.9038 47.5354 14.2877 47.7631 14.3872 48.1327L19.394 66.807C19.4368 66.9918 19.4226 67.1766 19.323 67.3476C19.2235 67.5181 19.0672 67.632 18.8962 67.6748L16.4927 68.315C16.2226 68.3998 15.9382 68.4284 15.6534 68.4284L15.6533 68.4286ZM13.2074 49.1852L11.4864 49.6401C10.5337 49.8959 9.97881 50.8776 10.2208 51.816L13.9328 65.6686C14.0609 66.1235 14.3453 66.5079 14.7578 66.7494C15.1703 66.9913 15.6537 67.048 16.1086 66.9342L17.8296 66.4793L13.2074 49.1852Z" fill="#53C5E2"/>
<path d="M60.5096 30.9383C57.4234 30.9383 54.9913 29.4022 52.1752 27.6245C51.2935 27.07 50.3832 26.4866 49.3877 25.9178L42.3336 21.8503C41.5372 21.3811 40.9542 20.6414 40.7121 19.7311C40.6978 19.7026 40.6978 19.6744 40.6978 19.6459L29.1916 22.732C27.0014 23.3151 24.7541 22.0209 24.171 19.8307C23.5879 17.6405 24.8821 15.3932 27.0724 14.8101L35.8049 12.4632C38.8344 11.6525 40.996 10.9557 42.7312 10.3869C48.6478 8.46679 48.8893 8.50964 56.1998 12.8047C56.9109 13.2315 57.7073 13.6864 58.5748 14.1984C58.731 14.298 58.902 14.3833 59.0582 14.4828C60.21 15.1797 60.9783 15.5922 61.8458 15.2364C62.2154 15.094 62.6279 15.265 62.7703 15.6346C62.9127 16.0043 62.7418 16.4168 62.3721 16.5592C60.7792 17.1993 59.4141 16.3601 58.319 15.6918C58.1627 15.5922 58.0203 15.5069 57.8641 15.4217C56.9824 14.9096 56.2002 14.4404 55.4748 14.028C51.9619 11.9659 50.2127 10.9275 48.7195 10.6574C47.2829 10.4016 45.9034 10.8423 43.1588 11.7382C41.4092 12.307 39.2333 13.0181 36.1614 13.8289L27.4427 16.1757C26.0204 16.5597 25.1673 18.0387 25.5511 19.461C25.9351 20.8833 27.4141 21.7364 28.8364 21.3525L40.6695 18.1811C40.7405 17.7972 40.8829 17.4275 41.082 17.086C41.5512 16.2896 42.291 15.7066 43.2012 15.4645C44.0972 15.2226 45.0361 15.3507 45.8467 15.806L52.9008 19.8735C53.2423 20.0726 53.3557 20.4994 53.1566 20.8404C52.9575 21.182 52.5307 21.2953 52.1896 21.0962L45.1356 17.0288C44.1543 16.4601 42.8883 16.8011 42.3195 17.7824C42.1489 18.0668 42.0637 18.394 42.0494 18.7212V18.7779C42.0494 18.9627 42.0637 19.1618 42.1203 19.3467C42.2628 19.873 42.6038 20.3279 43.073 20.598L50.1271 24.6654C51.1512 25.2627 52.0758 25.8458 52.9718 26.4007C57.1673 29.0462 59.9263 30.7954 65.3306 28.2499C65.686 28.0793 66.1128 28.2356 66.2833 28.5914C66.4538 28.9468 66.2976 29.3735 65.9418 29.5441C63.8373 30.54 62.0877 30.9382 60.5092 30.9382L60.5096 30.9383Z" fill="#53C5E2"/>
<path d="M66.3685 32.4606C66.0556 32.4606 65.7712 32.2472 65.6859 31.9343L60.6797 13.2611C60.5801 12.8772 60.8078 12.4933 61.1774 12.3937L63.581 11.7536C64.406 11.5259 65.2734 11.654 66.0131 12.0808C66.7527 12.5076 67.293 13.2044 67.5063 14.0295L71.2184 27.882C71.6733 29.5888 70.6639 31.3521 68.9572 31.8075L66.5537 32.4477C66.4965 32.4473 66.4255 32.4615 66.3684 32.4615L66.3685 32.4606ZM62.2301 13.5738L66.8667 30.8675L68.5877 30.4126C69.5404 30.1568 70.0953 29.1751 69.8533 28.2367L66.1413 14.3841C66.0132 13.9292 65.7288 13.5448 65.3163 13.3033C64.9038 13.0613 64.4204 13.0046 63.9655 13.1185L62.2301 13.5738Z" fill="#53C5E2"/>
<path d="M21.7415 35.8309C21.6562 35.8309 21.5566 35.8166 21.4714 35.7742C21.2013 35.6604 21.0303 35.4046 21.0303 35.1202V32.3469H9.65257C9.25435 32.3469 8.94141 32.034 8.94141 31.6358V26.9711C8.94141 26.5729 9.25435 26.2599 9.65257 26.2599H21.0303V23.4867C21.0303 23.2023 21.2008 22.946 21.4714 22.8326C21.7414 22.7188 22.0401 22.7759 22.2392 22.9889L28.1129 28.8058C28.2411 28.9339 28.3263 29.1188 28.3263 29.3179C28.3263 29.517 28.2553 29.6875 28.1129 29.8299L22.2392 35.6468C22.1111 35.7598 21.9263 35.8308 21.7415 35.8308V35.8309ZM10.3633 30.9099H21.741C22.1392 30.9099 22.4522 31.2228 22.4522 31.6211V33.3988L26.6048 29.2885L22.4522 25.1782V26.9559C22.4522 27.3541 22.1392 27.6671 21.741 27.6671H10.3633V30.9099Z" fill="#53C5E2"/>
<path d="M15.5266 46.9806C15.3418 46.9806 15.157 46.9096 15.0289 46.7815L9.1548 40.9649C9.02668 40.8368 8.94141 40.652 8.94141 40.4529C8.94141 40.2538 9.01239 40.0832 9.1548 39.9408L15.0285 34.1239C15.2276 33.9248 15.5406 33.8681 15.7964 33.9677C16.0665 34.0815 16.2375 34.3373 16.2375 34.6217V37.3949H27.6152C28.0134 37.3949 28.3263 37.7079 28.3263 38.1061V42.7708C28.3263 43.169 28.0134 43.482 27.6152 43.482H16.2375V46.2552C16.2375 46.5396 16.0669 46.7958 15.7964 46.9092C15.7116 46.9668 15.6263 46.9807 15.5267 46.9807L15.5266 46.9806ZM10.6766 40.453L14.8293 44.5633V42.7855C14.8293 42.3873 15.1422 42.0744 15.5404 42.0744H26.9181V38.8315H15.5404C15.1422 38.8315 14.8293 38.5186 14.8293 38.1203V36.3426L10.6766 40.453Z" fill="#53C5E2"/>
</svg>
