<svg width="80" height="80" viewBox="0 0 80 80" fill="none" xmlns="http://www.w3.org/2000/svg">
<path d="M55.3991 41.7131C52.9179 43.5773 49.979 44.7372 46.8933 45.0693C46.3853 45.1238 46.0004 45.5523 46 46.063V52.6921C46 56.3024 47.7714 59.6827 50.7402 61.7372L55.4313 64.9854C55.7737 65.2221 56.2268 65.2221 56.5693 64.9854L61.2621 61.7372C64.2295 59.6824 66 56.3019 65.9991 52.6921V46.063C65.9991 45.5523 65.6138 45.1238 65.1062 45.0693C62.0201 44.7372 59.0807 43.5778 56.599 41.7131C56.2437 41.4466 55.7544 41.4466 55.399 41.7131H55.3991ZM63.9991 46.9403V52.692C63.9991 55.6456 62.5504 58.4112 60.1223 60.092L55.9991 62.9474L51.8773 60.0925V60.0921C49.4487 58.4113 47.9991 55.6457 47.9991 52.6921V46.9403C50.8728 46.4943 53.608 45.4019 55.9991 43.7461C58.3902 45.4019 61.1254 46.4943 63.9991 46.9403V46.9403Z" fill="#53C5E2"/>
<path d="M51.5984 54.2286L50.3984 55.8286L54.3984 58.8286C54.835 59.1563 55.4534 59.0737 55.7886 58.6424L62.7886 49.6424L61.2087 48.4143L54.8087 56.6384L51.5984 54.2286Z" fill="#53C5E2"/>
<path d="M10.9998 64.0286H47.193C47.5979 64.3844 48.0215 64.7183 48.4621 65.0286L55.4313 69.8527H55.4308C55.7732 70.0893 56.2268 70.0893 56.5692 69.8527L63.538 65.0286C67.5858 62.2263 70.0005 57.6166 70.0001 52.6937V42.0286C70.0001 41.7415 69.8773 41.4683 69.6621 41.2786C69.446 41.0906 69.1603 41.0027 68.8759 41.0366L68.6259 41.0674C67.0813 41.2558 65.5157 41.1723 64 40.8205V25.0205C63.9969 24.9054 63.9737 24.792 63.9322 24.6844C63.921 24.6554 63.9112 24.6286 63.8982 24.6004C63.8853 24.5723 63.8822 24.5522 63.8692 24.5304L55.8692 10.5304C55.6902 10.2196 55.3589 10.0281 55 10.0286H19C18.642 10.0277 18.3112 10.2188 18.1321 10.5286L10.1321 24.5286C10.1192 24.5504 10.1143 24.5754 10.1031 24.5987C10.092 24.6219 10.0799 24.6536 10.0692 24.6826C10.0263 24.7911 10.0031 24.9062 10 25.0228V63.0285C10 63.2937 10.1054 63.5481 10.2929 63.7356C10.4804 63.9231 10.7348 64.0285 11 64.0285L10.9998 64.0286ZM67.9998 43.136V52.6941C68.0003 56.9597 65.9074 60.9543 62.3998 63.3829L55.9998 67.8128L49.5998 63.3829C46.0923 60.9543 43.9994 56.9597 43.9998 52.6941V43.136C48.4846 43.4539 52.8797 41.7664 55.9998 38.5289C59.1204 41.7655 63.515 43.4526 67.9998 43.136ZM56.7677 36.3878C56.5717 36.1708 56.2927 36.0467 55.9999 36.0467C55.707 36.0467 55.428 36.1708 55.232 36.3878C52.3387 39.8721 47.8668 41.6374 43.3737 41.0677L43.1237 41.0369C42.8393 41.0034 42.5541 41.0909 42.3375 41.2788C42.1224 41.4686 41.9996 41.7418 41.9996 42.0288V52.694C42.0076 56.0886 43.1684 59.3801 45.2916 62.0288H12.0002V26.0288H30.0002V33.0288C30.0006 33.4226 30.2314 33.7793 30.5908 33.9404C30.9497 34.1016 31.3698 34.0373 31.664 33.7757L33.0001 32.59L34.3362 33.7762V33.7757C34.7148 34.1123 35.2853 34.1123 35.6639 33.7757L37 32.59L38.3361 33.7762V33.7757C38.7147 34.1123 39.2852 34.1123 39.6638 33.7757L40.9999 32.59L42.336 33.7762V33.7757C42.5186 33.9387 42.7552 34.0289 42.9999 34.0289C43.1414 34.0293 43.2811 33.9994 43.4097 33.9409C43.769 33.7793 43.9999 33.4226 43.9999 33.0289V26.0289H61.9998V40.2037C59.9673 39.3836 58.1699 38.0725 56.7677 36.3876L56.7677 36.3878ZM31.9997 26.0288H41.9997V30.8021L41.6636 30.5021C41.285 30.1655 40.7144 30.1655 40.3359 30.5021L38.9998 31.6909L37.6637 30.5047C37.2851 30.1685 36.7146 30.1685 36.336 30.5047L34.9999 31.6909L33.6638 30.5047C33.2852 30.1685 32.7147 30.1685 32.3361 30.5047L32 30.8047L31.9997 26.0288ZM61.2763 24.0288H43.754L40.3259 12.0288H54.4196L61.2763 24.0288ZM38.2454 12.0288L41.6735 24.0288H32.3253L35.7534 12.0288H38.2454ZM19.5791 12.0288H33.6729L30.2447 24.0288H12.7225L19.5791 12.0288Z" fill="#53C5E2"/>
<path d="M22 53.0629H16C15.4478 53.0629 15 53.5106 15 54.0629V59.0289C15 59.2941 15.1054 59.5486 15.2929 59.7361C15.4804 59.9236 15.7348 60.0289 16 60.0289H22C22.2652 60.0289 22.5196 59.9236 22.7071 59.7361C22.8946 59.5486 23 59.2941 23 59.0289V54.0629C23 53.7977 22.8946 53.5432 22.7071 53.3557C22.5196 53.1682 22.2652 53.0629 22 53.0629ZM21 58.0289H17V55.0629H21V58.0289Z" fill="#53C5E2"/>
<path d="M32 53.0629H26C25.4478 53.0629 25 53.5106 25 54.0629V59.0289C25 59.2941 25.1054 59.5486 25.2929 59.7361C25.4804 59.9236 25.7348 60.0289 26 60.0289H32C32.2652 60.0289 32.5196 59.9236 32.7071 59.7361C32.8946 59.5486 33 59.2941 33 59.0289V54.0629C33 53.7977 32.8946 53.5432 32.7071 53.3557C32.5196 53.1682 32.2652 53.0629 32 53.0629ZM31 58.0289H27V55.0629H31V58.0289Z" fill="#53C5E2"/>
<path d="M32 37.0286H16C15.4478 37.0286 15 37.4763 15 38.0286V50.0286C15 50.2937 15.1054 50.5482 15.2929 50.7357C15.4804 50.9232 15.7348 51.0286 16 51.0286H32C32.2652 51.0286 32.5196 50.9232 32.7071 50.7357C32.8946 50.5482 33 50.2937 33 50.0286V38.0286C33 37.7634 32.8946 37.5089 32.7071 37.3214C32.5196 37.1339 32.2652 37.0286 32 37.0286ZM31 49.0286H17V39.0286H31V49.0286Z" fill="#53C5E2"/>
<path d="M19 41.0286H29V43.0286H19V41.0286Z" fill="#53C5E2"/>
<path d="M19 45.0286H22V47.0286H19V45.0286Z" fill="#53C5E2"/>
<path d="M24 45.0286H29V47.0286H24V45.0286Z" fill="#53C5E2"/>
</svg>
