<svg width="80" height="80" viewBox="0 0 80 80" fill="none" xmlns="http://www.w3.org/2000/svg">
<path d="M37.3788 17.9902H17.8085C17.2786 17.9915 16.7711 18.2027 16.3961 18.5777C16.0215 18.9522 15.8104 19.4603 15.8086 19.9901V24.4602C15.8104 24.9901 16.0215 25.4977 16.3961 25.8726C16.7711 26.2472 17.2787 26.4583 17.8085 26.4601H37.3788C37.9092 26.4601 38.4181 26.2494 38.7931 25.874C39.1681 25.499 39.3788 24.9905 39.3788 24.4601V19.9901C39.3788 19.4597 39.1681 18.9508 38.7931 18.5758C38.4181 18.2008 37.9092 17.9901 37.3788 17.9901V17.9902ZM37.3788 24.4602H17.8085V19.9902H37.3788V24.4602Z" fill="#53C5E2"/>
<path d="M18.9728 29.8498C18.1344 29.8498 17.3309 30.1829 16.7384 30.7753C16.1455 31.3681 15.8125 32.1717 15.8125 33.0101C15.8125 33.8481 16.1455 34.6516 16.7384 35.2445C17.3308 35.8369 18.1344 36.17 18.9728 36.17C19.8107 36.17 20.6147 35.8369 21.2072 35.2445C21.7996 34.6517 22.1326 33.8481 22.1326 33.0101C22.1309 32.1726 21.7974 31.3699 21.205 30.7776C20.613 30.1851 19.8103 29.8517 18.9729 29.8499L18.9728 29.8498ZM18.9728 34.1699C18.5036 34.1699 18.0804 33.8873 17.9009 33.4539C17.7215 33.0204 17.8206 32.5213 18.1523 32.1896C18.4844 31.8579 18.9831 31.7588 19.4165 31.9383C19.85 32.1178 20.1326 32.541 20.1326 33.0102C20.1321 33.6504 19.6129 34.1696 18.9728 34.1699L18.9728 34.1699Z" fill="#53C5E2"/>
<path d="M27.5998 29.8498C26.761 29.8471 25.956 30.1779 25.3614 30.7695C24.7667 31.361 24.4315 32.1645 24.4297 33.0034C24.4279 33.8418 24.7596 34.6467 25.3516 35.2409C25.944 35.8346 26.748 36.169 27.5864 36.1699C28.4253 36.1708 29.2297 35.8382 29.823 35.2454C30.4163 34.6529 30.7498 33.8484 30.7498 33.01C30.748 32.1739 30.4159 31.373 29.8257 30.781C29.2355 30.189 28.4355 29.8542 27.5997 29.8498L27.5998 29.8498ZM27.5998 34.1699C27.1297 34.1739 26.7038 33.894 26.5208 33.461C26.3382 33.0275 26.4351 32.5271 26.7659 32.1931C27.0971 31.8596 27.5967 31.7583 28.0315 31.9373C28.4658 32.1163 28.7498 32.54 28.7498 33.0101C28.7493 33.6462 28.2364 34.1637 27.5998 34.1698L27.5998 34.1699Z" fill="#53C5E2"/>
<path d="M36.2326 29.8499C35.3942 29.8472 34.5888 30.178 33.9942 30.7695C33.3996 31.361 33.0643 32.1646 33.0625 33.0035C33.0607 33.8418 33.3924 34.6468 33.9848 35.2409C34.5768 35.8347 35.3808 36.1691 36.2192 36.17C37.0581 36.1709 37.8625 35.8383 38.4558 35.2454C39.0491 34.653 39.3826 33.8485 39.3826 33.0101C39.3826 32.1735 39.0513 31.3712 38.4607 30.7789C37.8701 30.1869 37.0692 29.8526 36.2326 29.8499V29.8499ZM36.2326 34.17C35.7625 34.174 35.3366 33.8941 35.154 33.4611C34.971 33.0276 35.0679 32.5271 35.3991 32.1932C35.7299 31.8597 36.2295 31.7584 36.6643 31.9374C37.0991 32.1164 37.3826 32.54 37.3826 33.0101C37.3821 33.6463 36.8692 34.1637 36.2326 34.1699L36.2326 34.17Z" fill="#53C5E2"/>
<path d="M18.9703 38.4795C18.1342 38.4808 17.3328 38.8143 16.7417 39.4063C16.1511 39.9978 15.8199 40.8 15.8203 41.6362C15.8208 42.4724 16.1529 43.2742 16.7444 43.8657C17.3355 44.4568 18.1373 44.7894 18.9734 44.7898C19.8096 44.7903 20.6118 44.4586 21.2038 43.8679C21.7958 43.2773 22.1288 42.4759 22.1302 41.6398C22.1284 40.8023 21.7949 39.9996 21.2025 39.4073C20.6105 38.8153 19.8079 38.4818 18.9704 38.4796L18.9703 38.4795ZM18.9703 42.7893V42.7898C18.5029 42.7875 18.0833 42.5045 17.906 42.0719C17.7292 41.6398 17.8301 41.1433 18.1623 40.8143C18.494 40.4857 18.9908 40.3889 19.4217 40.5697C19.8525 40.75 20.1324 41.1724 20.1302 41.6398C20.1253 42.2768 19.6074 42.7902 18.9704 42.7897L18.9703 42.7893Z" fill="#53C5E2"/>
<path d="M27.6012 38.4795C26.7646 38.4782 25.9614 38.8094 25.3686 39.4001C24.7762 39.9911 24.4427 40.793 24.4414 41.6295C24.4401 42.4666 24.7709 43.2693 25.3619 43.8621C25.9526 44.4545 26.7544 44.7885 27.5914 44.7898C28.428 44.7911 29.2312 44.4599 29.8235 43.8693C30.4164 43.2786 30.7499 42.4763 30.7512 41.6398C30.7494 40.8041 30.4173 40.0027 29.8271 39.4107C29.2369 38.8188 28.437 38.4839 27.6012 38.4795L27.6012 38.4795ZM27.6012 42.7893V42.7898C27.1334 42.7916 26.7101 42.5112 26.5302 42.0791C26.3499 41.6469 26.4485 41.1492 26.7793 40.8179C27.1106 40.4871 27.6084 40.3885 28.0405 40.5688C28.4726 40.7487 28.7534 41.1715 28.7512 41.6398C28.7463 42.2728 28.2342 42.7849 27.6013 42.7897L27.6012 42.7893Z" fill="#53C5E2"/>
<path d="M36.2301 38.4795C35.3935 38.4782 34.5903 38.8094 33.998 39.4001C33.4051 39.9911 33.0717 40.793 33.0703 41.6296C33.069 42.4666 33.4002 43.2693 33.9909 43.8621C34.5815 44.4545 35.3833 44.7885 36.2203 44.7898C37.0569 44.7911 37.8601 44.4599 38.4525 43.8693C39.0453 43.2786 39.3788 42.4764 39.3801 41.6398C39.3801 40.8032 39.0489 40.0009 38.4583 39.4089C37.8676 38.8165 37.0667 38.4821 36.2301 38.4795L36.2301 38.4795ZM36.2301 42.7894V42.7898C35.7623 42.7916 35.339 42.5112 35.1591 42.0791C34.9792 41.6469 35.0774 41.1492 35.4087 40.8179C35.7395 40.4871 36.2373 40.3885 36.6694 40.5688C37.1015 40.7487 37.3823 41.1715 37.3801 41.6398C37.3752 42.2729 36.8631 42.785 36.2301 42.7898L36.2301 42.7894Z" fill="#53C5E2"/>
<path d="M18.9703 47.1104C18.1342 47.1117 17.3328 47.4447 16.7417 48.0367C16.1511 48.6287 15.8199 49.4304 15.8203 50.2671C15.8208 51.1033 16.1529 51.905 16.7444 52.4961C17.3355 53.0872 18.1373 53.4198 18.9734 53.4202C19.8096 53.4207 20.6118 53.089 21.2038 52.4984C21.7958 51.9077 22.1288 51.1064 22.1302 50.2702C22.1302 49.4323 21.7971 48.6283 21.2047 48.0358C20.6123 47.443 19.8083 47.1104 18.9703 47.1104L18.9703 47.1104ZM18.9703 51.4202C18.5029 51.4179 18.0833 51.1349 17.906 50.7028C17.7292 50.2702 17.8301 49.7738 18.1623 49.4447C18.494 49.1161 18.9908 49.0193 19.4217 49.2001C19.8525 49.3804 20.1324 49.8032 20.1302 50.2702C20.1253 50.9072 19.6074 51.4206 18.9704 51.4201L18.9703 51.4202Z" fill="#53C5E2"/>
<path d="M27.6012 47.1104C26.7646 47.1091 25.9614 47.4399 25.3686 48.031C24.7762 48.6216 24.4427 49.4234 24.4414 50.2605C24.4401 51.0971 24.7709 51.9002 25.3619 52.4926C25.9526 53.0854 26.7544 53.4189 27.5914 53.4202C28.428 53.4216 29.2312 53.0903 29.8235 52.4997C30.4164 51.9091 30.7499 51.1068 30.7512 50.2702C30.7512 49.4341 30.4195 48.6318 29.8294 48.0394C29.2387 47.447 28.4374 47.113 27.6012 47.1104L27.6012 47.1104ZM27.6012 51.4203C27.1334 51.4225 26.7101 51.1417 26.5302 50.7095C26.3499 50.2774 26.4485 49.7796 26.7793 49.4484C27.1106 49.1176 27.6084 49.0189 28.0405 49.1993C28.4726 49.3792 28.7534 49.8024 28.7512 50.2703C28.7463 50.9033 28.2342 51.4154 27.6013 51.4202L27.6012 51.4203Z" fill="#53C5E2"/>
<path d="M18.9703 55.74C18.1333 55.7413 17.3315 56.0748 16.7409 56.6677C16.1502 57.2601 15.819 58.0632 15.8203 58.8998C15.8217 59.7368 16.1551 60.5386 16.748 61.1293C17.3404 61.7199 18.1435 62.0511 18.9801 62.0498C19.8172 62.0485 20.619 61.715 21.2096 61.1221C21.8002 60.5297 22.1315 59.7266 22.1301 58.89C22.1279 58.0534 21.794 57.2521 21.2016 56.6614C20.6091 56.0708 19.8069 55.7396 18.9704 55.74L18.9703 55.74ZM18.9703 60.0498C18.5038 60.048 18.0846 59.7659 17.9074 59.3346C17.7297 58.9034 17.8288 58.4079 18.1587 58.0784C18.4882 57.7485 18.9837 57.6494 19.415 57.8271C19.8462 58.0043 20.1284 58.4235 20.1301 58.89C20.1297 59.5302 19.6105 60.0495 18.9704 60.0498L18.9703 60.0498Z" fill="#53C5E2"/>
<path d="M27.6012 55.7401C26.7637 55.7388 25.9602 56.0704 25.3677 56.6615C24.7749 57.253 24.4419 58.0561 24.4414 58.8932C24.441 59.7307 24.7731 60.5338 25.3655 61.1258C25.9575 61.7182 26.7606 62.0503 27.5981 62.0499C28.4351 62.0494 29.2379 61.7164 29.8293 61.1235C30.4208 60.5307 30.7525 59.7271 30.7512 58.89C30.7489 58.0552 30.4163 57.2552 29.8261 56.665C29.236 56.0744 28.436 55.7422 27.6011 55.74L27.6012 55.7401ZM27.6012 60.0499C26.9633 60.0499 26.4464 59.533 26.4464 58.8951C26.4464 58.2572 26.9633 57.7402 27.6012 57.7402C28.2391 57.7402 28.7561 58.2572 28.7561 58.8951C28.7561 59.533 28.2391 60.0499 27.6012 60.0499Z" fill="#53C5E2"/>
<path d="M37.3801 47.1104H35.0703C34.5404 47.1117 34.0323 47.3229 33.6578 47.6979C33.2828 48.0724 33.0716 48.5805 33.0703 49.1103V60.0501C33.0717 60.58 33.2828 61.0881 33.6578 61.4626C34.0324 61.8376 34.5404 62.0487 35.0703 62.0501H37.3801C37.9104 62.0501 38.4194 61.8393 38.7944 61.4643C39.1694 61.0894 39.3801 60.5804 39.3801 60.0501V49.1103C39.3801 48.5795 39.1694 48.071 38.7944 47.696C38.4194 47.321 37.9104 47.1103 37.3801 47.1103V47.1104ZM37.3801 60.051L35.0703 60.0505V49.1107H37.3801V60.051Z" fill="#53C5E2"/>
<path d="M64.26 19.0702H43.7V17.6001C43.6978 16.2746 43.1705 15.0041 42.233 14.0671C41.296 13.1296 40.0255 12.6024 38.7 12.6001H16.5C15.1741 12.6001 13.9023 13.1269 12.9642 14.0648C12.0267 15.0023 11.5 16.2742 11.5 17.6001V62.4401C11.5 63.766 12.0268 65.0378 12.9642 65.9754C13.9022 66.9134 15.1741 67.4401 16.5 67.4401H38.7C40.0255 67.4379 41.296 66.9106 42.233 65.9731C43.1705 65.0361 43.6977 63.7656 43.7 62.4401V60.97H64.26C65.3828 60.97 66.46 60.5245 67.2546 59.7316C68.0497 58.9388 68.4975 57.8628 68.5001 56.7401V23.3001C68.4974 22.1773 68.0497 21.1015 67.2546 20.3086C66.46 19.5157 65.3827 19.0702 64.26 19.0702ZM41.7 62.4404C41.7 63.236 41.3839 63.999 40.8214 64.5618C40.2589 65.1243 39.4955 65.4404 38.7001 65.4404H16.5001C15.7045 65.4404 14.9411 65.1243 14.3787 64.5618C13.8162 63.9989 13.5001 63.2359 13.5001 62.4404V17.6004C13.5001 16.8049 13.8162 16.0419 14.3787 15.4791C14.9412 14.9166 15.7046 14.6005 16.5001 14.6005H38.7001C39.4956 14.6005 40.259 14.9166 40.8214 15.4791C41.3839 16.042 41.7 16.805 41.7 17.6004V62.4404ZM48.1701 58.9704H43.7V21.071H48.1701V58.9704ZM66.5003 56.7404C66.4995 57.3333 66.2628 57.9011 65.8423 58.3194C65.4222 58.7377 64.853 58.9721 64.2601 58.9703H50.1699V21.0709H64.2601C64.853 21.0691 65.4222 21.3035 65.8423 21.7218C66.2628 22.1401 66.4995 22.7079 66.5003 23.3007V56.7404Z" fill="#53C5E2"/>
<path d="M64.1906 44.3298C64.1906 42.2383 63.0746 40.3053 61.263 39.2593C59.4514 38.2134 57.2197 38.2133 55.4081 39.2593C53.5965 40.3053 52.4805 42.2383 52.4805 44.3298C52.4818 45.4856 52.83 46.6146 53.4805 47.5701C52.8305 48.5219 52.4818 49.6473 52.4805 50.8C52.4805 52.892 53.5965 54.8246 55.4081 55.8705C57.2198 56.9165 59.4514 56.9165 61.263 55.8705C63.0745 54.8245 64.1906 52.892 64.1906 50.8C64.1893 49.6473 63.8406 48.5218 63.1906 47.5701C63.8411 46.6147 64.1893 45.4857 64.1906 44.3298ZM58.3304 54.6602C57.3085 54.6576 56.329 54.2495 55.6077 53.5259C54.8858 52.8022 54.4804 51.8219 54.4804 50.7999C54.4751 49.8553 54.8287 48.9437 55.4706 48.25V48.2402L55.4804 48.2303V48.2299C56.2063 47.4156 57.2448 46.95 58.3353 46.95C59.4259 46.95 60.4648 47.4156 61.1906 48.2299V48.2397C61.2004 48.2397 61.2004 48.2397 61.2004 48.2495V48.25C61.8419 48.9437 62.196 49.8553 62.1906 50.7999C62.1897 51.8236 61.783 52.8053 61.0594 53.5289C60.3357 54.2526 59.354 54.6593 58.3303 54.6602L58.3304 54.6602ZM61.7706 46.0701C61.5523 45.9111 61.3215 45.771 61.0805 45.65C61.0229 45.6129 60.9626 45.5794 60.9005 45.55C60.6604 45.4402 60.4104 45.3299 60.1505 45.2402C59.8912 45.1616 59.6273 45.0982 59.3604 45.05L59.1604 45.0201C58.8858 44.9763 58.6086 44.9531 58.3305 44.95C58.0559 44.9531 57.7818 44.9763 57.5104 45.0201L57.3104 45.05C57.0434 45.0969 56.7796 45.1602 56.5206 45.2402H56.5104C56.2546 45.3321 56.0041 45.4388 55.7604 45.5603C55.6992 45.5799 55.6416 45.6103 55.5907 45.65C55.3514 45.7687 55.1238 45.9094 54.9104 46.0701H54.8903H54.8907C54.618 45.5308 54.4773 44.9344 54.4805 44.3298C54.4805 42.9526 55.2153 41.6802 56.4081 40.9914C57.601 40.3031 59.0702 40.3031 60.263 40.9914C61.4559 41.6803 62.1906 42.9526 62.1906 44.3298C62.1902 44.9352 62.0464 45.5317 61.7705 46.0701L61.7706 46.0701Z" fill="#53C5E2"/>
</svg>
