<svg width="80" height="80" viewBox="0 0 80 80" fill="none" xmlns="http://www.w3.org/2000/svg">
<path d="M67.0005 42H65.6506L62.4407 34.7799C62.2041 34.2509 61.8198 33.8009 61.3336 33.4853C60.8474 33.1692 60.2805 33.0009 59.7006 33H48V16C48 15.7348 47.8946 15.4804 47.7071 15.2929C47.5196 15.1054 47.2652 15 47 15H11C10.4478 15 10 15.4478 10 16V58C10.0022 58.7951 10.3192 59.5567 10.8812 60.1187C11.4433 60.6808 12.2049 60.9978 13 61H20.6902C21.4464 62.6035 22.7852 63.859 24.4339 64.5107C26.0826 65.163 27.9174 65.163 29.566 64.5107C31.2147 63.859 32.5536 62.6035 33.3098 61H51.6904C52.4466 62.6035 53.7855 63.859 55.4342 64.5107C57.0828 65.163 58.9176 65.163 60.5663 64.5107C62.215 63.859 63.5538 62.6035 64.31 61H67.0002C67.7953 60.9978 68.5569 60.6808 69.119 60.1187C69.681 59.5567 69.998 58.7951 70.0002 58V45C69.998 44.2049 69.681 43.4433 69.119 42.8813C68.5569 42.3192 67.7953 42.0022 67.0002 42H67.0005ZM52.0005 35H59.7005C60.0934 35.0009 60.4496 35.2317 60.6103 35.5902L63.4604 42H52.001L52.0005 35ZM12.0005 17H46.0005V47H12.0005V17ZM20.0804 59H13.0005C12.4483 59 12.0005 58.5522 12.0005 58V57H20.0804C19.9737 57.6625 19.9737 58.3375 20.0804 59ZM27.0005 63C25.6746 63 24.4028 62.4732 23.4647 61.5358C22.5272 60.5978 22.0005 59.326 22.0005 58C22.0005 56.6741 22.5273 55.4023 23.4647 54.4642C24.4027 53.5267 25.6746 53 27.0005 53C28.3265 53 29.5982 53.5268 30.5363 54.4642C31.4738 55.4022 32.0005 56.6741 32.0005 58C32.0005 59.326 31.4737 60.5977 30.5363 61.5358C29.5983 62.4733 28.3265 63 27.0005 63ZM27.0005 51C25.6782 51.0027 24.3839 51.3799 23.2675 52.088C22.1505 52.7955 21.2572 53.8053 20.6907 55H12.0005V49H46.0005V55H33.3102C32.7437 53.8053 31.8505 52.7955 30.7334 52.088C29.6169 51.3799 28.3227 51.0027 27.0004 51H27.0005ZM51.0805 59H33.9205C34.0272 58.3375 34.0272 57.6625 33.9205 57H51.0805C50.9738 57.6625 50.9738 58.3375 51.0805 59ZM58.0006 63C56.6747 63 55.4029 62.4732 54.4649 61.5358C53.5274 60.5978 53.0006 59.326 53.0006 58C53.0006 56.6741 53.5274 55.4023 54.4649 54.4642C55.4028 53.5267 56.6747 53 58.0006 53C59.3266 53 60.5983 53.5268 61.5364 54.4642C62.4739 55.4022 63.0006 56.6741 63.0006 58C63.0006 59.326 62.4738 60.5977 61.5364 61.5358C60.5985 62.4733 59.3266 63 58.0006 63ZM68.0006 58C68.0006 58.2652 67.8953 58.5197 67.7078 58.7072C67.5203 58.8947 67.2658 59 67.0006 59H64.9207C65.0274 58.3375 65.0274 57.6625 64.9207 57H68.0006V58ZM68.0006 51H66.0006V49H68.0006V51ZM68.0006 47H66.0006C65.4707 47.0018 64.9627 47.213 64.5882 47.5875C64.2137 47.9621 64.0025 48.4701 64.0007 49V51C64.0025 51.5299 64.2136 52.0379 64.5882 52.4124C64.9627 52.7869 65.4708 52.9981 66.0006 52.9999H68.0006V54.9999H64.3105C63.5542 53.3964 62.2154 52.141 60.5667 51.4892C58.918 50.837 57.0833 50.837 55.4346 51.4892C53.7859 52.141 52.447 53.3964 51.6908 54.9999H48.0006V34.9999H50.0006V42.9999C50.0006 43.2651 50.106 43.5196 50.2935 43.7071C50.481 43.8946 50.7354 43.9999 51.0006 43.9999H67.0006C67.2658 43.9999 67.5203 44.1053 67.7078 44.2928C67.8953 44.4803 68.0006 44.7347 68.0006 44.9999V47Z" fill="#53C5E2"/>
<path d="M51 48H53C53.5522 48 54 47.5522 54 47C54 46.4478 53.5522 46 53 46H51C50.4478 46 50 46.4478 50 47C50 47.5522 50.4478 48 51 48Z" fill="#53C5E2"/>
<path d="M57.9999 55C57.2044 55 56.441 55.3161 55.8786 55.8786C55.3162 56.4411 55 57.2045 55 57.9999C55 58.7954 55.3161 59.5589 55.8786 60.1213C56.4411 60.6837 57.2045 60.9999 57.9999 60.9999C58.7954 60.9999 59.5589 60.6838 60.1213 60.1213C60.6837 59.5588 60.9999 58.7954 60.9999 57.9999C60.9999 57.2045 60.6838 56.441 60.1213 55.8786C59.5588 55.3162 58.7954 55 57.9999 55ZM57.9999 59C57.5955 59 57.2307 58.7562 57.0763 58.3826C56.9214 58.0089 57.0066 57.579 57.2928 57.2929C57.579 57.0067 58.0089 56.9214 58.3825 57.0763C58.7562 57.2308 58.9999 57.5955 58.9999 58C58.9999 58.2652 58.8946 58.5196 58.7071 58.7071C58.5196 58.8946 58.2651 59 57.9999 59Z" fill="#53C5E2"/>
<path d="M26.9999 55C26.2044 55 25.441 55.3161 24.8786 55.8786C24.3162 56.4411 24 57.2045 24 57.9999C24 58.7954 24.3161 59.5589 24.8786 60.1213C25.4411 60.6837 26.2045 60.9999 26.9999 60.9999C27.7954 60.9999 28.5589 60.6838 29.1213 60.1213C29.6837 59.5588 29.9999 58.7954 29.9999 57.9999C29.9999 57.2045 29.6838 56.441 29.1213 55.8786C28.5588 55.3162 27.7954 55 26.9999 55ZM26.9999 59C26.5955 59 26.2307 58.7562 26.0763 58.3826C25.9214 58.0089 26.0066 57.579 26.2928 57.2929C26.579 57.0067 27.0089 56.9214 27.3825 57.0763C27.7562 57.2308 27.9999 57.5955 27.9999 58C27.9999 58.2652 27.8946 58.5196 27.7071 58.7071C27.5196 58.8946 27.2651 59 26.9999 59Z" fill="#53C5E2"/>
<path d="M39.371 23.0709L29.371 19.0709C29.1326 18.9767 28.8674 18.9767 28.629 19.0709L18.629 23.0709C18.2491 23.2226 18 23.5905 18 23.9999V28.9409C18.0174 34.9079 21.1459 40.4335 26.2541 43.5181L28.4849 44.8569V44.8574C28.8019 45.0475 29.1983 45.0475 29.5153 44.8574L31.7461 43.5185V43.5181C36.8541 40.4337 39.9827 34.9082 40.0002 28.9409V23.9999C40.0002 23.5905 39.7511 23.2226 39.3712 23.0709H39.371ZM38 28.9409C37.9839 34.2048 35.2232 39.0789 30.7169 41.8003L29 42.8334L27.2831 41.8003C22.7768 39.0793 20.0161 34.2053 20 28.9409V24.6767L29 21.0767L38 24.6767V28.9409Z" fill="#53C5E2"/>
<path d="M25.7066 31.2925C25.3142 30.9135 24.6906 30.9193 24.3048 31.305C23.919 31.6908 23.9133 32.3144 24.2923 32.7069L27.2923 35.7069C27.6829 36.0971 28.316 36.0971 28.7066 35.7069L34.7066 29.7069C35.0856 29.3145 35.0798 28.6908 34.6941 28.305C34.3084 27.9193 33.6847 27.9135 33.2923 28.2925L27.9995 33.5858L25.7066 31.2925Z" fill="#53C5E2"/>
<path d="M43 19H42C41.4478 19 41 19.4478 41 20C41 20.5522 41.4478 21 42 21H43C43.5522 21 44 20.5522 44 20C44 19.4478 43.5522 19 43 19Z" fill="#53C5E2"/>
<path d="M16 19H15C14.4478 19 14 19.4478 14 20C14 20.5522 14.4478 21 15 21H16C16.5522 21 17 20.5522 17 20C17 19.4478 16.5522 19 16 19Z" fill="#53C5E2"/>
<path d="M16 43H15C14.4478 43 14 43.4478 14 44C14 44.5522 14.4478 45 15 45H16C16.5522 45 17 44.5522 17 44C17 43.4478 16.5522 43 16 43Z" fill="#53C5E2"/>
<path d="M43 43H42C41.4478 43 41 43.4478 41 44C41 44.5522 41.4478 45 42 45H43C43.5522 45 44 44.5522 44 44C44 43.4478 43.5522 43 43 43Z" fill="#53C5E2"/>
</svg>
