<svg width="80" height="80" viewBox="0 0 80 80" fill="none" xmlns="http://www.w3.org/2000/svg">
<path d="M69 44.0286H19C18.4478 44.0286 18 44.4764 18 45.0286V55.0286H11C10.4478 55.0286 10 55.4764 10 56.0286V69.0286C10 69.2938 10.1054 69.5482 10.2929 69.7357C10.4804 69.9232 10.7348 70.0286 11 70.0286H19C19.2652 70.0286 19.5196 69.9232 19.7071 69.7357C19.8946 69.5482 20 69.2938 20 69.0286V68.0286H40.8777C41.7817 68.0281 42.6714 67.8013 43.4653 67.3688L53.2554 62.0285H69.0006C69.2658 62.0285 69.5202 61.9232 69.7077 61.7357C69.8952 61.5482 70.0006 61.2937 70.0006 61.0285V45.0285C70.0006 44.7634 69.8952 44.5089 69.7077 44.3214C69.5202 44.1339 69.2658 44.0285 69.0006 44.0285L69 44.0286ZM18 68.0286H12V57.0286H18V68.0286ZM48.7189 46.0286L48.2189 48.0286H41.7805L41.2805 46.0286H48.7189ZM42.2229 54.0286H48.7189L48.2189 56.0286H41.7805L41.5072 54.9353L41.5528 54.8897C41.8108 54.6317 42.0358 54.3424 42.2229 54.0286L42.2229 54.0286ZM20 46.0286H39.2194L39.5958 47.534C38.2605 47.1692 36.8311 47.4527 35.7363 48.3005L30.9426 52.0286H20.0002L20 46.0286ZM20 54.0286H24.2759C22.9647 54.9589 22.1361 56.4255 22.0147 58.0286H20V54.0286ZM42.5063 65.6126C42.0063 65.8849 41.446 66.0278 40.8768 66.0282H19.9991V60.0282H22.4026C23.2839 60.0273 23.9982 59.313 23.9991 58.4317C24 57.5291 24.3589 56.6643 24.9969 56.0259C25.6352 55.388 26.4999 55.029 27.4027 55.0281H29.8607C30.1728 55.0277 30.4759 54.9237 30.7224 54.7326L36.9634 49.8781C37.6129 49.3723 38.4763 49.2344 39.2514 49.5125C40.0264 49.7906 40.605 50.446 40.7849 51.2495C40.9648 52.053 40.7206 52.8924 40.1384 53.4745L33.9808 59.6321C33.5791 60.0335 33.459 60.637 33.6759 61.1616C33.8933 61.6862 34.4049 62.0281 34.9728 62.0281H49.0768L42.5063 65.6126ZM68 60.0282H36.4137L39.8579 56.584L40.0294 57.2706C40.1405 57.7157 40.5405 58.0282 40.9995 58.0282H48.9995C49.4584 58.0282 49.8584 57.7157 49.9696 57.2706L50.7803 54.0282H67.9997L68 60.0282ZM68 52.0282H42.8377C42.877 51.343 42.7556 50.6582 42.4824 50.0282H49.0002C49.4591 50.0282 49.8591 49.7157 49.9703 49.2706L50.781 46.0282H68.0004L68 52.0282Z" fill="#53C5E2"/>
<path d="M32.9999 26.0286C32.2044 26.0286 31.441 26.3446 30.8786 26.9071C30.3162 27.4696 30 28.2331 30 29.0285C30 29.8239 30.3161 30.5875 30.8786 31.1499C31.4411 31.7123 32.2045 32.0284 32.9999 32.0284C33.7954 32.0284 34.5589 31.7124 35.1213 31.1499C35.6837 30.5874 35.9999 29.8239 35.9999 29.0285C35.999 28.233 35.6825 27.4705 35.1204 26.9079C34.5579 26.3459 33.7954 26.0294 32.9999 26.0285L32.9999 26.0286ZM32.9999 30.0286C32.5955 30.0286 32.2307 29.7848 32.0763 29.4112C31.9214 29.0375 32.0066 28.6076 32.2928 28.3214C32.579 28.0352 33.0089 27.95 33.3825 28.1049C33.7562 28.2594 33.9999 28.6241 33.9999 29.0286C33.9995 29.5808 33.5522 30.0281 32.9999 30.0286Z" fill="#53C5E2"/>
<path d="M69.0006 10.0286H61.0006C60.4483 10.0286 60.0006 10.4763 60.0006 11.0286V12.0286H39.1229C38.2188 12.029 37.3291 12.2558 36.5353 12.6884L26.7451 18.0286H14C13.4478 18.0286 13 18.4764 13 19.0286V39.0286C13 39.2938 13.1054 39.5483 13.2929 39.7358C13.4804 39.9233 13.7348 40.0286 14 40.0286H52C52.2652 40.0286 52.5196 39.9233 52.7071 39.7358C52.8946 39.5483 53 39.2938 53 39.0286V27.0126C54.2893 26.9148 55.5009 26.3581 56.4152 25.4438C57.3299 24.53 57.8866 23.3183 57.9853 22.0291H60V24.0291C60 24.2942 60.1054 24.5487 60.2929 24.7362C60.4804 24.9237 60.7348 25.0291 61 25.0291H69C69.2652 25.0291 69.5196 24.9237 69.7071 24.7362C69.8946 24.5487 70 24.2942 70 24.0291V11.0291C70 10.7639 69.8946 10.5094 69.7071 10.3219C69.5196 10.1344 69.2652 10.0291 69 10.0291L69.0006 10.0286ZM51.0006 38.0286H15.0006V20.0286H43.5857L41.5857 22.0286H19.9994C19.4472 22.0286 18.9994 22.4763 18.9994 23.0286V24.0286H17.9994C17.4472 24.0286 16.9994 24.4763 16.9994 25.0286V33.0286C16.9994 33.2937 17.1048 33.5482 17.2923 33.7357C17.4798 33.9232 17.7343 34.0286 17.9994 34.0286H18.9994V35.0286C18.9994 35.2937 19.1048 35.5482 19.2923 35.7357C19.4798 35.9232 19.7343 36.0286 19.9994 36.0286H45.9994C46.2646 36.0286 46.5191 35.9232 46.7066 35.7357C46.8941 35.5482 46.9994 35.2937 46.9994 35.0286V34.0286H47.9994C48.2646 34.0286 48.5191 33.9232 48.7066 33.7357C48.8941 33.5482 48.9994 33.2937 48.9994 33.0286V28.0733L50.3427 27.0286H50.9994L51.0006 38.0286ZM38.1229 31.0321C38.8488 31.9321 39.8978 32.512 41.0461 32.6473C42.1938 32.783 43.3496 32.4634 44.2648 31.7571L47.0009 29.6286V32.0286H46.0009C45.4487 32.0286 45.0009 32.4763 45.0009 33.0286V34.0286H21.0009V33.0286C21.0009 32.7634 20.8956 32.5089 20.7081 32.3214C20.5206 32.1339 20.2661 32.0286 20.0009 32.0286H19.0009V26.0286H20.0009C20.2661 26.0286 20.5206 25.9232 20.7081 25.7357C20.8956 25.5482 21.0009 25.2937 21.0009 25.0286V24.0286H39.5861L38.4472 25.1674C37.6803 25.933 37.2227 26.9554 37.1629 28.0374C37.1026 29.1196 37.4446 30.1861 38.1223 31.0321L38.1229 31.0321ZM60.0006 20.0286H57.597C56.7158 20.0295 56.0015 20.7437 56.0006 21.625C55.9997 22.5277 55.6408 23.3925 55.0028 24.0309C54.3644 24.6688 53.4997 25.0277 52.597 25.0286H50.1389C49.8269 25.0291 49.5237 25.1331 49.2773 25.3242L43.0363 30.1787C42.3867 30.6845 41.5234 30.8224 40.7483 30.5443C39.9733 30.2662 39.3947 29.6108 39.2148 28.8073C39.0349 28.0037 39.2791 27.1644 39.8612 26.5822L46.0188 20.4246C46.4206 20.0233 46.5407 19.4197 46.3237 18.8951C46.1063 18.3706 45.5947 18.0286 45.0268 18.0286H30.9228L37.4942 14.4443C37.9942 14.172 38.5545 14.0291 39.1237 14.0287H60.0014L60.0006 20.0286ZM68.0006 23.0286H62.0006V12.0286H68.0006V23.0286Z" fill="#53C5E2"/>
</svg>
