<svg width="80" height="80" viewBox="0 0 80 80" fill="none" xmlns="http://www.w3.org/2000/svg">
<path d="M67.6782 25.4004C67.6577 24.8232 67.4215 24.2803 67.0131 23.8728C66.5773 23.4362 65.9756 23.1982 65.339 23.2072C62.9805 23.2853 61.1203 25.2692 61.1917 27.6304L61.3314 31.9254L60.5345 35.1517C60.4435 35.1432 60.3546 35.1254 60.2618 35.1254C59.4488 35.1254 58.6859 35.4401 58.114 36.0124L53.3145 40.8151L51.5747 41.116C50.5845 41.2838 49.647 41.7673 48.9354 42.4794L45.6809 45.7339C44.7831 46.6317 44.2724 47.8241 44.2429 49.0906L44.1161 54.741C43.5313 54.8941 42.9844 55.1807 42.5393 55.6164C41.8661 56.2749 41.4902 57.153 41.48 58.0892L41.4045 65.1508C41.3942 66.0866 41.7514 66.9727 42.4108 67.6455C43.0692 68.3182 43.9473 68.6946 44.8836 68.7039L56.6013 68.8294H56.6401C57.5615 68.8294 58.433 68.4727 59.0963 67.8231C59.7691 67.1647 60.1455 66.2866 60.1548 65.3503L60.2303 58.2887C60.2477 56.6691 59.1597 55.2927 57.6713 54.8714L57.7351 54.4303C57.9244 53.1598 58.5039 52.0085 59.4106 51.1017L64.9075 45.6053C66.2583 44.2549 67.111 42.4704 67.3079 40.5825L67.8914 35.045C67.9329 34.8441 67.9553 34.6361 67.9575 34.4205L67.9588 34.4089C67.9588 34.4071 67.9584 34.4058 67.9584 34.404C67.9584 34.3759 67.9629 34.3495 67.9624 34.3214L67.6782 25.4004ZM58.9501 58.2759L58.8747 65.3375C58.8684 65.9312 58.6287 66.4901 58.2001 66.9093C57.7711 67.3285 57.1992 67.5495 56.6144 67.5495L44.8978 67.4241C44.3032 67.4178 43.7452 67.1781 43.326 66.7495C42.9068 66.3214 42.6791 65.758 42.6853 65.1638L42.7608 58.1022C42.767 57.5085 43.0067 56.9495 43.4353 56.5303C43.8576 56.1169 44.4112 55.8897 44.9965 55.8897H45.0215L56.738 56.0152C57.9715 56.0285 58.9635 57.0428 58.95 58.2758L58.9501 58.2759ZM64.0028 44.6999L58.5059 50.1963C57.4037 51.2985 56.6996 52.6968 56.4689 54.2432L56.3979 54.7307L45.4002 54.6128L45.5229 49.1177C45.5448 48.182 45.9225 47.3008 46.5868 46.6369L49.8413 43.3824C50.3667 42.8574 51.0579 42.4998 51.7912 42.3757L53.7336 42.0405C53.7559 42.0364 53.7734 42.0226 53.7952 42.0168C53.8376 42.0052 53.8765 41.9905 53.9162 41.9699C53.9551 41.9494 53.989 41.9266 54.0225 41.8994C54.0403 41.8851 54.0613 41.8788 54.0783 41.8623L59.0202 36.9164C59.6805 36.2561 60.8448 36.2566 61.5055 36.9164C62.1903 37.6012 62.1903 38.7159 61.5055 39.4007L55.8273 45.0789C55.5769 45.3293 55.5769 45.7338 55.8273 45.9838C55.9523 46.1088 56.1161 46.1713 56.28 46.1713C56.4438 46.1713 56.6077 46.1088 56.7326 45.9838L62.4108 40.3056C63.5947 39.1218 63.5947 37.1954 62.4108 36.0115C62.2162 35.8168 61.9934 35.6641 61.7599 35.5307L62.5965 32.1459C62.6037 32.1164 62.597 32.0883 62.6006 32.0593C62.6037 32.0294 62.6166 32.0021 62.6153 31.9718L62.4733 27.5896C62.4229 25.9334 63.7282 24.5405 65.3764 24.4861C65.6608 24.4802 65.9166 24.5834 66.1103 24.7771C66.2916 24.9584 66.392 25.1892 66.401 25.4427L66.6845 34.3182L66.038 40.4481C65.8684 42.0467 65.1465 43.5566 64.0027 44.6999L64.0028 44.6999Z" fill="#53C5E2"/>
<path d="M57.9556 59.1615C57.9556 60.0789 57.2118 60.8231 56.294 60.8231C55.3766 60.8231 54.6328 60.0789 54.6328 59.1615C54.6328 58.2441 55.3766 57.4999 56.294 57.4999C57.2118 57.4999 57.9556 58.2441 57.9556 59.1615Z" fill="#53C5E2"/>
<path d="M37.4613 55.6153C37.014 55.1773 36.4725 54.8934 35.8845 54.7416L35.7578 49.0889C35.7287 47.8224 35.218 46.63 34.3198 45.7323L31.0653 42.4777C30.3541 41.7661 29.4166 41.2822 28.4287 41.1152L26.6868 40.8143L21.8872 36.0117C21.3149 35.4394 20.5528 35.1247 19.7399 35.1247C19.6471 35.1247 19.5587 35.1434 19.4672 35.151L18.6703 31.9247L18.81 27.6282C18.8819 25.268 17.0212 23.2845 14.6552 23.206C14.0342 23.1997 13.4243 23.4359 12.9891 23.8716C12.5802 24.2801 12.344 24.8225 12.3235 25.4024L12.0391 34.3292C12.0387 34.356 12.0422 34.3819 12.0431 34.4086V34.41V34.4131C12.0445 34.6301 12.0672 34.8421 12.1096 35.0475L12.6931 40.5828C12.8909 42.4716 13.7436 44.2556 15.0936 45.606L20.5905 51.1025C21.4972 52.0092 22.0767 53.1601 22.2655 54.4284L22.3302 54.8717C20.8414 55.294 19.7543 56.6694 19.7712 58.2891L19.8467 65.3507C19.8569 66.2864 20.2324 67.1645 20.9052 67.8235C21.5699 68.473 22.4409 68.8297 23.3618 68.8297H23.4007L35.1172 68.7043C36.053 68.694 36.9315 68.3186 37.59 67.6458C38.2485 66.973 38.6057 66.0868 38.5963 65.1512L38.5209 58.0896C38.5106 57.1525 38.1342 56.2744 37.4615 55.6155L37.4613 55.6153ZM21.4956 50.1975L15.9987 44.701C14.8549 43.5568 14.1327 42.0474 13.9661 40.4488L13.3197 34.3188L13.6032 25.4465C13.6121 25.1907 13.7126 24.9594 13.8943 24.7777C14.0876 24.5844 14.3536 24.4764 14.6202 24.4871C16.275 24.5416 17.5809 25.934 17.5305 27.5897L17.3885 31.9732C17.3872 32.004 17.4001 32.0307 17.4032 32.0607C17.4064 32.0901 17.4001 32.1182 17.4072 32.1473L18.2439 35.5321C18.0104 35.6651 17.7876 35.8173 17.593 36.0129C16.4091 37.1967 16.4091 39.1231 17.593 40.307L23.2711 45.9852C23.3961 46.1102 23.56 46.1727 23.7238 46.1727C23.8876 46.1727 24.0515 46.1102 24.1765 45.9852C24.4269 45.7348 24.4269 45.3303 24.1765 45.0803L18.4983 39.4021C17.8135 38.7173 17.8135 37.6026 18.4983 36.9178C19.1581 36.258 20.3229 36.258 20.9827 36.9178L25.9255 41.8637C25.942 41.8802 25.9635 41.886 25.9813 41.9008C26.0148 41.9276 26.0487 41.9512 26.0876 41.9713C26.1273 41.9918 26.1661 42.0066 26.2085 42.0182C26.2304 42.0244 26.2469 42.0378 26.2702 42.0418L28.2144 42.378C28.9452 42.5017 29.6371 42.8593 30.1617 43.3843L33.4162 46.6388C34.0805 47.3031 34.4573 48.1843 34.48 49.1196L34.6028 54.6151L23.6051 54.733L23.5341 54.2432C23.302 52.6977 22.598 51.299 21.4957 50.1973L21.4956 50.1975ZM36.6751 66.7495C36.2559 67.1785 35.6978 67.4178 35.1032 67.424L23.3866 67.5495C22.7768 67.5611 22.2295 67.3285 21.8009 66.9093C21.3719 66.4901 21.1326 65.9311 21.1263 65.3374L21.0509 58.2758C21.0375 57.0423 22.0299 56.0289 23.2633 56.0156L34.9799 55.8901C35.5973 55.9035 36.1375 56.1115 36.5656 56.5303C36.9946 56.9495 37.2339 57.5084 37.2402 58.1022L37.3156 65.1638C37.3214 65.758 37.0942 66.3214 36.675 66.7495L36.6751 66.7495Z" fill="#53C5E2"/>
<path d="M25.3677 59.1616C25.3677 60.079 24.6239 60.8232 23.7065 60.8232C22.7887 60.8232 22.0449 60.079 22.0449 59.1616C22.0449 58.2442 22.7887 57.5 23.7065 57.5C24.6239 57.5 25.3677 58.2442 25.3677 59.1616Z" fill="#53C5E2"/>
<path d="M42.9955 39.069V36.9904C43.9299 36.7381 44.8187 36.3707 45.6496 35.8917L47.1214 37.3636C47.4554 37.6975 47.8947 37.8649 48.3334 37.8649C48.7722 37.8649 49.2107 37.698 49.5451 37.3636L51.358 35.5507C52.0263 34.8824 52.0263 33.7954 51.358 33.127L49.8861 31.6551C50.3647 30.8239 50.733 29.9355 50.9843 29.0011H53.0625C54.0089 29.0011 54.7782 28.231 54.7782 27.2854V24.7287C54.7782 23.7823 54.0081 23.0131 53.0625 23.0131H50.9843C50.7321 22.0787 50.3647 21.1903 49.8861 20.359L51.358 18.8871C52.0263 18.2188 52.0263 17.1318 51.358 16.4635L49.5451 14.6496C48.8768 13.9822 47.7898 13.9827 47.1214 14.6496L45.6496 16.1215C44.8183 15.643 43.9299 15.2746 42.9955 15.0229V12.9442C42.9955 11.9987 42.2254 11.2286 41.2794 11.2286H38.7227C37.7763 11.2286 37.007 11.9987 37.007 12.9442V15.0229C36.0727 15.2751 35.1843 15.6425 34.353 16.1215L32.8811 14.6487C32.2128 13.9813 31.1258 13.9818 30.4574 14.6487L28.6445 16.4616C27.9762 17.1299 27.9762 18.217 28.6445 18.8853L30.1164 20.3572C29.6378 21.1884 29.2695 22.0768 29.0182 23.0112L26.9383 23.0121C25.9923 23.0121 25.2227 23.7822 25.2227 24.7278V27.2845C25.2227 28.2309 25.9927 29.0001 26.9383 29.0001H29.0169C29.2692 29.9345 29.6366 30.8229 30.1152 31.6542L28.6433 33.1261C27.975 33.7944 27.975 34.8814 28.6433 35.5497L30.4562 37.3626C30.7901 37.6966 31.2294 37.864 31.6678 37.864C32.1067 37.864 32.546 37.697 32.8798 37.3626L34.3517 35.8908C35.183 36.3693 36.0714 36.7376 37.0058 36.9894L37.0062 39.0689C37.0062 40.0148 37.7763 40.7845 38.7219 40.7845H41.2786C42.2255 40.7845 42.9955 40.0144 42.9955 39.0689L42.9955 39.069ZM41.7156 39.069C41.7156 39.3136 41.5241 39.5047 41.2799 39.5047H38.7232C38.4786 39.5047 38.2875 39.3132 38.2875 39.069V36.4994C38.2875 36.4797 38.2777 36.4623 38.2759 36.4422C38.2719 36.398 38.263 36.357 38.2505 36.315C38.2388 36.2762 38.2255 36.24 38.2071 36.2047C38.188 36.1681 38.1647 36.1364 38.1393 36.1043C38.1138 36.0722 38.0875 36.0436 38.0563 36.0168C38.0254 35.9905 37.9929 35.9699 37.9571 35.9503C37.9192 35.9293 37.8817 35.9119 37.8393 35.8985C37.8201 35.8922 37.8054 35.8793 37.7857 35.8748C36.6415 35.6213 35.5674 35.1771 34.5942 34.5535C34.5768 34.5427 34.5571 34.5414 34.5393 34.5325C34.5004 34.5119 34.4611 34.4972 34.4196 34.4856C34.3799 34.474 34.3415 34.466 34.3013 34.4624C34.2611 34.4593 34.2218 34.4611 34.1817 34.4651C34.1402 34.4695 34.1018 34.4758 34.062 34.4883C34.0236 34.4999 33.9893 34.5164 33.9531 34.5356C33.9147 34.5561 33.8794 34.5785 33.8455 34.6075C33.8303 34.6204 33.8111 34.6253 33.7964 34.6401L31.9767 36.4597C31.8071 36.6285 31.5325 36.628 31.3638 36.4597L29.5509 34.6468C29.4696 34.5656 29.425 34.4566 29.425 34.3401C29.425 34.2236 29.4696 34.1142 29.5509 34.0334L31.3705 32.2138C31.3853 32.199 31.3902 32.1803 31.4031 32.1647C31.4312 32.1307 31.4545 32.0955 31.4741 32.0571C31.4933 32.0214 31.5098 31.9861 31.5214 31.9477C31.5335 31.9088 31.5402 31.8696 31.5446 31.8285C31.5491 31.7874 31.5509 31.7486 31.5473 31.7075C31.5442 31.6673 31.5357 31.6303 31.5241 31.5905C31.5125 31.5481 31.4978 31.5093 31.4772 31.47C31.4683 31.4522 31.467 31.4321 31.4562 31.4151C30.8321 30.4414 30.3879 29.3678 30.1352 28.2236C30.1308 28.2039 30.1174 28.1892 30.1116 28.17C30.0982 28.1285 30.0808 28.0905 30.0598 28.0535C30.0392 28.0169 30.0183 27.9838 29.9919 27.9521C29.9665 27.9222 29.9383 27.8972 29.9075 27.8722C29.8736 27.8445 29.8397 27.8204 29.8013 27.8003C29.7687 27.7829 29.7348 27.7713 29.6991 27.7602C29.6544 27.7459 29.6107 27.7365 29.5633 27.7325C29.5446 27.7307 29.5294 27.7218 29.5102 27.7218L26.9383 27.7209C26.6937 27.7209 26.5026 27.5294 26.5026 27.2852V24.7285C26.5026 24.4838 26.6941 24.2928 26.9383 24.2928H29.5079H29.5084C29.5892 24.2928 29.6664 24.2749 29.7396 24.2459C29.7646 24.2361 29.7852 24.2204 29.8088 24.2075C29.8535 24.1834 29.8959 24.1575 29.9338 24.1231C29.9562 24.1035 29.9736 24.0803 29.9928 24.0571C30.0227 24.0213 30.0499 23.9834 30.0713 23.9405C30.0861 23.9115 30.0977 23.8829 30.1079 23.8517C30.1151 23.8307 30.1285 23.8129 30.1334 23.7901C30.3861 22.6459 30.8312 21.5718 31.4544 20.5985C31.4651 20.5811 31.4665 20.5615 31.4754 20.5436C31.4959 20.5048 31.5107 20.4655 31.5223 20.4231C31.533 20.3843 31.5415 20.3463 31.5455 20.3061C31.5486 20.2651 31.5473 20.2262 31.5428 20.1852C31.5383 20.1441 31.5321 20.1057 31.5196 20.066C31.508 20.0276 31.4915 19.9923 31.4723 19.9566C31.4517 19.9182 31.4294 19.8829 31.4013 19.849C31.3883 19.8338 31.3834 19.8146 31.3687 19.7999L29.549 17.9802C29.4678 17.899 29.4231 17.79 29.4231 17.6735C29.4231 17.557 29.4678 17.4481 29.549 17.3668L31.362 15.5539C31.5307 15.3852 31.8061 15.3852 31.9749 15.5539L33.7946 17.3736C33.7972 17.3763 33.8004 17.3767 33.803 17.3794C33.8575 17.4325 33.92 17.4722 33.9874 17.5017C34.0026 17.5088 34.0182 17.5138 34.0343 17.5196C34.1026 17.5437 34.174 17.5606 34.2464 17.5611H34.2477H34.2481C34.3205 17.5611 34.3923 17.5446 34.462 17.5196C34.4825 17.5124 34.5008 17.5021 34.5209 17.4928C34.5446 17.4812 34.57 17.4749 34.5928 17.4602C35.5664 16.8361 36.6401 16.3919 37.7843 16.1388C37.804 16.1343 37.8187 16.121 37.8379 16.1151C37.8803 16.1018 37.9178 16.0843 37.9557 16.0634C37.9915 16.0437 38.0241 16.0223 38.0549 15.9968C38.0861 15.9701 38.1124 15.941 38.1379 15.9093C38.1633 15.8772 38.1866 15.8455 38.2057 15.8089C38.2245 15.7736 38.237 15.737 38.2491 15.6986C38.262 15.6571 38.2709 15.616 38.2745 15.5714C38.2763 15.5518 38.2861 15.5348 38.2861 15.5143V12.9447C38.2861 12.7005 38.4781 12.5089 38.7223 12.5089H41.279C41.5236 12.5089 41.7147 12.7005 41.7147 12.9447V15.5143C41.7147 15.5339 41.7245 15.5513 41.7263 15.5714C41.7303 15.6156 41.7392 15.6567 41.7517 15.6986C41.7633 15.7375 41.7767 15.7736 41.795 15.8089C41.8142 15.8455 41.8374 15.8772 41.8629 15.9093C41.8883 15.9415 41.9147 15.9701 41.9459 15.9968C41.9767 16.0232 42.0093 16.0437 42.045 16.0634C42.083 16.0843 42.1205 16.1018 42.1629 16.1151C42.1821 16.1214 42.1968 16.1343 42.2164 16.1388C43.3607 16.3924 44.4347 16.8366 45.408 17.4602C45.4312 17.4749 45.4562 17.4812 45.4799 17.4928C45.4995 17.5026 45.5183 17.5124 45.5388 17.5196C45.6084 17.5446 45.6803 17.5611 45.7526 17.5611H45.7531H45.7544C45.8272 17.5611 45.8977 17.5437 45.9665 17.5196C45.9825 17.5138 45.9973 17.5088 46.0134 17.5017C46.0808 17.4718 46.1433 17.4321 46.1977 17.3794C46.2004 17.3767 46.2035 17.3763 46.2062 17.3736L48.0259 15.5539C48.1946 15.3852 48.4701 15.3852 48.6388 15.5539L50.4517 17.3668C50.533 17.4481 50.5776 17.557 50.5776 17.6735C50.5776 17.79 50.533 17.8994 50.4517 17.9802L48.6321 19.7999C48.6173 19.8146 48.6124 19.8334 48.5995 19.849C48.5714 19.8829 48.5481 19.9182 48.5285 19.9566C48.5093 19.9923 48.4928 20.0276 48.4812 20.066C48.4691 20.1048 48.4624 20.1441 48.458 20.1852C48.4535 20.2262 48.4517 20.2651 48.4553 20.3061C48.4584 20.3463 48.4669 20.3834 48.4785 20.4231C48.4901 20.4655 48.5048 20.5044 48.5254 20.5436C48.5343 20.5615 48.5356 20.5816 48.5464 20.5985C49.1705 21.5722 49.6147 22.6459 49.8674 23.7901C49.8723 23.8124 49.8852 23.8303 49.8928 23.8517C49.9031 23.8829 49.9147 23.9111 49.9294 23.9401C49.9518 23.9829 49.9781 24.0213 50.0089 24.0571C50.0281 24.0803 50.0455 24.1017 50.0669 24.1222C50.1053 24.1566 50.1477 24.1829 50.1928 24.2075C50.2161 24.2204 50.2361 24.2356 50.2607 24.2454C50.3335 24.2745 50.4111 24.2923 50.4919 24.2923H50.4924H53.062C53.3066 24.2923 53.4977 24.4838 53.4977 24.728V27.2847C53.4977 27.5294 53.3062 27.7204 53.062 27.7204H50.4924C50.4727 27.7204 50.4558 27.7303 50.4366 27.7311C50.391 27.7352 50.3495 27.7441 50.3067 27.7575C50.2687 27.7691 50.233 27.7816 50.1986 27.8003C50.1616 27.82 50.129 27.8432 50.0964 27.8695C50.0652 27.895 50.0361 27.9209 50.0098 27.9521C49.9835 27.9829 49.9625 28.016 49.9424 28.0521C49.9214 28.0901 49.904 28.1271 49.8906 28.1691C49.8844 28.1883 49.8714 28.203 49.8669 28.2227C49.6143 29.3669 49.1692 30.4409 48.5459 31.4142C48.5352 31.4316 48.5339 31.4513 48.5249 31.4691C48.5044 31.508 48.4897 31.5472 48.4781 31.5897C48.4673 31.6285 48.4589 31.6664 48.4548 31.7066C48.4517 31.7477 48.4531 31.7865 48.4575 31.8276C48.462 31.8687 48.4682 31.9071 48.4807 31.9468C48.4923 31.9852 48.5089 32.0205 48.5281 32.0562C48.5486 32.0946 48.5709 32.1298 48.599 32.1638C48.612 32.1789 48.6169 32.1981 48.6316 32.2129L50.4513 34.0325C50.5325 34.1138 50.5772 34.2227 50.5772 34.3392C50.5772 34.4557 50.5325 34.5647 50.4513 34.6459L48.6384 36.4588C48.4696 36.6276 48.1951 36.6285 48.0254 36.4588L46.2058 34.6392C46.1915 34.6249 46.1723 34.6195 46.1571 34.6066C46.1227 34.5776 46.0875 34.5548 46.0482 34.5343C46.0129 34.5155 45.9785 34.4999 45.9406 34.4874C45.9004 34.4744 45.8607 34.4682 45.8192 34.4637C45.7794 34.4593 45.741 34.4579 45.7013 34.4611C45.6602 34.4642 45.6214 34.4731 45.5808 34.4843C45.5393 34.4959 45.5013 34.5106 45.4625 34.5302C45.4446 34.5392 45.4245 34.5405 45.4076 34.5521C44.4339 35.1762 43.3602 35.6204 42.216 35.8735C42.1964 35.878 42.1816 35.8913 42.1624 35.8972C42.12 35.9105 42.0825 35.928 42.0446 35.9489C42.0089 35.9686 41.9763 35.99 41.9455 36.0155C41.9142 36.0422 41.8879 36.0713 41.8624 36.103C41.837 36.1351 41.8138 36.1668 41.7946 36.2034C41.7758 36.2387 41.7633 36.2753 41.7513 36.3137C41.7383 36.3552 41.7294 36.3963 41.7258 36.4409C41.7241 36.4605 41.7142 36.4775 41.7142 36.498V39.069L41.7156 39.069Z" fill="#53C5E2"/>
<path d="M46.817 26.0062C46.817 22.2481 43.7598 19.1914 40.0022 19.1914C36.2446 19.1914 33.1875 22.2485 33.1875 26.0062C33.1875 29.7633 36.2442 32.8214 40.0022 32.8214C43.7603 32.8214 46.817 29.7642 46.817 26.0062ZM40.0022 31.5415C36.95 31.5415 34.4674 29.0584 34.4674 26.0066C34.4674 22.9553 36.9505 20.4717 40.0022 20.4717C43.0536 20.4717 45.5371 22.9548 45.5371 26.0066C45.5371 29.0584 43.0545 31.5415 40.0022 31.5415Z" fill="#53C5E2"/>
</svg>
