<svg width="80" height="80" viewBox="0 0 80 80" fill="none" xmlns="http://www.w3.org/2000/svg">
<path d="M43.8599 9.00034H36.1403C33.7532 9.00034 31.464 9.94856 29.7759 11.6365C28.0884 13.324 27.1403 15.6133 27.1403 18.0003V24.4802H20.9403L17.4902 71.0002H62.4902L59.0598 24.4299H52.8201V18C52.8201 15.6201 51.8772 13.3366 50.1982 11.6501C48.5188 9.96343 46.2402 9.01074 43.8598 9L43.8599 9.00034ZM29.1799 18.0003C29.1933 16.1526 29.9366 14.3847 31.2478 13.083C32.5595 11.7811 34.3322 11.0504 36.18 11.0504H43.9001C45.7568 11.0504 47.5371 11.7879 48.8497 13.1008C50.1626 14.4133 50.9001 16.1936 50.9001 18.0504V24.2906H29.1801L29.1799 18.0003ZM60.3594 69.0003H19.6394L22.7893 26.4301H57.2088L60.3594 69.0003Z" fill="#53C5E2"/>
<path d="M31.7502 45.5798C33.3444 45.5798 34.873 44.9454 35.9989 43.8163C37.1243 42.6878 37.7542 41.1569 37.7498 39.5632C37.7453 37.969 37.1069 36.4418 35.9748 35.3194C34.8431 34.1971 33.3109 33.5712 31.7167 33.5797C30.1226 33.5886 28.5975 34.2314 27.4779 35.3667C26.3587 36.5016 25.7368 38.0355 25.7502 39.6297C25.7636 41.2123 26.4015 42.7257 27.5252 43.84C28.6488 44.9547 30.1676 45.5798 31.7502 45.5798ZM31.7502 35.6699C32.8109 35.6699 33.8284 36.0914 34.5788 36.8414C35.3288 37.5914 35.7502 38.6088 35.7502 39.6699C35.7502 40.7307 35.3288 41.7481 34.5788 42.4981C33.8283 43.2485 32.8109 43.6699 31.7502 43.6699C30.6895 43.6699 29.672 43.2485 28.9216 42.4981C28.1716 41.7481 27.7502 40.7306 27.7502 39.6699C27.7502 38.6088 28.1716 37.5913 28.9216 36.8414C29.6721 36.0914 30.6895 35.6699 31.7502 35.6699Z" fill="#53C5E2"/>
<path d="M42.299 52.8301C42.2856 54.4242 42.9075 55.9582 44.0267 57.093C45.1463 58.2283 46.6714 58.8712 48.2656 58.8801C49.8597 58.889 51.3918 58.2632 52.5236 57.1403C53.6558 56.018 54.2941 54.4912 54.2986 52.897C54.3031 51.3029 53.6731 49.7725 52.5477 48.6434C51.4218 47.5149 49.8932 46.88 48.299 46.88C46.7164 46.88 45.1977 47.5055 44.074 48.6198C42.9504 49.7341 42.3124 51.2474 42.299 52.8301ZM52.2089 52.8301C52.2223 53.8939 51.8115 54.9189 51.0674 55.6787C50.3227 56.439 49.3067 56.8712 48.2428 56.8801C47.1789 56.889 46.1557 56.4739 45.3985 55.7265C44.6419 54.9787 44.2137 53.9609 44.2093 52.897C44.2048 51.8332 44.6245 50.8118 45.3749 50.0577C46.1253 49.3041 47.1454 48.88 48.2088 48.88C49.2611 48.88 50.2714 49.2947 51.02 50.0341C51.7687 50.7734 52.1959 51.7778 52.2088 52.8301H52.2089Z" fill="#53C5E2"/>
<path d="M29.3867 55.4243L49.1924 35.6186L50.6067 37.0329L30.801 56.8386L29.3867 55.4243Z" fill="#53C5E2"/>
</svg>
