<svg width="80" height="80" viewBox="0 0 80 80" fill="none" xmlns="http://www.w3.org/2000/svg">
<path d="M39.7855 16.1072C37.7401 16.1072 36.0762 17.7711 36.0762 19.8166C36.0762 21.8621 37.7401 23.526 39.7855 23.526C41.831 23.526 43.4935 21.8621 43.4935 19.8166C43.494 17.7711 41.831 16.1072 39.7855 16.1072ZM39.7855 22.2461C38.4453 22.2461 37.3561 21.1555 37.3561 19.8166C37.3561 18.4777 38.4467 17.3871 39.7855 17.3871C41.1244 17.3871 42.2137 18.4777 42.2137 19.8166C42.2141 21.1555 41.1248 22.2461 39.7855 22.2461Z" fill="#53C5E2"/>
<path d="M28.8376 14.8321H24.6675C24.3144 14.8321 24.0273 15.1187 24.0273 15.4723V24.1599C24.0273 24.513 24.314 24.8 24.6675 24.8H28.8376C29.1907 24.8 29.4778 24.5134 29.4778 24.1599V15.4723C29.4778 15.1187 29.1921 14.8321 28.8376 14.8321ZM28.1978 23.5209H25.3077V16.1139H28.1978V23.5209Z" fill="#53C5E2"/>
<path d="M55.7961 15.4848H52.642V12.4616C52.642 12.1085 52.3554 11.8214 52.0019 11.8214H31.0704V8.69733C31.0704 8.34421 30.7838 8.05714 30.4303 8.05714H21.4253C21.0722 8.05714 20.7852 8.34375 20.7852 8.69733V27.1716C20.7852 27.5247 21.0718 27.8118 21.4253 27.8118H31.2954V31.2819C29.4123 32.8421 28.212 35.1975 28.212 37.8278C28.212 38.1809 28.4986 38.468 28.8521 38.468H29.6419L22.0258 69.324C21.8851 69.895 21.9731 70.4874 22.2794 70.9931C22.5838 71.4976 23.0664 71.8521 23.6388 71.9927C23.8156 72.036 23.9919 72.0579 24.17 72.0579C24.5669 72.0579 24.9571 71.9503 25.3053 71.7391C25.8098 71.4355 26.1642 70.9534 26.3048 70.381L34.1821 38.4679H34.5111V69.853C34.5111 71.0678 35.4991 72.057 36.7151 72.057C37.9312 72.057 38.9191 71.0691 38.9191 69.853V38.4679H39.2495L47.1267 70.3799C47.2665 70.9522 47.6223 71.4348 48.125 71.7393C48.4732 71.9505 48.8633 72.0581 49.2616 72.0581C49.4383 72.0581 49.616 72.0362 49.7928 71.9929C50.3651 71.8523 50.8477 71.4951 51.1522 70.9907C51.4558 70.4862 51.5464 69.8951 51.4031 69.3242L43.7897 38.4682H44.5781C44.9313 38.4682 45.2183 38.1816 45.2183 37.828C45.2183 35.1976 44.0179 32.8423 42.1349 31.282V27.812H52.005C52.3581 27.812 52.6451 27.5254 52.6451 27.1718V24.1486H55.7992C57.6858 24.1486 59.2193 22.6137 59.2193 20.7285V18.9044C59.2162 17.0187 57.6818 15.4852 55.7961 15.4852V15.4848ZM22.0658 9.33705H29.7908V11.8214H22.0658V9.33705ZM25.0609 70.0742C25.002 70.3135 24.8538 70.5157 24.6422 70.6425C24.4296 70.7693 24.1788 70.8037 23.9444 70.7488C23.7038 70.6885 23.5015 70.5403 23.3747 70.3291C23.2466 70.1179 23.2096 69.8711 23.2685 69.6304L30.96 38.467H32.8636L25.0609 70.0742ZM37.6369 69.8528C37.6369 70.3608 37.2222 70.7769 36.7128 70.7769C36.2034 70.7769 35.7887 70.3621 35.7887 69.8528V38.4676H37.6356V69.8528H37.6369ZM50.1592 69.6313C50.2195 69.8706 50.1824 70.1179 50.0543 70.3291C49.9262 70.5403 49.7239 70.6889 49.486 70.7488C49.2467 70.8077 48.9985 70.7693 48.7873 70.6425C48.5761 70.5144 48.4275 70.3122 48.3686 70.0729L40.5667 38.4671H42.469L50.1592 69.6313ZM43.9039 37.1868H29.5244C29.8495 33.5041 32.9472 30.6051 36.7128 30.6051C40.4798 30.6051 43.5788 33.5041 43.9039 37.1868ZM40.8526 30.4064C39.6263 29.7189 38.216 29.3247 36.7142 29.3247C35.2128 29.3247 33.8022 29.7203 32.5771 30.4064V27.8104H40.8535L40.8539 30.4064H40.8526ZM51.3624 26.5305H22.0652L22.0657 13.1008H51.3617L51.3624 26.5305ZM57.9364 20.727C57.9364 21.9073 56.9766 22.8672 55.7962 22.8672H52.6422V16.7628H55.7962C56.9766 16.7628 57.9364 17.7226 57.9364 18.903V20.727Z" fill="#53C5E2"/>
</svg>
