<svg width="80" height="80" viewBox="0 0 80 80" fill="none" xmlns="http://www.w3.org/2000/svg">
<path d="M57.002 43.9998C58.6562 43.9998 60.002 42.6541 60.002 40.9998C60.002 39.3456 58.6562 37.9998 57.002 37.9998C55.3477 37.9998 54.002 39.3456 54.002 40.9998C54.002 42.6541 55.3477 43.9998 57.002 43.9998ZM57.002 39.9998C57.5533 39.9998 58.002 40.4485 58.002 40.9998C58.002 41.5511 57.5533 41.9998 57.002 41.9998C56.4507 41.9998 56.002 41.5511 56.002 40.9998C56.002 40.4485 56.4507 39.9998 57.002 39.9998Z" fill="#53C5E2"/>
<path d="M64.0003 24.9997H55.0003V15.9997C55.0003 15.6901 54.8567 15.3976 54.6116 15.2081C54.3665 15.0192 54.0462 14.9547 53.7478 15.0319L15.7476 24.9494C15.4355 25.031 15.1968 25.2986 15.0806 25.6076C15.0801 25.6091 15.0791 25.6106 15.0781 25.612C15.0313 25.738 15 25.8684 15 25.9997V48.2186C14.3599 49.6849 14 51.3007 14 52.9999C14 59.6167 19.3833 65 26.0001 65C31.213 65 35.6476 61.6529 37.2999 56.9999H64.0001C64.5523 56.9999 65.0001 56.5522 65.0001 55.9999V25.9997C65.0001 25.4475 64.5523 24.9997 64.0001 24.9997L64.0003 24.9997ZM53.0003 17.294V24.9997H23.4751L53.0003 17.294ZM26.0001 62.9993C20.4859 62.9993 16 58.5134 16 52.9993C16 51.5056 16.3384 50.093 16.9278 48.8186C17.124 48.3938 17.3472 47.9866 17.5957 47.5999C17.6016 47.5906 17.607 47.5808 17.6133 47.5711C17.8658 47.1819 18.1451 46.8137 18.4453 46.467C18.4683 46.4407 18.4927 46.4158 18.5157 46.3899C18.8052 46.0623 19.1138 45.7542 19.4419 45.4685C19.4581 45.4543 19.4732 45.4397 19.4893 45.4255C19.8384 45.1252 20.2071 44.8494 20.5928 44.6003C20.6041 44.593 20.6158 44.5867 20.627 44.5793C20.9981 44.342 21.3853 44.1311 21.7847 43.9441C21.815 43.9299 21.8443 43.9143 21.8746 43.9006C22.2891 43.7117 22.7159 43.5491 23.1548 43.4172C23.1685 43.4133 23.1827 43.4104 23.1958 43.4065C23.5899 43.2903 23.9942 43.2058 24.4029 43.1389C24.4986 43.1233 24.5938 43.1076 24.69 43.095C25.1216 43.0373 25.5577 42.9993 26 42.9993C31.5142 42.9993 36.0001 47.4852 36.0001 52.9993C36.0001 53.4236 35.9659 53.8514 35.9088 54.2791C35.9005 54.3455 35.8882 54.4109 35.8785 54.4768C35.8155 54.887 35.7325 55.2971 35.6177 55.7053C34.4336 59.907 30.5757 62.9994 26.0001 62.9994L26.0001 62.9993ZM37.8273 54.9993C37.8463 54.8894 37.8541 54.7796 37.8698 54.6697C37.8966 54.4768 37.9269 54.2854 37.945 54.0901C37.9791 53.7254 38.0001 53.3616 38.0001 52.9993C38.0001 46.3825 32.6169 40.9992 26.0001 40.9992C25.5694 40.9992 25.1446 41.0246 24.7257 41.069C24.6573 41.0763 24.5904 41.0915 24.5225 41.1003C24.1666 41.1442 23.8145 41.1994 23.4688 41.2736C23.4097 41.2863 23.3531 41.3049 23.2945 41.3185C22.94 41.4006 22.5909 41.4953 22.2491 41.6081C22.1973 41.6252 22.147 41.6467 22.0953 41.6647C21.7515 41.7834 21.4146 41.9152 21.0855 42.0637C21.0303 42.0886 20.9766 42.1169 20.9215 42.1428C20.6026 42.2922 20.2916 42.4538 19.9888 42.6301C19.9249 42.6672 19.8629 42.7067 19.7999 42.7448C19.5128 42.9191 19.234 43.1032 18.9634 43.3C18.8926 43.3513 18.8233 43.404 18.754 43.4567C18.4976 43.6515 18.2505 43.8561 18.0108 44.0705C17.939 44.135 17.8672 44.1989 17.7969 44.2648C17.565 44.4831 17.3428 44.7106 17.1289 44.947C17.0874 44.9919 17.0406 45.0319 17.0001 45.0783V26.9994H63.0003V34.9995H50.0003C49.448 34.9995 49.0003 35.4473 49.0003 35.9995V45.9996C49.0003 46.5518 49.448 46.9996 50.0003 46.9996H63.0003V54.9996L37.8273 54.9993ZM63 44.9992H50.9999V36.9992H63V44.9992Z" fill="#53C5E2"/>
<path d="M30.207 48.2924C29.8164 47.9017 29.1836 47.9017 28.793 48.2924L25.5 51.5854L22.207 48.2924C21.8164 47.9017 21.1835 47.9017 20.793 48.2924C20.4024 48.683 20.4023 49.3158 20.793 49.7064L24.086 52.9994L20.793 56.2924C20.4023 56.6831 20.4023 57.3159 20.793 57.7064C20.9883 57.9017 21.2441 57.9994 21.5 57.9994C21.7559 57.9994 22.0117 57.9018 22.207 57.7064L25.5001 54.4134L28.7931 57.7064C28.9884 57.9017 29.2443 57.9994 29.5001 57.9994C29.756 57.9994 30.0118 57.9018 30.2071 57.7064C30.5978 57.3158 30.5978 56.683 30.2071 56.2924L26.9141 52.9994L30.2071 49.7064C30.5978 49.3158 30.5978 48.6829 30.2071 48.2924H30.207Z" fill="#53C5E2"/>
</svg>
