<svg width="12" height="7" viewBox="0 0 12 7" fill="none" xmlns="http://www.w3.org/2000/svg">
<path d="M11.3744 1.70711C11.7649 1.31658 11.7649 0.683417 11.3744 0.292893C10.9839 -0.0976311 10.3507 -0.0976311 9.96021 0.292893L11.3744 1.70711ZM6.00065 5.66667L5.29354 6.37377C5.48108 6.56131 5.73543 6.66667 6.00065 6.66667C6.26587 6.66667 6.52022 6.56131 6.70776 6.37377L6.00065 5.66667ZM2.04109 0.292893C1.65057 -0.0976311 1.0174 -0.0976311 0.626878 0.292893C0.236353 0.683417 0.236353 1.31658 0.626878 1.70711L2.04109 0.292893ZM9.96021 0.292893L5.29354 4.95956L6.70776 6.37377L11.3744 1.70711L9.96021 0.292893ZM6.70776 4.95956L2.04109 0.292893L0.626878 1.70711L5.29354 6.37377L6.70776 4.95956Z" fill="#414042"/>
</svg>
