<svg width="80" height="80" viewBox="0 0 80 80" fill="none" xmlns="http://www.w3.org/2000/svg">
<path d="M10 15.0571C9.44688 15.0571 9 14.6103 9 14.0571C9 10.7482 11.6911 8.05714 15 8.05714C15.5531 8.05714 16 8.50402 16 9.05714C16 9.61026 15.5531 10.0571 15 10.0571C12.7942 10.0571 11 11.8513 11 14.0571C11 14.6103 10.5531 15.0571 10 15.0571Z" fill="#53C5E2"/>
<path d="M60 15.0571C59.4469 15.0571 59 14.6103 59 14.0571C59 11.8513 57.2058 10.0571 55 10.0571C52.7942 10.0571 51 11.8513 51 14.0571C51 14.6103 50.5531 15.0571 50 15.0571C49.4469 15.0571 49 14.6103 49 14.0571C49 10.7482 51.6911 8.05714 55 8.05714C58.3089 8.05714 61 10.7482 61 14.0571C61 14.6103 60.5531 15.0571 60 15.0571Z" fill="#53C5E2"/>
<path d="M55 10.0571H15C14.4469 10.0571 14 9.61026 14 9.05714C14 8.50402 14.4469 8.05714 15 8.05714H55C55.5531 8.05714 56 8.50402 56 9.05714C56 9.61026 55.5531 10.0571 55 10.0571Z" fill="#53C5E2"/>
<path d="M50 15.0571H10C9.44688 15.0571 9 14.6103 9 14.0571C9 13.504 9.44688 13.0571 10 13.0571H50C50.5531 13.0571 51 13.504 51 14.0571C51 14.6103 50.5531 15.0571 50 15.0571Z" fill="#53C5E2"/>
<path d="M25 72.0571C21.6911 72.0571 19 69.3661 19 66.0571C19 65.504 19.4469 65.0571 20 65.0571C20.5531 65.0571 21 65.504 21 66.0571C21 68.263 22.7942 70.0571 25 70.0571C25.5531 70.0571 26 70.504 26 71.0571C26 71.6103 25.5531 72.0571 25 72.0571Z" fill="#53C5E2"/>
<path d="M65 72.0571C61.6911 72.0571 59 69.3661 59 66.0571C59 65.504 59.4469 65.0571 60 65.0571C60.5531 65.0571 61 65.504 61 66.0571C61 68.263 62.7942 70.0571 65 70.0571C67.2058 70.0571 69 68.263 69 66.0571C69 65.504 69.4469 65.0571 70 65.0571C70.5531 65.0571 71 65.504 71 66.0571C71 69.3661 68.3089 72.0571 65 72.0571Z" fill="#53C5E2"/>
<path d="M65.002 72.0571H25.002C24.4488 72.0571 24.002 71.6103 24.002 71.0571C24.002 70.504 24.4488 70.0571 25.002 70.0571H65.002C65.5551 70.0571 66.002 70.504 66.002 71.0571C66.002 71.6103 65.5551 72.0571 65.002 72.0571Z" fill="#53C5E2"/>
<path d="M60 67.0571C59.4469 67.0571 59 66.6103 59 66.0571V14.0571C59 13.504 59.4469 13.0571 60 13.0571C60.5531 13.0571 61 13.504 61 14.0571V66.0571C61 66.6103 60.5531 67.0571 60 67.0571Z" fill="#53C5E2"/>
<path d="M20 67.0571C19.4469 67.0571 19 66.6103 19 66.0571V14.0571C19 13.504 19.4469 13.0571 20 13.0571C20.5531 13.0571 21 13.504 21 14.0571V66.0571C21 66.6103 20.5531 67.0571 20 67.0571Z" fill="#53C5E2"/>
<path d="M70 67.0571H60C59.4469 67.0571 59 66.6103 59 66.0571C59 65.504 59.4469 65.0571 60 65.0571H70C70.5531 65.0571 71 65.504 71 66.0571C71 66.6103 70.5531 67.0571 70 67.0571Z" fill="#53C5E2"/>
<path d="M46 28.0571C42.141 28.0571 39 24.9161 39 21.0571C39 20.504 39.4469 20.0571 40 20.0571C40.5531 20.0571 41 20.504 41 21.0571C41 23.8143 43.2429 26.0571 46 26.0571C46.5531 26.0571 47 26.504 47 27.0571C47 27.6103 46.5531 28.0571 46 28.0571Z" fill="#53C5E2"/>
<path d="M34 28.0571C33.4469 28.0571 33 27.6103 33 27.0571C33 26.504 33.4469 26.0571 34 26.0571C36.7571 26.0571 39 23.8143 39 21.0571C39 20.504 39.4469 20.0571 40 20.0571C40.5531 20.0571 41 20.504 41 21.0571C41 24.9161 37.859 28.0571 34 28.0571Z" fill="#53C5E2"/>
<path d="M32 28.0571C30.3459 28.0571 29 26.7112 29 25.0571C29 24.504 29.4469 24.0571 30 24.0571C30.5531 24.0571 31 24.504 31 25.0571C31 25.6089 31.4482 26.0571 32 26.0571C32.5531 26.0571 33 26.504 33 27.0571C33 27.6103 32.5531 28.0571 32 28.0571Z" fill="#53C5E2"/>
<path d="M34 28.0571H32C31.4469 28.0571 31 27.6103 31 27.0571C31 26.504 31.4469 26.0571 32 26.0571H34C34.5531 26.0571 35 26.504 35 27.0571C35 27.6103 34.5531 28.0571 34 28.0571Z" fill="#53C5E2"/>
<path d="M30 39.0571C29.4469 39.0571 29 38.6103 29 38.0571V25.0571C29 24.504 29.4469 24.0571 30 24.0571C30.5531 24.0571 31 24.504 31 25.0571V38.0571C31 38.6103 30.5531 39.0571 30 39.0571Z" fill="#53C5E2"/>
<path d="M40 49.0583C39.4469 49.0583 39 48.6114 39 48.0583C39 46.9552 39.8969 46.0583 41 46.0583C41.5531 46.0583 42 46.5052 42 47.0583C42 47.6114 41.5531 48.0583 41 48.0583C41 48.6114 40.5531 49.0583 40 49.0583Z" fill="#53C5E2"/>
<path d="M40 49.0583C39.4469 49.0583 39 48.6114 39 48.0583V48.0565C38.4469 48.0565 38 47.6105 38 47.0574C38 46.5056 38.4469 46.0583 39 46.0583C40.1031 46.0583 41 46.9552 41 48.0583C41 48.6114 40.5531 49.0583 40 49.0583V49.0583Z" fill="#53C5E2"/>
<path d="M39 48.0571C33.4862 48.0571 29 43.571 29 38.0571C29 37.504 29.4469 37.0571 30 37.0571C30.5531 37.0571 31 37.504 31 38.0571C31 42.4683 34.5888 46.0571 39 46.0571C39.5531 46.0571 40 46.504 40 47.0571C40 47.6103 39.5531 48.0571 39 48.0571Z" fill="#53C5E2"/>
<path d="M48 28.0571C47.4469 28.0571 47 27.6103 47 27.0571C47 26.504 47.4469 26.0571 48 26.0571C48.5518 26.0571 49 25.6089 49 25.0571C49 24.504 49.4469 24.0571 50 24.0571C50.5531 24.0571 51 24.504 51 25.0571C51 26.7112 49.6541 28.0571 48 28.0571Z" fill="#53C5E2"/>
<path d="M48 28.0571H46C45.4469 28.0571 45 27.6103 45 27.0571C45 26.504 45.4469 26.0571 46 26.0571H48C48.5531 26.0571 49 26.504 49 27.0571C49 27.6103 48.5531 28.0571 48 28.0571Z" fill="#53C5E2"/>
<path d="M50 39.0571C49.4469 39.0571 49 38.6103 49 38.0571V25.0571C49 24.504 49.4469 24.0571 50 24.0571C50.5531 24.0571 51 24.504 51 25.0571V38.0571C51 38.6103 50.5531 39.0571 50 39.0571Z" fill="#53C5E2"/>
<path d="M41 48.0571C40.4469 48.0571 40 47.6103 40 47.0571C40 46.504 40.4469 46.0571 41 46.0571C45.4112 46.0571 49 42.4683 49 38.0571C49 37.504 49.4469 37.0571 50 37.0571C50.5531 37.0571 51 37.504 51 38.0571C51 43.571 46.5138 48.0571 41 48.0571Z" fill="#53C5E2"/>
<path d="M40 41.0571C39.4469 41.0571 39 40.6103 39 40.0571V32.0571C39 31.504 39.4469 31.0571 40 31.0571C40.5531 31.0571 41 31.504 41 32.0571V40.0571C41 40.6103 40.5531 41.0571 40 41.0571Z" fill="#53C5E2"/>
<path d="M52 55.0571H28C27.4469 55.0571 27 54.6103 27 54.0571C27 53.504 27.4469 53.0571 28 53.0571H52C52.5531 53.0571 53 53.504 53 54.0571C53 54.6103 52.5531 55.0571 52 55.0571Z" fill="#53C5E2"/>
<path d="M52 59.0571H28C27.4469 59.0571 27 58.6103 27 58.0571C27 57.504 27.4469 57.0571 28 57.0571H52C52.5531 57.0571 53 57.504 53 58.0571C53 58.6103 52.5531 59.0571 52 59.0571Z" fill="#53C5E2"/>
<path d="M45.0018 63.0571H35C34.4469 63.0571 34 62.6103 34 62.0571C34 61.504 34.4469 61.0571 35 61.0571H45.0018C45.555 61.0571 46.0018 61.504 46.0018 62.0571C46.0018 62.6103 45.555 63.0571 45.0018 63.0571Z" fill="#53C5E2"/>
</svg>
