<svg width="58" height="51" viewBox="0 0 58 51" fill="none" xmlns="http://www.w3.org/2000/svg">
<path d="M33.4579 17.36L42.4075 26.3096C43.7731 27.693 43.7579 29.9225 42.374 31.2877C41.0025 32.64 38.8003 32.64 37.4288 31.2877L37.4293 31.286L28.4797 22.3382L30.2909 20.5284L39.2408 29.4788C39.6172 29.8533 40.2252 29.8524 40.5998 29.477C40.9748 29.1006 40.9735 28.4921 40.598 28.1175L31.6484 19.1702L33.4579 17.36ZM22.7221 17.6787C23.0618 17.6787 23.4011 17.6506 23.7359 17.5948L24.8587 18.7167H24.86L26.6694 16.9073L26.3422 16.5801L27.7002 15.222L28.0275 15.5492L29.8373 13.7394L28.7154 12.6166C28.8301 11.9425 28.8301 11.2546 28.7154 10.5801C28.1534 7.27253 25.0163 5.04659 21.7087 5.60864L25.4386 9.33859L25.4284 9.34886C26.5194 10.6551 26.5194 12.5551 25.4284 13.8613C24.1824 15.3538 21.9623 15.5529 20.4703 14.3068L20.4605 14.3167L20.2328 14.0912L16.7292 10.5877C16.6717 10.9261 16.6426 11.2694 16.6426 11.6136C16.6467 14.9667 19.3686 17.6827 22.7221 17.6787L22.7221 17.6787ZM57.8009 1.36558V37.2056C57.8009 37.9123 57.2273 38.4855 56.5211 38.4855H33.4811V47.4452H39.8811V50.005H18.1211V47.4452H24.5211V38.4855H1.48106C0.774361 38.4855 0.201172 37.9118 0.201172 37.2056V1.36558C0.201172 0.658882 0.77483 0.0856934 1.48106 0.0856934H56.5211C57.2273 0.0856934 57.8009 0.658905 57.8009 1.36558ZM30.9209 39.1256H27.0807V47.4457H30.9209V39.1256ZM55.2409 2.64558H2.76094V35.9256H55.2409V2.64558ZM15.0741 32.2319C13.5764 30.7319 13.5764 28.3015 15.0741 26.8019L20.5045 21.3715C21.6558 20.2233 23.4059 19.9224 24.8745 20.6215L32.2705 13.2264L30.4607 11.4131L37.7045 5.98495L41.3251 9.60552L35.892 16.8458L34.0822 15.0359L26.6857 22.4315C27.3853 23.9003 27.0853 25.6502 25.9357 26.8015L20.5053 32.2327C19.0044 33.7292 16.5759 33.7292 15.0754 32.2327L15.0741 32.2319ZM34.0809 11.4136L35.8908 13.2243L38.1547 10.0564L37.2497 9.15332L34.0809 11.4136ZM16.8855 30.4227C17.386 30.9218 18.1963 30.9214 18.6963 30.4214L24.1262 24.991C24.6262 24.491 24.6262 23.6802 24.1262 23.1802C23.6262 22.6802 22.8155 22.6802 22.3155 23.1802L22.315 23.1816L16.8846 28.612C16.3851 29.1129 16.3851 29.9227 16.8855 30.4227H16.8855Z" fill="#53C5E2"/>
</svg>
