<svg width="80" height="80" viewBox="0 0 80 80" fill="none" xmlns="http://www.w3.org/2000/svg">
<path d="M33.8566 34.2049C33.9258 34.6116 34.278 34.9089 34.6901 34.9089H42.6641C43.1311 34.9089 43.5097 34.5304 43.5097 34.0634C43.5097 33.5964 43.1311 33.2179 42.6641 33.2179H35.4044L34.2834 26.6139C34.2164 26.2206 33.8838 25.9273 33.4852 25.9103C33.0838 25.8929 32.7303 26.1576 32.6307 26.5442L30.2173 35.9103L27.3977 29.6866C27.2655 29.3951 26.9803 29.2031 26.6602 29.1906C26.3441 29.1799 26.041 29.3478 25.8865 29.6281L23.9125 33.2174H16.7928C16.3258 33.2174 15.9473 33.596 15.9473 34.0629C15.9473 34.5299 16.3258 34.9085 16.7928 34.9085H24.4125C24.7209 34.9085 25.0049 34.7406 25.1535 34.4705L26.5544 31.9232L29.6674 38.7937C29.8053 39.0977 30.1075 39.2902 30.437 39.2902C30.4616 39.2902 30.4861 39.2893 30.5107 39.287C30.8678 39.2562 31.1669 39.0031 31.2562 38.6558L33.2794 30.8049L33.8566 34.2049Z" fill="#53C5E2"/>
<path d="M66.8007 67.0266L55.3001 55.5261C56.6381 53.4814 57.3577 51.0921 57.3577 48.5917C57.3577 45.1987 56.0364 42.009 53.6376 39.6099C53.5782 39.5506 53.5157 39.4943 53.455 39.4363V17.4706C53.455 17.0036 53.0765 16.625 52.6095 16.625L43.172 16.6255C43.0702 15.4273 42.064 14.4831 40.8399 14.4831L36.2314 14.4826C36.7131 13.8157 37.0002 12.9992 37.0002 12.1152C37.0002 9.87772 35.1796 8.05714 32.9417 8.05714C30.7037 8.05714 28.8832 9.87772 28.8832 12.1157C28.8832 12.9996 29.1702 13.8157 29.6519 14.4831H25.0434C23.8193 14.4831 22.813 15.4273 22.7113 16.6255H13.2752C12.8083 16.6255 12.4297 17.0041 12.4297 17.471V71.2116C12.4297 71.6786 12.8083 72.0571 13.2752 72.0571H52.6101C53.077 72.0571 53.4556 71.6786 53.4556 71.2116V61.1008L63.0913 70.7365C63.5872 71.232 64.2458 71.5053 64.9461 71.5053C65.6465 71.5053 66.3056 71.2321 66.801 70.7365C67.2965 70.2405 67.5697 69.582 67.5697 68.8817C67.5702 68.1808 67.297 67.5219 66.8014 67.0263L66.8007 67.0266ZM55.6663 48.5912C55.6663 51.5322 54.5208 54.2975 52.4413 56.3774C52.3158 56.5028 52.1872 56.6247 52.0569 56.7434C52.0386 56.7591 52.0198 56.7738 52.0029 56.7912C49.9806 58.6078 47.3949 59.6024 44.6556 59.6024C41.7145 59.6024 38.9493 58.4569 36.8698 56.3774C32.5766 52.0841 32.5766 45.0987 36.8698 40.8059C38.9493 38.7261 41.7145 37.5809 44.6556 37.5809C47.3958 37.5809 49.9823 38.576 52.0052 40.3938C52.0194 40.4086 52.036 40.4206 52.0516 40.4345C52.1842 40.555 52.3141 40.6786 52.4418 40.8059C54.5207 42.8853 55.6663 45.6506 55.6663 48.5916L55.6663 48.5912ZM30.5737 12.1158C30.5737 10.8104 31.6358 9.74833 32.9412 9.74833C34.2465 9.74833 35.3086 10.8104 35.3086 12.1158C35.3086 13.4211 34.2465 14.4832 32.9412 14.4832C31.6358 14.4827 30.5737 13.4211 30.5737 12.1158ZM25.0429 16.1743H40.8383C41.1972 16.1743 41.4896 16.4667 41.4896 16.8256C41.4896 19.9895 38.9156 22.5636 35.7512 22.5636H30.1289C26.9651 22.5636 24.391 19.9895 24.391 16.8256C24.391 16.4662 24.6834 16.1743 25.0423 16.1743H25.0429ZM51.7629 70.3663H14.1194V18.3171H22.8503C23.5427 21.7015 26.5431 24.2551 30.1293 24.2551H35.7516C39.3377 24.2551 42.3382 21.7015 43.0305 18.3171H51.7626V38.0623C49.68 36.6503 47.2261 35.8895 44.6546 35.8895C41.2617 35.8895 38.072 37.2108 35.6729 39.6096C30.7207 44.5623 30.7207 52.6199 35.6729 57.573C38.072 59.9721 41.2617 61.2931 44.6546 61.2931C47.1551 61.2931 49.5439 60.5735 51.589 59.2355L51.7631 59.4096L51.7629 70.3663ZM65.604 69.5408C65.2513 69.8935 64.6384 69.8935 64.2857 69.5408L53.4541 58.7092V57.7471C53.5148 57.6891 53.5768 57.6328 53.6367 57.5735C53.8581 57.352 54.0666 57.1221 54.2693 56.8877L65.6041 68.2226C65.7805 68.3989 65.8778 68.6329 65.8778 68.8815C65.8778 69.1306 65.7805 69.3646 65.6041 69.5409L65.604 69.5408Z" fill="#53C5E2"/>
</svg>
