<svg width="80" height="80" viewBox="0 0 80 80" fill="none" xmlns="http://www.w3.org/2000/svg">
<path d="M37.7298 35.4683V14.2792C37.7298 13.0229 36.7158 12.0089 35.4595 12.0089H14.2703C13.014 12.0089 12 13.0229 12 14.2792V35.4683C12 36.7245 13.014 37.7386 14.2703 37.7386H35.4595C36.7158 37.7386 37.7298 36.7245 37.7298 35.4683ZM26.9078 13.5216V18.2289L25.1067 17.6233C24.789 17.5174 24.7738 17.5777 22.8364 18.2289V13.5216H26.9078ZM13.5129 35.4683V14.2792C13.5129 13.8555 13.8459 13.5226 14.2695 13.5226H21.3075V19.289C21.3075 19.7127 21.6405 20.0456 22.0641 20.0456C22.2455 20.0456 22.1097 20.076 24.864 19.1527C27.6487 20.076 27.6943 20.1972 28.1028 19.8941C28.5264 19.5916 28.4205 19.8485 28.4205 13.5221H35.4585C35.8822 13.5221 36.2151 13.855 36.2151 14.2787V35.4677C36.2151 35.8914 35.8822 36.2243 35.4585 36.2243L14.2706 36.2248C13.8469 36.2248 13.514 35.8919 13.514 35.4683L13.5129 35.4683Z" fill="#53C5E2"/>
<path d="M22.5939 30.1713H16.3125C15.4799 30.1713 14.7988 30.8524 14.7988 31.685V33.5469C14.7988 34.3796 15.4799 35.0607 16.3125 35.0607H22.5939C23.4266 35.0607 24.1076 34.3796 24.1076 33.5469V31.685C24.1076 30.8524 23.4266 30.1713 22.5939 30.1713ZM22.5939 34.3035V33.5469H16.3125V31.685H22.5939V34.3035Z" fill="#53C5E2"/>
<path d="M65.731 42.2792H44.5418C43.2855 42.2792 42.2715 43.2932 42.2715 44.5495V65.7386C42.2715 66.9948 43.2855 68.0089 44.5418 68.0089H65.731C66.9873 68.0089 68.0013 66.9948 68.0013 65.7386V44.5495C68.0013 43.2932 66.9873 42.2792 65.731 42.2792ZM57.1793 43.7929V48.5002L55.3782 47.8946C55.0605 47.7887 55.0453 47.849 53.1079 48.5002V43.7929H57.1793ZM66.4876 65.7396C66.4876 66.1633 66.1547 66.4962 65.731 66.4962H44.5418C44.1181 66.4962 43.7852 66.1633 43.7852 65.7396V44.5505C43.7852 44.1269 44.1181 43.7939 44.5418 43.7939H51.5798V49.5604C51.5798 50.0747 52.0795 50.4381 52.5786 50.2719L55.1363 49.4241L57.694 50.2719C58.1784 50.4386 58.6928 50.0753 58.6928 49.5604V43.7939H65.7308C66.1545 43.7939 66.4874 44.1269 66.4874 44.5505V65.7396H66.4876Z" fill="#53C5E2"/>
<path d="M52.8669 60.4416H46.8125C45.9799 60.4416 45.2988 61.1227 45.2988 61.9553V63.8172C45.2988 64.6499 45.9799 65.331 46.8125 65.331H52.8669C53.6995 65.331 54.3806 64.6499 54.3806 63.8172V61.9553C54.3806 61.1227 53.6995 60.4416 52.8669 60.4416ZM52.8669 64.5738V63.8172H46.8125V61.9553H52.8669V64.5738Z" fill="#53C5E2"/>
<path d="M40.0003 21.8464C46.4783 21.8464 52.5929 25.4486 55.8172 31.0792L53.8343 31.6696C53.2743 31.8363 53.1076 32.5473 53.5317 32.9562C59.5404 38.4957 57.0431 36.195 61.1145 39.9339C61.5381 40.3276 62.2192 40.1153 62.3555 39.5705L64.9436 29.6115C65.0951 29.0516 64.565 28.5367 64.005 28.6882L61.7347 29.3541C57.6633 21.1055 49.2176 15.8075 39.9993 15.7919C39.8478 15.7919 39.636 15.8375 39.4698 16.019C39.1672 16.3215 39.2427 16.0793 39.2427 21.0891C39.2427 21.5128 39.5757 21.8457 39.9993 21.8457L40.0003 21.8464ZM40.7569 17.321C49.2934 17.6235 57.0435 22.7546 60.6448 30.5796C60.7964 30.9277 61.1896 31.0939 61.5378 30.988L63.1422 30.5188L61.2047 37.9651C58.8741 35.8311 60.2814 37.1173 55.5289 32.7434C57.33 32.2138 57.4359 32.2437 57.6026 31.8505C57.6933 31.6387 57.6781 31.4116 57.5874 31.215C54.3633 24.843 47.8098 20.6353 40.7416 20.3632V17.3363L40.7569 17.321Z" fill="#53C5E2"/>
<path d="M40.059 58.1713H39.9987C33.5359 58.1713 27.4516 54.5992 24.2128 48.9842L26.1958 48.3939C26.771 48.2271 26.9225 47.5009 26.4831 47.1072C19.8085 40.9925 23.0624 43.9744 18.8699 40.1599C18.4462 39.7814 17.7651 39.9785 17.6288 40.5385L15.0711 50.4975C14.9196 51.0574 15.4497 51.5723 16.0249 51.4056L18.2952 50.7245C22.3818 58.9432 30.8423 64.2101 40.0306 64.2101C40.4998 64.2101 40.8328 63.8619 40.8328 63.4535V58.9129C40.8176 58.4892 40.4694 58.1563 40.061 58.1563L40.059 58.1713ZM19.3835 49.5138C19.232 49.1809 18.8539 48.9994 18.4754 49.1054L16.871 49.5898L18.7779 42.1282C21.3964 44.5196 19.7919 43.0515 24.4689 47.3347C22.6678 47.8643 22.5619 47.8344 22.3952 48.2428C22.3045 48.4546 22.3197 48.6817 22.4104 48.8783C25.6644 55.2503 32.2185 59.4276 39.286 59.6851V62.712C30.7495 62.4393 22.9852 57.3236 19.3669 49.5144L19.3835 49.5138Z" fill="#53C5E2"/>
<path d="M15.7839 27.901C16.2076 27.901 16.5405 27.5681 16.5405 27.1444V21.0901C16.5405 20.6664 16.2076 20.3335 15.7839 20.3335C15.3603 20.3335 15.0273 20.6664 15.0273 21.0901V27.1444C15.0273 27.5681 15.3603 27.901 15.7839 27.901Z" fill="#53C5E2"/>
<path d="M15.7839 18.8198C16.2076 18.8198 16.5405 18.4868 16.5405 18.0632V16.5495C16.5405 16.1258 16.2076 15.7929 15.7839 15.7929C15.3603 15.7929 15.0273 16.1258 15.0273 16.5495V18.0632C15.0273 18.4868 15.3603 18.8198 15.7839 18.8198Z" fill="#53C5E2"/>
<path d="M46.0554 58.1713C46.4791 58.1713 46.812 57.8384 46.812 57.4147V51.3604C46.812 50.9367 46.4791 50.6038 46.0554 50.6038C45.6318 50.6038 45.2988 50.9367 45.2988 51.3604V57.4147C45.2988 57.8384 45.6318 58.1713 46.0554 58.1713Z" fill="#53C5E2"/>
<path d="M46.0554 49.0901C46.4791 49.0901 46.812 48.7572 46.812 48.3335V46.8198C46.812 46.3961 46.4791 46.0632 46.0554 46.0632C45.6318 46.0632 45.2988 46.3961 45.2988 46.8198V48.3335C45.2988 48.7572 45.6318 49.0901 46.0554 49.0901Z" fill="#53C5E2"/>
</svg>
