<svg width="58" height="60" viewBox="0 0 58 60" fill="none" xmlns="http://www.w3.org/2000/svg">
<path d="M2.16992 13.9958V11.5342H12.7547V1.68823H15.2159V13.9957L2.16992 13.9958Z" fill="#53C5E2"/>
<path d="M43.7699 59.5341H0.693359V12.2724L6.10856 5.99555L11.155 0.457153H45.0007V37.3806L43.8931 37.5038C38.9699 37.9958 35.1547 42.1806 35.1547 47.2265C35.1547 52.2725 38.9699 56.4574 43.8931 56.9497L45.0007 57.0725V59.4109L43.7699 59.5341ZM3.15507 57.0725H37.6168C34.6627 54.8573 32.6936 51.2877 32.6936 47.2265C32.6936 41.319 36.8784 36.2725 42.5395 35.1648V2.9191H12.263L7.95542 7.5959L3.15542 13.1343L3.15507 57.0725Z" fill="#53C5E2"/>
<path d="M45.001 59.534C44.5086 59.534 44.1394 59.534 43.647 59.4108C37.3702 58.7956 32.6934 53.5033 32.6934 47.2268C32.6934 40.9504 37.3702 35.6577 43.6474 35.0417C44.1398 35.0417 44.509 34.9185 45.0015 34.9185C51.7706 34.9185 57.3089 40.4569 57.3089 47.2259C57.3085 53.9955 51.77 59.5345 45.0003 59.5345L45.001 59.534ZM45.001 37.3809C44.6318 37.3809 44.2626 37.3809 43.8934 37.5041C38.9702 37.9961 35.155 42.1809 35.155 47.2268C35.155 52.2728 38.9702 56.4577 43.8934 56.95C44.2626 56.95 44.6318 57.0732 45.001 57.0732C50.4162 57.0732 54.847 52.6424 54.847 47.2273C54.847 41.8112 50.4161 37.3809 45.001 37.3809V37.3809Z" fill="#53C5E2"/>
<path d="M10.5391 17.6884H38.7242V20.15H10.5391V17.6884Z" fill="#53C5E2"/>
<path d="M10.5391 23.8416H38.7242V26.3032H10.5391V23.8416Z" fill="#53C5E2"/>
<path d="M10.5391 29.9957H38.7242V32.4573H10.5391V29.9957Z" fill="#53C5E2"/>
<path d="M10.5391 36.15H33.9242V38.6116H10.5391V36.15Z" fill="#53C5E2"/>
<path d="M10.5391 42.3032H31.4625V44.7648H10.5391V42.3032Z" fill="#53C5E2"/>
<path d="M41.3074 53.2575L37.4922 47.7191L39.4613 46.2418L41.7997 49.6882L50.7845 42.1807L52.3845 44.0266L41.3074 53.2575Z" fill="#53C5E2"/>
</svg>
