<svg width="50" height="50" viewBox="0 0 50 50" fill="none" xmlns="http://www.w3.org/2000/svg">
<rect width="50" height="50" rx="6" fill="#53C5E2"/>
<path fill-rule="evenodd" clip-rule="evenodd" d="M28.8621 27.5888L33.6657 32.3923C33.8345 32.5613 33.9293 32.7904 33.9293 33.0293C33.9292 33.2681 33.8342 33.4972 33.6653 33.666C33.4963 33.8348 33.2672 33.9296 33.0283 33.9296C32.7895 33.9295 32.5604 33.8345 32.3916 33.6655L27.588 28.862C26.1521 29.9742 24.3463 30.4976 22.5381 30.3257C20.73 30.1538 19.0552 29.2995 17.8545 27.9366C16.6539 26.5738 16.0175 24.8047 16.0749 22.9892C16.1322 21.1738 16.8791 19.4485 18.1634 18.1641C19.4477 16.8798 21.1731 16.133 22.9885 16.0756C24.8039 16.0182 26.573 16.6546 27.9359 17.8553C29.2988 19.0559 30.153 20.7307 30.3249 22.5389C30.4968 24.347 29.9735 26.1528 28.8612 27.5888H28.8621ZM23.2148 28.5718C24.6356 28.5718 25.9982 28.0074 27.0029 27.0027C28.0075 25.9981 28.572 24.6355 28.572 23.2147C28.572 21.7938 28.0075 20.4312 27.0029 19.4266C25.9982 18.4219 24.6356 17.8575 23.2148 17.8575C21.794 17.8575 20.4314 18.4219 19.4267 19.4266C18.4221 20.4312 17.8577 21.7938 17.8577 23.2147C17.8577 24.6355 18.4221 25.9981 19.4267 27.0027C20.4314 28.0074 21.794 28.5718 23.2148 28.5718ZM25.8934 24.1075H24.1077V25.8932C24.1077 26.13 24.0136 26.3571 23.8462 26.5246C23.6787 26.692 23.4516 26.7861 23.2148 26.7861C22.978 26.7861 22.7509 26.692 22.5835 26.5246C22.416 26.3571 22.322 26.13 22.322 25.8932V24.1075H20.5362C20.2994 24.1075 20.0723 24.0134 19.9049 23.846C19.7375 23.6786 19.6434 23.4515 19.6434 23.2147C19.6434 22.9779 19.7375 22.7507 19.9049 22.5833C20.0723 22.4159 20.2994 22.3218 20.5362 22.3218H22.322V20.5361C22.322 20.2993 22.416 20.0722 22.5835 19.9047C22.7509 19.7373 22.978 19.6432 23.2148 19.6432C23.4516 19.6432 23.6787 19.7373 23.8462 19.9047C24.0136 20.0722 24.1077 20.2993 24.1077 20.5361V22.3218H25.8934C26.1302 22.3218 26.3573 22.4159 26.5247 22.5833C26.6922 22.7507 26.7862 22.9779 26.7862 23.2147C26.7862 23.4515 26.6922 23.6786 26.5247 23.846C26.3573 24.0134 26.1302 24.1075 25.8934 24.1075Z" fill="white"/>
</svg>
