<svg width="13" height="13" viewBox="0 0 13 13" fill="none" xmlns="http://www.w3.org/2000/svg">
<path d="M4.93934 1.66076L5.40358 1.47507L5.40358 1.47507L4.93934 1.66076ZM5.59825 3.30804L5.13401 3.49373L5.13401 3.49373L5.59825 3.30804ZM5.39801 4.57248L5.0139 4.25239L5.01389 4.25241L5.39801 4.57248ZM5.0434 4.99805L5.42751 5.31815L5.42752 5.31813L5.0434 4.99805ZM5.1196 6.68219L4.76605 7.03574L4.76606 7.03576L5.1196 6.68219ZM6.31784 7.88034L6.67139 7.52679L6.67138 7.52677L6.31784 7.88034ZM8.00192 7.9567L7.68189 7.57254L7.68183 7.57259L8.00192 7.9567ZM8.42762 7.60207L8.74765 7.98623L8.74771 7.98618L8.42762 7.60207ZM9.69196 7.4018L9.87766 6.93757L9.87765 6.93756L9.69196 7.4018ZM11.3391 8.06071L11.1534 8.52494L11.1534 8.52495L11.3391 8.06071ZM12.1249 9.22126H11.6249V9.22128L12.1249 9.22126ZM12.125 10.9408H12.625V10.9408L12.125 10.9408ZM3.77875 1.375C4.08543 1.375 4.36121 1.56171 4.4751 1.84646L5.40358 1.47507C5.13782 0.810664 4.49433 0.375 3.77875 0.375V1.375ZM4.4751 1.84646L5.13401 3.49373L6.06249 3.12235L5.40358 1.47507L4.4751 1.84646ZM5.13401 3.49373C5.23634 3.74957 5.19021 4.04081 5.0139 4.25239L5.78212 4.89257C6.19366 4.39872 6.30118 3.71909 6.06248 3.12234L5.13401 3.49373ZM5.01389 4.25241L4.65927 4.67798L5.42752 5.31813L5.78213 4.89256L5.01389 4.25241ZM4.65929 4.67796C4.07994 5.37317 4.12594 6.39564 4.76605 7.03574L5.47316 6.32864C5.19897 6.05445 5.17909 5.61625 5.42751 5.31815L4.65929 4.67796ZM4.76606 7.03576L5.9643 8.23391L6.67138 7.52677L5.47314 6.32862L4.76606 7.03576ZM5.96429 8.23389C6.60431 8.87392 7.62671 8.92023 8.32202 8.34081L7.68183 7.57259C7.38382 7.82093 6.94567 7.80106 6.67139 7.52679L5.96429 8.23389ZM8.32196 8.34086L8.74765 7.98623L8.10758 7.21791L7.68189 7.57254L8.32196 8.34086ZM8.74771 7.98618C8.95932 7.80984 9.25046 7.76372 9.50626 7.86604L9.87765 6.93756C9.28087 6.69885 8.60135 6.80644 8.10753 7.21796L8.74771 7.98618ZM9.50625 7.86603L11.1534 8.52494L11.5248 7.59648L9.87766 6.93757L9.50625 7.86603ZM11.1534 8.52495C11.4382 8.63887 11.6249 8.91464 11.6249 9.22126H12.6249C12.6249 8.50563 12.1892 7.86221 11.5248 7.59647L11.1534 8.52495ZM11.6249 9.22128L11.625 10.9408L12.625 10.9408L12.6249 9.22125L11.6249 9.22128ZM11.625 10.9408C11.625 11.3187 11.3188 11.625 10.9409 11.625V12.625C11.8711 12.625 12.625 11.871 12.625 10.9408H11.625ZM10.9409 11.625C5.65787 11.625 1.375 7.34226 1.375 2.05923H0.375C0.375 7.89457 5.10561 12.625 10.9409 12.625V11.625ZM1.375 2.05923C1.375 1.68134 1.68134 1.375 2.05921 1.375V0.375C1.12903 0.375 0.375 1.12908 0.375 2.05923H1.375ZM2.05921 1.375H3.77875V0.375H2.05921V1.375Z" fill="white"/>
</svg>
