<svg width="14" height="14" viewBox="0 0 14 14" fill="none" xmlns="http://www.w3.org/2000/svg">
<path d="M12.6491 1.7336C12.5277 1.63075 12.3808 1.56271 12.2238 1.53671C12.0668 1.51071 11.9058 1.52772 11.7577 1.58594L1.66239 5.55079C1.48532 5.61825 1.33534 5.74205 1.23553 5.90312C1.13573 6.06419 1.09163 6.25361 1.11005 6.4422C1.12647 6.63071 1.20357 6.80882 1.32978 6.94982C1.45598 7.09081 1.6245 7.1871 1.81005 7.22423L4.37489 7.73282V10.9375C4.3748 11.1109 4.42621 11.2804 4.5226 11.4245C4.619 11.5686 4.75602 11.6808 4.9163 11.7469C5.02237 11.7896 5.13555 11.8118 5.24989 11.8125C5.36481 11.8129 5.47866 11.7904 5.58477 11.7463C5.69088 11.7021 5.78712 11.6373 5.86786 11.5555L7.28974 10.1391L9.43896 12.0313C9.59762 12.1712 9.80162 12.2489 10.0132 12.25C10.1062 12.2519 10.1988 12.2371 10.2866 12.2063C10.4309 12.1606 10.5608 12.0781 10.6634 11.9668C10.7661 11.8555 10.8379 11.7194 10.8718 11.5719L12.928 2.5922C12.964 2.43725 12.957 2.27543 12.9078 2.12415C12.8587 1.97287 12.7692 1.83785 12.6491 1.7336ZM4.70848 6.90704L1.98505 6.36563L9.61942 3.36329L4.70848 6.90704ZM5.24989 10.9375V8.34532L6.62802 9.55938L5.24989 10.9375ZM10.0186 11.375L5.51239 7.41016L12.0038 2.72344L10.0186 11.375Z" fill="white"/>
</svg>
