<svg width="24" height="24" viewBox="0 0 24 24" fill="none" xmlns="http://www.w3.org/2000/svg">
<path d="M21.6843 2.9719C21.4762 2.79558 21.2242 2.67894 20.9551 2.63437C20.6861 2.5898 20.41 2.61896 20.1561 2.71877L2.84988 9.51565C2.54633 9.6313 2.28922 9.84352 2.11812 10.1196C1.94703 10.3958 1.87144 10.7205 1.90301 11.0438C1.93117 11.3669 2.06333 11.6723 2.27969 11.914C2.49604 12.1557 2.78492 12.3207 3.10301 12.3844L7.49988 13.2563V18.75C7.49973 19.0472 7.58786 19.3378 7.75311 19.5848C7.91835 19.8318 8.15325 20.0242 8.42801 20.1375C8.60985 20.2107 8.80387 20.2489 8.99988 20.25C9.19689 20.2507 9.39206 20.2121 9.57397 20.1364C9.75587 20.0608 9.92085 19.9496 10.0593 19.8094L12.4968 17.3813L16.1811 20.625C16.4531 20.8649 16.8028 20.9981 17.1655 21C17.325 21.0033 17.4838 20.9779 17.6343 20.925C17.8817 20.8467 18.1043 20.7052 18.2803 20.5145C18.4562 20.3238 18.5793 20.0904 18.6374 19.8375L22.1624 4.44377C22.224 4.17815 22.212 3.90075 22.1278 3.64141C22.0436 3.38207 21.8902 3.15061 21.6843 2.9719ZM8.07176 11.8406L3.40301 10.9125L16.4905 5.76565L8.07176 11.8406ZM8.99988 18.75V14.3063L11.3624 16.3875L8.99988 18.75ZM17.1749 19.5L9.44988 12.7031L20.578 4.66877L17.1749 19.5Z" fill="white"/>
</svg>
