<svg width="14" height="22" viewBox="0 0 14 22" fill="none" xmlns="http://www.w3.org/2000/svg">
<path fill-rule="evenodd" clip-rule="evenodd" d="M7.00003 21.5C6.80112 21.5 6.61035 21.421 6.4697 21.2803C6.32905 21.1397 6.25003 20.9489 6.25003 20.75L6.25003 3.0605L1.53103 7.781C1.3902 7.92183 1.19919 8.00095 1.00003 8.00095C0.800866 8.00095 0.60986 7.92183 0.46903 7.781C0.3282 7.64017 0.249083 7.44916 0.249083 7.25C0.249083 7.05084 0.3282 6.85983 0.46903 6.719L6.46903 0.719001C6.5387 0.649156 6.62146 0.593742 6.71258 0.555932C6.8037 0.518123 6.90138 0.49866 7.00003 0.49866C7.09868 0.49866 7.19636 0.518123 7.28748 0.555932C7.3786 0.593742 7.46136 0.649156 7.53103 0.719001L13.531 6.719C13.6719 6.85983 13.751 7.05084 13.751 7.25C13.751 7.44916 13.6719 7.64017 13.531 7.781C13.3902 7.92183 13.1992 8.00095 13 8.00095C12.8009 8.00095 12.6099 7.92183 12.469 7.781L7.75003 3.0605L7.75003 20.75C7.75003 20.9489 7.67101 21.1397 7.53036 21.2803C7.38971 21.421 7.19894 21.5 7.00003 21.5Z" fill="white"/>
</svg>
