<svg width="20" height="23" viewBox="0 0 20 23" fill="none" xmlns="http://www.w3.org/2000/svg">
<path d="M17.0045 4.36191C15.1339 2.4752 12.6429 1.4375 9.99554 1.4375C4.53125 1.4375 0.0848214 5.91172 0.0848214 11.4102C0.0848214 13.1666 0.540179 14.8826 1.40625 16.3965L0 21.5625L5.25446 20.1744C6.70089 20.9695 8.33036 21.3873 9.99107 21.3873H9.99554C15.4554 21.3873 20 16.9131 20 11.4146C20 8.75078 18.875 6.24863 17.0045 4.36191ZM9.99554 19.7072C8.51339 19.7072 7.0625 19.3074 5.79911 18.5527L5.5 18.373L2.38393 19.1951L3.21429 16.1359L3.01786 15.8215C2.19196 14.5008 1.75893 12.9779 1.75893 11.4102C1.75893 6.8416 5.45536 3.12207 10 3.12207C12.2009 3.12207 14.2679 3.98457 15.8214 5.55234C17.375 7.12012 18.3304 9.2 18.3259 11.4146C18.3259 15.9877 14.5357 19.7072 9.99554 19.7072ZM14.5134 13.499C14.2679 13.3732 13.0491 12.7713 12.8214 12.6904C12.5938 12.6051 12.4286 12.5646 12.2634 12.8162C12.0982 13.0678 11.625 13.6248 11.4777 13.7955C11.3348 13.9617 11.1875 13.9842 10.942 13.8584C9.48661 13.1262 8.53125 12.5512 7.57143 10.8936C7.31696 10.4533 7.82589 10.4848 8.29911 9.53242C8.37946 9.36621 8.33929 9.22246 8.27679 9.09668C8.21429 8.9709 7.71875 7.74453 7.51339 7.2459C7.3125 6.76074 7.10714 6.82812 6.95536 6.81914C6.8125 6.81016 6.64732 6.81016 6.48214 6.81016C6.31696 6.81016 6.04911 6.87305 5.82143 7.12012C5.59375 7.37168 4.95536 7.97363 4.95536 9.2C4.95536 10.4264 5.84375 11.6123 5.96429 11.7785C6.08929 11.9447 7.70982 14.4604 10.1964 15.543C11.7679 16.2258 12.3839 16.2842 13.1696 16.1674C13.6473 16.0955 14.6339 15.5654 14.8393 14.9814C15.0446 14.3975 15.0446 13.8988 14.9821 13.7955C14.9241 13.6832 14.7589 13.6203 14.5134 13.499Z" fill="white"/>
</svg>
