<svg width="12" height="15" viewBox="0 0 12 15" fill="none" xmlns="http://www.w3.org/2000/svg">
<path d="M10.2027 3.01715C9.08036 1.88511 7.58571 1.2625 5.99732 1.2625C2.71875 1.2625 0.0508929 3.94703 0.0508929 7.24609C0.0508929 8.29996 0.324107 9.32957 0.84375 10.2379L0 13.3375L3.15268 12.5046C4.02054 12.9817 4.99821 13.2324 5.99464 13.2324H5.99732C9.27321 13.2324 12 10.5478 12 7.24879C12 5.65047 11.325 4.14918 10.2027 3.01715V3.01715ZM5.99732 12.2243C5.10804 12.2243 4.2375 11.9845 3.47946 11.5316L3.3 11.4238L1.43036 11.9171L1.92857 10.0816L1.81071 9.89289C1.31518 9.10047 1.05536 8.18675 1.05536 7.24609C1.05536 4.50496 3.27321 2.27324 6 2.27324C7.32054 2.27324 8.56071 2.79074 9.49286 3.7314C10.425 4.67207 10.9982 5.92 10.9955 7.24879C10.9955 9.99261 8.72143 12.2243 5.99732 12.2243V12.2243ZM8.70804 8.49941C8.56071 8.42394 7.82946 8.06277 7.69286 8.01425C7.55625 7.96304 7.45714 7.93879 7.35804 8.08972C7.25893 8.24066 6.975 8.57488 6.88661 8.6773C6.80089 8.77703 6.7125 8.7905 6.56518 8.71504C5.69196 8.2757 5.11875 7.9307 4.54286 6.93613C4.39018 6.67199 4.69554 6.69086 4.97946 6.11945C5.02768 6.01972 5.00357 5.93347 4.96607 5.858C4.92857 5.78254 4.63125 5.04672 4.50804 4.74754C4.3875 4.45644 4.26429 4.49687 4.17321 4.49148C4.0875 4.48609 3.98839 4.48609 3.88929 4.48609C3.79018 4.48609 3.62946 4.52383 3.49286 4.67207C3.35625 4.823 2.97321 5.18418 2.97321 5.92C2.97321 6.65582 3.50625 7.36738 3.57857 7.46711C3.65357 7.56683 4.62589 9.07621 6.11786 9.72578C7.06071 10.1355 7.43036 10.1705 7.90179 10.1004C8.18839 10.0573 8.78036 9.73925 8.90357 9.38886C9.02679 9.03847 9.02679 8.73929 8.98929 8.6773C8.95446 8.60992 8.85536 8.57218 8.70804 8.49941Z" fill="white"/>
</svg>
