<svg width="7" height="12" viewBox="0 0 7 12" fill="none" xmlns="http://www.w3.org/2000/svg">
<path d="M1.70711 0.626063C1.31658 0.235539 0.683418 0.235539 0.292894 0.626063C-0.0976307 1.01659 -0.0976307 1.64975 0.292894 2.04028L1.70711 0.626063ZM5.66667 5.99984L6.37377 6.70694C6.7643 6.31642 6.7643 5.68325 6.37377 5.29273L5.66667 5.99984ZM0.292893 9.9594C-0.0976311 10.3499 -0.0976311 10.9831 0.292893 11.3736C0.683417 11.7641 1.31658 11.7641 1.70711 11.3736L0.292893 9.9594ZM0.292894 2.04028L4.95956 6.70694L6.37377 5.29273L1.70711 0.626063L0.292894 2.04028ZM4.95956 5.29273L0.292893 9.9594L1.70711 11.3736L6.37377 6.70694L4.95956 5.29273Z" fill="white"/>
</svg>
